%TF.GenerationSoftware,KiCad,Pcbnew,(5.99.0-8090-ga1d7a959f7)*%
%TF.CreationDate,2021-08-13T15:37:55+01:00*%
%TF.ProjectId,conio-b,636f6e69-6f2d-4622-9e6b-696361645f70,rev?*%
%TF.SameCoordinates,Original*%
%TF.FileFunction,Soldermask,Top*%
%TF.FilePolarity,Negative*%
%FSLAX46Y46*%
G04 Gerber Fmt 4.6, Leading zero omitted, Abs format (unit mm)*
G04 Created by KiCad (PCBNEW (5.99.0-8090-ga1d7a959f7)) date 2021-08-13 15:37:55*
%MOMM*%
%LPD*%
G01*
G04 APERTURE LIST*
G04 Aperture macros list*
%AMRoundRect*
0 Rectangle with rounded corners*
0 $1 Rounding radius*
0 $2 $3 $4 $5 $6 $7 $8 $9 X,Y pos of 4 corners*
0 Add a 4 corners polygon primitive as box body*
4,1,4,$2,$3,$4,$5,$6,$7,$8,$9,$2,$3,0*
0 Add four circle primitives for the rounded corners*
1,1,$1+$1,$2,$3,0*
1,1,$1+$1,$4,$5,0*
1,1,$1+$1,$6,$7,0*
1,1,$1+$1,$8,$9,0*
0 Add four rect primitives between the rounded corners*
20,1,$1+$1,$2,$3,$4,$5,0*
20,1,$1+$1,$4,$5,$6,$7,0*
20,1,$1+$1,$6,$7,$8,$9,0*
20,1,$1+$1,$8,$9,$2,$3,0*%
G04 Aperture macros list end*
%ADD10RoundRect,0.150000X0.150000X-0.587500X0.150000X0.587500X-0.150000X0.587500X-0.150000X-0.587500X0*%
%ADD11RoundRect,0.125000X-0.125000X0.762500X-0.125000X-0.762500X0.125000X-0.762500X0.125000X0.762500X0*%
%ADD12C,3.500000*%
%ADD13C,3.550000*%
%ADD14R,1.500000X0.400000*%
%ADD15RoundRect,0.237500X0.237500X-0.250000X0.237500X0.250000X-0.237500X0.250000X-0.237500X-0.250000X0*%
%ADD16C,6.000000*%
%ADD17C,2.400000*%
%ADD18RoundRect,0.237500X-0.237500X0.300000X-0.237500X-0.300000X0.237500X-0.300000X0.237500X0.300000X0*%
%ADD19R,1.350000X1.350000*%
%ADD20O,1.350000X1.350000*%
%ADD21RoundRect,0.237500X0.237500X-0.300000X0.237500X0.300000X-0.237500X0.300000X-0.237500X-0.300000X0*%
%ADD22R,1.700000X1.700000*%
%ADD23O,1.700000X1.700000*%
%ADD24C,3.000000*%
%ADD25RoundRect,0.250001X-0.499999X-0.499999X0.499999X-0.499999X0.499999X0.499999X-0.499999X0.499999X0*%
%ADD26C,1.500000*%
%ADD27C,2.200000*%
%ADD28C,1.800000*%
G04 APERTURE END LIST*
D10*
%TO.C,D2*%
X150868750Y-104025000D03*
X152768750Y-104025000D03*
X151818750Y-102150000D03*
%TD*%
%TO.C,JP1*%
G36*
X174068750Y-98524999D02*
G01*
X174068750Y-98025000D01*
X174073717Y-98025000D01*
X174075182Y-97945059D01*
X174117457Y-97809744D01*
X174196013Y-97691734D01*
X174304532Y-97600514D01*
X174434291Y-97543419D01*
X174568751Y-97525836D01*
X174568751Y-97525000D01*
X175068750Y-97525001D01*
X175068750Y-97525837D01*
X175074859Y-97525038D01*
X175214936Y-97546849D01*
X175343261Y-97607097D01*
X175449519Y-97700941D01*
X175525167Y-97820836D01*
X175564124Y-97957143D01*
X175563709Y-98025000D01*
X175568750Y-98025000D01*
X175568749Y-98525000D01*
X174068750Y-98524999D01*
G37*
G36*
X175563709Y-99325000D02*
G01*
X175563258Y-99398905D01*
X175522639Y-99534726D01*
X175445531Y-99653688D01*
X175338134Y-99746226D01*
X175209082Y-99804903D01*
X175068749Y-99825000D01*
X174568750Y-99824999D01*
X174556534Y-99824850D01*
X174416733Y-99801330D01*
X174289154Y-99739518D01*
X174184050Y-99644383D01*
X174109873Y-99523573D01*
X174072584Y-99386800D01*
X174073717Y-99325000D01*
X174068750Y-99325000D01*
X174068751Y-98825000D01*
X175568750Y-98825001D01*
X175568750Y-99325000D01*
X175563709Y-99325000D01*
G37*
%TD*%
D11*
%TO.C,U1*%
X178843750Y-95262500D03*
X178193750Y-95262500D03*
X177543750Y-95262500D03*
X176893750Y-95262500D03*
X176243750Y-95262500D03*
X175593750Y-95262500D03*
X174943750Y-95262500D03*
X174293750Y-95262500D03*
X174293750Y-102087500D03*
X174943750Y-102087500D03*
X175593750Y-102087500D03*
X176243750Y-102087500D03*
X176893750Y-102087500D03*
X177543750Y-102087500D03*
X178193750Y-102087500D03*
X178843750Y-102087500D03*
%TD*%
D12*
%TO.C,H2*%
X118068750Y-110087500D03*
X125568750Y-115087500D03*
X125568750Y-110087500D03*
D13*
X118068750Y-115087500D03*
%TD*%
D14*
%TO.C,Q2*%
X152488750Y-90937500D03*
X152488750Y-91587500D03*
X152488750Y-92237500D03*
X155148750Y-92237500D03*
X155148750Y-91587500D03*
X155148750Y-90937500D03*
%TD*%
D15*
%TO.C,R2*%
X144818750Y-99000000D03*
X144818750Y-97175000D03*
%TD*%
D16*
%TO.C,J1*%
X135323750Y-109837500D03*
X160313750Y-109837500D03*
D17*
X142278750Y-108417500D03*
X145048750Y-108417500D03*
X147818750Y-108417500D03*
X150588750Y-108417500D03*
X153358750Y-108417500D03*
X143663750Y-111257500D03*
X146433750Y-111257500D03*
X149203750Y-111257500D03*
X151973750Y-111257500D03*
%TD*%
D15*
%TO.C,R3*%
X151818750Y-99000000D03*
X151818750Y-97175000D03*
%TD*%
D12*
%TO.C,H1*%
X177568750Y-115087500D03*
D13*
X170068750Y-115087500D03*
D12*
X177568750Y-110087500D03*
X170068750Y-110087500D03*
%TD*%
D18*
%TO.C,C3*%
X176318750Y-90725000D03*
X176318750Y-92450000D03*
%TD*%
D14*
%TO.C,Q1*%
X147648750Y-92237500D03*
X147648750Y-91587500D03*
X147648750Y-90937500D03*
X144988750Y-90937500D03*
X144988750Y-91587500D03*
X144988750Y-92237500D03*
%TD*%
D15*
%TO.C,R4*%
X153818750Y-88500000D03*
X153818750Y-86675000D03*
%TD*%
D18*
%TO.C,C2*%
X178068750Y-104475000D03*
X178068750Y-106200000D03*
%TD*%
D10*
%TO.C,D1*%
X145368750Y-104025000D03*
X147268750Y-104025000D03*
X146318750Y-102150000D03*
%TD*%
%TO.C,JP2*%
G36*
X177968751Y-97925000D02*
G01*
X178468750Y-97925000D01*
X178468750Y-97929967D01*
X178548691Y-97931432D01*
X178684006Y-97973707D01*
X178802016Y-98052262D01*
X178893236Y-98160782D01*
X178950331Y-98290541D01*
X178967914Y-98425001D01*
X178968750Y-98425001D01*
X178968749Y-98925000D01*
X178967913Y-98925000D01*
X178968712Y-98931109D01*
X178946901Y-99071186D01*
X178886653Y-99199511D01*
X178792809Y-99305769D01*
X178672914Y-99381417D01*
X178536607Y-99420374D01*
X178468750Y-99419959D01*
X178468750Y-99425000D01*
X177968750Y-99424999D01*
X177968751Y-97925000D01*
G37*
G36*
X177168750Y-99419959D02*
G01*
X177094845Y-99419508D01*
X176959024Y-99378889D01*
X176840062Y-99301782D01*
X176747524Y-99194384D01*
X176688847Y-99065332D01*
X176668750Y-98924999D01*
X176668751Y-98425000D01*
X176668900Y-98412784D01*
X176692420Y-98272983D01*
X176754232Y-98145404D01*
X176849367Y-98040300D01*
X176970177Y-97966123D01*
X177106950Y-97928834D01*
X177168750Y-97929967D01*
X177168750Y-97925000D01*
X177668750Y-97925001D01*
X177668749Y-99425000D01*
X177168750Y-99425000D01*
X177168750Y-99419959D01*
G37*
%TD*%
D19*
%TO.C,J3*%
X136818750Y-87087500D03*
D20*
X136818750Y-85087500D03*
X138818750Y-87087500D03*
X138818750Y-85087500D03*
X140818750Y-87087500D03*
X140818750Y-85087500D03*
%TD*%
D15*
%TO.C,R5*%
X149318750Y-99000000D03*
X149318750Y-97175000D03*
%TD*%
%TO.C,R1*%
X147318750Y-99000000D03*
X147318750Y-97175000D03*
%TD*%
D21*
%TO.C,C1*%
X180568750Y-92450000D03*
X180568750Y-90725000D03*
%TD*%
D15*
%TO.C,R6*%
X142818750Y-99000000D03*
X142818750Y-97175000D03*
%TD*%
D22*
%TO.C,J4*%
X179068750Y-85087500D03*
D23*
X176528750Y-85087500D03*
X173988750Y-85087500D03*
%TD*%
D21*
%TO.C,C4*%
X179068750Y-92450000D03*
X179068750Y-90725000D03*
%TD*%
D24*
%TO.C,J2*%
X125818750Y-87767500D03*
D25*
X124318750Y-92087500D03*
D26*
X127318750Y-92087500D03*
X124318750Y-95087500D03*
X127318750Y-95087500D03*
%TD*%
D21*
%TO.C,C5*%
X174818750Y-92450000D03*
X174818750Y-90725000D03*
%TD*%
D27*
%TO.C,SW1*%
X185813750Y-111097500D03*
X192823750Y-111097500D03*
D28*
X187068750Y-113587500D03*
X191568750Y-113587500D03*
%TD*%
M02*
