%TF.GenerationSoftware,KiCad,Pcbnew,(5.99.0-8090-ga1d7a959f7)*%
%TF.CreationDate,2021-08-13T15:37:55+01:00*%
%TF.ProjectId,conio-b,636f6e69-6f2d-4622-9e6b-696361645f70,rev?*%
%TF.SameCoordinates,Original*%
%TF.FileFunction,Copper,L2,Bot*%
%TF.FilePolarity,Positive*%
%FSLAX46Y46*%
G04 Gerber Fmt 4.6, Leading zero omitted, Abs format (unit mm)*
G04 Created by KiCad (PCBNEW (5.99.0-8090-ga1d7a959f7)) date 2021-08-13 15:37:55*
%MOMM*%
%LPD*%
G01*
G04 APERTURE LIST*
G04 Aperture macros list*
%AMRoundRect*
0 Rectangle with rounded corners*
0 $1 Rounding radius*
0 $2 $3 $4 $5 $6 $7 $8 $9 X,Y pos of 4 corners*
0 Add a 4 corners polygon primitive as box body*
4,1,4,$2,$3,$4,$5,$6,$7,$8,$9,$2,$3,0*
0 Add four circle primitives for the rounded corners*
1,1,$1+$1,$2,$3,0*
1,1,$1+$1,$4,$5,0*
1,1,$1+$1,$6,$7,0*
1,1,$1+$1,$8,$9,0*
0 Add four rect primitives between the rounded corners*
20,1,$1+$1,$2,$3,$4,$5,0*
20,1,$1+$1,$4,$5,$6,$7,0*
20,1,$1+$1,$6,$7,$8,$9,0*
20,1,$1+$1,$8,$9,$2,$3,0*%
G04 Aperture macros list end*
%TA.AperFunction,ComponentPad*%
%ADD10C,3.500000*%
%TD*%
%TA.AperFunction,ComponentPad*%
%ADD11C,3.550000*%
%TD*%
%TA.AperFunction,ComponentPad*%
%ADD12C,6.000000*%
%TD*%
%TA.AperFunction,ComponentPad*%
%ADD13C,2.400000*%
%TD*%
%TA.AperFunction,ComponentPad*%
%ADD14R,1.350000X1.350000*%
%TD*%
%TA.AperFunction,ComponentPad*%
%ADD15O,1.350000X1.350000*%
%TD*%
%TA.AperFunction,ComponentPad*%
%ADD16R,1.700000X1.700000*%
%TD*%
%TA.AperFunction,ComponentPad*%
%ADD17O,1.700000X1.700000*%
%TD*%
%TA.AperFunction,ComponentPad*%
%ADD18RoundRect,0.250001X-0.499999X-0.499999X0.499999X-0.499999X0.499999X0.499999X-0.499999X0.499999X0*%
%TD*%
%TA.AperFunction,ComponentPad*%
%ADD19C,1.500000*%
%TD*%
%TA.AperFunction,ComponentPad*%
%ADD20C,2.200000*%
%TD*%
%TA.AperFunction,ComponentPad*%
%ADD21C,1.800000*%
%TD*%
%TA.AperFunction,ViaPad*%
%ADD22C,0.800000*%
%TD*%
%TA.AperFunction,Conductor*%
%ADD23C,0.250000*%
%TD*%
G04 APERTURE END LIST*
D10*
%TO.P,H2,1*%
%TO.N,N/C*%
X118068750Y-110087500D03*
X125568750Y-115087500D03*
X125568750Y-110087500D03*
D11*
X118068750Y-115087500D03*
%TD*%
D12*
%TO.P,J1,0,PAD*%
%TO.N,GND*%
X135323750Y-109837500D03*
X160313750Y-109837500D03*
D13*
%TO.P,J1,1,1*%
%TO.N,+3V3*%
X142278750Y-108417500D03*
%TO.P,J1,2,2*%
%TO.N,Net-(D1-Pad1)*%
X145048750Y-108417500D03*
%TO.P,J1,3,3*%
%TO.N,Net-(D1-Pad2)*%
X147818750Y-108417500D03*
%TO.P,J1,4,4*%
%TO.N,Net-(D2-Pad1)*%
X150588750Y-108417500D03*
%TO.P,J1,5,5*%
%TO.N,GND*%
X153358750Y-108417500D03*
%TO.P,J1,6,6*%
%TO.N,Net-(J1-Pad6)*%
X143663750Y-111257500D03*
%TO.P,J1,7,7*%
%TO.N,Net-(J1-Pad7)*%
X146433750Y-111257500D03*
%TO.P,J1,8,8*%
%TO.N,Net-(J1-Pad8)*%
X149203750Y-111257500D03*
%TO.P,J1,9,9*%
%TO.N,Net-(J1-Pad9)*%
X151973750Y-111257500D03*
%TD*%
D10*
%TO.P,H1,1*%
%TO.N,N/C*%
X177568750Y-115087500D03*
D11*
X170068750Y-115087500D03*
D10*
X177568750Y-110087500D03*
X170068750Y-110087500D03*
%TD*%
D14*
%TO.P,J3,1,Pin_1*%
%TO.N,/PWR_LED*%
X136818750Y-87087500D03*
D15*
%TO.P,J3,2,Pin_2*%
%TO.N,GND*%
X136818750Y-85087500D03*
%TO.P,J3,3,Pin_3*%
%TO.N,/PWR_BTN*%
X138818750Y-87087500D03*
%TO.P,J3,4,Pin_4*%
%TO.N,GND*%
X138818750Y-85087500D03*
%TO.P,J3,5,Pin_5*%
%TO.N,/RST_BTN*%
X140818750Y-87087500D03*
%TO.P,J3,6,Pin_6*%
%TO.N,GND*%
X140818750Y-85087500D03*
%TD*%
D16*
%TO.P,J4,1,Pin_1*%
%TO.N,/TX*%
X179068750Y-85087500D03*
D17*
%TO.P,J4,2,Pin_2*%
%TO.N,GND*%
X176528750Y-85087500D03*
%TO.P,J4,3,Pin_3*%
%TO.N,/RX*%
X173988750Y-85087500D03*
%TD*%
D18*
%TO.P,J2,1,Pin_1*%
%TO.N,/PWR_LED*%
X124318750Y-92087500D03*
D19*
%TO.P,J2,2,Pin_2*%
%TO.N,GND*%
X127318750Y-92087500D03*
%TO.P,J2,3,Pin_3*%
%TO.N,/PWR_BTN*%
X124318750Y-95087500D03*
%TO.P,J2,4,Pin_4*%
%TO.N,GND*%
X127318750Y-95087500D03*
%TD*%
D20*
%TO.P,SW1,*%
%TO.N,*%
X185813750Y-111097500D03*
X192823750Y-111097500D03*
D21*
%TO.P,SW1,1,1*%
%TO.N,/RST_BTN*%
X187068750Y-113587500D03*
%TO.P,SW1,2,2*%
%TO.N,GND*%
X191568750Y-113587500D03*
%TD*%
D22*
%TO.N,GND*%
X156568750Y-89087500D03*
X143568750Y-100337500D03*
X180068750Y-106337500D03*
X150068750Y-91587500D03*
X149318750Y-100337500D03*
X152818750Y-100337500D03*
X142568750Y-91087500D03*
X146318750Y-100337500D03*
%TO.N,Net-(J1-Pad6)*%
X148818750Y-118587500D03*
X144568750Y-118587500D03*
%TO.N,+3V3*%
X179818750Y-104337500D03*
%TD*%
D23*
%TO.N,Net-(J1-Pad6)*%
X144568750Y-118587500D02*
X148818750Y-118587500D01*
%TO.N,+3V3*%
X141068750Y-109627500D02*
X141068750Y-118587500D01*
X181318750Y-117087500D02*
X181318750Y-105837500D01*
X178818750Y-119587500D02*
X181318750Y-117087500D01*
X181318750Y-105837500D02*
X179818750Y-104337500D01*
X142278750Y-108417500D02*
X141068750Y-109627500D01*
X141068750Y-118587500D02*
X142068750Y-119587500D01*
X142068750Y-119587500D02*
X178818750Y-119587500D01*
%TD*%
%TA.AperFunction,Conductor*%
%TO.N,GND*%
G36*
X195752871Y-83115502D02*
G01*
X195799364Y-83169158D01*
X195810750Y-83221500D01*
X195810750Y-119453500D01*
X195790748Y-119521621D01*
X195737092Y-119568114D01*
X195684750Y-119579500D01*
X180026844Y-119579500D01*
X179958723Y-119559498D01*
X179912230Y-119505842D01*
X179902126Y-119435568D01*
X179931620Y-119370988D01*
X179937749Y-119364405D01*
X180721220Y-118580935D01*
X181711277Y-117590878D01*
X181719356Y-117583527D01*
X181725744Y-117579473D01*
X181771594Y-117530648D01*
X181774349Y-117527806D01*
X181794688Y-117507467D01*
X181797338Y-117504051D01*
X181805048Y-117495023D01*
X181829880Y-117468580D01*
X181835307Y-117462801D01*
X181839124Y-117455857D01*
X181839128Y-117455852D01*
X181845066Y-117445050D01*
X181855922Y-117428523D01*
X181863474Y-117418787D01*
X181868333Y-117412523D01*
X181885892Y-117371948D01*
X181891107Y-117361302D01*
X181912412Y-117322548D01*
X181917452Y-117302919D01*
X181923851Y-117284229D01*
X181931897Y-117265636D01*
X181938318Y-117225096D01*
X181938813Y-117221972D01*
X181941220Y-117210351D01*
X181950737Y-117173282D01*
X181950737Y-117173281D01*
X181952215Y-117167525D01*
X181952250Y-117166969D01*
X181952250Y-117147047D01*
X181953801Y-117127336D01*
X181955694Y-117115384D01*
X181956934Y-117107556D01*
X181952809Y-117063917D01*
X181952250Y-117052060D01*
X181952250Y-111097500D01*
X184200250Y-111097500D01*
X184220115Y-111349907D01*
X184221269Y-111354714D01*
X184221270Y-111354720D01*
X184258884Y-111511394D01*
X184279220Y-111596099D01*
X184281113Y-111600670D01*
X184281114Y-111600672D01*
X184356519Y-111782714D01*
X184376111Y-111830014D01*
X184508401Y-112045892D01*
X184511612Y-112049652D01*
X184511616Y-112049657D01*
X184628174Y-112186128D01*
X184672833Y-112238417D01*
X184676595Y-112241630D01*
X184861593Y-112399634D01*
X184861598Y-112399638D01*
X184865358Y-112402849D01*
X185081236Y-112535139D01*
X185085806Y-112537032D01*
X185085810Y-112537034D01*
X185310578Y-112630136D01*
X185315151Y-112632030D01*
X185399856Y-112652366D01*
X185556530Y-112689980D01*
X185556536Y-112689981D01*
X185561343Y-112691135D01*
X185739038Y-112705120D01*
X185743587Y-112705478D01*
X185809928Y-112730764D01*
X185852068Y-112787902D01*
X185856627Y-112858752D01*
X185843203Y-112893422D01*
X185830817Y-112915181D01*
X185785607Y-112994604D01*
X185704054Y-113219277D01*
X185661523Y-113454478D01*
X185660721Y-113538028D01*
X185659281Y-113688103D01*
X185659229Y-113693482D01*
X185660078Y-113698752D01*
X185660078Y-113698754D01*
X185684820Y-113852363D01*
X185697237Y-113929457D01*
X185698962Y-113934509D01*
X185698962Y-113934510D01*
X185772669Y-114150403D01*
X185774461Y-114155653D01*
X185888693Y-114365605D01*
X186036666Y-114553307D01*
X186214149Y-114713395D01*
X186218662Y-114716254D01*
X186218664Y-114716255D01*
X186282998Y-114757004D01*
X186416068Y-114841290D01*
X186514474Y-114882353D01*
X186630585Y-114930804D01*
X186636650Y-114933335D01*
X186764996Y-114962848D01*
X186864379Y-114985701D01*
X186864383Y-114985702D01*
X186869586Y-114986898D01*
X186874919Y-114987201D01*
X186874920Y-114987201D01*
X186988901Y-114993673D01*
X187108217Y-115000449D01*
X187113524Y-114999849D01*
X187113526Y-114999849D01*
X187243050Y-114985206D01*
X187345720Y-114973599D01*
X187350835Y-114972118D01*
X187350839Y-114972117D01*
X187570180Y-114908600D01*
X187570185Y-114908598D01*
X187575303Y-114907116D01*
X187790402Y-114802901D01*
X187869055Y-114746694D01*
X190774386Y-114746694D01*
X190780458Y-114754805D01*
X190911784Y-114837986D01*
X190921230Y-114842903D01*
X191131878Y-114930804D01*
X191142006Y-114934055D01*
X191364451Y-114985206D01*
X191374990Y-114986706D01*
X191602869Y-114999646D01*
X191613512Y-114999349D01*
X191840313Y-114973709D01*
X191850748Y-114971625D01*
X192070006Y-114908131D01*
X192079923Y-114904324D01*
X192285342Y-114804799D01*
X192294489Y-114799368D01*
X192353772Y-114757004D01*
X192362175Y-114746281D01*
X192355195Y-114733155D01*
X191581562Y-113959522D01*
X191567618Y-113951908D01*
X191565785Y-113952039D01*
X191559170Y-113956290D01*
X190781146Y-114734314D01*
X190774386Y-114746694D01*
X187869055Y-114746694D01*
X187984867Y-114663934D01*
X188058014Y-114590146D01*
X188149385Y-114497975D01*
X188149386Y-114497974D01*
X188153138Y-114494189D01*
X188290402Y-114298519D01*
X188392736Y-114082518D01*
X188457213Y-113852363D01*
X188465812Y-113769865D01*
X188474333Y-113688103D01*
X190159778Y-113688103D01*
X190160576Y-113698716D01*
X190196874Y-113924074D01*
X190199445Y-113934383D01*
X190273195Y-114150403D01*
X190277469Y-114160139D01*
X190386560Y-114360642D01*
X190392414Y-114369520D01*
X190396673Y-114374923D01*
X190408598Y-114383394D01*
X190420134Y-114376906D01*
X191196728Y-113600312D01*
X191204342Y-113586368D01*
X191204211Y-113584535D01*
X191199960Y-113577920D01*
X190419301Y-112797261D01*
X190406118Y-112790062D01*
X190400208Y-112794287D01*
X190288701Y-112990174D01*
X190284238Y-112999834D01*
X190206358Y-113214391D01*
X190203587Y-113224659D01*
X190162971Y-113449271D01*
X190161970Y-113459864D01*
X190159778Y-113688103D01*
X188474333Y-113688103D01*
X188481683Y-113617583D01*
X188481683Y-113617580D01*
X188481990Y-113614636D01*
X188482250Y-113587500D01*
X188481999Y-113584535D01*
X188470789Y-113452429D01*
X188462042Y-113349340D01*
X188460701Y-113344172D01*
X188403336Y-113123155D01*
X188403334Y-113123150D01*
X188401995Y-113117990D01*
X188346414Y-112994604D01*
X188306017Y-112904926D01*
X188306016Y-112904923D01*
X188303827Y-112900065D01*
X188170344Y-112701796D01*
X188132240Y-112661852D01*
X188009042Y-112532708D01*
X188005363Y-112528851D01*
X187973691Y-112505286D01*
X187869714Y-112427925D01*
X190773348Y-112427925D01*
X190777030Y-112436570D01*
X192714803Y-114374343D01*
X192726594Y-114380782D01*
X192738590Y-114371509D01*
X192786902Y-114302641D01*
X192792256Y-114293441D01*
X192889983Y-114087166D01*
X192893707Y-114077206D01*
X192955281Y-113857412D01*
X192957276Y-113846956D01*
X192981182Y-113617576D01*
X192981518Y-113611660D01*
X192981722Y-113590463D01*
X192981500Y-113584552D01*
X192962000Y-113354736D01*
X192960210Y-113344264D01*
X192902866Y-113123327D01*
X192899331Y-113113287D01*
X192805581Y-112905171D01*
X192798257Y-112892014D01*
X192782602Y-112822764D01*
X192806872Y-112756045D01*
X192863360Y-112713038D01*
X192898464Y-112705120D01*
X192956484Y-112700554D01*
X193076157Y-112691135D01*
X193080964Y-112689981D01*
X193080970Y-112689980D01*
X193237644Y-112652366D01*
X193322349Y-112632030D01*
X193326922Y-112630136D01*
X193551690Y-112537034D01*
X193551694Y-112537032D01*
X193556264Y-112535139D01*
X193772142Y-112402849D01*
X193775902Y-112399638D01*
X193775907Y-112399634D01*
X193960905Y-112241630D01*
X193964667Y-112238417D01*
X194009326Y-112186128D01*
X194125884Y-112049657D01*
X194125888Y-112049652D01*
X194129099Y-112045892D01*
X194261389Y-111830014D01*
X194280982Y-111782714D01*
X194356386Y-111600672D01*
X194356387Y-111600670D01*
X194358280Y-111596099D01*
X194378616Y-111511394D01*
X194416230Y-111354720D01*
X194416231Y-111354714D01*
X194417385Y-111349907D01*
X194437250Y-111097500D01*
X194417385Y-110845093D01*
X194404360Y-110790837D01*
X194359435Y-110603713D01*
X194358280Y-110598901D01*
X194356386Y-110594328D01*
X194263284Y-110369560D01*
X194263282Y-110369556D01*
X194261389Y-110364986D01*
X194129099Y-110149108D01*
X194125888Y-110145348D01*
X194125884Y-110145343D01*
X193967880Y-109960345D01*
X193964667Y-109956583D01*
X193830432Y-109841935D01*
X193775907Y-109795366D01*
X193775902Y-109795362D01*
X193772142Y-109792151D01*
X193556264Y-109659861D01*
X193551694Y-109657968D01*
X193551690Y-109657966D01*
X193326922Y-109564864D01*
X193326920Y-109564863D01*
X193322349Y-109562970D01*
X193233832Y-109541719D01*
X193080970Y-109505020D01*
X193080964Y-109505019D01*
X193076157Y-109503865D01*
X192823750Y-109484000D01*
X192571343Y-109503865D01*
X192566536Y-109505019D01*
X192566530Y-109505020D01*
X192413668Y-109541719D01*
X192325151Y-109562970D01*
X192320580Y-109564863D01*
X192320578Y-109564864D01*
X192095810Y-109657966D01*
X192095806Y-109657968D01*
X192091236Y-109659861D01*
X191875358Y-109792151D01*
X191871598Y-109795362D01*
X191871593Y-109795366D01*
X191817068Y-109841935D01*
X191682833Y-109956583D01*
X191679620Y-109960345D01*
X191521616Y-110145343D01*
X191521612Y-110145348D01*
X191518401Y-110149108D01*
X191386111Y-110364986D01*
X191384218Y-110369556D01*
X191384216Y-110369560D01*
X191291114Y-110594328D01*
X191289220Y-110598901D01*
X191288065Y-110603713D01*
X191243141Y-110790837D01*
X191230115Y-110845093D01*
X191210250Y-111097500D01*
X191230115Y-111349907D01*
X191231269Y-111354714D01*
X191231270Y-111354720D01*
X191268884Y-111511394D01*
X191289220Y-111596099D01*
X191291113Y-111600670D01*
X191291114Y-111600672D01*
X191366519Y-111782714D01*
X191386111Y-111830014D01*
X191388697Y-111834234D01*
X191487080Y-111994781D01*
X191505618Y-112063315D01*
X191484161Y-112130992D01*
X191429522Y-112176324D01*
X191394994Y-112185678D01*
X191391324Y-112186128D01*
X191167937Y-112233000D01*
X191157740Y-112236060D01*
X190945449Y-112319897D01*
X190935917Y-112324628D01*
X190782855Y-112417508D01*
X190773348Y-112427925D01*
X187869714Y-112427925D01*
X187817884Y-112389363D01*
X187813602Y-112386177D01*
X187808851Y-112383761D01*
X187808847Y-112383759D01*
X187605299Y-112280270D01*
X187605298Y-112280270D01*
X187600543Y-112277852D01*
X187372278Y-112206974D01*
X187358130Y-112205099D01*
X187238979Y-112189306D01*
X187174077Y-112160526D01*
X187135038Y-112101227D01*
X187134255Y-112030235D01*
X187148102Y-111998563D01*
X187170840Y-111961459D01*
X187251389Y-111830014D01*
X187270982Y-111782714D01*
X187346386Y-111600672D01*
X187346387Y-111600670D01*
X187348280Y-111596099D01*
X187368616Y-111511394D01*
X187406230Y-111354720D01*
X187406231Y-111354714D01*
X187407385Y-111349907D01*
X187427250Y-111097500D01*
X187407385Y-110845093D01*
X187394360Y-110790837D01*
X187349435Y-110603713D01*
X187348280Y-110598901D01*
X187346386Y-110594328D01*
X187253284Y-110369560D01*
X187253282Y-110369556D01*
X187251389Y-110364986D01*
X187119099Y-110149108D01*
X187115888Y-110145348D01*
X187115884Y-110145343D01*
X186957880Y-109960345D01*
X186954667Y-109956583D01*
X186820432Y-109841935D01*
X186765907Y-109795366D01*
X186765902Y-109795362D01*
X186762142Y-109792151D01*
X186546264Y-109659861D01*
X186541694Y-109657968D01*
X186541690Y-109657966D01*
X186316922Y-109564864D01*
X186316920Y-109564863D01*
X186312349Y-109562970D01*
X186223832Y-109541719D01*
X186070970Y-109505020D01*
X186070964Y-109505019D01*
X186066157Y-109503865D01*
X185813750Y-109484000D01*
X185561343Y-109503865D01*
X185556536Y-109505019D01*
X185556530Y-109505020D01*
X185403668Y-109541719D01*
X185315151Y-109562970D01*
X185310580Y-109564863D01*
X185310578Y-109564864D01*
X185085810Y-109657966D01*
X185085806Y-109657968D01*
X185081236Y-109659861D01*
X184865358Y-109792151D01*
X184861598Y-109795362D01*
X184861593Y-109795366D01*
X184807068Y-109841935D01*
X184672833Y-109956583D01*
X184669620Y-109960345D01*
X184511616Y-110145343D01*
X184511612Y-110145348D01*
X184508401Y-110149108D01*
X184376111Y-110364986D01*
X184374218Y-110369556D01*
X184374216Y-110369560D01*
X184281114Y-110594328D01*
X184279220Y-110598901D01*
X184278065Y-110603713D01*
X184233141Y-110790837D01*
X184220115Y-110845093D01*
X184200250Y-111097500D01*
X181952250Y-111097500D01*
X181952250Y-105915883D01*
X181952764Y-105904979D01*
X181954416Y-105897588D01*
X181952312Y-105830646D01*
X181952250Y-105826689D01*
X181952250Y-105797922D01*
X181951709Y-105793637D01*
X181950776Y-105781796D01*
X181949637Y-105745536D01*
X181949637Y-105745535D01*
X181949388Y-105737616D01*
X181947178Y-105730008D01*
X181947177Y-105730003D01*
X181943737Y-105718161D01*
X181939729Y-105698807D01*
X181938184Y-105686579D01*
X181937190Y-105678712D01*
X181934273Y-105671344D01*
X181934271Y-105671337D01*
X181920913Y-105637599D01*
X181917068Y-105626369D01*
X181906947Y-105591531D01*
X181906946Y-105591530D01*
X181904736Y-105583921D01*
X181894426Y-105566488D01*
X181885732Y-105548741D01*
X181878272Y-105529900D01*
X181852283Y-105494129D01*
X181845767Y-105484210D01*
X181826296Y-105451287D01*
X181823263Y-105446158D01*
X181822894Y-105445740D01*
X181808812Y-105431658D01*
X181795978Y-105416633D01*
X181784196Y-105400417D01*
X181750414Y-105372470D01*
X181741635Y-105364481D01*
X180765868Y-104388714D01*
X180731842Y-104326402D01*
X180729653Y-104312790D01*
X180712978Y-104154137D01*
X180712978Y-104154136D01*
X180712288Y-104147573D01*
X180653274Y-103965946D01*
X180557787Y-103800558D01*
X180430001Y-103658637D01*
X180424659Y-103654756D01*
X180424657Y-103654754D01*
X180280842Y-103550267D01*
X180280841Y-103550266D01*
X180275500Y-103546386D01*
X180269472Y-103543702D01*
X180269470Y-103543701D01*
X180107068Y-103471395D01*
X180107067Y-103471395D01*
X180101037Y-103468710D01*
X180007637Y-103448857D01*
X179920694Y-103430376D01*
X179920689Y-103430376D01*
X179914237Y-103429004D01*
X179723263Y-103429004D01*
X179716811Y-103430376D01*
X179716806Y-103430376D01*
X179629863Y-103448857D01*
X179536463Y-103468710D01*
X179530433Y-103471395D01*
X179530432Y-103471395D01*
X179368030Y-103543701D01*
X179368028Y-103543702D01*
X179362000Y-103546386D01*
X179356659Y-103550266D01*
X179356658Y-103550267D01*
X179212843Y-103654754D01*
X179212841Y-103654756D01*
X179207499Y-103658637D01*
X179079713Y-103800558D01*
X178984226Y-103965946D01*
X178925212Y-104147573D01*
X178905250Y-104337500D01*
X178925212Y-104527427D01*
X178984226Y-104709054D01*
X179079713Y-104874442D01*
X179207499Y-105016363D01*
X179212841Y-105020244D01*
X179212843Y-105020246D01*
X179356658Y-105124733D01*
X179362000Y-105128614D01*
X179368028Y-105131298D01*
X179368030Y-105131299D01*
X179530432Y-105203605D01*
X179536463Y-105206290D01*
X179629863Y-105226143D01*
X179716806Y-105244624D01*
X179716811Y-105244624D01*
X179723263Y-105245996D01*
X179779152Y-105245996D01*
X179847273Y-105265998D01*
X179868247Y-105282901D01*
X180648346Y-106063000D01*
X180682372Y-106125312D01*
X180685251Y-106152095D01*
X180685250Y-116772905D01*
X180665248Y-116841026D01*
X180648345Y-116862000D01*
X178593251Y-118917095D01*
X178530939Y-118951120D01*
X178504156Y-118954000D01*
X149828340Y-118954000D01*
X149760219Y-118933998D01*
X149713726Y-118880342D01*
X149703622Y-118810068D01*
X149708507Y-118789065D01*
X149710247Y-118783709D01*
X149710247Y-118783708D01*
X149712288Y-118777427D01*
X149732250Y-118587500D01*
X149712288Y-118397573D01*
X149653274Y-118215946D01*
X149557787Y-118050558D01*
X149430001Y-117908637D01*
X149424659Y-117904756D01*
X149424657Y-117904754D01*
X149280842Y-117800267D01*
X149280841Y-117800266D01*
X149275500Y-117796386D01*
X149269472Y-117793702D01*
X149269470Y-117793701D01*
X149107068Y-117721395D01*
X149107067Y-117721395D01*
X149101037Y-117718710D01*
X149007637Y-117698857D01*
X148920694Y-117680376D01*
X148920689Y-117680376D01*
X148914237Y-117679004D01*
X148723263Y-117679004D01*
X148716811Y-117680376D01*
X148716806Y-117680376D01*
X148629863Y-117698857D01*
X148536463Y-117718710D01*
X148530433Y-117721395D01*
X148530432Y-117721395D01*
X148368030Y-117793701D01*
X148368028Y-117793702D01*
X148362000Y-117796386D01*
X148356659Y-117800266D01*
X148356658Y-117800267D01*
X148212843Y-117904754D01*
X148212841Y-117904756D01*
X148207499Y-117908637D01*
X148203078Y-117913547D01*
X148198175Y-117917962D01*
X148197049Y-117916711D01*
X148143750Y-117949549D01*
X148110556Y-117954000D01*
X145276944Y-117954000D01*
X145208823Y-117933998D01*
X145189599Y-117917658D01*
X145189325Y-117917962D01*
X145184422Y-117913547D01*
X145180001Y-117908637D01*
X145174659Y-117904756D01*
X145174657Y-117904754D01*
X145030842Y-117800267D01*
X145030841Y-117800266D01*
X145025500Y-117796386D01*
X145019472Y-117793702D01*
X145019470Y-117793701D01*
X144857068Y-117721395D01*
X144857067Y-117721395D01*
X144851037Y-117718710D01*
X144757637Y-117698857D01*
X144670694Y-117680376D01*
X144670689Y-117680376D01*
X144664237Y-117679004D01*
X144473263Y-117679004D01*
X144466811Y-117680376D01*
X144466806Y-117680376D01*
X144379863Y-117698857D01*
X144286463Y-117718710D01*
X144280433Y-117721395D01*
X144280432Y-117721395D01*
X144118030Y-117793701D01*
X144118028Y-117793702D01*
X144112000Y-117796386D01*
X144106659Y-117800266D01*
X144106658Y-117800267D01*
X143962843Y-117904754D01*
X143962841Y-117904756D01*
X143957499Y-117908637D01*
X143829713Y-118050558D01*
X143734226Y-118215946D01*
X143675212Y-118397573D01*
X143655250Y-118587500D01*
X143675212Y-118777427D01*
X143677253Y-118783708D01*
X143677253Y-118783709D01*
X143678993Y-118789065D01*
X143681020Y-118860032D01*
X143644357Y-118920830D01*
X143580645Y-118952155D01*
X143559160Y-118954000D01*
X142383344Y-118954000D01*
X142315223Y-118933998D01*
X142294249Y-118917095D01*
X141739155Y-118362001D01*
X141705129Y-118299689D01*
X141702250Y-118272906D01*
X141702250Y-115183332D01*
X167782257Y-115183332D01*
X167782709Y-115187491D01*
X167782709Y-115187495D01*
X167814094Y-115476396D01*
X167815017Y-115484894D01*
X167816013Y-115488951D01*
X167816014Y-115488954D01*
X167884518Y-115767848D01*
X167887373Y-115779473D01*
X167998053Y-116061896D01*
X168145113Y-116327199D01*
X168147596Y-116330542D01*
X168147599Y-116330547D01*
X168316159Y-116557511D01*
X168325970Y-116570722D01*
X168537445Y-116788187D01*
X168540723Y-116790767D01*
X168540728Y-116790771D01*
X168763570Y-116966130D01*
X168775823Y-116975772D01*
X168779429Y-116977904D01*
X168779431Y-116977906D01*
X168876656Y-117035404D01*
X169036917Y-117130183D01*
X169316139Y-117248705D01*
X169608583Y-117329258D01*
X169612728Y-117329826D01*
X169612729Y-117329826D01*
X169623753Y-117331336D01*
X169909112Y-117370425D01*
X169913288Y-117370440D01*
X169913294Y-117370440D01*
X170063399Y-117370964D01*
X170212446Y-117371484D01*
X170513255Y-117332416D01*
X170762482Y-117265636D01*
X170802218Y-117254989D01*
X170802222Y-117254988D01*
X170806255Y-117253907D01*
X171062969Y-117147047D01*
X171082438Y-117138943D01*
X171082441Y-117138942D01*
X171086298Y-117137336D01*
X171089901Y-117135239D01*
X171089905Y-117135237D01*
X171222604Y-117058004D01*
X171348463Y-116984752D01*
X171588145Y-116798836D01*
X171591086Y-116795854D01*
X171798194Y-116585834D01*
X171798199Y-116585829D01*
X171801133Y-116582853D01*
X171983685Y-116340598D01*
X172132594Y-116076328D01*
X172245243Y-115794685D01*
X172250019Y-115775813D01*
X172318627Y-115504672D01*
X172319653Y-115500618D01*
X172320176Y-115496105D01*
X172354190Y-115202126D01*
X172354518Y-115199293D01*
X172354807Y-115187495D01*
X172354934Y-115182286D01*
X175307235Y-115182286D01*
X175307687Y-115186445D01*
X175307687Y-115186449D01*
X175309258Y-115200904D01*
X175339638Y-115480553D01*
X175340634Y-115484610D01*
X175340635Y-115484613D01*
X175344454Y-115500159D01*
X175411203Y-115771914D01*
X175520674Y-116051251D01*
X175666127Y-116313657D01*
X175668610Y-116317000D01*
X175668613Y-116317005D01*
X175683434Y-116336961D01*
X175845008Y-116554519D01*
X176054173Y-116769608D01*
X176057451Y-116772188D01*
X176057456Y-116772192D01*
X176171582Y-116862000D01*
X176289947Y-116955144D01*
X176293552Y-116957276D01*
X176293555Y-116957278D01*
X176390132Y-117014393D01*
X176548189Y-117107868D01*
X176824360Y-117225096D01*
X177113610Y-117304769D01*
X177117755Y-117305337D01*
X177117756Y-117305337D01*
X177128524Y-117306812D01*
X177410856Y-117345486D01*
X177415032Y-117345501D01*
X177415038Y-117345501D01*
X177563416Y-117346018D01*
X177710876Y-117346533D01*
X178008399Y-117307892D01*
X178298198Y-117230241D01*
X178302040Y-117228642D01*
X178302048Y-117228639D01*
X178571331Y-117116547D01*
X178575182Y-117114944D01*
X178578779Y-117112850D01*
X178578786Y-117112847D01*
X178795267Y-116986851D01*
X178834483Y-116964027D01*
X178849276Y-116952553D01*
X179068230Y-116782714D01*
X179068231Y-116782713D01*
X179071547Y-116780141D01*
X179263160Y-116585834D01*
X179279269Y-116569499D01*
X179279274Y-116569494D01*
X179282208Y-116566518D01*
X179293774Y-116551169D01*
X179460254Y-116330243D01*
X179460256Y-116330240D01*
X179462766Y-116326909D01*
X179550086Y-116171942D01*
X179607998Y-116069165D01*
X179608001Y-116069159D01*
X179610048Y-116065526D01*
X179721466Y-115786960D01*
X179724390Y-115775407D01*
X179760587Y-115632357D01*
X179795064Y-115496105D01*
X179795892Y-115488954D01*
X179829220Y-115200904D01*
X179829548Y-115198071D01*
X179829807Y-115187495D01*
X179832180Y-115090355D01*
X179832250Y-115087500D01*
X179812366Y-114788138D01*
X179753065Y-114494035D01*
X179655387Y-114210358D01*
X179630240Y-114160139D01*
X179522922Y-113945831D01*
X179522921Y-113945829D01*
X179521050Y-113942093D01*
X179352412Y-113693950D01*
X179152438Y-113470291D01*
X178924640Y-113275045D01*
X178810921Y-113201195D01*
X178676530Y-113113920D01*
X178676525Y-113113917D01*
X178673020Y-113111641D01*
X178600366Y-113077142D01*
X178426541Y-112994604D01*
X178402000Y-112982951D01*
X178116340Y-112891236D01*
X177821060Y-112838106D01*
X177654890Y-112830560D01*
X177525517Y-112824685D01*
X177525512Y-112824685D01*
X177521347Y-112824496D01*
X177517199Y-112824859D01*
X177517195Y-112824859D01*
X177325494Y-112841631D01*
X177222467Y-112850645D01*
X177218395Y-112851555D01*
X177218390Y-112851556D01*
X176933749Y-112915181D01*
X176933746Y-112915182D01*
X176929670Y-112916093D01*
X176648102Y-113019690D01*
X176644414Y-113021634D01*
X176644406Y-113021638D01*
X176451536Y-113123327D01*
X176382708Y-113159616D01*
X176138152Y-113333413D01*
X176135103Y-113336257D01*
X176135096Y-113336262D01*
X176013960Y-113449224D01*
X175918730Y-113538028D01*
X175916077Y-113541257D01*
X175916073Y-113541262D01*
X175755782Y-113736404D01*
X175728296Y-113769865D01*
X175726090Y-113773422D01*
X175726087Y-113773427D01*
X175673962Y-113857496D01*
X175570198Y-114024851D01*
X175447212Y-114298507D01*
X175428689Y-114360642D01*
X175362690Y-114582028D01*
X175362688Y-114582036D01*
X175361499Y-114586025D01*
X175360847Y-114590142D01*
X175360846Y-114590146D01*
X175315220Y-114878222D01*
X175314566Y-114882353D01*
X175307235Y-115182286D01*
X172354934Y-115182286D01*
X172357180Y-115090355D01*
X172357250Y-115087500D01*
X172337147Y-114784831D01*
X172277190Y-114487480D01*
X172183130Y-114214309D01*
X172179799Y-114204635D01*
X172179799Y-114204634D01*
X172178434Y-114200671D01*
X172153363Y-114150604D01*
X172044485Y-113933180D01*
X172044484Y-113933178D01*
X172042613Y-113929442D01*
X171872113Y-113678559D01*
X171869328Y-113675444D01*
X171672715Y-113455543D01*
X171672709Y-113455537D01*
X171669930Y-113452429D01*
X171666246Y-113449271D01*
X171466145Y-113277764D01*
X171439616Y-113255026D01*
X171436113Y-113252751D01*
X171188716Y-113092090D01*
X171188713Y-113092088D01*
X171185217Y-113089818D01*
X170911203Y-112959707D01*
X170907220Y-112958428D01*
X170907217Y-112958427D01*
X170626368Y-112868256D01*
X170622388Y-112866978D01*
X170323847Y-112813262D01*
X170155637Y-112805624D01*
X170024993Y-112799691D01*
X170024988Y-112799691D01*
X170020823Y-112799502D01*
X170016675Y-112799865D01*
X170016670Y-112799865D01*
X169894748Y-112810532D01*
X169718642Y-112825939D01*
X169529328Y-112868256D01*
X169429833Y-112890496D01*
X169422612Y-112892110D01*
X169418689Y-112893554D01*
X169418687Y-112893554D01*
X169261031Y-112951560D01*
X169137933Y-112996851D01*
X169134233Y-112998802D01*
X169134228Y-112998804D01*
X168898050Y-113123327D01*
X168869608Y-113138323D01*
X168622351Y-113314040D01*
X168400505Y-113520914D01*
X168207969Y-113755312D01*
X168048124Y-114013114D01*
X168046408Y-114016931D01*
X168046407Y-114016934D01*
X168043063Y-114024375D01*
X167923780Y-114289793D01*
X167870941Y-114467037D01*
X167864148Y-114489827D01*
X167837121Y-114580486D01*
X167789669Y-114880087D01*
X167788350Y-114934055D01*
X167784530Y-115090355D01*
X167782257Y-115183332D01*
X141702250Y-115183332D01*
X141702250Y-111362941D01*
X141716905Y-111313029D01*
X141706382Y-111295568D01*
X141702250Y-111263566D01*
X141702250Y-110196105D01*
X141722252Y-110127984D01*
X141775908Y-110081491D01*
X141846182Y-110071387D01*
X141857330Y-110073507D01*
X142010700Y-110109904D01*
X142015471Y-110110292D01*
X142015477Y-110110293D01*
X142140318Y-110120447D01*
X142206593Y-110145906D01*
X142248583Y-110203154D01*
X142252956Y-110274016D01*
X142231456Y-110320888D01*
X142212207Y-110346949D01*
X142204330Y-110361920D01*
X142131599Y-110500159D01*
X142091177Y-110576987D01*
X142006337Y-110822686D01*
X141959637Y-111078390D01*
X141959499Y-111083172D01*
X141959499Y-111083174D01*
X141954198Y-111267194D01*
X141939491Y-111312420D01*
X141949146Y-111327443D01*
X141953297Y-111347476D01*
X141980755Y-111569499D01*
X141984055Y-111596186D01*
X141985353Y-111600789D01*
X141985354Y-111600793D01*
X141990305Y-111618346D01*
X142054612Y-111846361D01*
X142056594Y-111850720D01*
X142158148Y-112074075D01*
X142162199Y-112082985D01*
X142304339Y-112300613D01*
X142391051Y-112397425D01*
X142466622Y-112481797D01*
X142477763Y-112494236D01*
X142567371Y-112567972D01*
X142674773Y-112656351D01*
X142674778Y-112656354D01*
X142678479Y-112659400D01*
X142901868Y-112792302D01*
X143014486Y-112837917D01*
X143138349Y-112888087D01*
X143138353Y-112888088D01*
X143142789Y-112889885D01*
X143395700Y-112949904D01*
X143400471Y-112950292D01*
X143400477Y-112950293D01*
X143641555Y-112969901D01*
X143654778Y-112970977D01*
X143659552Y-112970639D01*
X143909279Y-112952957D01*
X143909282Y-112952956D01*
X143914063Y-112952618D01*
X143926057Y-112949904D01*
X144162927Y-112896306D01*
X144162931Y-112896305D01*
X144167588Y-112895251D01*
X144409518Y-112800196D01*
X144413650Y-112797796D01*
X144413654Y-112797794D01*
X144630150Y-112672043D01*
X144634287Y-112669640D01*
X144836721Y-112506588D01*
X144956041Y-112376145D01*
X145016778Y-112339381D01*
X145087749Y-112341290D01*
X145142865Y-112377120D01*
X145247763Y-112494236D01*
X145337371Y-112567972D01*
X145444773Y-112656351D01*
X145444778Y-112656354D01*
X145448479Y-112659400D01*
X145671868Y-112792302D01*
X145784486Y-112837917D01*
X145908349Y-112888087D01*
X145908353Y-112888088D01*
X145912789Y-112889885D01*
X146165700Y-112949904D01*
X146170471Y-112950292D01*
X146170477Y-112950293D01*
X146411555Y-112969901D01*
X146424778Y-112970977D01*
X146429552Y-112970639D01*
X146679279Y-112952957D01*
X146679282Y-112952956D01*
X146684063Y-112952618D01*
X146696057Y-112949904D01*
X146932927Y-112896306D01*
X146932931Y-112896305D01*
X146937588Y-112895251D01*
X147179518Y-112800196D01*
X147183650Y-112797796D01*
X147183654Y-112797794D01*
X147400150Y-112672043D01*
X147404287Y-112669640D01*
X147606721Y-112506588D01*
X147726041Y-112376145D01*
X147786778Y-112339381D01*
X147857749Y-112341290D01*
X147912865Y-112377120D01*
X148017763Y-112494236D01*
X148107371Y-112567972D01*
X148214773Y-112656351D01*
X148214778Y-112656354D01*
X148218479Y-112659400D01*
X148441868Y-112792302D01*
X148554486Y-112837917D01*
X148678349Y-112888087D01*
X148678353Y-112888088D01*
X148682789Y-112889885D01*
X148935700Y-112949904D01*
X148940471Y-112950292D01*
X148940477Y-112950293D01*
X149181555Y-112969901D01*
X149194778Y-112970977D01*
X149199552Y-112970639D01*
X149449279Y-112952957D01*
X149449282Y-112952956D01*
X149454063Y-112952618D01*
X149466057Y-112949904D01*
X149702927Y-112896306D01*
X149702931Y-112896305D01*
X149707588Y-112895251D01*
X149949518Y-112800196D01*
X149953650Y-112797796D01*
X149953654Y-112797794D01*
X150170150Y-112672043D01*
X150174287Y-112669640D01*
X150376721Y-112506588D01*
X150496041Y-112376145D01*
X150556778Y-112339381D01*
X150627749Y-112341290D01*
X150682865Y-112377120D01*
X150787763Y-112494236D01*
X150877371Y-112567972D01*
X150984773Y-112656351D01*
X150984778Y-112656354D01*
X150988479Y-112659400D01*
X151211868Y-112792302D01*
X151324486Y-112837917D01*
X151448349Y-112888087D01*
X151448353Y-112888088D01*
X151452789Y-112889885D01*
X151705700Y-112949904D01*
X151710471Y-112950292D01*
X151710477Y-112950293D01*
X151951555Y-112969901D01*
X151964778Y-112970977D01*
X151969552Y-112970639D01*
X152219279Y-112952957D01*
X152219282Y-112952956D01*
X152224063Y-112952618D01*
X152236057Y-112949904D01*
X152472927Y-112896306D01*
X152472931Y-112896305D01*
X152477588Y-112895251D01*
X152719518Y-112800196D01*
X152723650Y-112797796D01*
X152723654Y-112797794D01*
X152940150Y-112672043D01*
X152944287Y-112669640D01*
X153146721Y-112506588D01*
X153159926Y-112492152D01*
X158024555Y-112492152D01*
X158031014Y-112501513D01*
X158138765Y-112596009D01*
X158144011Y-112600137D01*
X158444216Y-112811516D01*
X158449870Y-112815063D01*
X158770823Y-112993336D01*
X158776835Y-112996268D01*
X159114920Y-113139429D01*
X159121204Y-113141703D01*
X159472571Y-113248122D01*
X159479072Y-113249720D01*
X159839772Y-113318200D01*
X159846394Y-113319095D01*
X160212310Y-113348857D01*
X160219016Y-113349045D01*
X160586022Y-113339756D01*
X160592704Y-113339230D01*
X160956650Y-113290992D01*
X160963230Y-113289761D01*
X161319982Y-113203123D01*
X161326410Y-113201195D01*
X161671926Y-113077142D01*
X161678122Y-113074537D01*
X162008490Y-112914476D01*
X162014377Y-112911226D01*
X162325879Y-112716955D01*
X162331362Y-112713116D01*
X162596894Y-112505286D01*
X162605364Y-112493450D01*
X162598837Y-112481797D01*
X160326562Y-110209522D01*
X160312618Y-110201908D01*
X160310785Y-110202039D01*
X160304170Y-110206290D01*
X158032069Y-112478391D01*
X158024555Y-112492152D01*
X153159926Y-112492152D01*
X153322163Y-112314791D01*
X153466575Y-112098664D01*
X153478068Y-112074075D01*
X153574604Y-111867521D01*
X153574605Y-111867518D01*
X153576633Y-111863179D01*
X153601282Y-111779159D01*
X153648460Y-111618346D01*
X153648461Y-111618343D01*
X153649806Y-111613757D01*
X153684409Y-111356136D01*
X153684589Y-111349907D01*
X153687155Y-111260796D01*
X153687250Y-111257500D01*
X153676828Y-111120488D01*
X153667897Y-111003082D01*
X153667896Y-111003077D01*
X153667534Y-110998315D01*
X153608841Y-110745094D01*
X153512520Y-110503664D01*
X153445566Y-110389771D01*
X153398386Y-110309515D01*
X153381107Y-110240653D01*
X153403800Y-110173381D01*
X153459260Y-110129057D01*
X153498108Y-110119975D01*
X153604207Y-110112463D01*
X153613665Y-110111066D01*
X153857780Y-110055828D01*
X153866887Y-110053026D01*
X153956021Y-110018005D01*
X156805567Y-110018005D01*
X156805917Y-110024691D01*
X156844611Y-110389771D01*
X156845671Y-110396386D01*
X156922944Y-110755304D01*
X156924694Y-110761747D01*
X157039670Y-111110421D01*
X157042102Y-111116658D01*
X157193472Y-111451125D01*
X157196553Y-111457071D01*
X157382605Y-111773556D01*
X157386314Y-111779159D01*
X157604939Y-112074075D01*
X157609207Y-112079234D01*
X157646606Y-112119835D01*
X157660223Y-112128013D01*
X157660682Y-112127999D01*
X157669386Y-112122654D01*
X159941728Y-109850312D01*
X159948105Y-109838632D01*
X160678158Y-109838632D01*
X160678289Y-109840465D01*
X160682540Y-109847080D01*
X162955037Y-112119577D01*
X162968345Y-112126844D01*
X162978384Y-112119722D01*
X163128239Y-111939541D01*
X163132250Y-111934160D01*
X163335676Y-111628558D01*
X163339088Y-111622789D01*
X163508898Y-111297281D01*
X163511668Y-111291203D01*
X163645927Y-110949491D01*
X163648038Y-110943144D01*
X163745222Y-110589115D01*
X163746650Y-110582566D01*
X163805664Y-110220205D01*
X163806386Y-110213560D01*
X163808107Y-110182286D01*
X167807235Y-110182286D01*
X167807687Y-110186445D01*
X167807687Y-110186449D01*
X167829776Y-110389771D01*
X167839638Y-110480553D01*
X167840634Y-110484610D01*
X167840635Y-110484613D01*
X167908706Y-110761747D01*
X167911203Y-110771914D01*
X168020674Y-111051251D01*
X168166127Y-111313657D01*
X168168610Y-111317000D01*
X168168613Y-111317005D01*
X168268220Y-111451125D01*
X168345008Y-111554519D01*
X168554173Y-111769608D01*
X168557451Y-111772188D01*
X168557456Y-111772192D01*
X168667237Y-111858581D01*
X168789947Y-111955144D01*
X169048189Y-112107868D01*
X169324360Y-112225096D01*
X169613610Y-112304769D01*
X169617755Y-112305337D01*
X169617756Y-112305337D01*
X169628524Y-112306812D01*
X169910856Y-112345486D01*
X169915032Y-112345501D01*
X169915038Y-112345501D01*
X170063416Y-112346018D01*
X170210876Y-112346533D01*
X170508399Y-112307892D01*
X170798198Y-112230241D01*
X170802040Y-112228642D01*
X170802048Y-112228639D01*
X171071331Y-112116547D01*
X171075182Y-112114944D01*
X171078779Y-112112850D01*
X171078786Y-112112847D01*
X171281642Y-111994781D01*
X171334483Y-111964027D01*
X171349276Y-111952553D01*
X171568230Y-111782714D01*
X171568231Y-111782713D01*
X171571547Y-111780141D01*
X171668844Y-111681476D01*
X171779269Y-111569499D01*
X171779274Y-111569494D01*
X171782208Y-111566518D01*
X171941809Y-111354720D01*
X171960254Y-111330243D01*
X171960256Y-111330240D01*
X171962766Y-111326909D01*
X172040694Y-111188609D01*
X172107998Y-111069165D01*
X172108001Y-111069159D01*
X172110048Y-111065526D01*
X172221466Y-110786960D01*
X172295064Y-110496105D01*
X172296864Y-110480553D01*
X172329220Y-110200904D01*
X172329548Y-110198071D01*
X172329933Y-110182286D01*
X175307235Y-110182286D01*
X175307687Y-110186445D01*
X175307687Y-110186449D01*
X175329776Y-110389771D01*
X175339638Y-110480553D01*
X175340634Y-110484610D01*
X175340635Y-110484613D01*
X175408706Y-110761747D01*
X175411203Y-110771914D01*
X175520674Y-111051251D01*
X175666127Y-111313657D01*
X175668610Y-111317000D01*
X175668613Y-111317005D01*
X175768220Y-111451125D01*
X175845008Y-111554519D01*
X176054173Y-111769608D01*
X176057451Y-111772188D01*
X176057456Y-111772192D01*
X176167237Y-111858581D01*
X176289947Y-111955144D01*
X176548189Y-112107868D01*
X176824360Y-112225096D01*
X177113610Y-112304769D01*
X177117755Y-112305337D01*
X177117756Y-112305337D01*
X177128524Y-112306812D01*
X177410856Y-112345486D01*
X177415032Y-112345501D01*
X177415038Y-112345501D01*
X177563416Y-112346018D01*
X177710876Y-112346533D01*
X178008399Y-112307892D01*
X178298198Y-112230241D01*
X178302040Y-112228642D01*
X178302048Y-112228639D01*
X178571331Y-112116547D01*
X178575182Y-112114944D01*
X178578779Y-112112850D01*
X178578786Y-112112847D01*
X178781642Y-111994781D01*
X178834483Y-111964027D01*
X178849276Y-111952553D01*
X179068230Y-111782714D01*
X179068231Y-111782713D01*
X179071547Y-111780141D01*
X179168844Y-111681476D01*
X179279269Y-111569499D01*
X179279274Y-111569494D01*
X179282208Y-111566518D01*
X179441809Y-111354720D01*
X179460254Y-111330243D01*
X179460256Y-111330240D01*
X179462766Y-111326909D01*
X179540694Y-111188609D01*
X179607998Y-111069165D01*
X179608001Y-111069159D01*
X179610048Y-111065526D01*
X179721466Y-110786960D01*
X179795064Y-110496105D01*
X179796864Y-110480553D01*
X179829220Y-110200904D01*
X179829548Y-110198071D01*
X179830745Y-110149108D01*
X179831693Y-110110293D01*
X179832250Y-110087500D01*
X179812366Y-109788138D01*
X179753065Y-109494035D01*
X179655387Y-109210358D01*
X179652569Y-109204729D01*
X179522922Y-108945831D01*
X179522921Y-108945829D01*
X179521050Y-108942093D01*
X179352412Y-108693950D01*
X179181656Y-108502969D01*
X179155225Y-108473408D01*
X179155224Y-108473407D01*
X179152438Y-108470291D01*
X178924640Y-108275045D01*
X178752348Y-108163157D01*
X178676530Y-108113920D01*
X178676525Y-108113917D01*
X178673020Y-108111641D01*
X178402000Y-107982951D01*
X178116340Y-107891236D01*
X177821060Y-107838106D01*
X177654890Y-107830560D01*
X177525517Y-107824685D01*
X177525512Y-107824685D01*
X177521347Y-107824496D01*
X177517199Y-107824859D01*
X177517195Y-107824859D01*
X177325494Y-107841631D01*
X177222467Y-107850645D01*
X177218395Y-107851555D01*
X177218390Y-107851556D01*
X176933749Y-107915181D01*
X176933746Y-107915182D01*
X176929670Y-107916093D01*
X176648102Y-108019690D01*
X176644414Y-108021634D01*
X176644406Y-108021638D01*
X176477105Y-108109846D01*
X176382708Y-108159616D01*
X176138152Y-108333413D01*
X176135103Y-108336257D01*
X176135096Y-108336262D01*
X176037707Y-108427080D01*
X175918730Y-108538028D01*
X175916077Y-108541257D01*
X175916073Y-108541262D01*
X175759964Y-108731312D01*
X175728296Y-108769865D01*
X175726090Y-108773422D01*
X175726087Y-108773427D01*
X175643068Y-108907323D01*
X175570198Y-109024851D01*
X175447212Y-109298507D01*
X175446018Y-109302513D01*
X175362690Y-109582028D01*
X175362688Y-109582036D01*
X175361499Y-109586025D01*
X175360847Y-109590142D01*
X175360846Y-109590146D01*
X175315220Y-109878222D01*
X175314566Y-109882353D01*
X175312830Y-109953370D01*
X175307453Y-110173381D01*
X175307235Y-110182286D01*
X172329933Y-110182286D01*
X172330745Y-110149108D01*
X172331693Y-110110293D01*
X172332250Y-110087500D01*
X172312366Y-109788138D01*
X172253065Y-109494035D01*
X172155387Y-109210358D01*
X172152569Y-109204729D01*
X172022922Y-108945831D01*
X172022921Y-108945829D01*
X172021050Y-108942093D01*
X171852412Y-108693950D01*
X171681656Y-108502969D01*
X171655225Y-108473408D01*
X171655224Y-108473407D01*
X171652438Y-108470291D01*
X171424640Y-108275045D01*
X171252348Y-108163157D01*
X171176530Y-108113920D01*
X171176525Y-108113917D01*
X171173020Y-108111641D01*
X170902000Y-107982951D01*
X170616340Y-107891236D01*
X170321060Y-107838106D01*
X170154890Y-107830560D01*
X170025517Y-107824685D01*
X170025512Y-107824685D01*
X170021347Y-107824496D01*
X170017199Y-107824859D01*
X170017195Y-107824859D01*
X169825494Y-107841631D01*
X169722467Y-107850645D01*
X169718395Y-107851555D01*
X169718390Y-107851556D01*
X169433749Y-107915181D01*
X169433746Y-107915182D01*
X169429670Y-107916093D01*
X169148102Y-108019690D01*
X169144414Y-108021634D01*
X169144406Y-108021638D01*
X168977105Y-108109846D01*
X168882708Y-108159616D01*
X168638152Y-108333413D01*
X168635103Y-108336257D01*
X168635096Y-108336262D01*
X168537707Y-108427080D01*
X168418730Y-108538028D01*
X168416077Y-108541257D01*
X168416073Y-108541262D01*
X168259964Y-108731312D01*
X168228296Y-108769865D01*
X168226090Y-108773422D01*
X168226087Y-108773427D01*
X168143068Y-108907323D01*
X168070198Y-109024851D01*
X167947212Y-109298507D01*
X167946018Y-109302513D01*
X167862690Y-109582028D01*
X167862688Y-109582036D01*
X167861499Y-109586025D01*
X167860847Y-109590142D01*
X167860846Y-109590146D01*
X167815220Y-109878222D01*
X167814566Y-109882353D01*
X167812830Y-109953370D01*
X167807453Y-110173381D01*
X167807235Y-110182286D01*
X163808107Y-110182286D01*
X163826652Y-109845318D01*
X163826746Y-109841935D01*
X163826749Y-109839200D01*
X163826660Y-109835811D01*
X163807037Y-109467529D01*
X163806328Y-109460895D01*
X163747946Y-109098431D01*
X163746528Y-109091873D01*
X163649967Y-108737691D01*
X163647857Y-108731312D01*
X163514206Y-108389395D01*
X163511433Y-108383282D01*
X163342196Y-108057488D01*
X163338804Y-108051730D01*
X163135903Y-107745759D01*
X163131902Y-107740372D01*
X162979496Y-107556473D01*
X162966954Y-107548018D01*
X162956247Y-107554213D01*
X160685772Y-109824688D01*
X160678158Y-109838632D01*
X159948105Y-109838632D01*
X159949342Y-109836368D01*
X159949211Y-109834535D01*
X159944960Y-109827920D01*
X157671552Y-107554512D01*
X157657608Y-107546898D01*
X157657092Y-107546934D01*
X157648694Y-107552568D01*
X157613134Y-107591037D01*
X157608841Y-107596208D01*
X157389699Y-107890746D01*
X157385994Y-107896321D01*
X157199387Y-108212486D01*
X157196293Y-108218430D01*
X157044336Y-108552642D01*
X157041897Y-108558867D01*
X156926318Y-108907323D01*
X156924547Y-108913798D01*
X156846652Y-109272559D01*
X156845581Y-109279171D01*
X156806251Y-109644182D01*
X156805888Y-109650880D01*
X156805567Y-110018005D01*
X153956021Y-110018005D01*
X154099851Y-109961494D01*
X154108437Y-109957344D01*
X154324867Y-109831631D01*
X154332727Y-109826229D01*
X154360461Y-109803891D01*
X154368927Y-109791703D01*
X154362563Y-109780523D01*
X153000672Y-108418632D01*
X153723158Y-108418632D01*
X153723289Y-108420465D01*
X153727540Y-108427080D01*
X154721264Y-109420804D01*
X154732610Y-109427000D01*
X154745099Y-109417118D01*
X154848479Y-109262399D01*
X154853166Y-109254081D01*
X154959142Y-109027332D01*
X154962510Y-109018420D01*
X155032971Y-108778241D01*
X155034954Y-108768913D01*
X155068473Y-108519361D01*
X155069005Y-108512823D01*
X155071655Y-108420795D01*
X155071500Y-108414210D01*
X155052403Y-108163157D01*
X155050961Y-108153734D01*
X154994445Y-107909907D01*
X154991589Y-107900795D01*
X154898846Y-107668334D01*
X154894643Y-107659754D01*
X154767809Y-107444001D01*
X154762350Y-107436148D01*
X154745500Y-107415450D01*
X154733177Y-107406984D01*
X154722173Y-107413287D01*
X153730772Y-108404688D01*
X153723158Y-108418632D01*
X153000672Y-108418632D01*
X151997599Y-107415559D01*
X151980837Y-107406406D01*
X151943512Y-107375370D01*
X151880413Y-107297864D01*
X151831679Y-107238004D01*
X151638966Y-107063569D01*
X151625487Y-107054664D01*
X151609083Y-107043827D01*
X152350181Y-107043827D01*
X152357058Y-107056598D01*
X153345938Y-108045478D01*
X153359882Y-108053092D01*
X153361715Y-108052961D01*
X153368330Y-108048710D01*
X154231942Y-107185098D01*
X158024524Y-107185098D01*
X158030381Y-107194921D01*
X160300938Y-109465478D01*
X160314882Y-109473092D01*
X160316715Y-109472961D01*
X160323330Y-109468710D01*
X162598139Y-107193901D01*
X162605133Y-107181093D01*
X162597291Y-107170359D01*
X162336381Y-106965412D01*
X162330901Y-106961561D01*
X162019731Y-106766742D01*
X162013865Y-106763491D01*
X161683754Y-106602842D01*
X161677594Y-106600239D01*
X161332279Y-106475578D01*
X161325855Y-106473638D01*
X160969260Y-106386379D01*
X160962671Y-106385134D01*
X160598800Y-106336261D01*
X160592146Y-106335726D01*
X160225145Y-106325795D01*
X160218444Y-106325970D01*
X159852482Y-106355093D01*
X159845835Y-106355980D01*
X159485022Y-106423830D01*
X159478535Y-106425412D01*
X159126978Y-106531219D01*
X159120669Y-106533490D01*
X158782356Y-106676052D01*
X158776330Y-106678977D01*
X158455084Y-106856681D01*
X158449396Y-106860235D01*
X158148843Y-107071075D01*
X158143577Y-107075204D01*
X158032927Y-107171901D01*
X158024524Y-107185098D01*
X154231942Y-107185098D01*
X154362376Y-107054664D01*
X154369136Y-107042284D01*
X154362575Y-107033519D01*
X154195835Y-106923365D01*
X154187497Y-106918724D01*
X153960206Y-106813942D01*
X153951252Y-106810612D01*
X153710718Y-106741412D01*
X153701385Y-106739480D01*
X153453138Y-106707459D01*
X153443624Y-106706961D01*
X153193394Y-106712857D01*
X153183911Y-106713804D01*
X152937453Y-106757482D01*
X152928213Y-106759855D01*
X152691205Y-106840309D01*
X152682434Y-106844050D01*
X152460317Y-106959431D01*
X152452217Y-106964453D01*
X152358609Y-107032838D01*
X152350181Y-107043827D01*
X151609083Y-107043827D01*
X151426079Y-106922929D01*
X151422086Y-106920291D01*
X151417746Y-106918290D01*
X151417742Y-106918288D01*
X151190380Y-106813473D01*
X151190377Y-106813472D01*
X151186028Y-106811467D01*
X151181426Y-106810143D01*
X150940819Y-106740923D01*
X150940815Y-106740922D01*
X150936226Y-106739602D01*
X150931491Y-106738991D01*
X150931485Y-106738990D01*
X150683165Y-106706959D01*
X150678428Y-106706348D01*
X150540662Y-106709595D01*
X150423346Y-106712359D01*
X150423341Y-106712359D01*
X150418566Y-106712472D01*
X150338680Y-106726630D01*
X150167324Y-106756999D01*
X150167320Y-106757000D01*
X150162620Y-106757833D01*
X149916480Y-106841386D01*
X149685811Y-106961209D01*
X149475921Y-107114544D01*
X149472529Y-107117918D01*
X149472527Y-107117920D01*
X149395122Y-107194921D01*
X149291639Y-107297864D01*
X149290367Y-107296585D01*
X149237160Y-107330922D01*
X149166163Y-107331056D01*
X149103721Y-107289644D01*
X149064701Y-107241716D01*
X149061679Y-107238004D01*
X148868966Y-107063569D01*
X148855487Y-107054664D01*
X148656079Y-106922929D01*
X148652086Y-106920291D01*
X148647746Y-106918290D01*
X148647742Y-106918288D01*
X148420380Y-106813473D01*
X148420377Y-106813472D01*
X148416028Y-106811467D01*
X148411426Y-106810143D01*
X148170819Y-106740923D01*
X148170815Y-106740922D01*
X148166226Y-106739602D01*
X148161491Y-106738991D01*
X148161485Y-106738990D01*
X147913165Y-106706959D01*
X147908428Y-106706348D01*
X147770662Y-106709595D01*
X147653346Y-106712359D01*
X147653341Y-106712359D01*
X147648566Y-106712472D01*
X147568680Y-106726630D01*
X147397324Y-106756999D01*
X147397320Y-106757000D01*
X147392620Y-106757833D01*
X147146480Y-106841386D01*
X146915811Y-106961209D01*
X146705921Y-107114544D01*
X146702529Y-107117918D01*
X146702527Y-107117920D01*
X146625122Y-107194921D01*
X146521639Y-107297864D01*
X146520367Y-107296585D01*
X146467160Y-107330922D01*
X146396163Y-107331056D01*
X146333721Y-107289644D01*
X146294701Y-107241716D01*
X146291679Y-107238004D01*
X146098966Y-107063569D01*
X146085487Y-107054664D01*
X145886079Y-106922929D01*
X145882086Y-106920291D01*
X145877746Y-106918290D01*
X145877742Y-106918288D01*
X145650380Y-106813473D01*
X145650377Y-106813472D01*
X145646028Y-106811467D01*
X145641426Y-106810143D01*
X145400819Y-106740923D01*
X145400815Y-106740922D01*
X145396226Y-106739602D01*
X145391491Y-106738991D01*
X145391485Y-106738990D01*
X145143165Y-106706959D01*
X145138428Y-106706348D01*
X145000662Y-106709595D01*
X144883346Y-106712359D01*
X144883341Y-106712359D01*
X144878566Y-106712472D01*
X144798680Y-106726630D01*
X144627324Y-106756999D01*
X144627320Y-106757000D01*
X144622620Y-106757833D01*
X144376480Y-106841386D01*
X144145811Y-106961209D01*
X143935921Y-107114544D01*
X143932529Y-107117918D01*
X143932527Y-107117920D01*
X143855122Y-107194921D01*
X143751639Y-107297864D01*
X143750367Y-107296585D01*
X143697160Y-107330922D01*
X143626163Y-107331056D01*
X143563721Y-107289644D01*
X143524701Y-107241716D01*
X143521679Y-107238004D01*
X143328966Y-107063569D01*
X143315487Y-107054664D01*
X143116079Y-106922929D01*
X143112086Y-106920291D01*
X143107746Y-106918290D01*
X143107742Y-106918288D01*
X142880380Y-106813473D01*
X142880377Y-106813472D01*
X142876028Y-106811467D01*
X142871426Y-106810143D01*
X142630819Y-106740923D01*
X142630815Y-106740922D01*
X142626226Y-106739602D01*
X142621491Y-106738991D01*
X142621485Y-106738990D01*
X142373165Y-106706959D01*
X142368428Y-106706348D01*
X142230662Y-106709595D01*
X142113346Y-106712359D01*
X142113341Y-106712359D01*
X142108566Y-106712472D01*
X142028680Y-106726630D01*
X141857324Y-106756999D01*
X141857320Y-106757000D01*
X141852620Y-106757833D01*
X141606480Y-106841386D01*
X141375811Y-106961209D01*
X141165921Y-107114544D01*
X141162529Y-107117918D01*
X141162527Y-107117920D01*
X140985032Y-107294488D01*
X140985028Y-107294493D01*
X140981639Y-107297864D01*
X140827207Y-107506949D01*
X140706177Y-107736987D01*
X140704616Y-107741508D01*
X140644647Y-107915181D01*
X140621337Y-107982686D01*
X140574637Y-108238390D01*
X140574499Y-108243172D01*
X140574499Y-108243174D01*
X140573581Y-108275045D01*
X140567152Y-108498217D01*
X140573883Y-108552642D01*
X140596768Y-108737691D01*
X140599055Y-108756186D01*
X140600353Y-108760789D01*
X140600354Y-108760793D01*
X140605275Y-108778241D01*
X140669612Y-109006361D01*
X140671594Y-109010721D01*
X140671598Y-109010731D01*
X140671677Y-109010905D01*
X140671687Y-109010974D01*
X140673238Y-109015213D01*
X140672336Y-109015543D01*
X140681658Y-109081197D01*
X140648823Y-109149298D01*
X140615887Y-109184372D01*
X140613131Y-109187215D01*
X140592812Y-109207534D01*
X140590388Y-109210659D01*
X140590381Y-109210667D01*
X140590161Y-109210951D01*
X140582453Y-109219976D01*
X140552193Y-109252200D01*
X140546586Y-109262399D01*
X140542437Y-109269946D01*
X140531586Y-109286465D01*
X140524028Y-109296209D01*
X140524025Y-109296214D01*
X140519167Y-109302477D01*
X140516018Y-109309755D01*
X140501611Y-109343047D01*
X140496388Y-109353708D01*
X140475088Y-109392453D01*
X140473116Y-109400135D01*
X140473115Y-109400136D01*
X140470048Y-109412078D01*
X140463648Y-109430773D01*
X140455603Y-109449365D01*
X140454363Y-109457194D01*
X140448687Y-109493029D01*
X140446280Y-109504650D01*
X140436763Y-109541719D01*
X140435285Y-109547476D01*
X140435250Y-109548032D01*
X140435250Y-109567954D01*
X140433699Y-109587663D01*
X140430566Y-109607445D01*
X140431312Y-109615337D01*
X140434691Y-109651083D01*
X140435250Y-109662941D01*
X140435251Y-114087341D01*
X140435251Y-118509100D01*
X140434736Y-118520020D01*
X140433084Y-118527412D01*
X140433333Y-118535335D01*
X140435189Y-118594384D01*
X140435251Y-118598342D01*
X140435251Y-118627078D01*
X140435746Y-118630995D01*
X140435790Y-118631344D01*
X140436722Y-118643178D01*
X140438112Y-118687383D01*
X140440325Y-118694999D01*
X140440325Y-118695001D01*
X140443764Y-118706839D01*
X140447773Y-118726198D01*
X140450311Y-118746288D01*
X140453231Y-118753663D01*
X140466583Y-118787389D01*
X140470428Y-118798618D01*
X140482764Y-118841078D01*
X140486799Y-118847901D01*
X140493077Y-118858517D01*
X140501773Y-118876269D01*
X140509229Y-118895100D01*
X140513891Y-118901516D01*
X140535218Y-118930871D01*
X140541733Y-118940789D01*
X140564237Y-118978841D01*
X140564605Y-118979259D01*
X140578688Y-118993342D01*
X140591529Y-119008375D01*
X140603305Y-119024583D01*
X140609412Y-119029635D01*
X140637080Y-119052524D01*
X140645860Y-119060514D01*
X140949751Y-119364405D01*
X140983777Y-119426717D01*
X140978712Y-119497532D01*
X140936165Y-119554368D01*
X140869645Y-119579179D01*
X140860656Y-119579500D01*
X115952750Y-119579500D01*
X115884629Y-119559498D01*
X115838136Y-119505842D01*
X115826750Y-119453500D01*
X115826750Y-116240063D01*
X115846752Y-116171942D01*
X115900408Y-116125449D01*
X115970682Y-116115345D01*
X116035262Y-116144839D01*
X116062952Y-116178977D01*
X116145113Y-116327199D01*
X116147596Y-116330542D01*
X116147599Y-116330547D01*
X116316159Y-116557511D01*
X116325970Y-116570722D01*
X116537445Y-116788187D01*
X116540723Y-116790767D01*
X116540728Y-116790771D01*
X116763570Y-116966130D01*
X116775823Y-116975772D01*
X116779429Y-116977904D01*
X116779431Y-116977906D01*
X116876656Y-117035404D01*
X117036917Y-117130183D01*
X117316139Y-117248705D01*
X117608583Y-117329258D01*
X117612728Y-117329826D01*
X117612729Y-117329826D01*
X117623753Y-117331336D01*
X117909112Y-117370425D01*
X117913288Y-117370440D01*
X117913294Y-117370440D01*
X118063399Y-117370964D01*
X118212446Y-117371484D01*
X118513255Y-117332416D01*
X118762482Y-117265636D01*
X118802218Y-117254989D01*
X118802222Y-117254988D01*
X118806255Y-117253907D01*
X119062969Y-117147047D01*
X119082438Y-117138943D01*
X119082441Y-117138942D01*
X119086298Y-117137336D01*
X119089901Y-117135239D01*
X119089905Y-117135237D01*
X119222604Y-117058004D01*
X119348463Y-116984752D01*
X119588145Y-116798836D01*
X119591086Y-116795854D01*
X119798194Y-116585834D01*
X119798199Y-116585829D01*
X119801133Y-116582853D01*
X119983685Y-116340598D01*
X120132594Y-116076328D01*
X120245243Y-115794685D01*
X120250019Y-115775813D01*
X120318627Y-115504672D01*
X120319653Y-115500618D01*
X120320176Y-115496105D01*
X120354190Y-115202126D01*
X120354518Y-115199293D01*
X120354807Y-115187495D01*
X120354934Y-115182286D01*
X123307235Y-115182286D01*
X123307687Y-115186445D01*
X123307687Y-115186449D01*
X123309258Y-115200904D01*
X123339638Y-115480553D01*
X123340634Y-115484610D01*
X123340635Y-115484613D01*
X123344454Y-115500159D01*
X123411203Y-115771914D01*
X123520674Y-116051251D01*
X123666127Y-116313657D01*
X123668610Y-116317000D01*
X123668613Y-116317005D01*
X123683434Y-116336961D01*
X123845008Y-116554519D01*
X124054173Y-116769608D01*
X124057451Y-116772188D01*
X124057456Y-116772192D01*
X124171582Y-116862000D01*
X124289947Y-116955144D01*
X124293552Y-116957276D01*
X124293555Y-116957278D01*
X124390132Y-117014393D01*
X124548189Y-117107868D01*
X124824360Y-117225096D01*
X125113610Y-117304769D01*
X125117755Y-117305337D01*
X125117756Y-117305337D01*
X125128524Y-117306812D01*
X125410856Y-117345486D01*
X125415032Y-117345501D01*
X125415038Y-117345501D01*
X125563416Y-117346018D01*
X125710876Y-117346533D01*
X126008399Y-117307892D01*
X126298198Y-117230241D01*
X126302040Y-117228642D01*
X126302048Y-117228639D01*
X126571331Y-117116547D01*
X126575182Y-117114944D01*
X126578779Y-117112850D01*
X126578786Y-117112847D01*
X126795267Y-116986851D01*
X126834483Y-116964027D01*
X126849276Y-116952553D01*
X127068230Y-116782714D01*
X127068231Y-116782713D01*
X127071547Y-116780141D01*
X127263160Y-116585834D01*
X127279269Y-116569499D01*
X127279274Y-116569494D01*
X127282208Y-116566518D01*
X127293774Y-116551169D01*
X127460254Y-116330243D01*
X127460256Y-116330240D01*
X127462766Y-116326909D01*
X127550086Y-116171942D01*
X127607998Y-116069165D01*
X127608001Y-116069159D01*
X127610048Y-116065526D01*
X127721466Y-115786960D01*
X127724390Y-115775407D01*
X127760587Y-115632357D01*
X127795064Y-115496105D01*
X127795892Y-115488954D01*
X127829220Y-115200904D01*
X127829548Y-115198071D01*
X127829807Y-115187495D01*
X127832180Y-115090355D01*
X127832250Y-115087500D01*
X127812366Y-114788138D01*
X127753065Y-114494035D01*
X127655387Y-114210358D01*
X127630240Y-114160139D01*
X127522922Y-113945831D01*
X127522921Y-113945829D01*
X127521050Y-113942093D01*
X127352412Y-113693950D01*
X127152438Y-113470291D01*
X126924640Y-113275045D01*
X126810921Y-113201195D01*
X126676530Y-113113920D01*
X126676525Y-113113917D01*
X126673020Y-113111641D01*
X126600366Y-113077142D01*
X126426541Y-112994604D01*
X126402000Y-112982951D01*
X126116340Y-112891236D01*
X125821060Y-112838106D01*
X125654890Y-112830560D01*
X125525517Y-112824685D01*
X125525512Y-112824685D01*
X125521347Y-112824496D01*
X125517199Y-112824859D01*
X125517195Y-112824859D01*
X125325494Y-112841631D01*
X125222467Y-112850645D01*
X125218395Y-112851555D01*
X125218390Y-112851556D01*
X124933749Y-112915181D01*
X124933746Y-112915182D01*
X124929670Y-112916093D01*
X124648102Y-113019690D01*
X124644414Y-113021634D01*
X124644406Y-113021638D01*
X124451536Y-113123327D01*
X124382708Y-113159616D01*
X124138152Y-113333413D01*
X124135103Y-113336257D01*
X124135096Y-113336262D01*
X124013960Y-113449224D01*
X123918730Y-113538028D01*
X123916077Y-113541257D01*
X123916073Y-113541262D01*
X123755782Y-113736404D01*
X123728296Y-113769865D01*
X123726090Y-113773422D01*
X123726087Y-113773427D01*
X123673962Y-113857496D01*
X123570198Y-114024851D01*
X123447212Y-114298507D01*
X123428689Y-114360642D01*
X123362690Y-114582028D01*
X123362688Y-114582036D01*
X123361499Y-114586025D01*
X123360847Y-114590142D01*
X123360846Y-114590146D01*
X123315220Y-114878222D01*
X123314566Y-114882353D01*
X123307235Y-115182286D01*
X120354934Y-115182286D01*
X120357180Y-115090355D01*
X120357250Y-115087500D01*
X120337147Y-114784831D01*
X120277190Y-114487480D01*
X120183130Y-114214309D01*
X120179799Y-114204635D01*
X120179799Y-114204634D01*
X120178434Y-114200671D01*
X120153363Y-114150604D01*
X120044485Y-113933180D01*
X120044484Y-113933178D01*
X120042613Y-113929442D01*
X119872113Y-113678559D01*
X119869328Y-113675444D01*
X119672715Y-113455543D01*
X119672709Y-113455537D01*
X119669930Y-113452429D01*
X119666246Y-113449271D01*
X119466145Y-113277764D01*
X119439616Y-113255026D01*
X119436113Y-113252751D01*
X119188716Y-113092090D01*
X119188713Y-113092088D01*
X119185217Y-113089818D01*
X118911203Y-112959707D01*
X118907220Y-112958428D01*
X118907217Y-112958427D01*
X118626368Y-112868256D01*
X118622388Y-112866978D01*
X118323847Y-112813262D01*
X118155637Y-112805624D01*
X118024993Y-112799691D01*
X118024988Y-112799691D01*
X118020823Y-112799502D01*
X118016675Y-112799865D01*
X118016670Y-112799865D01*
X117894748Y-112810532D01*
X117718642Y-112825939D01*
X117529328Y-112868256D01*
X117429833Y-112890496D01*
X117422612Y-112892110D01*
X117418689Y-112893554D01*
X117418687Y-112893554D01*
X117261031Y-112951560D01*
X117137933Y-112996851D01*
X117134233Y-112998802D01*
X117134228Y-112998804D01*
X116898050Y-113123327D01*
X116869608Y-113138323D01*
X116622351Y-113314040D01*
X116400505Y-113520914D01*
X116207969Y-113755312D01*
X116085993Y-113952039D01*
X116059836Y-113994225D01*
X116006940Y-114041580D01*
X115936839Y-114052819D01*
X115871789Y-114024375D01*
X115832444Y-113965278D01*
X115826750Y-113927828D01*
X115826750Y-112492152D01*
X133034555Y-112492152D01*
X133041014Y-112501513D01*
X133148765Y-112596009D01*
X133154011Y-112600137D01*
X133454216Y-112811516D01*
X133459870Y-112815063D01*
X133780823Y-112993336D01*
X133786835Y-112996268D01*
X134124920Y-113139429D01*
X134131204Y-113141703D01*
X134482571Y-113248122D01*
X134489072Y-113249720D01*
X134849772Y-113318200D01*
X134856394Y-113319095D01*
X135222310Y-113348857D01*
X135229016Y-113349045D01*
X135596022Y-113339756D01*
X135602704Y-113339230D01*
X135966650Y-113290992D01*
X135973230Y-113289761D01*
X136329982Y-113203123D01*
X136336410Y-113201195D01*
X136681926Y-113077142D01*
X136688122Y-113074537D01*
X137018490Y-112914476D01*
X137024377Y-112911226D01*
X137335879Y-112716955D01*
X137341362Y-112713116D01*
X137606894Y-112505286D01*
X137615364Y-112493450D01*
X137608837Y-112481797D01*
X135336562Y-110209522D01*
X135322618Y-110201908D01*
X135320785Y-110202039D01*
X135314170Y-110206290D01*
X133042069Y-112478391D01*
X133034555Y-112492152D01*
X115826750Y-112492152D01*
X115826750Y-111188609D01*
X115846752Y-111120488D01*
X115900408Y-111073995D01*
X115970682Y-111063891D01*
X116035262Y-111093385D01*
X116062952Y-111127523D01*
X116166127Y-111313657D01*
X116168610Y-111317000D01*
X116168613Y-111317005D01*
X116268220Y-111451125D01*
X116345008Y-111554519D01*
X116554173Y-111769608D01*
X116557451Y-111772188D01*
X116557456Y-111772192D01*
X116667237Y-111858581D01*
X116789947Y-111955144D01*
X117048189Y-112107868D01*
X117324360Y-112225096D01*
X117613610Y-112304769D01*
X117617755Y-112305337D01*
X117617756Y-112305337D01*
X117628524Y-112306812D01*
X117910856Y-112345486D01*
X117915032Y-112345501D01*
X117915038Y-112345501D01*
X118063416Y-112346018D01*
X118210876Y-112346533D01*
X118508399Y-112307892D01*
X118798198Y-112230241D01*
X118802040Y-112228642D01*
X118802048Y-112228639D01*
X119071331Y-112116547D01*
X119075182Y-112114944D01*
X119078779Y-112112850D01*
X119078786Y-112112847D01*
X119281642Y-111994781D01*
X119334483Y-111964027D01*
X119349276Y-111952553D01*
X119568230Y-111782714D01*
X119568231Y-111782713D01*
X119571547Y-111780141D01*
X119668844Y-111681476D01*
X119779269Y-111569499D01*
X119779274Y-111569494D01*
X119782208Y-111566518D01*
X119941809Y-111354720D01*
X119960254Y-111330243D01*
X119960256Y-111330240D01*
X119962766Y-111326909D01*
X120040694Y-111188609D01*
X120107998Y-111069165D01*
X120108001Y-111069159D01*
X120110048Y-111065526D01*
X120221466Y-110786960D01*
X120295064Y-110496105D01*
X120296864Y-110480553D01*
X120329220Y-110200904D01*
X120329548Y-110198071D01*
X120329933Y-110182286D01*
X123307235Y-110182286D01*
X123307687Y-110186445D01*
X123307687Y-110186449D01*
X123329776Y-110389771D01*
X123339638Y-110480553D01*
X123340634Y-110484610D01*
X123340635Y-110484613D01*
X123408706Y-110761747D01*
X123411203Y-110771914D01*
X123520674Y-111051251D01*
X123666127Y-111313657D01*
X123668610Y-111317000D01*
X123668613Y-111317005D01*
X123768220Y-111451125D01*
X123845008Y-111554519D01*
X124054173Y-111769608D01*
X124057451Y-111772188D01*
X124057456Y-111772192D01*
X124167237Y-111858581D01*
X124289947Y-111955144D01*
X124548189Y-112107868D01*
X124824360Y-112225096D01*
X125113610Y-112304769D01*
X125117755Y-112305337D01*
X125117756Y-112305337D01*
X125128524Y-112306812D01*
X125410856Y-112345486D01*
X125415032Y-112345501D01*
X125415038Y-112345501D01*
X125563416Y-112346018D01*
X125710876Y-112346533D01*
X126008399Y-112307892D01*
X126298198Y-112230241D01*
X126302040Y-112228642D01*
X126302048Y-112228639D01*
X126571331Y-112116547D01*
X126575182Y-112114944D01*
X126578779Y-112112850D01*
X126578786Y-112112847D01*
X126781642Y-111994781D01*
X126834483Y-111964027D01*
X126849276Y-111952553D01*
X127068230Y-111782714D01*
X127068231Y-111782713D01*
X127071547Y-111780141D01*
X127168844Y-111681476D01*
X127279269Y-111569499D01*
X127279274Y-111569494D01*
X127282208Y-111566518D01*
X127441809Y-111354720D01*
X127460254Y-111330243D01*
X127460256Y-111330240D01*
X127462766Y-111326909D01*
X127540694Y-111188609D01*
X127607998Y-111069165D01*
X127608001Y-111069159D01*
X127610048Y-111065526D01*
X127721466Y-110786960D01*
X127795064Y-110496105D01*
X127796864Y-110480553D01*
X127829220Y-110200904D01*
X127829548Y-110198071D01*
X127830745Y-110149108D01*
X127831693Y-110110293D01*
X127832250Y-110087500D01*
X127827635Y-110018005D01*
X131815567Y-110018005D01*
X131815917Y-110024691D01*
X131854611Y-110389771D01*
X131855671Y-110396386D01*
X131932944Y-110755304D01*
X131934694Y-110761747D01*
X132049670Y-111110421D01*
X132052102Y-111116658D01*
X132203472Y-111451125D01*
X132206553Y-111457071D01*
X132392605Y-111773556D01*
X132396314Y-111779159D01*
X132614939Y-112074075D01*
X132619207Y-112079234D01*
X132656606Y-112119835D01*
X132670223Y-112128013D01*
X132670682Y-112127999D01*
X132679386Y-112122654D01*
X134951728Y-109850312D01*
X134958105Y-109838632D01*
X135688158Y-109838632D01*
X135688289Y-109840465D01*
X135692540Y-109847080D01*
X137965037Y-112119577D01*
X137978345Y-112126844D01*
X137988384Y-112119722D01*
X138138239Y-111939541D01*
X138142250Y-111934160D01*
X138345676Y-111628558D01*
X138349088Y-111622789D01*
X138518898Y-111297281D01*
X138521668Y-111291203D01*
X138655927Y-110949491D01*
X138658038Y-110943144D01*
X138755222Y-110589115D01*
X138756650Y-110582566D01*
X138815664Y-110220205D01*
X138816386Y-110213560D01*
X138836652Y-109845318D01*
X138836746Y-109841935D01*
X138836749Y-109839200D01*
X138836660Y-109835811D01*
X138817037Y-109467529D01*
X138816328Y-109460895D01*
X138757946Y-109098431D01*
X138756528Y-109091873D01*
X138659967Y-108737691D01*
X138657857Y-108731312D01*
X138524206Y-108389395D01*
X138521433Y-108383282D01*
X138352196Y-108057488D01*
X138348804Y-108051730D01*
X138145903Y-107745759D01*
X138141902Y-107740372D01*
X137989496Y-107556473D01*
X137976954Y-107548018D01*
X137966247Y-107554213D01*
X135695772Y-109824688D01*
X135688158Y-109838632D01*
X134958105Y-109838632D01*
X134959342Y-109836368D01*
X134959211Y-109834535D01*
X134954960Y-109827920D01*
X132681552Y-107554512D01*
X132667608Y-107546898D01*
X132667092Y-107546934D01*
X132658694Y-107552568D01*
X132623134Y-107591037D01*
X132618841Y-107596208D01*
X132399699Y-107890746D01*
X132395994Y-107896321D01*
X132209387Y-108212486D01*
X132206293Y-108218430D01*
X132054336Y-108552642D01*
X132051897Y-108558867D01*
X131936318Y-108907323D01*
X131934547Y-108913798D01*
X131856652Y-109272559D01*
X131855581Y-109279171D01*
X131816251Y-109644182D01*
X131815888Y-109650880D01*
X131815567Y-110018005D01*
X127827635Y-110018005D01*
X127812366Y-109788138D01*
X127753065Y-109494035D01*
X127655387Y-109210358D01*
X127652569Y-109204729D01*
X127522922Y-108945831D01*
X127522921Y-108945829D01*
X127521050Y-108942093D01*
X127352412Y-108693950D01*
X127181656Y-108502969D01*
X127155225Y-108473408D01*
X127155224Y-108473407D01*
X127152438Y-108470291D01*
X126924640Y-108275045D01*
X126752348Y-108163157D01*
X126676530Y-108113920D01*
X126676525Y-108113917D01*
X126673020Y-108111641D01*
X126402000Y-107982951D01*
X126116340Y-107891236D01*
X125821060Y-107838106D01*
X125654890Y-107830560D01*
X125525517Y-107824685D01*
X125525512Y-107824685D01*
X125521347Y-107824496D01*
X125517199Y-107824859D01*
X125517195Y-107824859D01*
X125325494Y-107841631D01*
X125222467Y-107850645D01*
X125218395Y-107851555D01*
X125218390Y-107851556D01*
X124933749Y-107915181D01*
X124933746Y-107915182D01*
X124929670Y-107916093D01*
X124648102Y-108019690D01*
X124644414Y-108021634D01*
X124644406Y-108021638D01*
X124477105Y-108109846D01*
X124382708Y-108159616D01*
X124138152Y-108333413D01*
X124135103Y-108336257D01*
X124135096Y-108336262D01*
X124037707Y-108427080D01*
X123918730Y-108538028D01*
X123916077Y-108541257D01*
X123916073Y-108541262D01*
X123759964Y-108731312D01*
X123728296Y-108769865D01*
X123726090Y-108773422D01*
X123726087Y-108773427D01*
X123643068Y-108907323D01*
X123570198Y-109024851D01*
X123447212Y-109298507D01*
X123446018Y-109302513D01*
X123362690Y-109582028D01*
X123362688Y-109582036D01*
X123361499Y-109586025D01*
X123360847Y-109590142D01*
X123360846Y-109590146D01*
X123315220Y-109878222D01*
X123314566Y-109882353D01*
X123312830Y-109953370D01*
X123307453Y-110173381D01*
X123307235Y-110182286D01*
X120329933Y-110182286D01*
X120330745Y-110149108D01*
X120331693Y-110110293D01*
X120332250Y-110087500D01*
X120312366Y-109788138D01*
X120253065Y-109494035D01*
X120155387Y-109210358D01*
X120152569Y-109204729D01*
X120022922Y-108945831D01*
X120022921Y-108945829D01*
X120021050Y-108942093D01*
X119852412Y-108693950D01*
X119681656Y-108502969D01*
X119655225Y-108473408D01*
X119655224Y-108473407D01*
X119652438Y-108470291D01*
X119424640Y-108275045D01*
X119252348Y-108163157D01*
X119176530Y-108113920D01*
X119176525Y-108113917D01*
X119173020Y-108111641D01*
X118902000Y-107982951D01*
X118616340Y-107891236D01*
X118321060Y-107838106D01*
X118154890Y-107830560D01*
X118025517Y-107824685D01*
X118025512Y-107824685D01*
X118021347Y-107824496D01*
X118017199Y-107824859D01*
X118017195Y-107824859D01*
X117825494Y-107841631D01*
X117722467Y-107850645D01*
X117718395Y-107851555D01*
X117718390Y-107851556D01*
X117433749Y-107915181D01*
X117433746Y-107915182D01*
X117429670Y-107916093D01*
X117148102Y-108019690D01*
X117144414Y-108021634D01*
X117144406Y-108021638D01*
X116977105Y-108109846D01*
X116882708Y-108159616D01*
X116638152Y-108333413D01*
X116635103Y-108336257D01*
X116635096Y-108336262D01*
X116537707Y-108427080D01*
X116418730Y-108538028D01*
X116416077Y-108541257D01*
X116416073Y-108541262D01*
X116259964Y-108731312D01*
X116228296Y-108769865D01*
X116226090Y-108773422D01*
X116226087Y-108773427D01*
X116143068Y-108907323D01*
X116070198Y-109024851D01*
X116068485Y-109028663D01*
X116068480Y-109028672D01*
X116067675Y-109030464D01*
X116067286Y-109030919D01*
X116066521Y-109032357D01*
X116066200Y-109032187D01*
X116021505Y-109084397D01*
X115953506Y-109104808D01*
X115885266Y-109085215D01*
X115838452Y-109031839D01*
X115826750Y-108978810D01*
X115826750Y-107185098D01*
X133034524Y-107185098D01*
X133040381Y-107194921D01*
X135310938Y-109465478D01*
X135324882Y-109473092D01*
X135326715Y-109472961D01*
X135333330Y-109468710D01*
X137608139Y-107193901D01*
X137615133Y-107181093D01*
X137607291Y-107170359D01*
X137346381Y-106965412D01*
X137340901Y-106961561D01*
X137029731Y-106766742D01*
X137023865Y-106763491D01*
X136693754Y-106602842D01*
X136687594Y-106600239D01*
X136342279Y-106475578D01*
X136335855Y-106473638D01*
X135979260Y-106386379D01*
X135972671Y-106385134D01*
X135608800Y-106336261D01*
X135602146Y-106335726D01*
X135235145Y-106325795D01*
X135228444Y-106325970D01*
X134862482Y-106355093D01*
X134855835Y-106355980D01*
X134495022Y-106423830D01*
X134488535Y-106425412D01*
X134136978Y-106531219D01*
X134130669Y-106533490D01*
X133792356Y-106676052D01*
X133786330Y-106678977D01*
X133465084Y-106856681D01*
X133459396Y-106860235D01*
X133158843Y-107071075D01*
X133153577Y-107075204D01*
X133042927Y-107171901D01*
X133034524Y-107185098D01*
X115826750Y-107185098D01*
X115826750Y-95166836D01*
X123057743Y-95166836D01*
X123091722Y-95388887D01*
X123093539Y-95394194D01*
X123161956Y-95594024D01*
X123164485Y-95601412D01*
X123273734Y-95797692D01*
X123277285Y-95802030D01*
X123277288Y-95802035D01*
X123403163Y-95955825D01*
X123416014Y-95971525D01*
X123420277Y-95975166D01*
X123420282Y-95975171D01*
X123568543Y-96101797D01*
X123586828Y-96117414D01*
X123602918Y-96126816D01*
X123775931Y-96227917D01*
X123775934Y-96227918D01*
X123780778Y-96230749D01*
X123786048Y-96232678D01*
X123786049Y-96232678D01*
X123986468Y-96306021D01*
X123986472Y-96306022D01*
X123991732Y-96307947D01*
X123997249Y-96308910D01*
X123997253Y-96308911D01*
X124177787Y-96340419D01*
X124213023Y-96346569D01*
X124218629Y-96346540D01*
X124218633Y-96346540D01*
X124321687Y-96346000D01*
X124437656Y-96345393D01*
X124445863Y-96343872D01*
X124653010Y-96305479D01*
X124653009Y-96305479D01*
X124658530Y-96304456D01*
X124665057Y-96301990D01*
X124740810Y-96273365D01*
X124868664Y-96225053D01*
X124874227Y-96221724D01*
X125012121Y-96139196D01*
X126631884Y-96139196D01*
X126637165Y-96146251D01*
X126776142Y-96227463D01*
X126786263Y-96232226D01*
X126986598Y-96305538D01*
X126997383Y-96308428D01*
X127207542Y-96345106D01*
X127218674Y-96346041D01*
X127431994Y-96344924D01*
X127443128Y-96343872D01*
X127652876Y-96304997D01*
X127663647Y-96301990D01*
X127863202Y-96226585D01*
X127873258Y-96221724D01*
X127995660Y-96148467D01*
X128005229Y-96138110D01*
X128001686Y-96129646D01*
X127331562Y-95459522D01*
X127317618Y-95451908D01*
X127315785Y-95452039D01*
X127309170Y-95456290D01*
X126638644Y-96126816D01*
X126631884Y-96139196D01*
X125012121Y-96139196D01*
X125061417Y-96109693D01*
X125230694Y-95962023D01*
X125371146Y-95786710D01*
X125478333Y-95589296D01*
X125548867Y-95376021D01*
X125579440Y-95161198D01*
X126058389Y-95161198D01*
X126059091Y-95172350D01*
X126091358Y-95383217D01*
X126094025Y-95394078D01*
X126163125Y-95595900D01*
X126167673Y-95606114D01*
X126256569Y-95765830D01*
X126266622Y-95775721D01*
X126274225Y-95772815D01*
X126946728Y-95100312D01*
X126953105Y-95088632D01*
X127683158Y-95088632D01*
X127683289Y-95090465D01*
X127687540Y-95097080D01*
X128360087Y-95769627D01*
X128372467Y-95776387D01*
X128378731Y-95771698D01*
X128475199Y-95594024D01*
X128479633Y-95583778D01*
X128546620Y-95381229D01*
X128549170Y-95370356D01*
X128579508Y-95157192D01*
X128580114Y-95149974D01*
X128581655Y-95091132D01*
X128581427Y-95083879D01*
X128562288Y-94869437D01*
X128560306Y-94858423D01*
X128504017Y-94652665D01*
X128500123Y-94642192D01*
X128408283Y-94449646D01*
X128402591Y-94440023D01*
X128380904Y-94409841D01*
X128370113Y-94401429D01*
X128357077Y-94408383D01*
X127690772Y-95074688D01*
X127683158Y-95088632D01*
X126953105Y-95088632D01*
X126954342Y-95086368D01*
X126954211Y-95084535D01*
X126949960Y-95077920D01*
X126280520Y-94408480D01*
X126268140Y-94401720D01*
X126260168Y-94407688D01*
X126196390Y-94509359D01*
X126191317Y-94519315D01*
X126111748Y-94717247D01*
X126108517Y-94727947D01*
X126065258Y-94936837D01*
X126063973Y-94947944D01*
X126058389Y-95161198D01*
X125579440Y-95161198D01*
X125580518Y-95153626D01*
X125580921Y-95138249D01*
X125582155Y-95091131D01*
X125582155Y-95091129D01*
X125582250Y-95087500D01*
X125562281Y-94863753D01*
X125503006Y-94647079D01*
X125437207Y-94509127D01*
X125408715Y-94449393D01*
X125408714Y-94449392D01*
X125406298Y-94444326D01*
X125375473Y-94401429D01*
X125278490Y-94266463D01*
X125278488Y-94266461D01*
X125275213Y-94261903D01*
X125113896Y-94105576D01*
X125008703Y-94034889D01*
X126630693Y-94034889D01*
X126637326Y-94046866D01*
X127305938Y-94715478D01*
X127319882Y-94723092D01*
X127321715Y-94722961D01*
X127328330Y-94718710D01*
X127997594Y-94049446D01*
X128003818Y-94038048D01*
X127994007Y-94025614D01*
X127931865Y-93983857D01*
X127922065Y-93978469D01*
X127726738Y-93892725D01*
X127716139Y-93889158D01*
X127508710Y-93839359D01*
X127497648Y-93837726D01*
X127284685Y-93825446D01*
X127273501Y-93825798D01*
X127061731Y-93851426D01*
X127050794Y-93853750D01*
X126846898Y-93916476D01*
X126836554Y-93920697D01*
X126646985Y-94018542D01*
X126638867Y-94023694D01*
X126630693Y-94034889D01*
X125008703Y-94034889D01*
X124927446Y-93980287D01*
X124922298Y-93978027D01*
X124726902Y-93892254D01*
X124726898Y-93892253D01*
X124721755Y-93889995D01*
X124716300Y-93888685D01*
X124716296Y-93888684D01*
X124508780Y-93838863D01*
X124508776Y-93838862D01*
X124503326Y-93837554D01*
X124457894Y-93834934D01*
X124284670Y-93824946D01*
X124284667Y-93824946D01*
X124279063Y-93824623D01*
X124056054Y-93851611D01*
X124050692Y-93853261D01*
X124050690Y-93853261D01*
X123966927Y-93879030D01*
X123841348Y-93917663D01*
X123836368Y-93920233D01*
X123836364Y-93920235D01*
X123720016Y-93980287D01*
X123641733Y-94020692D01*
X123463517Y-94157441D01*
X123312334Y-94323589D01*
X123309352Y-94328343D01*
X123233259Y-94449646D01*
X123192963Y-94513883D01*
X123109177Y-94722308D01*
X123063624Y-94942277D01*
X123057743Y-95166836D01*
X115826750Y-95166836D01*
X115826750Y-91531479D01*
X123060250Y-91531479D01*
X123060250Y-92630385D01*
X123075728Y-92763142D01*
X123136063Y-92929364D01*
X123140074Y-92935481D01*
X123215267Y-93050168D01*
X123233020Y-93077246D01*
X123361396Y-93198858D01*
X123514306Y-93287675D01*
X123683547Y-93338933D01*
X123689987Y-93339508D01*
X123689988Y-93339508D01*
X123759936Y-93345751D01*
X123759942Y-93345751D01*
X123762729Y-93346000D01*
X124861635Y-93346000D01*
X124956855Y-93334898D01*
X124987120Y-93331370D01*
X124987121Y-93331370D01*
X124994392Y-93330522D01*
X125160614Y-93270187D01*
X125263799Y-93202535D01*
X125302376Y-93177243D01*
X125302379Y-93177241D01*
X125308496Y-93173230D01*
X125340736Y-93139196D01*
X126631884Y-93139196D01*
X126637165Y-93146251D01*
X126776142Y-93227463D01*
X126786263Y-93232226D01*
X126986598Y-93305538D01*
X126997383Y-93308428D01*
X127207542Y-93345106D01*
X127218674Y-93346041D01*
X127431994Y-93344924D01*
X127443128Y-93343872D01*
X127652876Y-93304997D01*
X127663647Y-93301990D01*
X127863202Y-93226585D01*
X127873258Y-93221724D01*
X127995660Y-93148467D01*
X128005229Y-93138110D01*
X128001686Y-93129646D01*
X127331562Y-92459522D01*
X127317618Y-92451908D01*
X127315785Y-92452039D01*
X127309170Y-92456290D01*
X126638644Y-93126816D01*
X126631884Y-93139196D01*
X125340736Y-93139196D01*
X125430108Y-93044854D01*
X125518925Y-92891944D01*
X125570183Y-92722703D01*
X125577250Y-92643521D01*
X125577250Y-92161198D01*
X126058389Y-92161198D01*
X126059091Y-92172350D01*
X126091358Y-92383217D01*
X126094025Y-92394078D01*
X126163125Y-92595900D01*
X126167673Y-92606114D01*
X126256569Y-92765830D01*
X126266622Y-92775721D01*
X126274225Y-92772815D01*
X126946728Y-92100312D01*
X126953105Y-92088632D01*
X127683158Y-92088632D01*
X127683289Y-92090465D01*
X127687540Y-92097080D01*
X128360087Y-92769627D01*
X128372467Y-92776387D01*
X128378731Y-92771698D01*
X128475199Y-92594024D01*
X128479633Y-92583778D01*
X128546620Y-92381229D01*
X128549170Y-92370356D01*
X128579508Y-92157192D01*
X128580114Y-92149974D01*
X128581655Y-92091132D01*
X128581427Y-92083879D01*
X128562288Y-91869437D01*
X128560306Y-91858423D01*
X128504017Y-91652665D01*
X128500123Y-91642192D01*
X128408283Y-91449646D01*
X128402591Y-91440023D01*
X128380904Y-91409841D01*
X128370113Y-91401429D01*
X128357077Y-91408383D01*
X127690772Y-92074688D01*
X127683158Y-92088632D01*
X126953105Y-92088632D01*
X126954342Y-92086368D01*
X126954211Y-92084535D01*
X126949960Y-92077920D01*
X126280520Y-91408480D01*
X126268140Y-91401720D01*
X126260168Y-91407688D01*
X126196390Y-91509359D01*
X126191317Y-91519315D01*
X126111748Y-91717247D01*
X126108517Y-91727947D01*
X126065258Y-91936837D01*
X126063973Y-91947944D01*
X126058389Y-92161198D01*
X125577250Y-92161198D01*
X125577250Y-91544615D01*
X125561772Y-91411858D01*
X125501437Y-91245636D01*
X125454488Y-91174028D01*
X125408493Y-91103874D01*
X125408491Y-91103871D01*
X125404480Y-91097754D01*
X125338119Y-91034889D01*
X126630693Y-91034889D01*
X126637326Y-91046866D01*
X127305938Y-91715478D01*
X127319882Y-91723092D01*
X127321715Y-91722961D01*
X127328330Y-91718710D01*
X127997594Y-91049446D01*
X128003818Y-91038048D01*
X127994007Y-91025614D01*
X127931865Y-90983857D01*
X127922065Y-90978469D01*
X127726738Y-90892725D01*
X127716139Y-90889158D01*
X127508710Y-90839359D01*
X127497648Y-90837726D01*
X127284685Y-90825446D01*
X127273501Y-90825798D01*
X127061731Y-90851426D01*
X127050794Y-90853750D01*
X126846898Y-90916476D01*
X126836554Y-90920697D01*
X126646985Y-91018542D01*
X126638867Y-91023694D01*
X126630693Y-91034889D01*
X125338119Y-91034889D01*
X125276104Y-90976142D01*
X125123194Y-90887325D01*
X124978289Y-90843438D01*
X124960144Y-90837942D01*
X124960143Y-90837942D01*
X124953953Y-90836067D01*
X124947513Y-90835492D01*
X124947512Y-90835492D01*
X124877564Y-90829249D01*
X124877558Y-90829249D01*
X124874771Y-90829000D01*
X123775865Y-90829000D01*
X123680645Y-90840102D01*
X123650380Y-90843630D01*
X123650379Y-90843630D01*
X123643108Y-90844478D01*
X123476886Y-90904813D01*
X123405278Y-90951762D01*
X123335124Y-90997757D01*
X123335121Y-90997759D01*
X123329004Y-91001770D01*
X123207392Y-91130146D01*
X123118575Y-91283056D01*
X123067317Y-91452297D01*
X123066742Y-91458737D01*
X123066742Y-91458738D01*
X123061336Y-91519315D01*
X123060250Y-91531479D01*
X115826750Y-91531479D01*
X115826750Y-87627045D01*
X123810155Y-87627045D01*
X123810155Y-87907955D01*
X123829182Y-88043340D01*
X123847440Y-88173249D01*
X123849250Y-88186130D01*
X123850462Y-88190356D01*
X123850462Y-88190357D01*
X123874553Y-88274371D01*
X123926679Y-88456158D01*
X124040935Y-88712781D01*
X124189794Y-88951006D01*
X124192618Y-88954372D01*
X124192622Y-88954377D01*
X124279732Y-89058190D01*
X124370359Y-89166195D01*
X124579116Y-89354160D01*
X124582762Y-89356619D01*
X124808355Y-89508784D01*
X124808361Y-89508787D01*
X124812000Y-89511242D01*
X124942758Y-89575017D01*
X125060522Y-89632455D01*
X125060527Y-89632457D01*
X125064480Y-89634385D01*
X125331640Y-89721190D01*
X125456974Y-89743290D01*
X125603953Y-89769207D01*
X125603958Y-89769207D01*
X125608282Y-89769970D01*
X125612672Y-89770123D01*
X125612679Y-89770124D01*
X125884626Y-89779620D01*
X125884632Y-89779620D01*
X125889020Y-89779773D01*
X125893386Y-89779314D01*
X125893389Y-89779314D01*
X126164018Y-89750870D01*
X126164023Y-89750869D01*
X126168391Y-89750410D01*
X126440956Y-89682452D01*
X126556558Y-89635746D01*
X126697320Y-89578875D01*
X126697326Y-89578872D01*
X126701410Y-89577222D01*
X126705225Y-89575020D01*
X126705230Y-89575017D01*
X126819948Y-89508784D01*
X126944685Y-89436767D01*
X127054188Y-89351214D01*
X127162576Y-89266532D01*
X127162580Y-89266528D01*
X127166044Y-89263822D01*
X127260322Y-89166195D01*
X127358122Y-89064920D01*
X127358124Y-89064917D01*
X127361180Y-89061753D01*
X127363769Y-89058190D01*
X127523706Y-88838056D01*
X127523708Y-88838052D01*
X127526295Y-88834492D01*
X127528361Y-88830606D01*
X127528365Y-88830600D01*
X127656103Y-88590360D01*
X127656106Y-88590354D01*
X127658174Y-88586464D01*
X127704141Y-88460172D01*
X127752746Y-88326629D01*
X127752747Y-88326625D01*
X127754250Y-88322496D01*
X127812655Y-88047725D01*
X127814445Y-88022135D01*
X127831943Y-87771890D01*
X127832250Y-87767500D01*
X127818503Y-87570907D01*
X127812962Y-87491660D01*
X127812961Y-87491655D01*
X127812655Y-87487275D01*
X127754250Y-87212504D01*
X127710101Y-87091204D01*
X127659683Y-86952681D01*
X127659681Y-86952677D01*
X127658174Y-86948536D01*
X127656106Y-86944646D01*
X127656103Y-86944640D01*
X127528365Y-86704400D01*
X127528361Y-86704394D01*
X127526295Y-86700508D01*
X127498013Y-86661580D01*
X127363769Y-86476810D01*
X127363767Y-86476807D01*
X127361180Y-86473247D01*
X127350206Y-86461883D01*
X127302518Y-86412500D01*
X135630250Y-86412500D01*
X135630250Y-87762500D01*
X135635477Y-87835579D01*
X135643647Y-87863404D01*
X135662584Y-87927896D01*
X135676654Y-87975816D01*
X135681525Y-87983395D01*
X135750801Y-88091191D01*
X135750803Y-88091194D01*
X135755673Y-88098771D01*
X135762483Y-88104672D01*
X135859319Y-88188582D01*
X135859322Y-88188584D01*
X135866131Y-88194484D01*
X135874329Y-88198228D01*
X135974534Y-88243990D01*
X135999080Y-88255200D01*
X136007995Y-88256482D01*
X136007996Y-88256482D01*
X136139302Y-88275361D01*
X136139309Y-88275362D01*
X136143750Y-88276000D01*
X137493750Y-88276000D01*
X137566829Y-88270773D01*
X137660864Y-88243162D01*
X137698420Y-88232135D01*
X137698422Y-88232134D01*
X137707066Y-88229596D01*
X137774700Y-88186130D01*
X137822441Y-88155449D01*
X137822444Y-88155447D01*
X137830021Y-88150577D01*
X137869798Y-88104672D01*
X137922036Y-88044387D01*
X137981762Y-88006004D01*
X138052759Y-88006004D01*
X138087259Y-88022134D01*
X138251647Y-88131974D01*
X138256950Y-88134252D01*
X138256953Y-88134254D01*
X138294946Y-88150577D01*
X138451483Y-88217831D01*
X138663620Y-88265832D01*
X138669394Y-88266059D01*
X138669395Y-88266059D01*
X138712343Y-88267746D01*
X138880951Y-88274371D01*
X139096200Y-88243162D01*
X139101664Y-88241307D01*
X139101669Y-88241306D01*
X139296685Y-88175107D01*
X139296690Y-88175105D01*
X139302157Y-88173249D01*
X139491924Y-88066974D01*
X139509905Y-88052020D01*
X139654714Y-87931582D01*
X139659146Y-87927896D01*
X139662832Y-87923464D01*
X139662837Y-87923459D01*
X139719002Y-87855928D01*
X139777939Y-87816344D01*
X139848921Y-87814908D01*
X139911683Y-87854665D01*
X139915008Y-87859369D01*
X140070803Y-88011138D01*
X140075599Y-88014343D01*
X140075602Y-88014345D01*
X140158595Y-88069799D01*
X140251647Y-88131974D01*
X140256950Y-88134252D01*
X140256953Y-88134254D01*
X140294946Y-88150577D01*
X140451483Y-88217831D01*
X140663620Y-88265832D01*
X140669394Y-88266059D01*
X140669395Y-88266059D01*
X140712343Y-88267746D01*
X140880951Y-88274371D01*
X141096200Y-88243162D01*
X141101664Y-88241307D01*
X141101669Y-88241306D01*
X141296685Y-88175107D01*
X141296690Y-88175105D01*
X141302157Y-88173249D01*
X141491924Y-88066974D01*
X141509905Y-88052020D01*
X141654714Y-87931582D01*
X141659146Y-87927896D01*
X141741531Y-87828840D01*
X141794530Y-87765116D01*
X141794532Y-87765113D01*
X141798224Y-87760674D01*
X141904499Y-87570907D01*
X141906355Y-87565440D01*
X141906357Y-87565435D01*
X141972556Y-87370419D01*
X141972557Y-87370414D01*
X141974412Y-87364950D01*
X142005621Y-87149701D01*
X142007250Y-87087500D01*
X141987348Y-86870913D01*
X141928310Y-86661580D01*
X141888387Y-86580623D01*
X141834668Y-86471690D01*
X141834665Y-86471686D01*
X141832113Y-86466510D01*
X141805957Y-86431482D01*
X141705431Y-86296862D01*
X141705430Y-86296861D01*
X141701978Y-86292238D01*
X141682616Y-86274340D01*
X141579354Y-86178886D01*
X141542909Y-86117958D01*
X141545190Y-86046998D01*
X141584313Y-85989487D01*
X141654360Y-85931229D01*
X141662484Y-85923105D01*
X141794121Y-85764829D01*
X141800631Y-85755357D01*
X141901222Y-85575738D01*
X141905898Y-85565235D01*
X141972066Y-85370310D01*
X141974697Y-85359350D01*
X141972722Y-85345493D01*
X141959154Y-85341500D01*
X141072752Y-85341499D01*
X141072746Y-85341500D01*
X140041753Y-85341499D01*
X140041747Y-85341500D01*
X139072752Y-85341499D01*
X139072746Y-85341500D01*
X138041753Y-85341499D01*
X138041747Y-85341500D01*
X137072752Y-85341499D01*
X137072746Y-85341500D01*
X135680800Y-85341499D01*
X135667269Y-85345472D01*
X135665977Y-85354461D01*
X135697471Y-85478468D01*
X135701309Y-85489306D01*
X135787494Y-85676255D01*
X135793245Y-85686216D01*
X135886063Y-85817551D01*
X135909044Y-85884725D01*
X135892059Y-85953660D01*
X135851287Y-85996269D01*
X135815059Y-86019551D01*
X135815056Y-86019553D01*
X135807479Y-86024423D01*
X135801578Y-86031233D01*
X135717668Y-86128069D01*
X135717666Y-86128072D01*
X135711766Y-86134881D01*
X135708022Y-86143079D01*
X135656085Y-86256806D01*
X135651050Y-86267830D01*
X135649768Y-86276745D01*
X135649768Y-86276746D01*
X135630889Y-86408052D01*
X135630888Y-86408059D01*
X135630250Y-86412500D01*
X127302518Y-86412500D01*
X127169098Y-86274340D01*
X127169094Y-86274337D01*
X127166044Y-86271178D01*
X127162580Y-86268472D01*
X127162576Y-86268468D01*
X126948151Y-86100941D01*
X126948152Y-86100941D01*
X126944685Y-86098233D01*
X126792864Y-86010579D01*
X126705230Y-85959983D01*
X126705225Y-85959980D01*
X126701410Y-85957778D01*
X126697326Y-85956128D01*
X126697320Y-85956125D01*
X126445037Y-85854197D01*
X126440956Y-85852548D01*
X126399738Y-85842271D01*
X126172662Y-85785655D01*
X126172664Y-85785655D01*
X126168391Y-85784590D01*
X126164023Y-85784131D01*
X126164018Y-85784130D01*
X125893389Y-85755686D01*
X125893386Y-85755686D01*
X125889020Y-85755227D01*
X125884632Y-85755380D01*
X125884626Y-85755380D01*
X125612679Y-85764876D01*
X125612672Y-85764877D01*
X125608282Y-85765030D01*
X125603958Y-85765793D01*
X125603953Y-85765793D01*
X125491313Y-85785655D01*
X125331640Y-85813810D01*
X125064480Y-85900615D01*
X125060527Y-85902543D01*
X125060522Y-85902545D01*
X124984760Y-85939497D01*
X124812000Y-86023758D01*
X124808361Y-86026213D01*
X124808355Y-86026216D01*
X124666248Y-86122069D01*
X124579116Y-86180840D01*
X124370359Y-86368805D01*
X124312549Y-86437700D01*
X124192622Y-86580623D01*
X124192618Y-86580628D01*
X124189794Y-86583994D01*
X124040935Y-86822219D01*
X123926679Y-87078842D01*
X123849250Y-87348870D01*
X123810155Y-87627045D01*
X115826750Y-87627045D01*
X115826750Y-85189733D01*
X172629088Y-85189733D01*
X172665752Y-85417361D01*
X172740244Y-85635556D01*
X172742794Y-85640243D01*
X172742795Y-85640245D01*
X172795324Y-85736789D01*
X172850435Y-85838080D01*
X172993174Y-86019144D01*
X173003590Y-86028539D01*
X173160409Y-86169989D01*
X173160415Y-86169994D01*
X173164379Y-86173569D01*
X173168892Y-86176428D01*
X173168894Y-86176429D01*
X173204820Y-86199184D01*
X173359156Y-86296939D01*
X173571934Y-86385728D01*
X173577137Y-86386925D01*
X173577142Y-86386926D01*
X173791428Y-86436201D01*
X173791433Y-86436202D01*
X173796631Y-86437397D01*
X173801959Y-86437700D01*
X173801962Y-86437700D01*
X173952627Y-86446255D01*
X174026821Y-86450468D01*
X174032128Y-86449868D01*
X174032130Y-86449868D01*
X174206104Y-86430200D01*
X174255923Y-86424568D01*
X174261038Y-86423087D01*
X174261042Y-86423086D01*
X174385911Y-86386926D01*
X174477385Y-86360437D01*
X174684875Y-86259909D01*
X174689213Y-86256809D01*
X174689218Y-86256806D01*
X174868120Y-86128959D01*
X174872461Y-86125857D01*
X175034780Y-85962117D01*
X175104258Y-85863076D01*
X175156703Y-85788316D01*
X175212199Y-85744036D01*
X175282825Y-85736789D01*
X175346157Y-85768875D01*
X175370531Y-85800458D01*
X175388300Y-85833117D01*
X175394152Y-85841991D01*
X175530236Y-86014613D01*
X175537500Y-86022375D01*
X175700717Y-86169594D01*
X175709194Y-86176028D01*
X175894872Y-86293636D01*
X175904317Y-86298553D01*
X176107156Y-86383194D01*
X176117295Y-86386450D01*
X176257095Y-86418596D01*
X176271172Y-86417757D01*
X176274750Y-86408499D01*
X176274751Y-85341500D01*
X176274750Y-85341496D01*
X176274750Y-84833498D01*
X176782749Y-84833498D01*
X176782750Y-84833504D01*
X176782749Y-86407441D01*
X176786900Y-86421579D01*
X176797545Y-86423274D01*
X176800951Y-86422594D01*
X177012083Y-86361454D01*
X177022009Y-86357643D01*
X177219815Y-86261807D01*
X177228962Y-86256376D01*
X177407791Y-86128583D01*
X177415892Y-86121688D01*
X177518077Y-86018607D01*
X177580241Y-85984311D01*
X177651078Y-85989066D01*
X177708099Y-86031364D01*
X177728457Y-86071814D01*
X177751654Y-86150816D01*
X177756525Y-86158395D01*
X177825801Y-86266191D01*
X177825803Y-86266194D01*
X177830673Y-86273771D01*
X177837483Y-86279672D01*
X177934319Y-86363582D01*
X177934322Y-86363584D01*
X177941131Y-86369484D01*
X177949329Y-86373228D01*
X178061748Y-86424568D01*
X178074080Y-86430200D01*
X178082995Y-86431482D01*
X178082996Y-86431482D01*
X178214302Y-86450361D01*
X178214309Y-86450362D01*
X178218750Y-86451000D01*
X179918750Y-86451000D01*
X179991829Y-86445773D01*
X180084386Y-86418596D01*
X180123420Y-86407135D01*
X180123422Y-86407134D01*
X180132066Y-86404596D01*
X180186701Y-86369484D01*
X180247441Y-86330449D01*
X180247444Y-86330447D01*
X180255021Y-86325577D01*
X180279907Y-86296857D01*
X180344832Y-86221931D01*
X180344834Y-86221928D01*
X180350734Y-86215119D01*
X180411450Y-86082170D01*
X180418755Y-86031364D01*
X180431611Y-85941948D01*
X180431612Y-85941941D01*
X180432250Y-85937500D01*
X180432250Y-84237500D01*
X180427023Y-84164421D01*
X180399454Y-84070530D01*
X180388385Y-84032830D01*
X180388384Y-84032828D01*
X180385846Y-84024184D01*
X180340143Y-83953069D01*
X180311699Y-83908809D01*
X180311697Y-83908806D01*
X180306827Y-83901229D01*
X180264134Y-83864235D01*
X180203181Y-83811418D01*
X180203178Y-83811416D01*
X180196369Y-83805516D01*
X180188171Y-83801772D01*
X180071614Y-83748542D01*
X180071613Y-83748542D01*
X180063420Y-83744800D01*
X180054505Y-83743518D01*
X180054504Y-83743518D01*
X179923198Y-83724639D01*
X179923191Y-83724638D01*
X179918750Y-83724000D01*
X178218750Y-83724000D01*
X178145671Y-83729227D01*
X178092634Y-83744800D01*
X178014080Y-83767865D01*
X178014078Y-83767866D01*
X178005434Y-83770404D01*
X177985100Y-83783472D01*
X177890059Y-83844551D01*
X177890056Y-83844553D01*
X177882479Y-83849423D01*
X177876578Y-83856233D01*
X177792668Y-83953069D01*
X177792666Y-83953072D01*
X177786766Y-83959881D01*
X177726050Y-84092830D01*
X177724910Y-84100759D01*
X177686801Y-84160060D01*
X177622221Y-84189554D01*
X177551947Y-84179452D01*
X177513117Y-84151809D01*
X177435580Y-84070530D01*
X177427623Y-84063490D01*
X177251273Y-83932282D01*
X177242236Y-83926678D01*
X177046300Y-83827059D01*
X177036449Y-83823059D01*
X176826528Y-83757878D01*
X176816146Y-83755595D01*
X176800709Y-83753549D01*
X176786542Y-83755746D01*
X176782750Y-83768930D01*
X176782749Y-84833498D01*
X176274750Y-84833498D01*
X176274751Y-83771216D01*
X176270778Y-83757685D01*
X176260171Y-83756160D01*
X176142305Y-83780891D01*
X176132108Y-83783951D01*
X175927682Y-83864682D01*
X175918146Y-83869416D01*
X175730236Y-83983442D01*
X175721646Y-83989706D01*
X175555634Y-84133764D01*
X175548214Y-84141395D01*
X175408850Y-84311360D01*
X175402829Y-84320122D01*
X175369177Y-84379239D01*
X175318094Y-84428545D01*
X175248464Y-84442406D01*
X175182393Y-84416422D01*
X175155155Y-84387273D01*
X175109759Y-84319844D01*
X175051377Y-84233126D01*
X175009812Y-84189554D01*
X174956257Y-84133415D01*
X174892232Y-84066299D01*
X174707254Y-83928671D01*
X174702503Y-83926255D01*
X174702499Y-83926253D01*
X174506490Y-83826597D01*
X174506489Y-83826597D01*
X174501732Y-83824178D01*
X174391637Y-83789993D01*
X174286645Y-83757391D01*
X174286639Y-83757390D01*
X174281542Y-83755807D01*
X174176548Y-83741891D01*
X174058265Y-83726214D01*
X174058260Y-83726214D01*
X174052980Y-83725514D01*
X174047650Y-83725714D01*
X174047649Y-83725714D01*
X173954070Y-83729227D01*
X173822581Y-83734163D01*
X173777996Y-83743518D01*
X173602161Y-83780412D01*
X173602158Y-83780413D01*
X173596934Y-83781509D01*
X173382490Y-83866197D01*
X173185381Y-83985806D01*
X173181351Y-83989303D01*
X173018983Y-84130198D01*
X173011242Y-84136915D01*
X173007859Y-84141041D01*
X173007855Y-84141045D01*
X172983163Y-84171160D01*
X172865054Y-84315205D01*
X172862415Y-84319841D01*
X172862413Y-84319844D01*
X172790836Y-84445587D01*
X172750995Y-84515577D01*
X172672328Y-84732302D01*
X172671379Y-84737551D01*
X172671378Y-84737554D01*
X172649640Y-84857765D01*
X172631301Y-84959183D01*
X172629088Y-85189733D01*
X115826750Y-85189733D01*
X115826750Y-84830299D01*
X135664039Y-84830299D01*
X135670771Y-84833500D01*
X136546635Y-84833501D01*
X136561874Y-84829026D01*
X136563079Y-84827636D01*
X136564750Y-84819953D01*
X136564750Y-84815385D01*
X137072749Y-84815385D01*
X137077224Y-84830624D01*
X137078614Y-84831829D01*
X137086297Y-84833500D01*
X137595747Y-84833501D01*
X137595753Y-84833500D01*
X138546635Y-84833501D01*
X138561874Y-84829026D01*
X138563079Y-84827636D01*
X138564750Y-84819953D01*
X138564750Y-84815385D01*
X139072749Y-84815385D01*
X139077224Y-84830624D01*
X139078614Y-84831829D01*
X139086297Y-84833500D01*
X139595747Y-84833501D01*
X139595753Y-84833500D01*
X140546635Y-84833501D01*
X140561874Y-84829026D01*
X140563079Y-84827636D01*
X140564750Y-84819953D01*
X140564750Y-84815385D01*
X141072749Y-84815385D01*
X141077224Y-84830624D01*
X141078614Y-84831829D01*
X141086297Y-84833500D01*
X141958165Y-84833501D01*
X141971696Y-84829528D01*
X141972865Y-84821393D01*
X141929413Y-84667323D01*
X141925288Y-84656576D01*
X141834242Y-84471953D01*
X141828232Y-84462145D01*
X141705063Y-84297203D01*
X141697361Y-84288649D01*
X141546204Y-84148920D01*
X141537072Y-84141912D01*
X141362974Y-84032065D01*
X141352727Y-84026844D01*
X141161524Y-83950562D01*
X141150497Y-83947295D01*
X141090520Y-83935366D01*
X141077644Y-83936518D01*
X141072750Y-83951671D01*
X141072749Y-84815385D01*
X140564750Y-84815385D01*
X140564751Y-83948906D01*
X140560945Y-83935944D01*
X140546029Y-83934008D01*
X140516970Y-83939001D01*
X140505850Y-83941981D01*
X140312719Y-84013231D01*
X140302341Y-84018181D01*
X140125429Y-84123432D01*
X140116117Y-84130198D01*
X139961346Y-84265928D01*
X139953429Y-84274271D01*
X139918746Y-84318266D01*
X139860864Y-84359379D01*
X139789944Y-84362673D01*
X139728502Y-84327101D01*
X139718839Y-84315650D01*
X139705065Y-84297205D01*
X139697361Y-84288649D01*
X139546204Y-84148920D01*
X139537072Y-84141912D01*
X139362974Y-84032065D01*
X139352727Y-84026844D01*
X139161524Y-83950562D01*
X139150497Y-83947295D01*
X139090520Y-83935366D01*
X139077644Y-83936518D01*
X139072750Y-83951671D01*
X139072749Y-84815385D01*
X138564750Y-84815385D01*
X138564751Y-83948906D01*
X138560945Y-83935944D01*
X138546029Y-83934008D01*
X138516970Y-83939001D01*
X138505850Y-83941981D01*
X138312719Y-84013231D01*
X138302341Y-84018181D01*
X138125429Y-84123432D01*
X138116117Y-84130198D01*
X137961346Y-84265928D01*
X137953429Y-84274271D01*
X137918746Y-84318266D01*
X137860864Y-84359379D01*
X137789944Y-84362673D01*
X137728502Y-84327101D01*
X137718839Y-84315650D01*
X137705065Y-84297205D01*
X137697361Y-84288649D01*
X137546204Y-84148920D01*
X137537072Y-84141912D01*
X137362974Y-84032065D01*
X137352727Y-84026844D01*
X137161524Y-83950562D01*
X137150497Y-83947295D01*
X137090520Y-83935366D01*
X137077644Y-83936518D01*
X137072750Y-83951671D01*
X137072749Y-84815385D01*
X136564750Y-84815385D01*
X136564751Y-83948906D01*
X136560945Y-83935944D01*
X136546029Y-83934008D01*
X136516970Y-83939001D01*
X136505850Y-83941981D01*
X136312719Y-84013231D01*
X136302341Y-84018181D01*
X136125429Y-84123432D01*
X136116117Y-84130198D01*
X135961346Y-84265928D01*
X135953429Y-84274271D01*
X135825987Y-84435930D01*
X135819716Y-84445587D01*
X135723873Y-84627755D01*
X135719468Y-84638389D01*
X135664257Y-84816200D01*
X135664039Y-84830299D01*
X115826750Y-84830299D01*
X115826750Y-83221500D01*
X115846752Y-83153379D01*
X115900408Y-83106886D01*
X115952750Y-83095500D01*
X195684750Y-83095500D01*
X195752871Y-83115502D01*
G37*
%TD.AperFunction*%
%TD*%
M02*
