M48
; DRILL file {KiCad (5.99.0-8090-ga1d7a959f7)} date 08/13/21 15:27:19
; FORMAT={-:-/ absolute / inch / decimal}
; #@! TF.CreationDate,2021-08-13T15:27:19+01:00
; #@! TF.GenerationSoftware,Kicad,Pcbnew,(5.99.0-8090-ga1d7a959f7)
FMAT,2
INCH
T1C0.0157
T2C0.0394
T3C0.0469
T4C0.0512
T5C0.0748
T6C0.1260
%
G90
G05
T1
X3.072Y-3.7224
X3.2894Y-3.7224
X4.7756Y-3.2402
X5.0236Y-3.5906
X5.0315Y-3.9488
X5.0787Y-3.5354
X5.126Y-3.6929
X5.1339Y-4.2283
X5.1693Y-3.9488
X5.1811Y-3.6378
X5.2047Y-4.189
X5.2677Y-3.3484
X5.3071Y-3.9488
X5.376Y-3.3484
X5.563Y-3.2992
X5.7795Y-3.6339
X6.0846Y-3.1811
X6.3799Y-2.9646
X6.3799Y-3.7717
X6.5079Y-3.4764
X6.7441Y-3.3386
X6.813Y-3.2303
X6.9114Y-3.9488
X7.0Y-3.0728
X7.0079Y-4.2283
X7.0315Y-3.7638
X7.0394Y-3.5354
X7.0492Y-3.9488
X7.0866Y-4.189
X7.1024Y-3.8425
X7.1181Y-3.6772
X7.187Y-3.9488
X7.189Y-3.7559
X7.1969Y-2.9646
X7.3248Y-3.2697
X8.1811Y-3.2697
X8.2992Y-3.1516
X8.4173Y-3.2697
X8.4764Y-3.9488
X8.5157Y-3.5551
X8.5157Y-3.6732
X8.5157Y-3.7717
X8.5748Y-4.2283
X8.5906Y-3.4961
X8.5906Y-3.8976
X8.6142Y-3.9488
X8.624Y-3.1516
X8.624Y-3.4075
X8.6457Y-3.5354
X8.6457Y-3.8976
X8.6518Y-4.1889
X8.7402Y-2.937
X8.752Y-3.9488
X8.8346Y-2.937
X9.0866Y-3.7323
T2
X7.3346Y-2.9039
X7.3346Y-3.0039
X7.4346Y-2.9039
X7.4346Y-3.0039
X7.5346Y-2.9039
X7.5346Y-3.0039
X7.6346Y-2.9039
X7.6346Y-3.0039
X7.7346Y-2.9039
X7.7346Y-3.0039
X7.8346Y-2.9039
X7.8346Y-3.0039
X7.9346Y-2.9039
X7.9346Y-3.0039
X8.0346Y-2.9039
X8.0346Y-3.0039
X8.1346Y-2.9039
X8.1346Y-3.0039
X8.2346Y-2.9039
X8.2346Y-3.0039
T3
X4.3756Y-2.9646
X4.4756Y-2.9646
X4.5756Y-2.9646
X4.6756Y-2.9646
X4.7756Y-2.9646
X6.5425Y-2.9646
X6.6425Y-2.9646
X6.7425Y-2.9646
X6.8425Y-2.9646
T4
X2.963Y-3.1976
X2.963Y-4.3063
X3.0175Y-3.0858
X3.0175Y-4.4181
X3.072Y-3.1976
X3.072Y-4.3063
X3.1266Y-3.0858
X3.1266Y-4.4181
X3.1811Y-3.1976
X3.1811Y-4.3063
X3.2356Y-3.0858
X3.2356Y-4.4181
X3.2902Y-3.1976
X3.2902Y-4.3063
X3.3447Y-3.0858
X3.3447Y-4.4181
X3.3992Y-3.1976
X3.3992Y-4.3063
X4.8724Y-4.3063
X4.927Y-4.4181
X4.9815Y-4.3063
X5.036Y-4.4181
X5.0906Y-4.3063
X5.1451Y-4.4181
X5.1996Y-4.3063
X5.2541Y-4.4181
X5.3087Y-4.3063
X6.7524Y-4.3063
X6.8069Y-4.4181
X6.8614Y-4.3063
X6.9159Y-4.4181
X6.9705Y-4.3063
X7.025Y-4.4181
X7.0795Y-4.3063
X7.1341Y-4.4181
X7.1886Y-4.3063
X8.3173Y-4.3063
X8.3719Y-4.4181
X8.4264Y-4.3063
X8.4809Y-4.4181
X8.5354Y-4.3063
X8.59Y-4.4181
X8.6445Y-4.3063
X8.699Y-4.4181
X8.7535Y-4.3063
T5
X1.9902Y-4.3425
X1.9902Y-4.5394
X2.2854Y-4.3425
X2.2854Y-4.5394
X5.8976Y-4.3425
X5.8976Y-4.5394
X6.1929Y-4.3425
X6.1929Y-4.5394
X9.3327Y-4.3425
X9.3327Y-4.5394
X9.628Y-4.3425
X9.628Y-4.5394
T6
X2.6892Y-3.1417
X2.6892Y-4.3622
X3.673Y-3.1417
X3.673Y-4.3622
X4.5986Y-4.3622
X5.5825Y-4.3622
X6.4785Y-4.3622
X7.4624Y-4.3622
X8.0435Y-4.3622
X9.0274Y-4.3622
T0
M30
