M48
; DRILL file {KiCad (5.99.0-8090-ga1d7a959f7)} date 08/13/21 15:37:59
; FORMAT={-:-/ absolute / inch / decimal}
; #@! TF.CreationDate,2021-08-13T15:37:59+01:00
; #@! TF.GenerationSoftware,Kicad,Pcbnew,(5.99.0-8090-ga1d7a959f7)
FMAT,2
INCH
T1C0.0157
T2C0.0315
T3C0.0390
T4C0.0394
T5C0.0402
T6C0.0512
T7C0.0748
T8C0.1260
T9C0.1181
%
G90
G05
T1
X5.6129Y-3.5861
X5.6523Y-3.9503
X5.6917Y-4.6688
X5.7606Y-3.9503
X5.859Y-4.6688
X5.8787Y-3.9503
X5.9082Y-3.6058
X6.0165Y-3.9503
X6.1641Y-3.5074
X7.0795Y-4.1078
X7.0893Y-4.1865
T2
X5.3866Y-3.3499
X5.3866Y-3.4286
X5.4653Y-3.3499
X5.4653Y-3.4286
X5.544Y-3.3499
X5.544Y-3.4286
T3
X7.3649Y-4.4719
X7.5421Y-4.4719
T4
X6.85Y-3.3499
X6.95Y-3.3499
X7.05Y-3.3499
T5
X4.8944Y-3.6255
X4.8944Y-3.7436
X5.0125Y-3.6255
X5.0125Y-3.7436
T6
X5.6015Y-4.2684
X5.6561Y-4.3802
X5.7106Y-4.2684
X5.7651Y-4.3802
X5.8196Y-4.2684
X5.8742Y-4.3802
X5.9287Y-4.2684
X5.9832Y-4.3802
X6.0377Y-4.2684
X7.3155Y-4.3739
X7.5915Y-4.3739
T7
X4.6484Y-4.3342
X4.6484Y-4.531
X4.9437Y-4.3342
X4.9437Y-4.531
X6.6956Y-4.3342
X6.6956Y-4.531
X6.9909Y-4.3342
X6.9909Y-4.531
T8
X5.3277Y-4.3243
X6.3116Y-4.3243
T9
X4.9535Y-3.4554
T0
M30
