%TF.GenerationSoftware,KiCad,Pcbnew,(5.99.0-8090-ga1d7a959f7)*%
%TF.CreationDate,2021-08-13T15:37:55+01:00*%
%TF.ProjectId,conio-b,636f6e69-6f2d-4622-9e6b-696361645f70,rev?*%
%TF.SameCoordinates,Original*%
%TF.FileFunction,Copper,L1,Top*%
%TF.FilePolarity,Positive*%
%FSLAX46Y46*%
G04 Gerber Fmt 4.6, Leading zero omitted, Abs format (unit mm)*
G04 Created by KiCad (PCBNEW (5.99.0-8090-ga1d7a959f7)) date 2021-08-13 15:37:55*
%MOMM*%
%LPD*%
G01*
G04 APERTURE LIST*
G04 Aperture macros list*
%AMRoundRect*
0 Rectangle with rounded corners*
0 $1 Rounding radius*
0 $2 $3 $4 $5 $6 $7 $8 $9 X,Y pos of 4 corners*
0 Add a 4 corners polygon primitive as box body*
4,1,4,$2,$3,$4,$5,$6,$7,$8,$9,$2,$3,0*
0 Add four circle primitives for the rounded corners*
1,1,$1+$1,$2,$3,0*
1,1,$1+$1,$4,$5,0*
1,1,$1+$1,$6,$7,0*
1,1,$1+$1,$8,$9,0*
0 Add four rect primitives between the rounded corners*
20,1,$1+$1,$2,$3,$4,$5,0*
20,1,$1+$1,$4,$5,$6,$7,0*
20,1,$1+$1,$6,$7,$8,$9,0*
20,1,$1+$1,$8,$9,$2,$3,0*%
G04 Aperture macros list end*
%TA.AperFunction,SMDPad,CuDef*%
%ADD10RoundRect,0.150000X0.150000X-0.587500X0.150000X0.587500X-0.150000X0.587500X-0.150000X-0.587500X0*%
%TD*%
%TA.AperFunction,SMDPad,CuDef*%
%ADD11RoundRect,0.125000X-0.125000X0.762500X-0.125000X-0.762500X0.125000X-0.762500X0.125000X0.762500X0*%
%TD*%
%TA.AperFunction,ComponentPad*%
%ADD12C,3.500000*%
%TD*%
%TA.AperFunction,ComponentPad*%
%ADD13C,3.550000*%
%TD*%
%TA.AperFunction,SMDPad,CuDef*%
%ADD14R,1.500000X0.400000*%
%TD*%
%TA.AperFunction,SMDPad,CuDef*%
%ADD15RoundRect,0.237500X0.237500X-0.250000X0.237500X0.250000X-0.237500X0.250000X-0.237500X-0.250000X0*%
%TD*%
%TA.AperFunction,ComponentPad*%
%ADD16C,6.000000*%
%TD*%
%TA.AperFunction,ComponentPad*%
%ADD17C,2.400000*%
%TD*%
%TA.AperFunction,SMDPad,CuDef*%
%ADD18RoundRect,0.237500X-0.237500X0.300000X-0.237500X-0.300000X0.237500X-0.300000X0.237500X0.300000X0*%
%TD*%
%TA.AperFunction,ComponentPad*%
%ADD19R,1.350000X1.350000*%
%TD*%
%TA.AperFunction,ComponentPad*%
%ADD20O,1.350000X1.350000*%
%TD*%
%TA.AperFunction,SMDPad,CuDef*%
%ADD21RoundRect,0.237500X0.237500X-0.300000X0.237500X0.300000X-0.237500X0.300000X-0.237500X-0.300000X0*%
%TD*%
%TA.AperFunction,ComponentPad*%
%ADD22R,1.700000X1.700000*%
%TD*%
%TA.AperFunction,ComponentPad*%
%ADD23O,1.700000X1.700000*%
%TD*%
%TA.AperFunction,ComponentPad*%
%ADD24RoundRect,0.250001X-0.499999X-0.499999X0.499999X-0.499999X0.499999X0.499999X-0.499999X0.499999X0*%
%TD*%
%TA.AperFunction,ComponentPad*%
%ADD25C,1.500000*%
%TD*%
%TA.AperFunction,ComponentPad*%
%ADD26C,2.200000*%
%TD*%
%TA.AperFunction,ComponentPad*%
%ADD27C,1.800000*%
%TD*%
%TA.AperFunction,ViaPad*%
%ADD28C,0.800000*%
%TD*%
%TA.AperFunction,Conductor*%
%ADD29C,0.250000*%
%TD*%
G04 APERTURE END LIST*
D10*
%TO.P,D2,1,K*%
%TO.N,Net-(D2-Pad1)*%
X150868750Y-104025000D03*
%TO.P,D2,2,K*%
%TO.N,no_connect_24*%
X152768750Y-104025000D03*
%TO.P,D2,3,A*%
%TO.N,GND*%
X151818750Y-102150000D03*
%TD*%
%TA.AperFunction,SMDPad,CuDef*%
%TO.P,JP1,1,A*%
%TO.N,/RX*%
G36*
X174068750Y-98524999D02*
G01*
X174068750Y-98025000D01*
X174073717Y-98025000D01*
X174075182Y-97945059D01*
X174117457Y-97809744D01*
X174196013Y-97691734D01*
X174304532Y-97600514D01*
X174434291Y-97543419D01*
X174568751Y-97525836D01*
X174568751Y-97525000D01*
X175068750Y-97525001D01*
X175068750Y-97525837D01*
X175074859Y-97525038D01*
X175214936Y-97546849D01*
X175343261Y-97607097D01*
X175449519Y-97700941D01*
X175525167Y-97820836D01*
X175564124Y-97957143D01*
X175563709Y-98025000D01*
X175568750Y-98025000D01*
X175568749Y-98525000D01*
X174068750Y-98524999D01*
G37*
%TD.AperFunction*%
%TA.AperFunction,SMDPad,CuDef*%
%TO.P,JP1,2,B*%
%TO.N,Net-(J1-Pad6)*%
G36*
X175563709Y-99325000D02*
G01*
X175563258Y-99398905D01*
X175522639Y-99534726D01*
X175445531Y-99653688D01*
X175338134Y-99746226D01*
X175209082Y-99804903D01*
X175068749Y-99825000D01*
X174568750Y-99824999D01*
X174556534Y-99824850D01*
X174416733Y-99801330D01*
X174289154Y-99739518D01*
X174184050Y-99644383D01*
X174109873Y-99523573D01*
X174072584Y-99386800D01*
X174073717Y-99325000D01*
X174068750Y-99325000D01*
X174068751Y-98825000D01*
X175568750Y-98825001D01*
X175568750Y-99325000D01*
X175563709Y-99325000D01*
G37*
%TD.AperFunction*%
%TD*%
D11*
%TO.P,U1,1,READY*%
%TO.N,no_connect_28*%
X178843750Y-95262500D03*
%TO.P,U1,2,C1+*%
%TO.N,Net-(C1-Pad1)*%
X178193750Y-95262500D03*
%TO.P,U1,3,V+*%
%TO.N,Net-(C4-Pad1)*%
X177543750Y-95262500D03*
%TO.P,U1,4,C1-*%
%TO.N,Net-(C1-Pad2)*%
X176893750Y-95262500D03*
%TO.P,U1,5,C2+*%
%TO.N,Net-(C3-Pad1)*%
X176243750Y-95262500D03*
%TO.P,U1,6,C2-*%
%TO.N,Net-(C3-Pad2)*%
X175593750Y-95262500D03*
%TO.P,U1,7,V-*%
%TO.N,Net-(C5-Pad1)*%
X174943750Y-95262500D03*
%TO.P,U1,8,R1IN*%
%TO.N,/RX*%
X174293750Y-95262500D03*
%TO.P,U1,9,R1OUT*%
%TO.N,Net-(J1-Pad6)*%
X174293750Y-102087500D03*
%TO.P,U1,10,~INVALID*%
%TO.N,no_connect_29*%
X174943750Y-102087500D03*
%TO.P,U1,11,T1IN*%
%TO.N,Net-(J1-Pad7)*%
X175593750Y-102087500D03*
%TO.P,U1,12,FORCEON*%
%TO.N,GND*%
X176243750Y-102087500D03*
%TO.P,U1,13,T1OUT*%
%TO.N,/TX*%
X176893750Y-102087500D03*
%TO.P,U1,14,GND*%
%TO.N,GND*%
X177543750Y-102087500D03*
%TO.P,U1,15,VCC*%
%TO.N,+3V3*%
X178193750Y-102087500D03*
%TO.P,U1,16,~FORCEOFF*%
X178843750Y-102087500D03*
%TD*%
D12*
%TO.P,H2,1*%
%TO.N,N/C*%
X118068750Y-110087500D03*
X125568750Y-115087500D03*
X125568750Y-110087500D03*
D13*
X118068750Y-115087500D03*
%TD*%
D14*
%TO.P,Q2,1,S*%
%TO.N,GND*%
X152488750Y-90937500D03*
%TO.P,Q2,2,G*%
%TO.N,Net-(Q2-Pad2)*%
X152488750Y-91587500D03*
%TO.P,Q2,3,D*%
%TO.N,no_connect_25*%
X152488750Y-92237500D03*
%TO.P,Q2,4,S*%
%TO.N,no_connect_26*%
X155148750Y-92237500D03*
%TO.P,Q2,5,G*%
%TO.N,no_connect_27*%
X155148750Y-91587500D03*
%TO.P,Q2,6,D*%
%TO.N,Net-(D2-Pad1)*%
X155148750Y-90937500D03*
%TD*%
D15*
%TO.P,R2,1*%
%TO.N,Net-(D1-Pad1)*%
X144818750Y-99000000D03*
%TO.P,R2,2*%
%TO.N,Net-(Q1-Pad5)*%
X144818750Y-97175000D03*
%TD*%
D16*
%TO.P,J1,0,PAD*%
%TO.N,GND*%
X135323750Y-109837500D03*
X160313750Y-109837500D03*
D17*
%TO.P,J1,1,1*%
%TO.N,+3V3*%
X142278750Y-108417500D03*
%TO.P,J1,2,2*%
%TO.N,Net-(D1-Pad1)*%
X145048750Y-108417500D03*
%TO.P,J1,3,3*%
%TO.N,Net-(D1-Pad2)*%
X147818750Y-108417500D03*
%TO.P,J1,4,4*%
%TO.N,Net-(D2-Pad1)*%
X150588750Y-108417500D03*
%TO.P,J1,5,5*%
%TO.N,GND*%
X153358750Y-108417500D03*
%TO.P,J1,6,6*%
%TO.N,Net-(J1-Pad6)*%
X143663750Y-111257500D03*
%TO.P,J1,7,7*%
%TO.N,Net-(J1-Pad7)*%
X146433750Y-111257500D03*
%TO.P,J1,8,8*%
%TO.N,Net-(J1-Pad8)*%
X149203750Y-111257500D03*
%TO.P,J1,9,9*%
%TO.N,Net-(J1-Pad9)*%
X151973750Y-111257500D03*
%TD*%
D15*
%TO.P,R3,1*%
%TO.N,Net-(D2-Pad1)*%
X151818750Y-99000000D03*
%TO.P,R3,2*%
%TO.N,+3V3*%
X151818750Y-97175000D03*
%TD*%
D12*
%TO.P,H1,1*%
%TO.N,N/C*%
X177568750Y-115087500D03*
D13*
X170068750Y-115087500D03*
D12*
X177568750Y-110087500D03*
X170068750Y-110087500D03*
%TD*%
D18*
%TO.P,C3,1*%
%TO.N,Net-(C3-Pad1)*%
X176318750Y-90725000D03*
%TO.P,C3,2*%
%TO.N,Net-(C3-Pad2)*%
X176318750Y-92450000D03*
%TD*%
D14*
%TO.P,Q1,1,S*%
%TO.N,GND*%
X147648750Y-92237500D03*
%TO.P,Q1,2,G*%
%TO.N,Net-(Q1-Pad2)*%
X147648750Y-91587500D03*
%TO.P,Q1,3,D*%
%TO.N,/RST_BTN*%
X147648750Y-90937500D03*
%TO.P,Q1,4,S*%
%TO.N,GND*%
X144988750Y-90937500D03*
%TO.P,Q1,5,G*%
%TO.N,Net-(Q1-Pad5)*%
X144988750Y-91587500D03*
%TO.P,Q1,6,D*%
%TO.N,/PWR_BTN*%
X144988750Y-92237500D03*
%TD*%
D15*
%TO.P,R4,1*%
%TO.N,Net-(Q2-Pad2)*%
X153818750Y-88500000D03*
%TO.P,R4,2*%
%TO.N,/PWR_LED*%
X153818750Y-86675000D03*
%TD*%
D18*
%TO.P,C2,1*%
%TO.N,+3V3*%
X178068750Y-104475000D03*
%TO.P,C2,2*%
%TO.N,GND*%
X178068750Y-106200000D03*
%TD*%
D10*
%TO.P,D1,1,K*%
%TO.N,Net-(D1-Pad1)*%
X145368750Y-104025000D03*
%TO.P,D1,2,K*%
%TO.N,Net-(D1-Pad2)*%
X147268750Y-104025000D03*
%TO.P,D1,3,A*%
%TO.N,GND*%
X146318750Y-102150000D03*
%TD*%
%TA.AperFunction,SMDPad,CuDef*%
%TO.P,JP2,1,A*%
%TO.N,/TX*%
G36*
X177968751Y-97925000D02*
G01*
X178468750Y-97925000D01*
X178468750Y-97929967D01*
X178548691Y-97931432D01*
X178684006Y-97973707D01*
X178802016Y-98052262D01*
X178893236Y-98160782D01*
X178950331Y-98290541D01*
X178967914Y-98425001D01*
X178968750Y-98425001D01*
X178968749Y-98925000D01*
X178967913Y-98925000D01*
X178968712Y-98931109D01*
X178946901Y-99071186D01*
X178886653Y-99199511D01*
X178792809Y-99305769D01*
X178672914Y-99381417D01*
X178536607Y-99420374D01*
X178468750Y-99419959D01*
X178468750Y-99425000D01*
X177968750Y-99424999D01*
X177968751Y-97925000D01*
G37*
%TD.AperFunction*%
%TA.AperFunction,SMDPad,CuDef*%
%TO.P,JP2,2,B*%
%TO.N,Net-(J1-Pad7)*%
G36*
X177168750Y-99419959D02*
G01*
X177094845Y-99419508D01*
X176959024Y-99378889D01*
X176840062Y-99301782D01*
X176747524Y-99194384D01*
X176688847Y-99065332D01*
X176668750Y-98924999D01*
X176668751Y-98425000D01*
X176668900Y-98412784D01*
X176692420Y-98272983D01*
X176754232Y-98145404D01*
X176849367Y-98040300D01*
X176970177Y-97966123D01*
X177106950Y-97928834D01*
X177168750Y-97929967D01*
X177168750Y-97925000D01*
X177668750Y-97925001D01*
X177668749Y-99425000D01*
X177168750Y-99425000D01*
X177168750Y-99419959D01*
G37*
%TD.AperFunction*%
%TD*%
D19*
%TO.P,J3,1,Pin_1*%
%TO.N,/PWR_LED*%
X136818750Y-87087500D03*
D20*
%TO.P,J3,2,Pin_2*%
%TO.N,GND*%
X136818750Y-85087500D03*
%TO.P,J3,3,Pin_3*%
%TO.N,/PWR_BTN*%
X138818750Y-87087500D03*
%TO.P,J3,4,Pin_4*%
%TO.N,GND*%
X138818750Y-85087500D03*
%TO.P,J3,5,Pin_5*%
%TO.N,/RST_BTN*%
X140818750Y-87087500D03*
%TO.P,J3,6,Pin_6*%
%TO.N,GND*%
X140818750Y-85087500D03*
%TD*%
D15*
%TO.P,R5,1*%
%TO.N,GND*%
X149318750Y-99000000D03*
%TO.P,R5,2*%
%TO.N,Net-(Q1-Pad2)*%
X149318750Y-97175000D03*
%TD*%
%TO.P,R1,1*%
%TO.N,Net-(D1-Pad2)*%
X147318750Y-99000000D03*
%TO.P,R1,2*%
%TO.N,Net-(Q1-Pad2)*%
X147318750Y-97175000D03*
%TD*%
D21*
%TO.P,C1,1*%
%TO.N,Net-(C1-Pad1)*%
X180568750Y-92450000D03*
%TO.P,C1,2*%
%TO.N,Net-(C1-Pad2)*%
X180568750Y-90725000D03*
%TD*%
D15*
%TO.P,R6,1*%
%TO.N,GND*%
X142818750Y-99000000D03*
%TO.P,R6,2*%
%TO.N,Net-(Q1-Pad5)*%
X142818750Y-97175000D03*
%TD*%
D22*
%TO.P,J4,1,Pin_1*%
%TO.N,/TX*%
X179068750Y-85087500D03*
D23*
%TO.P,J4,2,Pin_2*%
%TO.N,GND*%
X176528750Y-85087500D03*
%TO.P,J4,3,Pin_3*%
%TO.N,/RX*%
X173988750Y-85087500D03*
%TD*%
D21*
%TO.P,C4,1*%
%TO.N,Net-(C4-Pad1)*%
X179068750Y-92450000D03*
%TO.P,C4,2*%
%TO.N,GND*%
X179068750Y-90725000D03*
%TD*%
D24*
%TO.P,J2,1,Pin_1*%
%TO.N,/PWR_LED*%
X124318750Y-92087500D03*
D25*
%TO.P,J2,2,Pin_2*%
%TO.N,GND*%
X127318750Y-92087500D03*
%TO.P,J2,3,Pin_3*%
%TO.N,/PWR_BTN*%
X124318750Y-95087500D03*
%TO.P,J2,4,Pin_4*%
%TO.N,GND*%
X127318750Y-95087500D03*
%TD*%
D21*
%TO.P,C5,1*%
%TO.N,Net-(C5-Pad1)*%
X174818750Y-92450000D03*
%TO.P,C5,2*%
%TO.N,GND*%
X174818750Y-90725000D03*
%TD*%
D26*
%TO.P,SW1,*%
%TO.N,*%
X185813750Y-111097500D03*
X192823750Y-111097500D03*
D27*
%TO.P,SW1,1,1*%
%TO.N,/RST_BTN*%
X187068750Y-113587500D03*
%TO.P,SW1,2,2*%
%TO.N,GND*%
X191568750Y-113587500D03*
%TD*%
D28*
%TO.N,GND*%
X156568750Y-89087500D03*
X143568750Y-100337500D03*
X180068750Y-106337500D03*
X150068750Y-91587500D03*
X149318750Y-100337500D03*
X152818750Y-100337500D03*
X142568750Y-91087500D03*
X146318750Y-100337500D03*
%TO.N,Net-(J1-Pad6)*%
X148818750Y-118587500D03*
X144568750Y-118587500D03*
%TO.N,+3V3*%
X179818750Y-104337500D03*
%TD*%
D29*
%TO.N,GND*%
X177543750Y-102087500D02*
X177543750Y-103362500D01*
X142568750Y-91087500D02*
X142718750Y-90937500D01*
X149418750Y-92237500D02*
X150068750Y-91587500D01*
X177181250Y-106200000D02*
X178068750Y-106200000D01*
X142718750Y-90937500D02*
X144988750Y-90937500D01*
X177143750Y-103762500D02*
X176243750Y-103762500D01*
X176243750Y-103762500D02*
X176243750Y-105262500D01*
X176243750Y-102087500D02*
X176243750Y-103762500D01*
X177543750Y-103362500D02*
X177143750Y-103762500D01*
X176243750Y-105262500D02*
X177181250Y-106200000D01*
X147648750Y-92237500D02*
X149418750Y-92237500D01*
%TO.N,Net-(D1-Pad2)*%
X147818750Y-106837500D02*
X147818750Y-109167500D01*
X147268750Y-104025000D02*
X147268750Y-99050000D01*
X147268750Y-104025000D02*
X147268750Y-106287500D01*
X147268750Y-106287500D02*
X147818750Y-106837500D01*
X147268750Y-99050000D02*
X147318750Y-99000000D01*
%TO.N,Net-(D1-Pad1)*%
X145048750Y-106607500D02*
X145368750Y-106287500D01*
X145368750Y-106287500D02*
X145368750Y-104025000D01*
X145368750Y-104025000D02*
X145368750Y-101137500D01*
X145368750Y-101137500D02*
X144818750Y-100587500D01*
X145048750Y-109167500D02*
X145048750Y-106607500D01*
X144818750Y-100587500D02*
X144818750Y-99000000D01*
%TO.N,Net-(C1-Pad2)*%
X180318750Y-91587500D02*
X180568750Y-91337500D01*
X177818750Y-93201076D02*
X177818750Y-92087500D01*
X180568750Y-91337500D02*
X180568750Y-90725000D01*
X176893750Y-94126076D02*
X177818750Y-93201076D01*
X177818750Y-92087500D02*
X178318750Y-91587500D01*
X178318750Y-91587500D02*
X180318750Y-91587500D01*
X176893750Y-95262500D02*
X176893750Y-94126076D01*
%TO.N,Net-(D2-Pad1)*%
X150868750Y-104025000D02*
X150868750Y-106287500D01*
X150868750Y-104025000D02*
X150868750Y-101037500D01*
X155406250Y-99000000D02*
X151818750Y-99000000D01*
X150868750Y-106287500D02*
X150588750Y-106567500D01*
X150588750Y-106567500D02*
X150588750Y-109167500D01*
X156318750Y-91087500D02*
X156318750Y-98087500D01*
X156318750Y-98087500D02*
X155406250Y-99000000D01*
X155148750Y-90937500D02*
X156168750Y-90937500D01*
X156168750Y-90937500D02*
X156318750Y-91087500D01*
X151818750Y-99000000D02*
X151818750Y-100087500D01*
X150868750Y-101037500D02*
X151818750Y-100087500D01*
%TO.N,Net-(J1-Pad7)*%
X175593750Y-102087500D02*
X175593750Y-108562500D01*
X175593750Y-100650000D02*
X176318750Y-99925000D01*
X175593750Y-102087500D02*
X175593750Y-100650000D01*
X175068750Y-109087500D02*
X175068750Y-118587500D01*
X174068750Y-119587500D02*
X147568750Y-119587500D01*
X176318750Y-98925000D02*
X176568750Y-98675000D01*
X146433750Y-118452500D02*
X146433750Y-111257500D01*
X175068750Y-118587500D02*
X174068750Y-119587500D01*
X147568750Y-119587500D02*
X146433750Y-118452500D01*
X176318750Y-99925000D02*
X176318750Y-98925000D01*
X176568750Y-98675000D02*
X177168750Y-98675000D01*
X175593750Y-108562500D02*
X175068750Y-109087500D01*
%TO.N,Net-(J1-Pad6)*%
X174818750Y-99325000D02*
X174818750Y-100175000D01*
X174568750Y-117587500D02*
X174568750Y-109087500D01*
X143663750Y-111257500D02*
X143663750Y-117682500D01*
X173568750Y-118587500D02*
X174568750Y-117587500D01*
X174818750Y-100175000D02*
X174293750Y-100700000D01*
X174293750Y-100700000D02*
X174293750Y-102087500D01*
X174293750Y-108812500D02*
X174293750Y-102087500D01*
X174568750Y-109087500D02*
X174293750Y-108812500D01*
X148818750Y-118587500D02*
X173568750Y-118587500D01*
X143663750Y-117682500D02*
X144568750Y-118587500D01*
%TO.N,+3V3*%
X151818750Y-97175000D02*
X151231250Y-97175000D01*
X151068750Y-97837500D02*
X150818750Y-98087500D01*
X179818750Y-104337500D02*
X178206250Y-104337500D01*
X178193750Y-103462500D02*
X178693750Y-103462500D01*
X178068750Y-104475000D02*
X178068750Y-103587500D01*
X178693750Y-103462500D02*
X178843750Y-103312500D01*
X151231250Y-97175000D02*
X151068750Y-97337500D01*
X178206250Y-104337500D02*
X178068750Y-104475000D01*
X151068750Y-97337500D02*
X151068750Y-97837500D01*
X178068750Y-103587500D02*
X178193750Y-103462500D01*
X178843750Y-103312500D02*
X178843750Y-102087500D01*
X150818750Y-98087500D02*
X141818750Y-98087500D01*
X142278750Y-101047500D02*
X141568750Y-100337500D01*
X141568750Y-100337500D02*
X141568750Y-98337500D01*
X178193750Y-103462500D02*
X178193750Y-102087500D01*
X141818750Y-98087500D02*
X141568750Y-98337500D01*
X142278750Y-109167500D02*
X142278750Y-101047500D01*
%TO.N,/PWR_BTN*%
X124318750Y-95087500D02*
X125818750Y-93587500D01*
X138818750Y-89087500D02*
X138818750Y-87087500D01*
X137483237Y-93587500D02*
X138818750Y-92251987D01*
X138818750Y-92251987D02*
X138818750Y-89087500D01*
X138818750Y-92251987D02*
X138833237Y-92237500D01*
X138833237Y-92237500D02*
X144988750Y-92237500D01*
X138818750Y-89087500D02*
X138818750Y-91587500D01*
X125818750Y-93587500D02*
X137483237Y-93587500D01*
%TO.N,/PWR_LED*%
X149156250Y-86675000D02*
X153818750Y-86675000D01*
X137818750Y-86087500D02*
X148568750Y-86087500D01*
X148568750Y-86087500D02*
X149156250Y-86675000D01*
X135818750Y-90087500D02*
X126318750Y-90087500D01*
X136818750Y-87087500D02*
X137818750Y-86087500D01*
X126318750Y-90087500D02*
X124318750Y-92087500D01*
X136818750Y-87087500D02*
X136818750Y-89087500D01*
X136818750Y-89087500D02*
X135818750Y-90087500D01*
%TO.N,/RST_BTN*%
X147648750Y-90937500D02*
X146668750Y-90937500D01*
X140818750Y-89587500D02*
X141318750Y-90087500D01*
X191068750Y-110337500D02*
X195568750Y-105837500D01*
X189318750Y-113587500D02*
X191068750Y-111837500D01*
X155168730Y-87487520D02*
X149918730Y-87487520D01*
X146568750Y-90837500D02*
X146568750Y-90337500D01*
X194318750Y-83337500D02*
X159318750Y-83337500D01*
X191068750Y-111837500D02*
X191068750Y-110337500D01*
X187068750Y-113587500D02*
X189318750Y-113587500D01*
X146568750Y-90337500D02*
X146318750Y-90087500D01*
X146668750Y-90937500D02*
X146568750Y-90837500D01*
X149918730Y-87487520D02*
X149318750Y-88087500D01*
X149318750Y-90337500D02*
X148718750Y-90937500D01*
X140818750Y-87087500D02*
X140818750Y-89587500D01*
X159318750Y-83337500D02*
X155168730Y-87487520D01*
X148718750Y-90937500D02*
X147648750Y-90937500D01*
X195568750Y-105837500D02*
X195568750Y-84587500D01*
X195568750Y-84587500D02*
X194318750Y-83337500D01*
X149318750Y-88087500D02*
X149318750Y-90337500D01*
X141318750Y-90087500D02*
X146318750Y-90087500D01*
%TO.N,Net-(Q1-Pad5)*%
X142818750Y-97175000D02*
X144818750Y-97175000D01*
X144818750Y-94087500D02*
X144818750Y-97175000D01*
X146063770Y-92842480D02*
X144818750Y-94087500D01*
X145818750Y-91587500D02*
X146063770Y-91832520D01*
X144988750Y-91587500D02*
X145818750Y-91587500D01*
X146063770Y-91832520D02*
X146063770Y-92842480D01*
%TO.N,Net-(Q1-Pad2)*%
X146573730Y-91832520D02*
X146573730Y-92842480D01*
X147318750Y-93587500D02*
X147318750Y-97175000D01*
X147318750Y-97175000D02*
X149318750Y-97175000D01*
X147648750Y-91587500D02*
X146818750Y-91587500D01*
X146573730Y-92842480D02*
X147318750Y-93587500D01*
X146818750Y-91587500D02*
X146573730Y-91832520D01*
%TO.N,Net-(C1-Pad1)*%
X178368730Y-94037520D02*
X180368730Y-94037520D01*
X178193750Y-94212500D02*
X178368730Y-94037520D01*
X178193750Y-95262500D02*
X178193750Y-94212500D01*
X180568750Y-93837500D02*
X180568750Y-92450000D01*
X180368730Y-94037520D02*
X180568750Y-93837500D01*
%TO.N,Net-(C3-Pad2)*%
X175593750Y-94062500D02*
X176318750Y-93337500D01*
X176318750Y-93337500D02*
X176318750Y-92450000D01*
X175593750Y-95262500D02*
X175593750Y-94062500D01*
%TO.N,Net-(C3-Pad1)*%
X176956250Y-90725000D02*
X176318750Y-90725000D01*
X176243750Y-95262500D02*
X176243750Y-94048924D01*
X177118770Y-90887520D02*
X176956250Y-90725000D01*
X177118770Y-93173904D02*
X177118770Y-90887520D01*
X176243750Y-94048924D02*
X177118770Y-93173904D01*
%TO.N,Net-(Q2-Pad2)*%
X151318750Y-91587500D02*
X151068750Y-91337500D01*
X151068750Y-91337500D02*
X151068750Y-89087500D01*
X152488750Y-91587500D02*
X151318750Y-91587500D01*
X151068750Y-89087500D02*
X151656250Y-88500000D01*
X151656250Y-88500000D02*
X153818750Y-88500000D01*
%TO.N,Net-(C4-Pad1)*%
X177543750Y-95262500D02*
X177543750Y-94112500D01*
X177543750Y-94112500D02*
X178068750Y-93587500D01*
X178068750Y-93587500D02*
X178818750Y-93587500D01*
X178818750Y-93587500D02*
X179068750Y-93337500D01*
X179068750Y-93337500D02*
X179068750Y-92450000D01*
%TO.N,Net-(C5-Pad1)*%
X174818750Y-93587500D02*
X174818750Y-92450000D01*
X174943750Y-93712500D02*
X174818750Y-93587500D01*
X174943750Y-95262500D02*
X174943750Y-93712500D01*
%TO.N,/RX*%
X173988750Y-93507500D02*
X174293750Y-93812500D01*
X174818750Y-97175000D02*
X174293750Y-96650000D01*
X174293750Y-93812500D02*
X174293750Y-95262500D01*
X174818750Y-98025000D02*
X174818750Y-97175000D01*
X173988750Y-85087500D02*
X173988750Y-93507500D01*
X174293750Y-96650000D02*
X174293750Y-95262500D01*
%TO.N,/TX*%
X177318750Y-100175000D02*
X178068750Y-100175000D01*
X178468750Y-99775000D02*
X178468750Y-98675000D01*
X178068750Y-100175000D02*
X178468750Y-99775000D01*
X181818750Y-97337500D02*
X180481250Y-98675000D01*
X181318750Y-89337500D02*
X181818750Y-89837500D01*
X181818750Y-89837500D02*
X181818750Y-97337500D01*
X179068750Y-88587500D02*
X179818750Y-89337500D01*
X180481250Y-98675000D02*
X178468750Y-98675000D01*
X176893750Y-102087500D02*
X176893750Y-100600000D01*
X179818750Y-89337500D02*
X181318750Y-89337500D01*
X176893750Y-100600000D02*
X177318750Y-100175000D01*
X179068750Y-85087500D02*
X179068750Y-88587500D01*
%TD*%
%TA.AperFunction,Conductor*%
%TO.N,GND*%
G36*
X158428777Y-83115502D02*
G01*
X158475270Y-83169158D01*
X158485374Y-83239432D01*
X158455880Y-83304012D01*
X158449751Y-83310595D01*
X155017345Y-86743001D01*
X154955033Y-86777027D01*
X154884218Y-86771962D01*
X154827382Y-86729415D01*
X154802571Y-86662895D01*
X154802250Y-86653906D01*
X154802250Y-86382116D01*
X154800639Y-86368292D01*
X154787955Y-86259507D01*
X154787107Y-86252234D01*
X154759446Y-86176028D01*
X154730257Y-86095612D01*
X154730257Y-86095611D01*
X154727760Y-86088733D01*
X154632391Y-85943271D01*
X154506117Y-85823651D01*
X154385326Y-85753490D01*
X154362040Y-85739964D01*
X154362039Y-85739963D01*
X154355711Y-85736288D01*
X154348707Y-85734167D01*
X154348703Y-85734165D01*
X154219346Y-85694987D01*
X154189241Y-85685869D01*
X154182802Y-85685294D01*
X154182800Y-85685294D01*
X154115068Y-85679249D01*
X154115062Y-85679249D01*
X154112275Y-85679000D01*
X153538366Y-85679000D01*
X153534732Y-85679424D01*
X153534727Y-85679424D01*
X153415757Y-85693295D01*
X153408484Y-85694143D01*
X153401602Y-85696641D01*
X153292375Y-85736288D01*
X153244983Y-85753490D01*
X153099521Y-85848859D01*
X152979901Y-85975133D01*
X152976224Y-85981464D01*
X152971840Y-85987324D01*
X152970127Y-85986043D01*
X152926275Y-86027641D01*
X152868826Y-86041500D01*
X149470844Y-86041500D01*
X149402723Y-86021498D01*
X149381749Y-86004595D01*
X149072141Y-85694987D01*
X149064781Y-85686899D01*
X149060723Y-85680505D01*
X149011871Y-85634630D01*
X149009030Y-85631876D01*
X148988716Y-85611562D01*
X148985305Y-85608917D01*
X148976283Y-85601211D01*
X148949827Y-85576367D01*
X148944051Y-85570943D01*
X148937107Y-85567126D01*
X148937105Y-85567124D01*
X148926297Y-85561182D01*
X148909773Y-85550328D01*
X148900036Y-85542775D01*
X148900035Y-85542775D01*
X148893773Y-85537917D01*
X148886500Y-85534770D01*
X148886497Y-85534768D01*
X148866085Y-85525935D01*
X148853208Y-85520363D01*
X148842550Y-85515142D01*
X148810744Y-85497656D01*
X148810740Y-85497654D01*
X148803798Y-85493838D01*
X148796123Y-85491868D01*
X148796122Y-85491867D01*
X148784176Y-85488800D01*
X148765469Y-85482395D01*
X148754160Y-85477501D01*
X148754158Y-85477501D01*
X148746885Y-85474353D01*
X148739057Y-85473113D01*
X148739056Y-85473113D01*
X148703223Y-85467438D01*
X148691598Y-85465030D01*
X148654532Y-85455513D01*
X148654530Y-85455513D01*
X148648775Y-85454035D01*
X148648219Y-85454000D01*
X148628296Y-85454000D01*
X148608587Y-85452449D01*
X148588805Y-85449316D01*
X148580913Y-85450062D01*
X148545168Y-85453441D01*
X148533310Y-85454000D01*
X142097502Y-85454000D01*
X142029381Y-85433998D01*
X141982888Y-85380342D01*
X141972763Y-85345783D01*
X141972722Y-85345493D01*
X141959154Y-85341500D01*
X141072752Y-85341499D01*
X141072746Y-85341500D01*
X140041753Y-85341499D01*
X140041747Y-85341500D01*
X139072752Y-85341499D01*
X139072746Y-85341500D01*
X138041753Y-85341499D01*
X138041747Y-85341500D01*
X137072752Y-85341499D01*
X137072746Y-85341500D01*
X135680800Y-85341499D01*
X135667269Y-85345472D01*
X135665977Y-85354461D01*
X135697471Y-85478468D01*
X135701309Y-85489306D01*
X135787494Y-85676255D01*
X135793245Y-85686216D01*
X135886063Y-85817551D01*
X135909044Y-85884725D01*
X135892059Y-85953660D01*
X135851287Y-85996269D01*
X135815059Y-86019551D01*
X135815056Y-86019553D01*
X135807479Y-86024423D01*
X135801578Y-86031233D01*
X135717668Y-86128069D01*
X135717666Y-86128072D01*
X135711766Y-86134881D01*
X135651050Y-86267830D01*
X135649768Y-86276745D01*
X135649768Y-86276746D01*
X135630889Y-86408052D01*
X135630888Y-86408059D01*
X135630250Y-86412500D01*
X135630250Y-87762500D01*
X135635477Y-87835579D01*
X135651684Y-87890776D01*
X135669945Y-87952966D01*
X135676654Y-87975816D01*
X135681525Y-87983395D01*
X135750801Y-88091191D01*
X135750803Y-88091194D01*
X135755673Y-88098771D01*
X135783849Y-88123186D01*
X135859319Y-88188582D01*
X135859322Y-88188584D01*
X135866131Y-88194484D01*
X135999080Y-88255200D01*
X136007995Y-88256482D01*
X136007996Y-88256482D01*
X136034939Y-88260356D01*
X136077182Y-88266429D01*
X136141763Y-88295922D01*
X136180147Y-88355648D01*
X136185251Y-88391147D01*
X136185251Y-88772905D01*
X136165249Y-88841026D01*
X136148346Y-88862000D01*
X135593251Y-89417095D01*
X135530939Y-89451121D01*
X135504156Y-89454000D01*
X127279229Y-89454000D01*
X127211108Y-89433998D01*
X127164615Y-89380342D01*
X127154511Y-89310068D01*
X127188592Y-89240473D01*
X127358122Y-89064920D01*
X127358124Y-89064917D01*
X127361180Y-89061753D01*
X127365136Y-89056308D01*
X127523706Y-88838056D01*
X127523708Y-88838052D01*
X127526295Y-88834492D01*
X127528361Y-88830606D01*
X127528365Y-88830600D01*
X127656103Y-88590360D01*
X127656106Y-88590354D01*
X127658174Y-88586464D01*
X127676783Y-88535338D01*
X127752746Y-88326629D01*
X127752747Y-88326625D01*
X127754250Y-88322496D01*
X127812655Y-88047725D01*
X127814445Y-88022135D01*
X127831943Y-87771890D01*
X127832250Y-87767500D01*
X127819985Y-87592099D01*
X127812962Y-87491660D01*
X127812961Y-87491655D01*
X127812655Y-87487275D01*
X127754250Y-87212504D01*
X127751917Y-87206093D01*
X127659683Y-86952681D01*
X127659681Y-86952677D01*
X127658174Y-86948536D01*
X127656106Y-86944646D01*
X127656103Y-86944640D01*
X127528365Y-86704400D01*
X127528361Y-86704394D01*
X127526295Y-86700508D01*
X127439194Y-86580623D01*
X127363769Y-86476810D01*
X127363767Y-86476807D01*
X127361180Y-86473247D01*
X127350692Y-86462386D01*
X127169098Y-86274340D01*
X127169094Y-86274337D01*
X127166044Y-86271178D01*
X127162580Y-86268472D01*
X127162576Y-86268468D01*
X126948151Y-86100941D01*
X126948152Y-86100941D01*
X126944685Y-86098233D01*
X126792864Y-86010579D01*
X126705230Y-85959983D01*
X126705225Y-85959980D01*
X126701410Y-85957778D01*
X126697326Y-85956128D01*
X126697320Y-85956125D01*
X126445037Y-85854197D01*
X126440956Y-85852548D01*
X126426161Y-85848859D01*
X126172662Y-85785655D01*
X126172664Y-85785655D01*
X126168391Y-85784590D01*
X126164023Y-85784131D01*
X126164018Y-85784130D01*
X125893389Y-85755686D01*
X125893386Y-85755686D01*
X125889020Y-85755227D01*
X125884632Y-85755380D01*
X125884626Y-85755380D01*
X125612679Y-85764876D01*
X125612672Y-85764877D01*
X125608282Y-85765030D01*
X125603958Y-85765793D01*
X125603953Y-85765793D01*
X125491313Y-85785655D01*
X125331640Y-85813810D01*
X125064480Y-85900615D01*
X125060527Y-85902543D01*
X125060522Y-85902545D01*
X124955722Y-85953660D01*
X124812000Y-86023758D01*
X124808361Y-86026213D01*
X124808355Y-86026216D01*
X124666248Y-86122069D01*
X124579116Y-86180840D01*
X124370359Y-86368805D01*
X124317767Y-86431482D01*
X124192622Y-86580623D01*
X124192618Y-86580628D01*
X124189794Y-86583994D01*
X124040935Y-86822219D01*
X123926679Y-87078842D01*
X123849250Y-87348870D01*
X123848639Y-87353220D01*
X123848638Y-87353223D01*
X123834210Y-87455883D01*
X123810155Y-87627045D01*
X123810155Y-87907955D01*
X123829047Y-88042381D01*
X123841700Y-88132406D01*
X123849250Y-88186130D01*
X123926679Y-88456158D01*
X123928465Y-88460170D01*
X123928466Y-88460172D01*
X123954087Y-88517718D01*
X124040935Y-88712781D01*
X124043262Y-88716505D01*
X124061872Y-88746288D01*
X124189794Y-88951006D01*
X124192618Y-88954372D01*
X124192622Y-88954377D01*
X124274588Y-89052060D01*
X124370359Y-89166195D01*
X124579116Y-89354160D01*
X124640204Y-89395364D01*
X124808355Y-89508784D01*
X124808361Y-89508787D01*
X124812000Y-89511242D01*
X124888862Y-89548730D01*
X125060522Y-89632455D01*
X125060527Y-89632457D01*
X125064480Y-89634385D01*
X125331640Y-89721190D01*
X125381632Y-89730005D01*
X125482209Y-89747740D01*
X125545822Y-89779268D01*
X125582291Y-89840182D01*
X125580038Y-89911143D01*
X125549426Y-89960919D01*
X124718250Y-90792096D01*
X124655939Y-90826120D01*
X124629156Y-90829000D01*
X123775865Y-90829000D01*
X123680645Y-90840102D01*
X123650380Y-90843630D01*
X123650379Y-90843630D01*
X123643108Y-90844478D01*
X123476886Y-90904813D01*
X123428437Y-90936578D01*
X123335124Y-90997757D01*
X123335121Y-90997759D01*
X123329004Y-91001770D01*
X123207392Y-91130146D01*
X123118575Y-91283056D01*
X123067317Y-91452297D01*
X123066742Y-91458737D01*
X123066742Y-91458738D01*
X123061058Y-91522429D01*
X123060250Y-91531479D01*
X123060250Y-92630385D01*
X123075728Y-92763142D01*
X123136063Y-92929364D01*
X123174194Y-92987523D01*
X123220047Y-93057459D01*
X123233020Y-93077246D01*
X123361396Y-93198858D01*
X123514306Y-93287675D01*
X123683547Y-93338933D01*
X123689987Y-93339508D01*
X123689988Y-93339508D01*
X123759936Y-93345751D01*
X123759942Y-93345751D01*
X123762729Y-93346000D01*
X124860156Y-93346000D01*
X124928277Y-93366002D01*
X124974770Y-93419658D01*
X124984874Y-93489932D01*
X124955380Y-93554512D01*
X124949251Y-93561095D01*
X124689879Y-93820467D01*
X124627567Y-93854493D01*
X124571369Y-93853890D01*
X124508787Y-93838865D01*
X124508786Y-93838865D01*
X124503326Y-93837554D01*
X124416593Y-93832553D01*
X124284670Y-93824946D01*
X124284667Y-93824946D01*
X124279063Y-93824623D01*
X124056054Y-93851611D01*
X124050692Y-93853261D01*
X124050690Y-93853261D01*
X123995099Y-93870363D01*
X123841348Y-93917663D01*
X123836368Y-93920233D01*
X123836364Y-93920235D01*
X123666261Y-94008032D01*
X123641733Y-94020692D01*
X123637285Y-94024105D01*
X123607660Y-94046837D01*
X123463517Y-94157441D01*
X123312334Y-94323589D01*
X123309352Y-94328343D01*
X123196891Y-94507622D01*
X123192963Y-94513883D01*
X123109177Y-94722308D01*
X123063624Y-94942277D01*
X123057743Y-95166836D01*
X123091722Y-95388887D01*
X123093539Y-95394194D01*
X123161956Y-95594024D01*
X123164485Y-95601412D01*
X123273734Y-95797692D01*
X123277285Y-95802030D01*
X123277288Y-95802035D01*
X123403163Y-95955825D01*
X123416014Y-95971525D01*
X123420277Y-95975166D01*
X123420282Y-95975171D01*
X123555363Y-96090540D01*
X123586828Y-96117414D01*
X123602918Y-96126816D01*
X123775931Y-96227917D01*
X123775934Y-96227918D01*
X123780778Y-96230749D01*
X123786048Y-96232678D01*
X123786049Y-96232678D01*
X123986468Y-96306021D01*
X123986472Y-96306022D01*
X123991732Y-96307947D01*
X123997249Y-96308910D01*
X123997253Y-96308911D01*
X124169735Y-96339014D01*
X124213023Y-96346569D01*
X124218629Y-96346540D01*
X124218633Y-96346540D01*
X124321687Y-96346000D01*
X124437656Y-96345393D01*
X124445863Y-96343872D01*
X124653010Y-96305479D01*
X124653009Y-96305479D01*
X124658530Y-96304456D01*
X124665057Y-96301990D01*
X124761920Y-96265388D01*
X124868664Y-96225053D01*
X124874227Y-96221724D01*
X125012121Y-96139196D01*
X126631884Y-96139196D01*
X126637165Y-96146251D01*
X126776142Y-96227463D01*
X126786263Y-96232226D01*
X126986598Y-96305538D01*
X126997383Y-96308428D01*
X127207542Y-96345106D01*
X127218674Y-96346041D01*
X127431994Y-96344924D01*
X127443128Y-96343872D01*
X127652876Y-96304997D01*
X127663647Y-96301990D01*
X127863202Y-96226585D01*
X127873258Y-96221724D01*
X127995660Y-96148467D01*
X128005229Y-96138110D01*
X128001686Y-96129646D01*
X127331562Y-95459522D01*
X127317618Y-95451908D01*
X127315785Y-95452039D01*
X127309170Y-95456290D01*
X126638644Y-96126816D01*
X126631884Y-96139196D01*
X125012121Y-96139196D01*
X125061417Y-96109693D01*
X125230694Y-95962023D01*
X125371146Y-95786710D01*
X125478333Y-95589296D01*
X125548867Y-95376021D01*
X125580518Y-95153626D01*
X125582250Y-95087500D01*
X125562281Y-94863753D01*
X125554982Y-94837072D01*
X125556301Y-94766089D01*
X125587422Y-94714732D01*
X126044249Y-94257905D01*
X126106561Y-94223879D01*
X126133344Y-94221000D01*
X126149498Y-94221000D01*
X126217619Y-94241002D01*
X126264112Y-94294658D01*
X126274216Y-94364932D01*
X126256236Y-94413956D01*
X126196390Y-94509359D01*
X126191314Y-94519321D01*
X126111748Y-94717247D01*
X126108517Y-94727947D01*
X126065258Y-94936837D01*
X126063973Y-94947944D01*
X126058389Y-95161198D01*
X126059091Y-95172350D01*
X126091358Y-95383217D01*
X126094025Y-95394078D01*
X126163125Y-95595900D01*
X126167673Y-95606114D01*
X126256569Y-95765830D01*
X126266622Y-95775721D01*
X126274225Y-95772815D01*
X127229655Y-94817385D01*
X127291967Y-94783359D01*
X127362782Y-94788424D01*
X127407845Y-94817385D01*
X128360087Y-95769627D01*
X128372467Y-95776387D01*
X128378731Y-95771698D01*
X128475199Y-95594024D01*
X128479633Y-95583778D01*
X128546620Y-95381229D01*
X128549170Y-95370356D01*
X128579508Y-95157192D01*
X128580114Y-95149974D01*
X128581655Y-95091132D01*
X128581427Y-95083879D01*
X128562288Y-94869437D01*
X128560306Y-94858423D01*
X128504017Y-94652665D01*
X128500123Y-94642192D01*
X128408281Y-94449643D01*
X128402592Y-94440022D01*
X128388582Y-94420525D01*
X128365075Y-94353534D01*
X128381517Y-94284467D01*
X128432690Y-94235255D01*
X128490905Y-94221000D01*
X137404854Y-94221000D01*
X137415758Y-94221514D01*
X137423149Y-94223166D01*
X137431074Y-94222917D01*
X137431075Y-94222917D01*
X137490090Y-94221062D01*
X137494048Y-94221000D01*
X137522815Y-94221000D01*
X137526739Y-94220504D01*
X137526741Y-94220504D01*
X137527089Y-94220460D01*
X137538935Y-94219527D01*
X137583120Y-94218138D01*
X137602576Y-94212486D01*
X137621916Y-94208481D01*
X137642025Y-94205940D01*
X137649395Y-94203022D01*
X137649399Y-94203021D01*
X137683137Y-94189663D01*
X137694367Y-94185818D01*
X137729205Y-94175697D01*
X137729206Y-94175697D01*
X137736815Y-94173486D01*
X137754249Y-94163176D01*
X137772001Y-94154480D01*
X137783462Y-94149942D01*
X137783461Y-94149942D01*
X137790837Y-94147022D01*
X137811440Y-94132053D01*
X137826612Y-94121030D01*
X137836531Y-94114514D01*
X137874578Y-94092013D01*
X137874996Y-94091645D01*
X137889079Y-94077562D01*
X137904104Y-94064728D01*
X137920320Y-94052946D01*
X137948267Y-94019164D01*
X137956256Y-94010385D01*
X139058736Y-92907905D01*
X139121048Y-92873879D01*
X139147831Y-92871000D01*
X143937042Y-92871000D01*
X143989385Y-92882387D01*
X144085883Y-92926457D01*
X144085886Y-92926458D01*
X144094080Y-92930200D01*
X144102997Y-92931482D01*
X144234302Y-92950361D01*
X144234309Y-92950362D01*
X144238750Y-92951000D01*
X144755154Y-92951000D01*
X144823275Y-92971002D01*
X144869768Y-93024658D01*
X144879872Y-93094932D01*
X144850378Y-93159512D01*
X144844250Y-93166095D01*
X144426231Y-93584115D01*
X144418148Y-93591470D01*
X144411755Y-93595527D01*
X144406330Y-93601304D01*
X144406329Y-93601305D01*
X144365887Y-93644372D01*
X144363131Y-93647215D01*
X144342812Y-93667534D01*
X144340388Y-93670659D01*
X144340381Y-93670667D01*
X144340161Y-93670951D01*
X144332453Y-93679976D01*
X144302193Y-93712200D01*
X144292437Y-93729946D01*
X144281586Y-93746465D01*
X144274028Y-93756209D01*
X144274025Y-93756214D01*
X144269167Y-93762477D01*
X144254544Y-93796269D01*
X144251611Y-93803047D01*
X144246388Y-93813708D01*
X144225088Y-93852453D01*
X144223116Y-93860135D01*
X144223115Y-93860136D01*
X144220048Y-93872078D01*
X144213648Y-93890773D01*
X144205603Y-93909365D01*
X144204363Y-93917194D01*
X144198687Y-93953029D01*
X144196280Y-93964650D01*
X144194257Y-93972530D01*
X144185285Y-94007476D01*
X144185250Y-94008032D01*
X144185250Y-94027954D01*
X144183699Y-94047663D01*
X144180566Y-94067445D01*
X144181312Y-94075337D01*
X144184691Y-94111083D01*
X144185250Y-94122941D01*
X144185251Y-96224595D01*
X144165249Y-96292716D01*
X144128336Y-96329967D01*
X144099521Y-96348859D01*
X143979901Y-96475133D01*
X143976224Y-96481464D01*
X143971840Y-96487324D01*
X143970127Y-96486043D01*
X143926275Y-96527641D01*
X143868826Y-96541500D01*
X143764850Y-96541500D01*
X143696729Y-96521498D01*
X143659478Y-96484586D01*
X143657433Y-96481467D01*
X143632391Y-96443271D01*
X143506117Y-96323651D01*
X143385326Y-96253490D01*
X143362040Y-96239964D01*
X143362039Y-96239963D01*
X143355711Y-96236288D01*
X143348707Y-96234167D01*
X143348703Y-96234165D01*
X143224807Y-96196641D01*
X143189241Y-96185869D01*
X143182802Y-96185294D01*
X143182800Y-96185294D01*
X143115068Y-96179249D01*
X143115062Y-96179249D01*
X143112275Y-96179000D01*
X142538366Y-96179000D01*
X142534732Y-96179424D01*
X142534727Y-96179424D01*
X142415757Y-96193295D01*
X142408484Y-96194143D01*
X142401602Y-96196641D01*
X142292375Y-96236288D01*
X142244983Y-96253490D01*
X142099521Y-96348859D01*
X141979901Y-96475133D01*
X141892538Y-96625539D01*
X141890417Y-96632543D01*
X141890415Y-96632547D01*
X141868111Y-96706191D01*
X141842119Y-96792009D01*
X141841544Y-96798448D01*
X141841544Y-96798450D01*
X141836378Y-96856339D01*
X141835250Y-96868975D01*
X141835250Y-97331820D01*
X141815248Y-97399941D01*
X141761592Y-97446434D01*
X141728963Y-97456268D01*
X141726784Y-97456613D01*
X141718866Y-97456862D01*
X141699418Y-97462512D01*
X141680059Y-97466521D01*
X141667828Y-97468066D01*
X141667826Y-97468066D01*
X141659962Y-97469060D01*
X141652591Y-97471979D01*
X141652589Y-97471979D01*
X141618844Y-97485339D01*
X141607614Y-97489184D01*
X141565172Y-97501514D01*
X141558349Y-97505549D01*
X141547738Y-97511824D01*
X141529986Y-97520520D01*
X141511150Y-97527978D01*
X141504735Y-97532639D01*
X141475375Y-97553970D01*
X141465458Y-97560484D01*
X141427409Y-97582987D01*
X141426991Y-97583356D01*
X141412912Y-97597435D01*
X141397879Y-97610275D01*
X141381667Y-97622054D01*
X141376614Y-97628162D01*
X141353717Y-97655840D01*
X141345727Y-97664620D01*
X141176230Y-97834117D01*
X141168148Y-97841471D01*
X141161756Y-97845527D01*
X141156331Y-97851304D01*
X141156330Y-97851305D01*
X141115913Y-97894346D01*
X141113157Y-97897190D01*
X141092812Y-97917534D01*
X141090386Y-97920661D01*
X141090382Y-97920666D01*
X141090153Y-97920961D01*
X141082457Y-97929971D01*
X141059919Y-97953973D01*
X141052194Y-97962199D01*
X141048378Y-97969140D01*
X141048376Y-97969143D01*
X141042438Y-97979945D01*
X141031584Y-97996468D01*
X141025281Y-98004595D01*
X141019167Y-98012477D01*
X141006608Y-98041500D01*
X141001609Y-98053051D01*
X140996387Y-98063711D01*
X140975089Y-98102452D01*
X140970051Y-98122072D01*
X140963652Y-98140764D01*
X140955603Y-98159365D01*
X140954363Y-98167192D01*
X140954363Y-98167193D01*
X140948687Y-98203031D01*
X140946280Y-98214654D01*
X140935286Y-98257475D01*
X140935251Y-98258031D01*
X140935251Y-98277947D01*
X140933700Y-98297657D01*
X140930566Y-98317445D01*
X140931312Y-98325336D01*
X140934692Y-98361092D01*
X140935251Y-98372950D01*
X140935250Y-100259117D01*
X140934736Y-100270021D01*
X140933084Y-100277412D01*
X140933333Y-100285337D01*
X140933333Y-100285338D01*
X140935188Y-100344353D01*
X140935250Y-100348311D01*
X140935250Y-100377077D01*
X140935791Y-100381356D01*
X140936724Y-100393203D01*
X140937834Y-100428523D01*
X140938112Y-100437383D01*
X140940322Y-100444991D01*
X140940323Y-100444996D01*
X140943763Y-100456838D01*
X140947771Y-100476192D01*
X140950310Y-100496287D01*
X140953227Y-100503655D01*
X140953229Y-100503662D01*
X140966587Y-100537400D01*
X140970432Y-100548630D01*
X140980386Y-100582891D01*
X140982764Y-100591078D01*
X140986799Y-100597900D01*
X140993074Y-100608511D01*
X141001768Y-100626258D01*
X141009228Y-100645099D01*
X141013887Y-100651511D01*
X141013890Y-100651517D01*
X141035218Y-100680872D01*
X141041735Y-100690794D01*
X141059673Y-100721124D01*
X141064237Y-100728841D01*
X141064605Y-100729259D01*
X141078688Y-100743342D01*
X141091528Y-100758375D01*
X141103304Y-100774583D01*
X141137090Y-100802533D01*
X141145861Y-100810515D01*
X141608347Y-101273002D01*
X141642372Y-101335314D01*
X141645251Y-101362097D01*
X141645250Y-106744713D01*
X141625248Y-106812834D01*
X141577334Y-106856526D01*
X141375811Y-106961209D01*
X141165921Y-107114544D01*
X141162529Y-107117918D01*
X141162527Y-107117920D01*
X140985032Y-107294488D01*
X140985028Y-107294493D01*
X140981639Y-107297864D01*
X140827207Y-107506949D01*
X140706177Y-107736987D01*
X140704616Y-107741508D01*
X140644647Y-107915181D01*
X140621337Y-107982686D01*
X140574637Y-108238390D01*
X140574499Y-108243172D01*
X140574499Y-108243174D01*
X140573581Y-108275045D01*
X140567152Y-108498217D01*
X140573883Y-108552642D01*
X140597390Y-108742722D01*
X140599055Y-108756186D01*
X140600353Y-108760789D01*
X140600354Y-108760793D01*
X140605275Y-108778241D01*
X140669612Y-109006361D01*
X140671594Y-109010720D01*
X140769184Y-109225356D01*
X140777199Y-109242985D01*
X140919339Y-109460613D01*
X140996130Y-109546348D01*
X141083758Y-109644182D01*
X141092763Y-109654236D01*
X141182371Y-109727972D01*
X141289773Y-109816351D01*
X141289778Y-109816354D01*
X141293479Y-109819400D01*
X141516868Y-109952302D01*
X141606570Y-109988635D01*
X141753349Y-110048087D01*
X141753353Y-110048088D01*
X141757789Y-110049885D01*
X142010700Y-110109904D01*
X142015471Y-110110292D01*
X142015477Y-110110293D01*
X142140318Y-110120447D01*
X142206593Y-110145906D01*
X142248583Y-110203154D01*
X142252956Y-110274016D01*
X142231456Y-110320888D01*
X142212207Y-110346949D01*
X142200311Y-110369560D01*
X142131599Y-110500159D01*
X142091177Y-110576987D01*
X142006337Y-110822686D01*
X141959637Y-111078390D01*
X141959499Y-111083172D01*
X141959499Y-111083174D01*
X141956462Y-111188609D01*
X141952152Y-111338217D01*
X141952740Y-111342969D01*
X141981447Y-111575096D01*
X141984055Y-111596186D01*
X141985353Y-111600789D01*
X141985354Y-111600793D01*
X141993185Y-111628558D01*
X142054612Y-111846361D01*
X142056594Y-111850720D01*
X142158148Y-112074075D01*
X142162199Y-112082985D01*
X142304339Y-112300613D01*
X142391051Y-112397425D01*
X142466622Y-112481797D01*
X142477763Y-112494236D01*
X142567371Y-112567972D01*
X142674773Y-112656351D01*
X142674778Y-112656354D01*
X142678479Y-112659400D01*
X142901868Y-112792302D01*
X142949305Y-112811516D01*
X142951552Y-112812426D01*
X143007181Y-112856539D01*
X143030250Y-112929210D01*
X143030251Y-117604100D01*
X143029736Y-117615020D01*
X143028084Y-117622412D01*
X143028333Y-117630335D01*
X143030189Y-117689384D01*
X143030251Y-117693342D01*
X143030251Y-117722078D01*
X143030746Y-117725995D01*
X143030790Y-117726344D01*
X143031722Y-117738178D01*
X143033112Y-117782383D01*
X143035325Y-117789999D01*
X143035325Y-117790001D01*
X143038764Y-117801839D01*
X143042773Y-117821198D01*
X143045311Y-117841288D01*
X143048231Y-117848663D01*
X143061583Y-117882389D01*
X143065428Y-117893618D01*
X143069792Y-117908637D01*
X143077764Y-117936078D01*
X143081799Y-117942901D01*
X143088077Y-117953517D01*
X143096773Y-117971269D01*
X143104229Y-117990100D01*
X143108891Y-117996516D01*
X143130218Y-118025871D01*
X143136733Y-118035789D01*
X143159237Y-118073841D01*
X143159605Y-118074259D01*
X143173688Y-118088342D01*
X143186529Y-118103375D01*
X143198305Y-118119583D01*
X143204412Y-118124635D01*
X143232080Y-118147524D01*
X143240860Y-118155514D01*
X143621632Y-118536286D01*
X143655658Y-118598598D01*
X143657847Y-118612210D01*
X143663262Y-118663731D01*
X143675212Y-118777427D01*
X143677252Y-118783705D01*
X143677252Y-118783706D01*
X143681188Y-118795819D01*
X143734226Y-118959054D01*
X143737529Y-118964776D01*
X143737530Y-118964777D01*
X143757498Y-118999362D01*
X143829713Y-119124442D01*
X143957499Y-119266363D01*
X143962841Y-119270244D01*
X143962843Y-119270246D01*
X144074769Y-119351564D01*
X144118123Y-119407786D01*
X144124198Y-119478522D01*
X144091067Y-119541314D01*
X144029247Y-119576225D01*
X144000708Y-119579500D01*
X115952750Y-119579500D01*
X115884629Y-119559498D01*
X115838136Y-119505842D01*
X115826750Y-119453500D01*
X115826750Y-116240063D01*
X115846752Y-116171942D01*
X115900408Y-116125449D01*
X115970682Y-116115345D01*
X116035262Y-116144839D01*
X116062952Y-116178977D01*
X116145113Y-116327199D01*
X116147596Y-116330542D01*
X116147599Y-116330547D01*
X116316159Y-116557511D01*
X116325970Y-116570722D01*
X116537445Y-116788187D01*
X116540723Y-116790767D01*
X116540728Y-116790771D01*
X116763570Y-116966130D01*
X116775823Y-116975772D01*
X116779429Y-116977904D01*
X116779431Y-116977906D01*
X116876656Y-117035404D01*
X117036917Y-117130183D01*
X117316139Y-117248705D01*
X117608583Y-117329258D01*
X117612728Y-117329826D01*
X117612729Y-117329826D01*
X117623753Y-117331336D01*
X117909112Y-117370425D01*
X117913288Y-117370440D01*
X117913294Y-117370440D01*
X118063399Y-117370964D01*
X118212446Y-117371484D01*
X118513255Y-117332416D01*
X118735350Y-117272906D01*
X118802218Y-117254989D01*
X118802222Y-117254988D01*
X118806255Y-117253907D01*
X119003326Y-117171874D01*
X119082438Y-117138943D01*
X119082441Y-117138942D01*
X119086298Y-117137336D01*
X119089901Y-117135239D01*
X119089905Y-117135237D01*
X119217381Y-117061044D01*
X119348463Y-116984752D01*
X119588145Y-116798836D01*
X119591086Y-116795854D01*
X119798194Y-116585834D01*
X119798199Y-116585829D01*
X119801133Y-116582853D01*
X119825009Y-116551169D01*
X119981173Y-116343932D01*
X119981175Y-116343929D01*
X119983685Y-116340598D01*
X120132594Y-116076328D01*
X120245243Y-115794685D01*
X120250019Y-115775813D01*
X120318627Y-115504672D01*
X120319653Y-115500618D01*
X120320176Y-115496105D01*
X120354190Y-115202126D01*
X120354518Y-115199293D01*
X120354807Y-115187495D01*
X120354934Y-115182286D01*
X123307235Y-115182286D01*
X123307687Y-115186445D01*
X123307687Y-115186449D01*
X123309258Y-115200904D01*
X123339638Y-115480553D01*
X123340634Y-115484610D01*
X123340635Y-115484613D01*
X123344454Y-115500159D01*
X123411203Y-115771914D01*
X123520674Y-116051251D01*
X123666127Y-116313657D01*
X123668610Y-116317000D01*
X123668613Y-116317005D01*
X123842520Y-116551169D01*
X123845008Y-116554519D01*
X124054173Y-116769608D01*
X124057451Y-116772188D01*
X124057456Y-116772192D01*
X124094573Y-116801400D01*
X124289947Y-116955144D01*
X124293552Y-116957276D01*
X124293555Y-116957278D01*
X124390132Y-117014393D01*
X124548189Y-117107868D01*
X124824360Y-117225096D01*
X125113610Y-117304769D01*
X125117755Y-117305337D01*
X125117756Y-117305337D01*
X125128524Y-117306812D01*
X125410856Y-117345486D01*
X125415032Y-117345501D01*
X125415038Y-117345501D01*
X125563416Y-117346018D01*
X125710876Y-117346533D01*
X126008399Y-117307892D01*
X126298198Y-117230241D01*
X126302040Y-117228642D01*
X126302048Y-117228639D01*
X126571331Y-117116547D01*
X126575182Y-117114944D01*
X126578779Y-117112850D01*
X126578786Y-117112847D01*
X126795267Y-116986851D01*
X126834483Y-116964027D01*
X126849276Y-116952553D01*
X127068230Y-116782714D01*
X127068231Y-116782713D01*
X127071547Y-116780141D01*
X127219433Y-116630176D01*
X127279269Y-116569499D01*
X127279274Y-116569494D01*
X127282208Y-116566518D01*
X127436100Y-116362296D01*
X127460254Y-116330243D01*
X127460256Y-116330240D01*
X127462766Y-116326909D01*
X127550086Y-116171942D01*
X127607998Y-116069165D01*
X127608001Y-116069159D01*
X127610048Y-116065526D01*
X127721466Y-115786960D01*
X127724390Y-115775407D01*
X127760587Y-115632357D01*
X127795064Y-115496105D01*
X127795892Y-115488954D01*
X127829220Y-115200904D01*
X127829548Y-115198071D01*
X127829807Y-115187495D01*
X127832180Y-115090355D01*
X127832250Y-115087500D01*
X127812366Y-114788138D01*
X127753065Y-114494035D01*
X127655387Y-114210358D01*
X127643099Y-114185818D01*
X127522922Y-113945831D01*
X127522921Y-113945829D01*
X127521050Y-113942093D01*
X127352412Y-113693950D01*
X127152438Y-113470291D01*
X126924640Y-113275045D01*
X126810921Y-113201195D01*
X126676530Y-113113920D01*
X126676525Y-113113917D01*
X126673020Y-113111641D01*
X126600366Y-113077142D01*
X126426541Y-112994604D01*
X126402000Y-112982951D01*
X126116340Y-112891236D01*
X125821060Y-112838106D01*
X125654890Y-112830560D01*
X125525517Y-112824685D01*
X125525512Y-112824685D01*
X125521347Y-112824496D01*
X125517199Y-112824859D01*
X125517195Y-112824859D01*
X125325494Y-112841631D01*
X125222467Y-112850645D01*
X125218395Y-112851555D01*
X125218390Y-112851556D01*
X124933749Y-112915181D01*
X124933746Y-112915182D01*
X124929670Y-112916093D01*
X124648102Y-113019690D01*
X124644414Y-113021634D01*
X124644406Y-113021638D01*
X124477105Y-113109846D01*
X124382708Y-113159616D01*
X124138152Y-113333413D01*
X124135103Y-113336257D01*
X124135096Y-113336262D01*
X124013960Y-113449224D01*
X123918730Y-113538028D01*
X123916077Y-113541257D01*
X123916073Y-113541262D01*
X123755782Y-113736404D01*
X123728296Y-113769865D01*
X123726090Y-113773422D01*
X123726087Y-113773427D01*
X123652035Y-113892861D01*
X123570198Y-114024851D01*
X123447212Y-114298507D01*
X123428689Y-114360642D01*
X123362690Y-114582028D01*
X123362688Y-114582036D01*
X123361499Y-114586025D01*
X123360847Y-114590142D01*
X123360846Y-114590146D01*
X123315220Y-114878222D01*
X123314566Y-114882353D01*
X123307235Y-115182286D01*
X120354934Y-115182286D01*
X120357180Y-115090355D01*
X120357250Y-115087500D01*
X120337147Y-114784831D01*
X120277190Y-114487480D01*
X120182503Y-114212488D01*
X120179799Y-114204635D01*
X120179799Y-114204634D01*
X120178434Y-114200671D01*
X120171827Y-114187476D01*
X120044485Y-113933180D01*
X120044484Y-113933178D01*
X120042613Y-113929442D01*
X119872113Y-113678559D01*
X119812299Y-113611660D01*
X119672715Y-113455543D01*
X119672709Y-113455537D01*
X119669930Y-113452429D01*
X119439616Y-113255026D01*
X119436113Y-113252751D01*
X119188716Y-113092090D01*
X119188713Y-113092088D01*
X119185217Y-113089818D01*
X118911203Y-112959707D01*
X118907220Y-112958428D01*
X118907217Y-112958427D01*
X118626368Y-112868256D01*
X118622388Y-112866978D01*
X118323847Y-112813262D01*
X118155637Y-112805624D01*
X118024993Y-112799691D01*
X118024988Y-112799691D01*
X118020823Y-112799502D01*
X118016675Y-112799865D01*
X118016670Y-112799865D01*
X117894748Y-112810532D01*
X117718642Y-112825939D01*
X117529328Y-112868256D01*
X117429833Y-112890496D01*
X117422612Y-112892110D01*
X117418689Y-112893554D01*
X117418687Y-112893554D01*
X117262224Y-112951121D01*
X117137933Y-112996851D01*
X117134233Y-112998802D01*
X117134228Y-112998804D01*
X116923619Y-113109846D01*
X116869608Y-113138323D01*
X116622351Y-113314040D01*
X116400505Y-113520914D01*
X116207969Y-113755312D01*
X116085993Y-113952039D01*
X116059836Y-113994225D01*
X116006940Y-114041580D01*
X115936839Y-114052819D01*
X115871789Y-114024375D01*
X115832444Y-113965278D01*
X115826750Y-113927828D01*
X115826750Y-112492152D01*
X133034555Y-112492152D01*
X133041014Y-112501513D01*
X133148765Y-112596009D01*
X133154011Y-112600137D01*
X133454216Y-112811516D01*
X133459870Y-112815063D01*
X133780823Y-112993336D01*
X133786835Y-112996268D01*
X134124920Y-113139429D01*
X134131204Y-113141703D01*
X134482571Y-113248122D01*
X134489072Y-113249720D01*
X134849772Y-113318200D01*
X134856394Y-113319095D01*
X135222310Y-113348857D01*
X135229016Y-113349045D01*
X135596022Y-113339756D01*
X135602704Y-113339230D01*
X135966650Y-113290992D01*
X135973230Y-113289761D01*
X136329982Y-113203123D01*
X136336410Y-113201195D01*
X136681926Y-113077142D01*
X136688122Y-113074537D01*
X137018490Y-112914476D01*
X137024377Y-112911226D01*
X137335879Y-112716955D01*
X137341362Y-112713116D01*
X137606894Y-112505286D01*
X137615364Y-112493450D01*
X137608837Y-112481797D01*
X135336562Y-110209522D01*
X135322618Y-110201908D01*
X135320785Y-110202039D01*
X135314170Y-110206290D01*
X133042069Y-112478391D01*
X133034555Y-112492152D01*
X115826750Y-112492152D01*
X115826750Y-111188609D01*
X115846752Y-111120488D01*
X115900408Y-111073995D01*
X115970682Y-111063891D01*
X116035262Y-111093385D01*
X116062952Y-111127523D01*
X116166127Y-111313657D01*
X116168610Y-111317000D01*
X116168613Y-111317005D01*
X116268220Y-111451125D01*
X116345008Y-111554519D01*
X116554173Y-111769608D01*
X116557451Y-111772188D01*
X116557456Y-111772192D01*
X116667237Y-111858581D01*
X116789947Y-111955144D01*
X117048189Y-112107868D01*
X117324360Y-112225096D01*
X117613610Y-112304769D01*
X117617755Y-112305337D01*
X117617756Y-112305337D01*
X117628524Y-112306812D01*
X117910856Y-112345486D01*
X117915032Y-112345501D01*
X117915038Y-112345501D01*
X118063416Y-112346018D01*
X118210876Y-112346533D01*
X118508399Y-112307892D01*
X118798198Y-112230241D01*
X118802040Y-112228642D01*
X118802048Y-112228639D01*
X119071331Y-112116547D01*
X119075182Y-112114944D01*
X119078779Y-112112850D01*
X119078786Y-112112847D01*
X119275144Y-111998563D01*
X119334483Y-111964027D01*
X119349276Y-111952553D01*
X119568230Y-111782714D01*
X119568231Y-111782713D01*
X119571547Y-111780141D01*
X119719433Y-111630176D01*
X119779269Y-111569499D01*
X119779274Y-111569494D01*
X119782208Y-111566518D01*
X119941809Y-111354720D01*
X119960254Y-111330243D01*
X119960256Y-111330240D01*
X119962766Y-111326909D01*
X120040694Y-111188609D01*
X120107998Y-111069165D01*
X120108001Y-111069159D01*
X120110048Y-111065526D01*
X120221466Y-110786960D01*
X120295064Y-110496105D01*
X120296864Y-110480553D01*
X120328223Y-110209522D01*
X120329548Y-110198071D01*
X120329933Y-110182286D01*
X123307235Y-110182286D01*
X123307687Y-110186445D01*
X123307687Y-110186449D01*
X123329776Y-110389771D01*
X123339638Y-110480553D01*
X123340634Y-110484610D01*
X123340635Y-110484613D01*
X123408706Y-110761747D01*
X123411203Y-110771914D01*
X123520674Y-111051251D01*
X123666127Y-111313657D01*
X123668610Y-111317000D01*
X123668613Y-111317005D01*
X123768220Y-111451125D01*
X123845008Y-111554519D01*
X124054173Y-111769608D01*
X124057451Y-111772188D01*
X124057456Y-111772192D01*
X124167237Y-111858581D01*
X124289947Y-111955144D01*
X124548189Y-112107868D01*
X124824360Y-112225096D01*
X125113610Y-112304769D01*
X125117755Y-112305337D01*
X125117756Y-112305337D01*
X125128524Y-112306812D01*
X125410856Y-112345486D01*
X125415032Y-112345501D01*
X125415038Y-112345501D01*
X125563416Y-112346018D01*
X125710876Y-112346533D01*
X126008399Y-112307892D01*
X126298198Y-112230241D01*
X126302040Y-112228642D01*
X126302048Y-112228639D01*
X126571331Y-112116547D01*
X126575182Y-112114944D01*
X126578779Y-112112850D01*
X126578786Y-112112847D01*
X126775144Y-111998563D01*
X126834483Y-111964027D01*
X126849276Y-111952553D01*
X127068230Y-111782714D01*
X127068231Y-111782713D01*
X127071547Y-111780141D01*
X127219433Y-111630176D01*
X127279269Y-111569499D01*
X127279274Y-111569494D01*
X127282208Y-111566518D01*
X127441809Y-111354720D01*
X127460254Y-111330243D01*
X127460256Y-111330240D01*
X127462766Y-111326909D01*
X127540694Y-111188609D01*
X127607998Y-111069165D01*
X127608001Y-111069159D01*
X127610048Y-111065526D01*
X127721466Y-110786960D01*
X127795064Y-110496105D01*
X127796864Y-110480553D01*
X127828223Y-110209522D01*
X127829548Y-110198071D01*
X127830745Y-110149108D01*
X127831697Y-110110124D01*
X127832250Y-110087500D01*
X127827635Y-110018005D01*
X131815567Y-110018005D01*
X131815917Y-110024691D01*
X131854611Y-110389771D01*
X131855671Y-110396386D01*
X131932944Y-110755304D01*
X131934694Y-110761747D01*
X132049670Y-111110421D01*
X132052102Y-111116658D01*
X132203472Y-111451125D01*
X132206553Y-111457071D01*
X132392605Y-111773556D01*
X132396314Y-111779159D01*
X132614939Y-112074075D01*
X132619207Y-112079234D01*
X132656606Y-112119835D01*
X132670223Y-112128013D01*
X132670682Y-112127999D01*
X132679386Y-112122654D01*
X134951728Y-109850312D01*
X134958105Y-109838632D01*
X135688158Y-109838632D01*
X135688289Y-109840465D01*
X135692540Y-109847080D01*
X137965037Y-112119577D01*
X137978345Y-112126844D01*
X137988384Y-112119722D01*
X138138239Y-111939541D01*
X138142250Y-111934160D01*
X138345676Y-111628558D01*
X138349088Y-111622789D01*
X138518898Y-111297281D01*
X138521668Y-111291203D01*
X138655927Y-110949491D01*
X138658038Y-110943144D01*
X138755222Y-110589115D01*
X138756650Y-110582566D01*
X138815664Y-110220205D01*
X138816386Y-110213560D01*
X138836652Y-109845318D01*
X138836746Y-109841935D01*
X138836749Y-109839200D01*
X138836660Y-109835811D01*
X138817037Y-109467529D01*
X138816328Y-109460895D01*
X138757946Y-109098431D01*
X138756528Y-109091873D01*
X138659967Y-108737691D01*
X138657857Y-108731312D01*
X138524206Y-108389395D01*
X138521433Y-108383282D01*
X138352196Y-108057488D01*
X138348804Y-108051730D01*
X138145903Y-107745759D01*
X138141902Y-107740372D01*
X137989496Y-107556473D01*
X137976954Y-107548018D01*
X137966247Y-107554213D01*
X135695772Y-109824688D01*
X135688158Y-109838632D01*
X134958105Y-109838632D01*
X134959342Y-109836368D01*
X134959211Y-109834535D01*
X134954960Y-109827920D01*
X132681552Y-107554512D01*
X132667608Y-107546898D01*
X132667092Y-107546934D01*
X132658694Y-107552568D01*
X132623134Y-107591037D01*
X132618841Y-107596208D01*
X132399699Y-107890746D01*
X132395994Y-107896321D01*
X132209387Y-108212486D01*
X132206293Y-108218430D01*
X132054336Y-108552642D01*
X132051897Y-108558867D01*
X131936318Y-108907323D01*
X131934547Y-108913798D01*
X131856652Y-109272559D01*
X131855581Y-109279171D01*
X131816251Y-109644182D01*
X131815888Y-109650880D01*
X131815567Y-110018005D01*
X127827635Y-110018005D01*
X127812366Y-109788138D01*
X127753065Y-109494035D01*
X127655387Y-109210358D01*
X127628103Y-109155872D01*
X127522922Y-108945831D01*
X127522921Y-108945829D01*
X127521050Y-108942093D01*
X127352412Y-108693950D01*
X127181656Y-108502969D01*
X127155225Y-108473408D01*
X127155224Y-108473407D01*
X127152438Y-108470291D01*
X126924640Y-108275045D01*
X126752348Y-108163157D01*
X126676530Y-108113920D01*
X126676525Y-108113917D01*
X126673020Y-108111641D01*
X126402000Y-107982951D01*
X126116340Y-107891236D01*
X125821060Y-107838106D01*
X125654890Y-107830560D01*
X125525517Y-107824685D01*
X125525512Y-107824685D01*
X125521347Y-107824496D01*
X125517199Y-107824859D01*
X125517195Y-107824859D01*
X125325494Y-107841631D01*
X125222467Y-107850645D01*
X125218395Y-107851555D01*
X125218390Y-107851556D01*
X124933749Y-107915181D01*
X124933746Y-107915182D01*
X124929670Y-107916093D01*
X124648102Y-108019690D01*
X124644414Y-108021634D01*
X124644406Y-108021638D01*
X124477105Y-108109846D01*
X124382708Y-108159616D01*
X124138152Y-108333413D01*
X124135103Y-108336257D01*
X124135096Y-108336262D01*
X124037707Y-108427080D01*
X123918730Y-108538028D01*
X123916077Y-108541257D01*
X123916073Y-108541262D01*
X123759964Y-108731312D01*
X123728296Y-108769865D01*
X123726090Y-108773422D01*
X123726087Y-108773427D01*
X123697612Y-108819353D01*
X123570198Y-109024851D01*
X123447212Y-109298507D01*
X123433883Y-109343219D01*
X123362690Y-109582028D01*
X123362688Y-109582036D01*
X123361499Y-109586025D01*
X123360847Y-109590142D01*
X123360846Y-109590146D01*
X123319483Y-109851307D01*
X123314566Y-109882353D01*
X123312445Y-109969143D01*
X123307453Y-110173381D01*
X123307235Y-110182286D01*
X120329933Y-110182286D01*
X120330745Y-110149108D01*
X120331697Y-110110124D01*
X120332250Y-110087500D01*
X120312366Y-109788138D01*
X120253065Y-109494035D01*
X120155387Y-109210358D01*
X120128103Y-109155872D01*
X120022922Y-108945831D01*
X120022921Y-108945829D01*
X120021050Y-108942093D01*
X119852412Y-108693950D01*
X119681656Y-108502969D01*
X119655225Y-108473408D01*
X119655224Y-108473407D01*
X119652438Y-108470291D01*
X119424640Y-108275045D01*
X119252348Y-108163157D01*
X119176530Y-108113920D01*
X119176525Y-108113917D01*
X119173020Y-108111641D01*
X118902000Y-107982951D01*
X118616340Y-107891236D01*
X118321060Y-107838106D01*
X118154890Y-107830560D01*
X118025517Y-107824685D01*
X118025512Y-107824685D01*
X118021347Y-107824496D01*
X118017199Y-107824859D01*
X118017195Y-107824859D01*
X117825494Y-107841631D01*
X117722467Y-107850645D01*
X117718395Y-107851555D01*
X117718390Y-107851556D01*
X117433749Y-107915181D01*
X117433746Y-107915182D01*
X117429670Y-107916093D01*
X117148102Y-108019690D01*
X117144414Y-108021634D01*
X117144406Y-108021638D01*
X116977105Y-108109846D01*
X116882708Y-108159616D01*
X116638152Y-108333413D01*
X116635103Y-108336257D01*
X116635096Y-108336262D01*
X116537707Y-108427080D01*
X116418730Y-108538028D01*
X116416077Y-108541257D01*
X116416073Y-108541262D01*
X116259964Y-108731312D01*
X116228296Y-108769865D01*
X116226090Y-108773422D01*
X116226087Y-108773427D01*
X116197612Y-108819353D01*
X116070198Y-109024851D01*
X116068485Y-109028663D01*
X116068480Y-109028672D01*
X116067675Y-109030464D01*
X116067286Y-109030919D01*
X116066521Y-109032357D01*
X116066200Y-109032187D01*
X116021505Y-109084397D01*
X115953506Y-109104808D01*
X115885266Y-109085215D01*
X115838452Y-109031839D01*
X115826750Y-108978810D01*
X115826750Y-107185098D01*
X133034524Y-107185098D01*
X133040381Y-107194921D01*
X135310938Y-109465478D01*
X135324882Y-109473092D01*
X135326715Y-109472961D01*
X135333330Y-109468710D01*
X137608139Y-107193901D01*
X137615133Y-107181093D01*
X137607291Y-107170359D01*
X137346381Y-106965412D01*
X137340901Y-106961561D01*
X137029731Y-106766742D01*
X137023865Y-106763491D01*
X136693754Y-106602842D01*
X136687594Y-106600239D01*
X136342279Y-106475578D01*
X136335855Y-106473638D01*
X135979260Y-106386379D01*
X135972671Y-106385134D01*
X135608800Y-106336261D01*
X135602146Y-106335726D01*
X135235145Y-106325795D01*
X135228444Y-106325970D01*
X134862482Y-106355093D01*
X134855835Y-106355980D01*
X134495022Y-106423830D01*
X134488535Y-106425412D01*
X134136978Y-106531219D01*
X134130669Y-106533490D01*
X133792356Y-106676052D01*
X133786330Y-106678977D01*
X133465084Y-106856681D01*
X133459396Y-106860235D01*
X133158843Y-107071075D01*
X133153577Y-107075204D01*
X133042927Y-107171901D01*
X133034524Y-107185098D01*
X115826750Y-107185098D01*
X115826750Y-84830299D01*
X135664039Y-84830299D01*
X135670771Y-84833500D01*
X136546635Y-84833501D01*
X136561874Y-84829026D01*
X136563079Y-84827636D01*
X136564750Y-84819953D01*
X136564750Y-84815385D01*
X137072749Y-84815385D01*
X137077224Y-84830624D01*
X137078614Y-84831829D01*
X137086297Y-84833500D01*
X137595747Y-84833501D01*
X137595753Y-84833500D01*
X138546635Y-84833501D01*
X138561874Y-84829026D01*
X138563079Y-84827636D01*
X138564750Y-84819953D01*
X138564750Y-84815385D01*
X139072749Y-84815385D01*
X139077224Y-84830624D01*
X139078614Y-84831829D01*
X139086297Y-84833500D01*
X139595747Y-84833501D01*
X139595753Y-84833500D01*
X140546635Y-84833501D01*
X140561874Y-84829026D01*
X140563079Y-84827636D01*
X140564750Y-84819953D01*
X140564750Y-84815385D01*
X141072749Y-84815385D01*
X141077224Y-84830624D01*
X141078614Y-84831829D01*
X141086297Y-84833500D01*
X141958165Y-84833501D01*
X141971696Y-84829528D01*
X141972865Y-84821393D01*
X141929413Y-84667323D01*
X141925288Y-84656576D01*
X141834242Y-84471953D01*
X141828232Y-84462145D01*
X141705063Y-84297203D01*
X141697361Y-84288649D01*
X141546204Y-84148920D01*
X141537072Y-84141912D01*
X141362974Y-84032065D01*
X141352727Y-84026844D01*
X141161524Y-83950562D01*
X141150497Y-83947295D01*
X141090520Y-83935366D01*
X141077644Y-83936518D01*
X141072750Y-83951671D01*
X141072749Y-84815385D01*
X140564750Y-84815385D01*
X140564751Y-83948906D01*
X140560945Y-83935944D01*
X140546029Y-83934008D01*
X140516970Y-83939001D01*
X140505850Y-83941981D01*
X140312719Y-84013231D01*
X140302341Y-84018181D01*
X140125429Y-84123432D01*
X140116117Y-84130198D01*
X139961346Y-84265928D01*
X139953429Y-84274271D01*
X139918746Y-84318266D01*
X139860864Y-84359379D01*
X139789944Y-84362673D01*
X139728502Y-84327101D01*
X139718839Y-84315650D01*
X139705065Y-84297205D01*
X139697361Y-84288649D01*
X139546204Y-84148920D01*
X139537072Y-84141912D01*
X139362974Y-84032065D01*
X139352727Y-84026844D01*
X139161524Y-83950562D01*
X139150497Y-83947295D01*
X139090520Y-83935366D01*
X139077644Y-83936518D01*
X139072750Y-83951671D01*
X139072749Y-84815385D01*
X138564750Y-84815385D01*
X138564751Y-83948906D01*
X138560945Y-83935944D01*
X138546029Y-83934008D01*
X138516970Y-83939001D01*
X138505850Y-83941981D01*
X138312719Y-84013231D01*
X138302341Y-84018181D01*
X138125429Y-84123432D01*
X138116117Y-84130198D01*
X137961346Y-84265928D01*
X137953429Y-84274271D01*
X137918746Y-84318266D01*
X137860864Y-84359379D01*
X137789944Y-84362673D01*
X137728502Y-84327101D01*
X137718839Y-84315650D01*
X137705065Y-84297205D01*
X137697361Y-84288649D01*
X137546204Y-84148920D01*
X137537072Y-84141912D01*
X137362974Y-84032065D01*
X137352727Y-84026844D01*
X137161524Y-83950562D01*
X137150497Y-83947295D01*
X137090520Y-83935366D01*
X137077644Y-83936518D01*
X137072750Y-83951671D01*
X137072749Y-84815385D01*
X136564750Y-84815385D01*
X136564751Y-83948906D01*
X136560945Y-83935944D01*
X136546029Y-83934008D01*
X136516970Y-83939001D01*
X136505850Y-83941981D01*
X136312719Y-84013231D01*
X136302341Y-84018181D01*
X136125429Y-84123432D01*
X136116117Y-84130198D01*
X135961346Y-84265928D01*
X135953429Y-84274271D01*
X135825987Y-84435930D01*
X135819716Y-84445587D01*
X135723873Y-84627755D01*
X135719468Y-84638389D01*
X135664257Y-84816200D01*
X135664039Y-84830299D01*
X115826750Y-84830299D01*
X115826750Y-83221500D01*
X115846752Y-83153379D01*
X115900408Y-83106886D01*
X115952750Y-83095500D01*
X158360656Y-83095500D01*
X158428777Y-83115502D01*
G37*
%TD.AperFunction*%
%TA.AperFunction,Conductor*%
G36*
X194072276Y-83991002D02*
G01*
X194093251Y-84007905D01*
X194898347Y-84813002D01*
X194932372Y-84875314D01*
X194935251Y-84902097D01*
X194935250Y-105522905D01*
X194915248Y-105591026D01*
X194898345Y-105612000D01*
X190676228Y-109834118D01*
X190668150Y-109841469D01*
X190661756Y-109845527D01*
X190656329Y-109851306D01*
X190656328Y-109851307D01*
X190615898Y-109894361D01*
X190613143Y-109897203D01*
X190592812Y-109917534D01*
X190590378Y-109920671D01*
X190590376Y-109920674D01*
X190590153Y-109920961D01*
X190582457Y-109929971D01*
X190563788Y-109949852D01*
X190552194Y-109962199D01*
X190548378Y-109969140D01*
X190548376Y-109969143D01*
X190542438Y-109979945D01*
X190531584Y-109996468D01*
X190524028Y-110006210D01*
X190519167Y-110012477D01*
X190516019Y-110019752D01*
X190501609Y-110053051D01*
X190496387Y-110063711D01*
X190475089Y-110102452D01*
X190470051Y-110122072D01*
X190463652Y-110140764D01*
X190455603Y-110159365D01*
X190454363Y-110167192D01*
X190454363Y-110167193D01*
X190448687Y-110203031D01*
X190446280Y-110214654D01*
X190435286Y-110257475D01*
X190435251Y-110258031D01*
X190435251Y-110277947D01*
X190433700Y-110297657D01*
X190430566Y-110317445D01*
X190431312Y-110325336D01*
X190434692Y-110361092D01*
X190435251Y-110372950D01*
X190435250Y-111522906D01*
X190415248Y-111591027D01*
X190398345Y-111612001D01*
X189093251Y-112917095D01*
X189030939Y-112951121D01*
X189004156Y-112954000D01*
X188407204Y-112954000D01*
X188339083Y-112933998D01*
X188302684Y-112898367D01*
X188245885Y-112814001D01*
X188170344Y-112701796D01*
X188132240Y-112661852D01*
X188009042Y-112532708D01*
X188005363Y-112528851D01*
X187973691Y-112505286D01*
X187817884Y-112389363D01*
X187813602Y-112386177D01*
X187808851Y-112383761D01*
X187808847Y-112383759D01*
X187605299Y-112280270D01*
X187605298Y-112280270D01*
X187600543Y-112277852D01*
X187372278Y-112206974D01*
X187358130Y-112205099D01*
X187238979Y-112189306D01*
X187174077Y-112160526D01*
X187135038Y-112101227D01*
X187134255Y-112030235D01*
X187148102Y-111998563D01*
X187170840Y-111961459D01*
X187251389Y-111830014D01*
X187270982Y-111782714D01*
X187346386Y-111600672D01*
X187346387Y-111600670D01*
X187348280Y-111596099D01*
X187368616Y-111511394D01*
X187406230Y-111354720D01*
X187406231Y-111354714D01*
X187407385Y-111349907D01*
X187427250Y-111097500D01*
X187407385Y-110845093D01*
X187394360Y-110790837D01*
X187349435Y-110603713D01*
X187348280Y-110598901D01*
X187346386Y-110594328D01*
X187253284Y-110369560D01*
X187253282Y-110369556D01*
X187251389Y-110364986D01*
X187119099Y-110149108D01*
X187115888Y-110145348D01*
X187115884Y-110145343D01*
X186965394Y-109969143D01*
X186954667Y-109956583D01*
X186885142Y-109897203D01*
X186765907Y-109795366D01*
X186765902Y-109795362D01*
X186762142Y-109792151D01*
X186546264Y-109659861D01*
X186541694Y-109657968D01*
X186541690Y-109657966D01*
X186316922Y-109564864D01*
X186316920Y-109564863D01*
X186312349Y-109562970D01*
X186227644Y-109542634D01*
X186070970Y-109505020D01*
X186070964Y-109505019D01*
X186066157Y-109503865D01*
X185813750Y-109484000D01*
X185561343Y-109503865D01*
X185556536Y-109505019D01*
X185556530Y-109505020D01*
X185399856Y-109542634D01*
X185315151Y-109562970D01*
X185310580Y-109564863D01*
X185310578Y-109564864D01*
X185085810Y-109657966D01*
X185085806Y-109657968D01*
X185081236Y-109659861D01*
X184865358Y-109792151D01*
X184861598Y-109795362D01*
X184861593Y-109795366D01*
X184742358Y-109897203D01*
X184672833Y-109956583D01*
X184662106Y-109969143D01*
X184511616Y-110145343D01*
X184511612Y-110145348D01*
X184508401Y-110149108D01*
X184376111Y-110364986D01*
X184374218Y-110369556D01*
X184374216Y-110369560D01*
X184281114Y-110594328D01*
X184279220Y-110598901D01*
X184278065Y-110603713D01*
X184233141Y-110790837D01*
X184220115Y-110845093D01*
X184200250Y-111097500D01*
X184220115Y-111349907D01*
X184221269Y-111354714D01*
X184221270Y-111354720D01*
X184258884Y-111511394D01*
X184279220Y-111596099D01*
X184281113Y-111600670D01*
X184281114Y-111600672D01*
X184356519Y-111782714D01*
X184376111Y-111830014D01*
X184508401Y-112045892D01*
X184511612Y-112049652D01*
X184511616Y-112049657D01*
X184578527Y-112127999D01*
X184672833Y-112238417D01*
X184676595Y-112241630D01*
X184861593Y-112399634D01*
X184861598Y-112399638D01*
X184865358Y-112402849D01*
X185081236Y-112535139D01*
X185085806Y-112537032D01*
X185085810Y-112537034D01*
X185310578Y-112630136D01*
X185315151Y-112632030D01*
X185399856Y-112652366D01*
X185556530Y-112689980D01*
X185556536Y-112689981D01*
X185561343Y-112691135D01*
X185739038Y-112705120D01*
X185743587Y-112705478D01*
X185809928Y-112730764D01*
X185852068Y-112787902D01*
X185856627Y-112858752D01*
X185843203Y-112893422D01*
X185822281Y-112930177D01*
X185785607Y-112994604D01*
X185704054Y-113219277D01*
X185661523Y-113454478D01*
X185660731Y-113536975D01*
X185659958Y-113617576D01*
X185659229Y-113693482D01*
X185660078Y-113698752D01*
X185660078Y-113698754D01*
X185691343Y-113892861D01*
X185697237Y-113929457D01*
X185698962Y-113934509D01*
X185698962Y-113934510D01*
X185772669Y-114150403D01*
X185774461Y-114155653D01*
X185888693Y-114365605D01*
X186036666Y-114553307D01*
X186214149Y-114713395D01*
X186218662Y-114716254D01*
X186218664Y-114716255D01*
X186282998Y-114757004D01*
X186416068Y-114841290D01*
X186514474Y-114882353D01*
X186630585Y-114930804D01*
X186636650Y-114933335D01*
X186764996Y-114962848D01*
X186864379Y-114985701D01*
X186864383Y-114985702D01*
X186869586Y-114986898D01*
X186874919Y-114987201D01*
X186874920Y-114987201D01*
X186988901Y-114993673D01*
X187108217Y-115000449D01*
X187113524Y-114999849D01*
X187113526Y-114999849D01*
X187243050Y-114985206D01*
X187345720Y-114973599D01*
X187350835Y-114972118D01*
X187350839Y-114972117D01*
X187570180Y-114908600D01*
X187570185Y-114908598D01*
X187575303Y-114907116D01*
X187790402Y-114802901D01*
X187869055Y-114746694D01*
X190774386Y-114746694D01*
X190780458Y-114754805D01*
X190911784Y-114837986D01*
X190921230Y-114842903D01*
X191131878Y-114930804D01*
X191142006Y-114934055D01*
X191364451Y-114985206D01*
X191374990Y-114986706D01*
X191602869Y-114999646D01*
X191613512Y-114999349D01*
X191840313Y-114973709D01*
X191850748Y-114971625D01*
X192070006Y-114908131D01*
X192079923Y-114904324D01*
X192285342Y-114804799D01*
X192294489Y-114799368D01*
X192353772Y-114757004D01*
X192362175Y-114746281D01*
X192355195Y-114733155D01*
X191581562Y-113959522D01*
X191567618Y-113951908D01*
X191565785Y-113952039D01*
X191559170Y-113956290D01*
X190781146Y-114734314D01*
X190774386Y-114746694D01*
X187869055Y-114746694D01*
X187984867Y-114663934D01*
X188058014Y-114590146D01*
X188149385Y-114497975D01*
X188149386Y-114497974D01*
X188153138Y-114494189D01*
X188290402Y-114298519D01*
X188292687Y-114293697D01*
X188292690Y-114293691D01*
X188292995Y-114293047D01*
X188293196Y-114292822D01*
X188295370Y-114289086D01*
X188296131Y-114289529D01*
X188340240Y-114240052D01*
X188406859Y-114221000D01*
X189240367Y-114221000D01*
X189251271Y-114221514D01*
X189258662Y-114223166D01*
X189266587Y-114222917D01*
X189266588Y-114222917D01*
X189325603Y-114221062D01*
X189329561Y-114221000D01*
X189358328Y-114221000D01*
X189362252Y-114220504D01*
X189362254Y-114220504D01*
X189362602Y-114220460D01*
X189374448Y-114219527D01*
X189418633Y-114218138D01*
X189438089Y-114212486D01*
X189457429Y-114208481D01*
X189477538Y-114205940D01*
X189484908Y-114203022D01*
X189484912Y-114203021D01*
X189518650Y-114189663D01*
X189529880Y-114185818D01*
X189564718Y-114175697D01*
X189564719Y-114175697D01*
X189572328Y-114173486D01*
X189589762Y-114163176D01*
X189607514Y-114154480D01*
X189618975Y-114149942D01*
X189618974Y-114149942D01*
X189626350Y-114147022D01*
X189662125Y-114121030D01*
X189672044Y-114114514D01*
X189710091Y-114092013D01*
X189710509Y-114091645D01*
X189724592Y-114077562D01*
X189739617Y-114064728D01*
X189755833Y-114052946D01*
X189760887Y-114046837D01*
X189760889Y-114046835D01*
X189783777Y-114019169D01*
X189791765Y-114010391D01*
X189978355Y-113823801D01*
X190040667Y-113789775D01*
X190111482Y-113794840D01*
X190168318Y-113837387D01*
X190191847Y-113892861D01*
X190196874Y-113924071D01*
X190199445Y-113934383D01*
X190273195Y-114150403D01*
X190277469Y-114160139D01*
X190386560Y-114360642D01*
X190392414Y-114369520D01*
X190396673Y-114374923D01*
X190408598Y-114383394D01*
X190420134Y-114376906D01*
X191479655Y-113317385D01*
X191541967Y-113283359D01*
X191612782Y-113288424D01*
X191657845Y-113317385D01*
X192714803Y-114374343D01*
X192726594Y-114380782D01*
X192738590Y-114371509D01*
X192786902Y-114302641D01*
X192792256Y-114293441D01*
X192889983Y-114087166D01*
X192893707Y-114077206D01*
X192955281Y-113857412D01*
X192957276Y-113846956D01*
X192981182Y-113617576D01*
X192981518Y-113611660D01*
X192981722Y-113590463D01*
X192981500Y-113584552D01*
X192962000Y-113354736D01*
X192960210Y-113344264D01*
X192902866Y-113123327D01*
X192899331Y-113113287D01*
X192805581Y-112905171D01*
X192798257Y-112892014D01*
X192782602Y-112822764D01*
X192806872Y-112756045D01*
X192863360Y-112713038D01*
X192898464Y-112705120D01*
X192956484Y-112700554D01*
X193076157Y-112691135D01*
X193080964Y-112689981D01*
X193080970Y-112689980D01*
X193237644Y-112652366D01*
X193322349Y-112632030D01*
X193326922Y-112630136D01*
X193551690Y-112537034D01*
X193551694Y-112537032D01*
X193556264Y-112535139D01*
X193772142Y-112402849D01*
X193775902Y-112399638D01*
X193775907Y-112399634D01*
X193960905Y-112241630D01*
X193964667Y-112238417D01*
X194058973Y-112127999D01*
X194125884Y-112049657D01*
X194125888Y-112049652D01*
X194129099Y-112045892D01*
X194261389Y-111830014D01*
X194280982Y-111782714D01*
X194356386Y-111600672D01*
X194356387Y-111600670D01*
X194358280Y-111596099D01*
X194378616Y-111511394D01*
X194416230Y-111354720D01*
X194416231Y-111354714D01*
X194417385Y-111349907D01*
X194437250Y-111097500D01*
X194417385Y-110845093D01*
X194404360Y-110790837D01*
X194359435Y-110603713D01*
X194358280Y-110598901D01*
X194356386Y-110594328D01*
X194263284Y-110369560D01*
X194263282Y-110369556D01*
X194261389Y-110364986D01*
X194129099Y-110149108D01*
X194125888Y-110145348D01*
X194125884Y-110145343D01*
X193975394Y-109969143D01*
X193964667Y-109956583D01*
X193895142Y-109897203D01*
X193775907Y-109795366D01*
X193775902Y-109795362D01*
X193772142Y-109792151D01*
X193556264Y-109659861D01*
X193551694Y-109657968D01*
X193551690Y-109657966D01*
X193326922Y-109564864D01*
X193326920Y-109564863D01*
X193322349Y-109562970D01*
X193076157Y-109503865D01*
X193076346Y-109503078D01*
X193016028Y-109474479D01*
X192978504Y-109414209D01*
X192979522Y-109343219D01*
X193010802Y-109291352D01*
X195595655Y-106706499D01*
X195657967Y-106672473D01*
X195728782Y-106677538D01*
X195785618Y-106720085D01*
X195810429Y-106786605D01*
X195810750Y-106795594D01*
X195810750Y-119453500D01*
X195790748Y-119521621D01*
X195737092Y-119568114D01*
X195684750Y-119579500D01*
X175276844Y-119579500D01*
X175208723Y-119559498D01*
X175162230Y-119505842D01*
X175152126Y-119435568D01*
X175181620Y-119370988D01*
X175187749Y-119364405D01*
X175461263Y-119090891D01*
X175469351Y-119083531D01*
X175475745Y-119079473D01*
X175521620Y-119030621D01*
X175524374Y-119027780D01*
X175544688Y-119007466D01*
X175547333Y-119004055D01*
X175555039Y-118995033D01*
X175579883Y-118968577D01*
X175585307Y-118962801D01*
X175589126Y-118955855D01*
X175595068Y-118945047D01*
X175605922Y-118928523D01*
X175613475Y-118918786D01*
X175613475Y-118918785D01*
X175618333Y-118912523D01*
X175626074Y-118894636D01*
X175631036Y-118883169D01*
X175635892Y-118871947D01*
X175641113Y-118861290D01*
X175642734Y-118858342D01*
X175662412Y-118822548D01*
X175664385Y-118814864D01*
X175667449Y-118802932D01*
X175673853Y-118784228D01*
X175678749Y-118772915D01*
X175678751Y-118772908D01*
X175681898Y-118765636D01*
X175685758Y-118741269D01*
X175688815Y-118721965D01*
X175691222Y-118710344D01*
X175700737Y-118673282D01*
X175700737Y-118673281D01*
X175702215Y-118667525D01*
X175702250Y-118666969D01*
X175702250Y-118647048D01*
X175703801Y-118627338D01*
X175705694Y-118615386D01*
X175705694Y-118615385D01*
X175706934Y-118607556D01*
X175702809Y-118563917D01*
X175702250Y-118552060D01*
X175702250Y-116718019D01*
X175722252Y-116649898D01*
X175775908Y-116603405D01*
X175846182Y-116593301D01*
X175910762Y-116622795D01*
X175918581Y-116630176D01*
X176054173Y-116769608D01*
X176057451Y-116772188D01*
X176057456Y-116772192D01*
X176094573Y-116801400D01*
X176289947Y-116955144D01*
X176293552Y-116957276D01*
X176293555Y-116957278D01*
X176390132Y-117014393D01*
X176548189Y-117107868D01*
X176824360Y-117225096D01*
X177113610Y-117304769D01*
X177117755Y-117305337D01*
X177117756Y-117305337D01*
X177128524Y-117306812D01*
X177410856Y-117345486D01*
X177415032Y-117345501D01*
X177415038Y-117345501D01*
X177563416Y-117346018D01*
X177710876Y-117346533D01*
X178008399Y-117307892D01*
X178298198Y-117230241D01*
X178302040Y-117228642D01*
X178302048Y-117228639D01*
X178571331Y-117116547D01*
X178575182Y-117114944D01*
X178578779Y-117112850D01*
X178578786Y-117112847D01*
X178795267Y-116986851D01*
X178834483Y-116964027D01*
X178849276Y-116952553D01*
X179068230Y-116782714D01*
X179068231Y-116782713D01*
X179071547Y-116780141D01*
X179219433Y-116630176D01*
X179279269Y-116569499D01*
X179279274Y-116569494D01*
X179282208Y-116566518D01*
X179436100Y-116362296D01*
X179460254Y-116330243D01*
X179460256Y-116330240D01*
X179462766Y-116326909D01*
X179550086Y-116171942D01*
X179607998Y-116069165D01*
X179608001Y-116069159D01*
X179610048Y-116065526D01*
X179721466Y-115786960D01*
X179724390Y-115775407D01*
X179760587Y-115632357D01*
X179795064Y-115496105D01*
X179795892Y-115488954D01*
X179829220Y-115200904D01*
X179829548Y-115198071D01*
X179829807Y-115187495D01*
X179832180Y-115090355D01*
X179832250Y-115087500D01*
X179812366Y-114788138D01*
X179753065Y-114494035D01*
X179655387Y-114210358D01*
X179643099Y-114185818D01*
X179522922Y-113945831D01*
X179522921Y-113945829D01*
X179521050Y-113942093D01*
X179352412Y-113693950D01*
X179152438Y-113470291D01*
X178924640Y-113275045D01*
X178810921Y-113201195D01*
X178676530Y-113113920D01*
X178676525Y-113113917D01*
X178673020Y-113111641D01*
X178600366Y-113077142D01*
X178426541Y-112994604D01*
X178402000Y-112982951D01*
X178116340Y-112891236D01*
X177821060Y-112838106D01*
X177654890Y-112830560D01*
X177525517Y-112824685D01*
X177525512Y-112824685D01*
X177521347Y-112824496D01*
X177517199Y-112824859D01*
X177517195Y-112824859D01*
X177325494Y-112841631D01*
X177222467Y-112850645D01*
X177218395Y-112851555D01*
X177218390Y-112851556D01*
X176933749Y-112915181D01*
X176933746Y-112915182D01*
X176929670Y-112916093D01*
X176648102Y-113019690D01*
X176644414Y-113021634D01*
X176644406Y-113021638D01*
X176477105Y-113109846D01*
X176382708Y-113159616D01*
X176138152Y-113333413D01*
X176135103Y-113336257D01*
X176135096Y-113336262D01*
X176013960Y-113449224D01*
X175918730Y-113538028D01*
X175918580Y-113537867D01*
X175858886Y-113572940D01*
X175787946Y-113570101D01*
X175729802Y-113529360D01*
X175702915Y-113463651D01*
X175702250Y-113450721D01*
X175702250Y-111718019D01*
X175722252Y-111649898D01*
X175775908Y-111603405D01*
X175846182Y-111593301D01*
X175910762Y-111622795D01*
X175918581Y-111630176D01*
X176054173Y-111769608D01*
X176057451Y-111772188D01*
X176057456Y-111772192D01*
X176167237Y-111858581D01*
X176289947Y-111955144D01*
X176548189Y-112107868D01*
X176824360Y-112225096D01*
X177113610Y-112304769D01*
X177117755Y-112305337D01*
X177117756Y-112305337D01*
X177128524Y-112306812D01*
X177410856Y-112345486D01*
X177415032Y-112345501D01*
X177415038Y-112345501D01*
X177563416Y-112346018D01*
X177710876Y-112346533D01*
X178008399Y-112307892D01*
X178298198Y-112230241D01*
X178302040Y-112228642D01*
X178302048Y-112228639D01*
X178571331Y-112116547D01*
X178575182Y-112114944D01*
X178578779Y-112112850D01*
X178578786Y-112112847D01*
X178775144Y-111998563D01*
X178834483Y-111964027D01*
X178849276Y-111952553D01*
X179068230Y-111782714D01*
X179068231Y-111782713D01*
X179071547Y-111780141D01*
X179219433Y-111630176D01*
X179279269Y-111569499D01*
X179279274Y-111569494D01*
X179282208Y-111566518D01*
X179441809Y-111354720D01*
X179460254Y-111330243D01*
X179460256Y-111330240D01*
X179462766Y-111326909D01*
X179540694Y-111188609D01*
X179607998Y-111069165D01*
X179608001Y-111069159D01*
X179610048Y-111065526D01*
X179721466Y-110786960D01*
X179795064Y-110496105D01*
X179796864Y-110480553D01*
X179828223Y-110209522D01*
X179829548Y-110198071D01*
X179830745Y-110149108D01*
X179831697Y-110110124D01*
X179832250Y-110087500D01*
X179812366Y-109788138D01*
X179753065Y-109494035D01*
X179655387Y-109210358D01*
X179628103Y-109155872D01*
X179522922Y-108945831D01*
X179522921Y-108945829D01*
X179521050Y-108942093D01*
X179352412Y-108693950D01*
X179181656Y-108502969D01*
X179155225Y-108473408D01*
X179155224Y-108473407D01*
X179152438Y-108470291D01*
X178924640Y-108275045D01*
X178752348Y-108163157D01*
X178676530Y-108113920D01*
X178676525Y-108113917D01*
X178673020Y-108111641D01*
X178402000Y-107982951D01*
X178116340Y-107891236D01*
X177821060Y-107838106D01*
X177654890Y-107830560D01*
X177525517Y-107824685D01*
X177525512Y-107824685D01*
X177521347Y-107824496D01*
X177517199Y-107824859D01*
X177517195Y-107824859D01*
X177325494Y-107841631D01*
X177222467Y-107850645D01*
X177218395Y-107851555D01*
X177218390Y-107851556D01*
X176933749Y-107915181D01*
X176933746Y-107915182D01*
X176929670Y-107916093D01*
X176648102Y-108019690D01*
X176644414Y-108021634D01*
X176644406Y-108021638D01*
X176412015Y-108144164D01*
X176342427Y-108158241D01*
X176276277Y-108132462D01*
X176234564Y-108075011D01*
X176227250Y-108032707D01*
X176227250Y-106467547D01*
X177085750Y-106467547D01*
X177085750Y-106539222D01*
X177086175Y-106546526D01*
X177100031Y-106665379D01*
X177103376Y-106679531D01*
X177157690Y-106829163D01*
X177164200Y-106842162D01*
X177251481Y-106975287D01*
X177260805Y-106986439D01*
X177376367Y-107095912D01*
X177388014Y-107104625D01*
X177525660Y-107184577D01*
X177538997Y-107190376D01*
X177692156Y-107236763D01*
X177704790Y-107239213D01*
X177772435Y-107245251D01*
X177778026Y-107245500D01*
X177796635Y-107245500D01*
X177811874Y-107241025D01*
X177813079Y-107239635D01*
X177814750Y-107231952D01*
X177814750Y-107227385D01*
X178322749Y-107227385D01*
X178327224Y-107242624D01*
X178328614Y-107243829D01*
X178336297Y-107245500D01*
X178345472Y-107245500D01*
X178352776Y-107245075D01*
X178471629Y-107231219D01*
X178485781Y-107227874D01*
X178635413Y-107173560D01*
X178648412Y-107167050D01*
X178781537Y-107079769D01*
X178792689Y-107070445D01*
X178902162Y-106954883D01*
X178910875Y-106943236D01*
X178990827Y-106805590D01*
X178996626Y-106792253D01*
X179043013Y-106639093D01*
X179045463Y-106626461D01*
X179051500Y-106558818D01*
X179051749Y-106553223D01*
X179051749Y-106472115D01*
X179047274Y-106456876D01*
X179045884Y-106455671D01*
X179038201Y-106454000D01*
X178340865Y-106453999D01*
X178325626Y-106458474D01*
X178324421Y-106459864D01*
X178322750Y-106467547D01*
X178322749Y-107227385D01*
X177814750Y-107227385D01*
X177814751Y-106472115D01*
X177810276Y-106456876D01*
X177808886Y-106455671D01*
X177801203Y-106454000D01*
X177103865Y-106453999D01*
X177088626Y-106458474D01*
X177087421Y-106459864D01*
X177085750Y-106467547D01*
X176227250Y-106467547D01*
X176227250Y-103609000D01*
X176247252Y-103540879D01*
X176300908Y-103494386D01*
X176353250Y-103483000D01*
X176404369Y-103483000D01*
X176412259Y-103482503D01*
X176519545Y-103468950D01*
X176540535Y-103463561D01*
X176595478Y-103461835D01*
X176703210Y-103482386D01*
X176703214Y-103482386D01*
X176709052Y-103483500D01*
X177058327Y-103483500D01*
X177163635Y-103470196D01*
X177233724Y-103481502D01*
X177286575Y-103528907D01*
X177305408Y-103597360D01*
X177284242Y-103665128D01*
X177270899Y-103681854D01*
X177234942Y-103719812D01*
X177234940Y-103719815D01*
X177229902Y-103725133D01*
X177142539Y-103875539D01*
X177092120Y-104042009D01*
X177085251Y-104118975D01*
X177085250Y-104817884D01*
X177100393Y-104947766D01*
X177102891Y-104954648D01*
X177155898Y-105100680D01*
X177159740Y-105111266D01*
X177255109Y-105256728D01*
X177258567Y-105260004D01*
X177286500Y-105324129D01*
X177275161Y-105394214D01*
X177252958Y-105426517D01*
X177235339Y-105445116D01*
X177226626Y-105456763D01*
X177146673Y-105594410D01*
X177140874Y-105607747D01*
X177094487Y-105760907D01*
X177092037Y-105773539D01*
X177086000Y-105841182D01*
X177085751Y-105846777D01*
X177085751Y-105927885D01*
X177090226Y-105943124D01*
X177091616Y-105944329D01*
X177099299Y-105946000D01*
X177814748Y-105946001D01*
X177814754Y-105946000D01*
X179033635Y-105946001D01*
X179048874Y-105941526D01*
X179050079Y-105940136D01*
X179051750Y-105932453D01*
X179051750Y-105860778D01*
X179051325Y-105853474D01*
X179037469Y-105734621D01*
X179034124Y-105720469D01*
X178979810Y-105570837D01*
X178973300Y-105557838D01*
X178886022Y-105424717D01*
X178879327Y-105416710D01*
X178850975Y-105351620D01*
X178862314Y-105281535D01*
X178884516Y-105249233D01*
X178902562Y-105230183D01*
X178907598Y-105224867D01*
X178994961Y-105074461D01*
X178997081Y-105067460D01*
X179000003Y-105060741D01*
X179001179Y-105061252D01*
X179035944Y-105008155D01*
X179100773Y-104979212D01*
X179170958Y-104989912D01*
X179201958Y-105010444D01*
X179203076Y-105011451D01*
X179207499Y-105016363D01*
X179212841Y-105020244D01*
X179212843Y-105020246D01*
X179333451Y-105107872D01*
X179362000Y-105128614D01*
X179368028Y-105131298D01*
X179368030Y-105131299D01*
X179530432Y-105203605D01*
X179536463Y-105206290D01*
X179623860Y-105224867D01*
X179716806Y-105244624D01*
X179716811Y-105244624D01*
X179723263Y-105245996D01*
X179914237Y-105245996D01*
X179920689Y-105244624D01*
X179920694Y-105244624D01*
X180013640Y-105224867D01*
X180101037Y-105206290D01*
X180107068Y-105203605D01*
X180269470Y-105131299D01*
X180269472Y-105131298D01*
X180275500Y-105128614D01*
X180304049Y-105107872D01*
X180424657Y-105020246D01*
X180424659Y-105020244D01*
X180430001Y-105016363D01*
X180434423Y-105011452D01*
X180553368Y-104879350D01*
X180553369Y-104879349D01*
X180557787Y-104874442D01*
X180653274Y-104709054D01*
X180712288Y-104527427D01*
X180732250Y-104337500D01*
X180712288Y-104147573D01*
X180703907Y-104121777D01*
X180655316Y-103972231D01*
X180653274Y-103965946D01*
X180557787Y-103800558D01*
X180430001Y-103658637D01*
X180424659Y-103654756D01*
X180424657Y-103654754D01*
X180280842Y-103550267D01*
X180280841Y-103550266D01*
X180275500Y-103546386D01*
X180269472Y-103543702D01*
X180269470Y-103543701D01*
X180107068Y-103471395D01*
X180107067Y-103471395D01*
X180101037Y-103468710D01*
X179978643Y-103442694D01*
X179920694Y-103430376D01*
X179920689Y-103430376D01*
X179914237Y-103429004D01*
X179723263Y-103429004D01*
X179716811Y-103430376D01*
X179716806Y-103430376D01*
X179633442Y-103448096D01*
X179562651Y-103442694D01*
X179506018Y-103399877D01*
X179481735Y-103333811D01*
X179481934Y-103332556D01*
X179477809Y-103288917D01*
X179477250Y-103277060D01*
X179477250Y-103274479D01*
X179497252Y-103206358D01*
X179500216Y-103202303D01*
X179502800Y-103198232D01*
X179507852Y-103192125D01*
X179511225Y-103184957D01*
X179511227Y-103184954D01*
X179545818Y-103111444D01*
X179575999Y-103047307D01*
X179581941Y-103016159D01*
X179601135Y-102915540D01*
X179601135Y-102915536D01*
X179602249Y-102909698D01*
X179602250Y-101285423D01*
X179587190Y-101166213D01*
X179556120Y-101087737D01*
X179531192Y-101024775D01*
X179531190Y-101024772D01*
X179528272Y-101017401D01*
X179434196Y-100887917D01*
X179310875Y-100785897D01*
X179166057Y-100717750D01*
X179158274Y-100716265D01*
X179158273Y-100716265D01*
X179034290Y-100692614D01*
X179034286Y-100692614D01*
X179028448Y-100691500D01*
X178752345Y-100691500D01*
X178684224Y-100671498D01*
X178637731Y-100617842D01*
X178627627Y-100547568D01*
X178657121Y-100482988D01*
X178663249Y-100476405D01*
X178861269Y-100278384D01*
X178869351Y-100271030D01*
X178875744Y-100266973D01*
X178883890Y-100258299D01*
X178921624Y-100218116D01*
X178924379Y-100215274D01*
X178944687Y-100194966D01*
X178947111Y-100191841D01*
X178947118Y-100191833D01*
X178947330Y-100191559D01*
X178955039Y-100182533D01*
X178963726Y-100173282D01*
X178985307Y-100150301D01*
X178989125Y-100143356D01*
X178989128Y-100143352D01*
X178995068Y-100132547D01*
X179005917Y-100116030D01*
X179018332Y-100100024D01*
X179035893Y-100059445D01*
X179041101Y-100048813D01*
X179062412Y-100010048D01*
X179064383Y-100002371D01*
X179064385Y-100002366D01*
X179067448Y-99990434D01*
X179073854Y-99971722D01*
X179078751Y-99960408D01*
X179078752Y-99960404D01*
X179081897Y-99953137D01*
X179084837Y-99934578D01*
X179088813Y-99909468D01*
X179091218Y-99897855D01*
X179102215Y-99855025D01*
X179102250Y-99854469D01*
X179102250Y-99834547D01*
X179103801Y-99814836D01*
X179105694Y-99802884D01*
X179106934Y-99795056D01*
X179105308Y-99777852D01*
X179118808Y-99708151D01*
X179149085Y-99670037D01*
X179174277Y-99648597D01*
X179177694Y-99645689D01*
X179199518Y-99620978D01*
X179268570Y-99542792D01*
X179268572Y-99542789D01*
X179271538Y-99539431D01*
X179351473Y-99417742D01*
X179354595Y-99411094D01*
X179368746Y-99380952D01*
X179415802Y-99327790D01*
X179482801Y-99308500D01*
X180402867Y-99308500D01*
X180413771Y-99309014D01*
X180421162Y-99310666D01*
X180429087Y-99310417D01*
X180429088Y-99310417D01*
X180488103Y-99308562D01*
X180492061Y-99308500D01*
X180520828Y-99308500D01*
X180524752Y-99308004D01*
X180524754Y-99308004D01*
X180525102Y-99307960D01*
X180536948Y-99307027D01*
X180581133Y-99305638D01*
X180600589Y-99299986D01*
X180619929Y-99295981D01*
X180640038Y-99293440D01*
X180647408Y-99290522D01*
X180647412Y-99290521D01*
X180681150Y-99277163D01*
X180692380Y-99273318D01*
X180727218Y-99263197D01*
X180727219Y-99263197D01*
X180734828Y-99260986D01*
X180752262Y-99250676D01*
X180770014Y-99241980D01*
X180781475Y-99237442D01*
X180781474Y-99237442D01*
X180788850Y-99234522D01*
X180824625Y-99208530D01*
X180834544Y-99202014D01*
X180872591Y-99179513D01*
X180873009Y-99179145D01*
X180875274Y-99176880D01*
X180875277Y-99176878D01*
X180887098Y-99165057D01*
X180902125Y-99152223D01*
X180911920Y-99145106D01*
X180911922Y-99145104D01*
X180918333Y-99140446D01*
X180946280Y-99106664D01*
X180954269Y-99097885D01*
X182211273Y-97840882D01*
X182219351Y-97833531D01*
X182225745Y-97829473D01*
X182271605Y-97780637D01*
X182274359Y-97777796D01*
X182294688Y-97757467D01*
X182297340Y-97754047D01*
X182305047Y-97745024D01*
X182329880Y-97718580D01*
X182335307Y-97712801D01*
X182339124Y-97705857D01*
X182339128Y-97705852D01*
X182345066Y-97695050D01*
X182355922Y-97678523D01*
X182363474Y-97668787D01*
X182368333Y-97662523D01*
X182385892Y-97621947D01*
X182391113Y-97611290D01*
X182412412Y-97572548D01*
X182415509Y-97560486D01*
X182417449Y-97552932D01*
X182423853Y-97534228D01*
X182428749Y-97522915D01*
X182428751Y-97522908D01*
X182431898Y-97515636D01*
X182436351Y-97487524D01*
X182438815Y-97471965D01*
X182441222Y-97460344D01*
X182450737Y-97423282D01*
X182450737Y-97423281D01*
X182452215Y-97417525D01*
X182452250Y-97416969D01*
X182452250Y-97397048D01*
X182453801Y-97377338D01*
X182455694Y-97365386D01*
X182455694Y-97365385D01*
X182456934Y-97357556D01*
X182452809Y-97313917D01*
X182452250Y-97302060D01*
X182452250Y-89915883D01*
X182452764Y-89904979D01*
X182454416Y-89897588D01*
X182452312Y-89830646D01*
X182452250Y-89826689D01*
X182452250Y-89797922D01*
X182451710Y-89793648D01*
X182450776Y-89781796D01*
X182450545Y-89774427D01*
X182449388Y-89737617D01*
X182443736Y-89718161D01*
X182439731Y-89698821D01*
X182437190Y-89678712D01*
X182434271Y-89671340D01*
X182434270Y-89671335D01*
X182420914Y-89637601D01*
X182417069Y-89626372D01*
X182406947Y-89591531D01*
X182406947Y-89591530D01*
X182404736Y-89583921D01*
X182394426Y-89566488D01*
X182385732Y-89548741D01*
X182378272Y-89529900D01*
X182352283Y-89494129D01*
X182345767Y-89484210D01*
X182341799Y-89477501D01*
X182323263Y-89446158D01*
X182322895Y-89445741D01*
X182308812Y-89431658D01*
X182295978Y-89416633D01*
X182284196Y-89400417D01*
X182250415Y-89372471D01*
X182241636Y-89364482D01*
X181822141Y-88944987D01*
X181814781Y-88936899D01*
X181810723Y-88930505D01*
X181761871Y-88884630D01*
X181759030Y-88881876D01*
X181738716Y-88861562D01*
X181735305Y-88858917D01*
X181726283Y-88851211D01*
X181712275Y-88838056D01*
X181694051Y-88820943D01*
X181687107Y-88817126D01*
X181687105Y-88817124D01*
X181676297Y-88811182D01*
X181659773Y-88800328D01*
X181650036Y-88792775D01*
X181650035Y-88792775D01*
X181643773Y-88787917D01*
X181636500Y-88784770D01*
X181636497Y-88784768D01*
X181609082Y-88772905D01*
X181603208Y-88770363D01*
X181592550Y-88765142D01*
X181560744Y-88747656D01*
X181560740Y-88747654D01*
X181553798Y-88743838D01*
X181546123Y-88741868D01*
X181546122Y-88741867D01*
X181534176Y-88738800D01*
X181515469Y-88732395D01*
X181504160Y-88727501D01*
X181504158Y-88727501D01*
X181496885Y-88724353D01*
X181489057Y-88723113D01*
X181489056Y-88723113D01*
X181453223Y-88717438D01*
X181441598Y-88715030D01*
X181404532Y-88705513D01*
X181404530Y-88705513D01*
X181398775Y-88704035D01*
X181398219Y-88704000D01*
X181378296Y-88704000D01*
X181358587Y-88702449D01*
X181338805Y-88699316D01*
X181330913Y-88700062D01*
X181295168Y-88703441D01*
X181283310Y-88704000D01*
X180133346Y-88704000D01*
X180065225Y-88683998D01*
X180044251Y-88667096D01*
X179739155Y-88362001D01*
X179705130Y-88299688D01*
X179702250Y-88272905D01*
X179702250Y-86577000D01*
X179722252Y-86508879D01*
X179775908Y-86462386D01*
X179828250Y-86451000D01*
X179918750Y-86451000D01*
X179991829Y-86445773D01*
X180084386Y-86418596D01*
X180123420Y-86407135D01*
X180123422Y-86407134D01*
X180132066Y-86404596D01*
X180186701Y-86369484D01*
X180247441Y-86330449D01*
X180247444Y-86330447D01*
X180255021Y-86325577D01*
X180260922Y-86318767D01*
X180344832Y-86221931D01*
X180344834Y-86221928D01*
X180350734Y-86215119D01*
X180411450Y-86082170D01*
X180412939Y-86071814D01*
X180431611Y-85941948D01*
X180431612Y-85941941D01*
X180432250Y-85937500D01*
X180432250Y-84237500D01*
X180427023Y-84164421D01*
X180417649Y-84132496D01*
X180417650Y-84061500D01*
X180456035Y-84001775D01*
X180520616Y-83972282D01*
X180538546Y-83971000D01*
X194004155Y-83971000D01*
X194072276Y-83991002D01*
G37*
%TD.AperFunction*%
%TA.AperFunction,Conductor*%
G36*
X172949151Y-83991002D02*
G01*
X172995644Y-84044658D01*
X173005748Y-84114932D01*
X172978464Y-84176891D01*
X172865054Y-84315205D01*
X172862415Y-84319841D01*
X172862413Y-84319844D01*
X172790836Y-84445587D01*
X172750995Y-84515577D01*
X172672328Y-84732302D01*
X172671379Y-84737551D01*
X172671378Y-84737554D01*
X172632251Y-84953929D01*
X172631301Y-84959183D01*
X172629088Y-85189733D01*
X172665752Y-85417361D01*
X172740244Y-85635556D01*
X172742794Y-85640243D01*
X172742795Y-85640245D01*
X172772580Y-85694987D01*
X172850435Y-85838080D01*
X172993174Y-86019144D01*
X173006577Y-86031233D01*
X173160409Y-86169989D01*
X173160415Y-86169994D01*
X173164379Y-86173569D01*
X173168892Y-86176428D01*
X173168894Y-86176429D01*
X173296671Y-86257362D01*
X173343516Y-86310710D01*
X173355250Y-86363806D01*
X173355251Y-93429100D01*
X173354736Y-93440020D01*
X173353084Y-93447412D01*
X173353333Y-93455335D01*
X173355189Y-93514384D01*
X173355251Y-93518342D01*
X173355251Y-93547078D01*
X173355746Y-93550995D01*
X173355790Y-93551344D01*
X173356722Y-93563178D01*
X173358112Y-93607383D01*
X173360325Y-93614999D01*
X173360325Y-93615001D01*
X173363764Y-93626839D01*
X173367773Y-93646198D01*
X173368762Y-93654023D01*
X173370311Y-93666288D01*
X173373231Y-93673663D01*
X173386583Y-93707389D01*
X173390428Y-93718618D01*
X173398519Y-93746465D01*
X173402764Y-93761078D01*
X173406799Y-93767901D01*
X173413077Y-93778517D01*
X173421773Y-93796269D01*
X173429229Y-93815100D01*
X173445308Y-93837231D01*
X173455218Y-93850871D01*
X173461733Y-93860789D01*
X173484237Y-93898841D01*
X173484605Y-93899259D01*
X173498688Y-93913342D01*
X173511529Y-93928375D01*
X173523305Y-93944583D01*
X173529408Y-93949632D01*
X173529409Y-93949633D01*
X173557087Y-93972530D01*
X173565866Y-93980520D01*
X173603372Y-94018026D01*
X173637398Y-94080338D01*
X173632333Y-94151153D01*
X173628285Y-94160769D01*
X173565282Y-94294658D01*
X173561501Y-94302693D01*
X173560016Y-94310476D01*
X173560016Y-94310477D01*
X173539024Y-94420525D01*
X173535251Y-94440302D01*
X173535250Y-96064577D01*
X173550310Y-96183787D01*
X173565561Y-96222307D01*
X173599468Y-96307947D01*
X173609228Y-96332599D01*
X173618994Y-96346041D01*
X173636187Y-96369705D01*
X173660250Y-96443765D01*
X173660250Y-96571617D01*
X173659736Y-96582521D01*
X173658084Y-96589912D01*
X173658333Y-96597837D01*
X173658333Y-96597838D01*
X173660188Y-96656853D01*
X173660250Y-96660811D01*
X173660250Y-96689577D01*
X173660791Y-96693856D01*
X173661723Y-96705696D01*
X173663112Y-96749883D01*
X173665322Y-96757491D01*
X173665323Y-96757496D01*
X173668763Y-96769338D01*
X173672771Y-96788692D01*
X173675310Y-96808787D01*
X173678227Y-96816155D01*
X173678229Y-96816162D01*
X173691587Y-96849900D01*
X173695432Y-96861130D01*
X173705505Y-96895801D01*
X173707764Y-96903578D01*
X173718074Y-96921011D01*
X173726768Y-96938758D01*
X173734228Y-96957599D01*
X173738887Y-96964011D01*
X173738890Y-96964017D01*
X173760218Y-96993372D01*
X173766735Y-97003294D01*
X173783308Y-97031316D01*
X173789237Y-97041341D01*
X173789605Y-97041759D01*
X173803688Y-97055842D01*
X173816528Y-97070875D01*
X173828304Y-97087083D01*
X173834412Y-97092136D01*
X173834414Y-97092138D01*
X173858059Y-97111699D01*
X173897797Y-97170533D01*
X173899418Y-97241511D01*
X173866001Y-97298320D01*
X173865598Y-97298659D01*
X173862617Y-97301993D01*
X173862616Y-97301994D01*
X173851955Y-97313918D01*
X173768559Y-97407190D01*
X173766076Y-97410920D01*
X173695549Y-97516869D01*
X173690003Y-97525200D01*
X173627320Y-97656616D01*
X173625985Y-97660890D01*
X173625982Y-97660897D01*
X173599700Y-97745024D01*
X173585045Y-97791931D01*
X173584328Y-97796355D01*
X173584328Y-97796357D01*
X173578411Y-97832891D01*
X173561768Y-97935650D01*
X173561657Y-97941739D01*
X173560988Y-97978246D01*
X173559726Y-97993867D01*
X173558184Y-98004595D01*
X173556005Y-98019752D01*
X173555250Y-98025000D01*
X173555250Y-98524999D01*
X173560477Y-98598077D01*
X173562381Y-98604560D01*
X173571149Y-98634423D01*
X173574970Y-98687853D01*
X173555251Y-98824999D01*
X173555250Y-99324999D01*
X173555411Y-99327249D01*
X173559841Y-99389181D01*
X173560477Y-99398079D01*
X173562364Y-99404505D01*
X173563368Y-99411094D01*
X173571605Y-99477221D01*
X173577166Y-99521868D01*
X173578342Y-99526180D01*
X173578343Y-99526187D01*
X173596392Y-99592387D01*
X173614455Y-99658641D01*
X173672276Y-99792257D01*
X173674624Y-99796081D01*
X173744087Y-99909213D01*
X173746453Y-99913067D01*
X173749313Y-99916512D01*
X173749316Y-99916516D01*
X173755164Y-99923560D01*
X173839455Y-100025088D01*
X173862740Y-100046164D01*
X173899821Y-100106706D01*
X173898284Y-100177686D01*
X173870036Y-100225831D01*
X173840887Y-100256872D01*
X173838131Y-100259715D01*
X173817812Y-100280034D01*
X173815388Y-100283159D01*
X173815381Y-100283167D01*
X173815161Y-100283451D01*
X173807453Y-100292476D01*
X173777193Y-100324700D01*
X173767437Y-100342446D01*
X173756586Y-100358965D01*
X173749028Y-100368709D01*
X173749025Y-100368714D01*
X173744167Y-100374977D01*
X173741018Y-100382255D01*
X173726611Y-100415547D01*
X173721388Y-100426209D01*
X173711060Y-100444996D01*
X173700088Y-100464953D01*
X173698116Y-100472635D01*
X173698115Y-100472636D01*
X173695048Y-100484578D01*
X173688648Y-100503273D01*
X173680603Y-100521865D01*
X173679363Y-100529694D01*
X173673687Y-100565529D01*
X173671280Y-100577150D01*
X173662739Y-100610417D01*
X173660285Y-100619976D01*
X173660250Y-100620532D01*
X173660250Y-100640454D01*
X173658699Y-100660163D01*
X173655566Y-100679945D01*
X173659458Y-100721113D01*
X173659691Y-100723583D01*
X173660250Y-100735441D01*
X173660250Y-100900521D01*
X173640248Y-100968642D01*
X173637285Y-100972696D01*
X173634703Y-100976764D01*
X173629648Y-100982875D01*
X173561501Y-101127693D01*
X173560016Y-101135476D01*
X173560016Y-101135477D01*
X173546320Y-101207278D01*
X173535251Y-101265302D01*
X173535250Y-102889577D01*
X173550310Y-103008787D01*
X173609228Y-103157599D01*
X173613890Y-103164015D01*
X173636187Y-103194705D01*
X173660251Y-103268766D01*
X173660250Y-106025095D01*
X173660250Y-108734117D01*
X173659736Y-108745021D01*
X173658084Y-108752412D01*
X173658333Y-108760337D01*
X173658333Y-108760338D01*
X173660188Y-108819353D01*
X173660250Y-108823311D01*
X173660250Y-108852077D01*
X173660791Y-108856356D01*
X173661723Y-108868196D01*
X173663112Y-108912383D01*
X173665322Y-108919991D01*
X173665323Y-108919996D01*
X173668763Y-108931838D01*
X173672771Y-108951192D01*
X173675310Y-108971287D01*
X173678227Y-108978655D01*
X173678229Y-108978662D01*
X173691587Y-109012400D01*
X173695432Y-109023630D01*
X173697418Y-109030464D01*
X173707764Y-109066078D01*
X173711799Y-109072900D01*
X173718074Y-109083511D01*
X173726768Y-109101258D01*
X173734228Y-109120099D01*
X173738887Y-109126511D01*
X173738890Y-109126517D01*
X173760218Y-109155872D01*
X173766735Y-109165794D01*
X173786221Y-109198742D01*
X173789237Y-109203841D01*
X173789605Y-109204259D01*
X173803688Y-109218342D01*
X173816528Y-109233375D01*
X173828304Y-109249583D01*
X173856077Y-109272559D01*
X173862085Y-109277529D01*
X173870865Y-109285519D01*
X173898346Y-109313000D01*
X173932372Y-109375312D01*
X173935251Y-109402095D01*
X173935250Y-117272906D01*
X173915248Y-117341027D01*
X173898345Y-117362001D01*
X173343251Y-117917095D01*
X173280939Y-117951121D01*
X173254156Y-117954000D01*
X149526944Y-117954000D01*
X149458823Y-117933998D01*
X149439599Y-117917658D01*
X149439325Y-117917962D01*
X149434422Y-117913547D01*
X149430001Y-117908637D01*
X149424659Y-117904756D01*
X149424657Y-117904754D01*
X149280842Y-117800267D01*
X149280841Y-117800266D01*
X149275500Y-117796386D01*
X149269472Y-117793702D01*
X149269470Y-117793701D01*
X149107068Y-117721395D01*
X149107067Y-117721395D01*
X149101037Y-117718710D01*
X149007637Y-117698857D01*
X148920694Y-117680376D01*
X148920689Y-117680376D01*
X148914237Y-117679004D01*
X148723263Y-117679004D01*
X148716811Y-117680376D01*
X148716806Y-117680376D01*
X148629863Y-117698857D01*
X148536463Y-117718710D01*
X148530433Y-117721395D01*
X148530432Y-117721395D01*
X148368030Y-117793701D01*
X148368028Y-117793702D01*
X148362000Y-117796386D01*
X148356659Y-117800266D01*
X148356658Y-117800267D01*
X148212843Y-117904754D01*
X148212841Y-117904756D01*
X148207499Y-117908637D01*
X148203078Y-117913547D01*
X148203077Y-117913548D01*
X148097617Y-118030674D01*
X148079713Y-118050558D01*
X148053847Y-118095359D01*
X147999151Y-118190096D01*
X147984226Y-118215946D01*
X147925212Y-118397573D01*
X147905250Y-118587500D01*
X147918162Y-118710344D01*
X147919805Y-118725980D01*
X147907033Y-118795819D01*
X147858531Y-118847665D01*
X147789698Y-118865060D01*
X147722388Y-118842479D01*
X147705400Y-118828246D01*
X147104155Y-118227001D01*
X147070129Y-118164689D01*
X147067250Y-118137906D01*
X147067250Y-115183332D01*
X167782257Y-115183332D01*
X167782709Y-115187491D01*
X167782709Y-115187495D01*
X167814094Y-115476396D01*
X167815017Y-115484894D01*
X167816013Y-115488951D01*
X167816014Y-115488954D01*
X167884518Y-115767848D01*
X167887373Y-115779473D01*
X167998053Y-116061896D01*
X168145113Y-116327199D01*
X168147596Y-116330542D01*
X168147599Y-116330547D01*
X168316159Y-116557511D01*
X168325970Y-116570722D01*
X168537445Y-116788187D01*
X168540723Y-116790767D01*
X168540728Y-116790771D01*
X168763570Y-116966130D01*
X168775823Y-116975772D01*
X168779429Y-116977904D01*
X168779431Y-116977906D01*
X168876656Y-117035404D01*
X169036917Y-117130183D01*
X169316139Y-117248705D01*
X169608583Y-117329258D01*
X169612728Y-117329826D01*
X169612729Y-117329826D01*
X169623753Y-117331336D01*
X169909112Y-117370425D01*
X169913288Y-117370440D01*
X169913294Y-117370440D01*
X170063399Y-117370964D01*
X170212446Y-117371484D01*
X170513255Y-117332416D01*
X170735350Y-117272906D01*
X170802218Y-117254989D01*
X170802222Y-117254988D01*
X170806255Y-117253907D01*
X171003326Y-117171874D01*
X171082438Y-117138943D01*
X171082441Y-117138942D01*
X171086298Y-117137336D01*
X171089901Y-117135239D01*
X171089905Y-117135237D01*
X171217381Y-117061044D01*
X171348463Y-116984752D01*
X171588145Y-116798836D01*
X171591086Y-116795854D01*
X171798194Y-116585834D01*
X171798199Y-116585829D01*
X171801133Y-116582853D01*
X171825009Y-116551169D01*
X171981173Y-116343932D01*
X171981175Y-116343929D01*
X171983685Y-116340598D01*
X172132594Y-116076328D01*
X172245243Y-115794685D01*
X172250019Y-115775813D01*
X172318627Y-115504672D01*
X172319653Y-115500618D01*
X172320176Y-115496105D01*
X172354190Y-115202126D01*
X172354518Y-115199293D01*
X172354807Y-115187495D01*
X172357180Y-115090355D01*
X172357250Y-115087500D01*
X172337147Y-114784831D01*
X172277190Y-114487480D01*
X172182503Y-114212488D01*
X172179799Y-114204635D01*
X172179799Y-114204634D01*
X172178434Y-114200671D01*
X172171827Y-114187476D01*
X172044485Y-113933180D01*
X172044484Y-113933178D01*
X172042613Y-113929442D01*
X171872113Y-113678559D01*
X171812299Y-113611660D01*
X171672715Y-113455543D01*
X171672709Y-113455537D01*
X171669930Y-113452429D01*
X171439616Y-113255026D01*
X171436113Y-113252751D01*
X171188716Y-113092090D01*
X171188713Y-113092088D01*
X171185217Y-113089818D01*
X170911203Y-112959707D01*
X170907220Y-112958428D01*
X170907217Y-112958427D01*
X170626368Y-112868256D01*
X170622388Y-112866978D01*
X170323847Y-112813262D01*
X170155637Y-112805624D01*
X170024993Y-112799691D01*
X170024988Y-112799691D01*
X170020823Y-112799502D01*
X170016675Y-112799865D01*
X170016670Y-112799865D01*
X169894748Y-112810532D01*
X169718642Y-112825939D01*
X169529328Y-112868256D01*
X169429833Y-112890496D01*
X169422612Y-112892110D01*
X169418689Y-112893554D01*
X169418687Y-112893554D01*
X169262224Y-112951121D01*
X169137933Y-112996851D01*
X169134233Y-112998802D01*
X169134228Y-112998804D01*
X168923619Y-113109846D01*
X168869608Y-113138323D01*
X168622351Y-113314040D01*
X168400505Y-113520914D01*
X168207969Y-113755312D01*
X168048124Y-114013114D01*
X168046408Y-114016931D01*
X168046407Y-114016934D01*
X168043063Y-114024375D01*
X167923780Y-114289793D01*
X167870941Y-114467037D01*
X167864148Y-114489827D01*
X167837121Y-114580486D01*
X167789669Y-114880087D01*
X167788350Y-114934055D01*
X167784530Y-115090355D01*
X167782257Y-115183332D01*
X147067250Y-115183332D01*
X147067250Y-112930177D01*
X147087252Y-112862056D01*
X147147172Y-112812905D01*
X147179518Y-112800196D01*
X147183656Y-112797792D01*
X147183661Y-112797790D01*
X147400150Y-112672043D01*
X147404287Y-112669640D01*
X147606721Y-112506588D01*
X147726041Y-112376145D01*
X147786778Y-112339381D01*
X147857749Y-112341290D01*
X147912865Y-112377120D01*
X148017763Y-112494236D01*
X148107371Y-112567972D01*
X148214773Y-112656351D01*
X148214778Y-112656354D01*
X148218479Y-112659400D01*
X148441868Y-112792302D01*
X148554486Y-112837917D01*
X148678349Y-112888087D01*
X148678353Y-112888088D01*
X148682789Y-112889885D01*
X148935700Y-112949904D01*
X148940471Y-112950292D01*
X148940477Y-112950293D01*
X149181555Y-112969901D01*
X149194778Y-112970977D01*
X149199552Y-112970639D01*
X149449279Y-112952957D01*
X149449282Y-112952956D01*
X149454063Y-112952618D01*
X149466057Y-112949904D01*
X149702927Y-112896306D01*
X149702931Y-112896305D01*
X149707588Y-112895251D01*
X149949518Y-112800196D01*
X149953650Y-112797796D01*
X149953654Y-112797794D01*
X150170150Y-112672043D01*
X150174287Y-112669640D01*
X150376721Y-112506588D01*
X150496041Y-112376145D01*
X150556778Y-112339381D01*
X150627749Y-112341290D01*
X150682865Y-112377120D01*
X150787763Y-112494236D01*
X150877371Y-112567972D01*
X150984773Y-112656351D01*
X150984778Y-112656354D01*
X150988479Y-112659400D01*
X151211868Y-112792302D01*
X151324486Y-112837917D01*
X151448349Y-112888087D01*
X151448353Y-112888088D01*
X151452789Y-112889885D01*
X151705700Y-112949904D01*
X151710471Y-112950292D01*
X151710477Y-112950293D01*
X151951555Y-112969901D01*
X151964778Y-112970977D01*
X151969552Y-112970639D01*
X152219279Y-112952957D01*
X152219282Y-112952956D01*
X152224063Y-112952618D01*
X152236057Y-112949904D01*
X152472927Y-112896306D01*
X152472931Y-112896305D01*
X152477588Y-112895251D01*
X152719518Y-112800196D01*
X152723650Y-112797796D01*
X152723654Y-112797794D01*
X152940150Y-112672043D01*
X152944287Y-112669640D01*
X153146721Y-112506588D01*
X153159926Y-112492152D01*
X158024555Y-112492152D01*
X158031014Y-112501513D01*
X158138765Y-112596009D01*
X158144011Y-112600137D01*
X158444216Y-112811516D01*
X158449870Y-112815063D01*
X158770823Y-112993336D01*
X158776835Y-112996268D01*
X159114920Y-113139429D01*
X159121204Y-113141703D01*
X159472571Y-113248122D01*
X159479072Y-113249720D01*
X159839772Y-113318200D01*
X159846394Y-113319095D01*
X160212310Y-113348857D01*
X160219016Y-113349045D01*
X160586022Y-113339756D01*
X160592704Y-113339230D01*
X160956650Y-113290992D01*
X160963230Y-113289761D01*
X161319982Y-113203123D01*
X161326410Y-113201195D01*
X161671926Y-113077142D01*
X161678122Y-113074537D01*
X162008490Y-112914476D01*
X162014377Y-112911226D01*
X162325879Y-112716955D01*
X162331362Y-112713116D01*
X162596894Y-112505286D01*
X162605364Y-112493450D01*
X162598837Y-112481797D01*
X160326562Y-110209522D01*
X160312618Y-110201908D01*
X160310785Y-110202039D01*
X160304170Y-110206290D01*
X158032069Y-112478391D01*
X158024555Y-112492152D01*
X153159926Y-112492152D01*
X153322163Y-112314791D01*
X153466575Y-112098664D01*
X153478068Y-112074075D01*
X153574604Y-111867521D01*
X153574605Y-111867518D01*
X153576633Y-111863179D01*
X153601282Y-111779159D01*
X153648460Y-111618346D01*
X153648461Y-111618343D01*
X153649806Y-111613757D01*
X153650442Y-111609023D01*
X153683972Y-111359391D01*
X153683972Y-111359387D01*
X153684409Y-111356136D01*
X153684589Y-111349907D01*
X153687155Y-111260796D01*
X153687250Y-111257500D01*
X153676828Y-111120488D01*
X153667897Y-111003082D01*
X153667896Y-111003077D01*
X153667534Y-110998315D01*
X153608841Y-110745094D01*
X153512520Y-110503664D01*
X153435677Y-110372950D01*
X153398386Y-110309515D01*
X153381107Y-110240653D01*
X153403800Y-110173381D01*
X153459260Y-110129057D01*
X153498108Y-110119975D01*
X153604207Y-110112463D01*
X153613665Y-110111066D01*
X153857780Y-110055828D01*
X153866887Y-110053026D01*
X153956021Y-110018005D01*
X156805567Y-110018005D01*
X156805917Y-110024691D01*
X156844611Y-110389771D01*
X156845671Y-110396386D01*
X156922944Y-110755304D01*
X156924694Y-110761747D01*
X157039670Y-111110421D01*
X157042102Y-111116658D01*
X157193472Y-111451125D01*
X157196553Y-111457071D01*
X157382605Y-111773556D01*
X157386314Y-111779159D01*
X157604939Y-112074075D01*
X157609207Y-112079234D01*
X157646606Y-112119835D01*
X157660223Y-112128013D01*
X157660682Y-112127999D01*
X157669386Y-112122654D01*
X159941728Y-109850312D01*
X159948105Y-109838632D01*
X160678158Y-109838632D01*
X160678289Y-109840465D01*
X160682540Y-109847080D01*
X162955037Y-112119577D01*
X162968345Y-112126844D01*
X162978384Y-112119722D01*
X163128239Y-111939541D01*
X163132250Y-111934160D01*
X163335676Y-111628558D01*
X163339088Y-111622789D01*
X163508898Y-111297281D01*
X163511668Y-111291203D01*
X163645927Y-110949491D01*
X163648038Y-110943144D01*
X163745222Y-110589115D01*
X163746650Y-110582566D01*
X163805664Y-110220205D01*
X163806386Y-110213560D01*
X163808107Y-110182286D01*
X167807235Y-110182286D01*
X167807687Y-110186445D01*
X167807687Y-110186449D01*
X167829776Y-110389771D01*
X167839638Y-110480553D01*
X167840634Y-110484610D01*
X167840635Y-110484613D01*
X167908706Y-110761747D01*
X167911203Y-110771914D01*
X168020674Y-111051251D01*
X168166127Y-111313657D01*
X168168610Y-111317000D01*
X168168613Y-111317005D01*
X168268220Y-111451125D01*
X168345008Y-111554519D01*
X168554173Y-111769608D01*
X168557451Y-111772188D01*
X168557456Y-111772192D01*
X168667237Y-111858581D01*
X168789947Y-111955144D01*
X169048189Y-112107868D01*
X169324360Y-112225096D01*
X169613610Y-112304769D01*
X169617755Y-112305337D01*
X169617756Y-112305337D01*
X169628524Y-112306812D01*
X169910856Y-112345486D01*
X169915032Y-112345501D01*
X169915038Y-112345501D01*
X170063416Y-112346018D01*
X170210876Y-112346533D01*
X170508399Y-112307892D01*
X170798198Y-112230241D01*
X170802040Y-112228642D01*
X170802048Y-112228639D01*
X171071331Y-112116547D01*
X171075182Y-112114944D01*
X171078779Y-112112850D01*
X171078786Y-112112847D01*
X171275144Y-111998563D01*
X171334483Y-111964027D01*
X171349276Y-111952553D01*
X171568230Y-111782714D01*
X171568231Y-111782713D01*
X171571547Y-111780141D01*
X171719433Y-111630176D01*
X171779269Y-111569499D01*
X171779274Y-111569494D01*
X171782208Y-111566518D01*
X171941809Y-111354720D01*
X171960254Y-111330243D01*
X171960256Y-111330240D01*
X171962766Y-111326909D01*
X172040694Y-111188609D01*
X172107998Y-111069165D01*
X172108001Y-111069159D01*
X172110048Y-111065526D01*
X172221466Y-110786960D01*
X172295064Y-110496105D01*
X172296864Y-110480553D01*
X172328223Y-110209522D01*
X172329548Y-110198071D01*
X172330745Y-110149108D01*
X172331697Y-110110124D01*
X172332250Y-110087500D01*
X172312366Y-109788138D01*
X172253065Y-109494035D01*
X172155387Y-109210358D01*
X172128103Y-109155872D01*
X172022922Y-108945831D01*
X172022921Y-108945829D01*
X172021050Y-108942093D01*
X171852412Y-108693950D01*
X171681656Y-108502969D01*
X171655225Y-108473408D01*
X171655224Y-108473407D01*
X171652438Y-108470291D01*
X171424640Y-108275045D01*
X171252348Y-108163157D01*
X171176530Y-108113920D01*
X171176525Y-108113917D01*
X171173020Y-108111641D01*
X170902000Y-107982951D01*
X170616340Y-107891236D01*
X170321060Y-107838106D01*
X170154890Y-107830560D01*
X170025517Y-107824685D01*
X170025512Y-107824685D01*
X170021347Y-107824496D01*
X170017199Y-107824859D01*
X170017195Y-107824859D01*
X169825494Y-107841631D01*
X169722467Y-107850645D01*
X169718395Y-107851555D01*
X169718390Y-107851556D01*
X169433749Y-107915181D01*
X169433746Y-107915182D01*
X169429670Y-107916093D01*
X169148102Y-108019690D01*
X169144414Y-108021634D01*
X169144406Y-108021638D01*
X168977105Y-108109846D01*
X168882708Y-108159616D01*
X168638152Y-108333413D01*
X168635103Y-108336257D01*
X168635096Y-108336262D01*
X168537707Y-108427080D01*
X168418730Y-108538028D01*
X168416077Y-108541257D01*
X168416073Y-108541262D01*
X168259964Y-108731312D01*
X168228296Y-108769865D01*
X168226090Y-108773422D01*
X168226087Y-108773427D01*
X168197612Y-108819353D01*
X168070198Y-109024851D01*
X167947212Y-109298507D01*
X167933883Y-109343219D01*
X167862690Y-109582028D01*
X167862688Y-109582036D01*
X167861499Y-109586025D01*
X167860847Y-109590142D01*
X167860846Y-109590146D01*
X167819483Y-109851307D01*
X167814566Y-109882353D01*
X167812445Y-109969143D01*
X167807453Y-110173381D01*
X167807235Y-110182286D01*
X163808107Y-110182286D01*
X163826652Y-109845318D01*
X163826746Y-109841935D01*
X163826749Y-109839200D01*
X163826660Y-109835811D01*
X163807037Y-109467529D01*
X163806328Y-109460895D01*
X163747946Y-109098431D01*
X163746528Y-109091873D01*
X163649967Y-108737691D01*
X163647857Y-108731312D01*
X163514206Y-108389395D01*
X163511433Y-108383282D01*
X163342196Y-108057488D01*
X163338804Y-108051730D01*
X163135903Y-107745759D01*
X163131902Y-107740372D01*
X162979496Y-107556473D01*
X162966954Y-107548018D01*
X162956247Y-107554213D01*
X160685772Y-109824688D01*
X160678158Y-109838632D01*
X159948105Y-109838632D01*
X159949342Y-109836368D01*
X159949211Y-109834535D01*
X159944960Y-109827920D01*
X157671552Y-107554512D01*
X157657608Y-107546898D01*
X157657092Y-107546934D01*
X157648694Y-107552568D01*
X157613134Y-107591037D01*
X157608841Y-107596208D01*
X157389699Y-107890746D01*
X157385994Y-107896321D01*
X157199387Y-108212486D01*
X157196293Y-108218430D01*
X157044336Y-108552642D01*
X157041897Y-108558867D01*
X156926318Y-108907323D01*
X156924547Y-108913798D01*
X156846652Y-109272559D01*
X156845581Y-109279171D01*
X156806251Y-109644182D01*
X156805888Y-109650880D01*
X156805567Y-110018005D01*
X153956021Y-110018005D01*
X154099851Y-109961494D01*
X154108437Y-109957344D01*
X154324867Y-109831631D01*
X154332727Y-109826229D01*
X154360461Y-109803891D01*
X154368927Y-109791703D01*
X154362563Y-109780523D01*
X153000672Y-108418632D01*
X153723158Y-108418632D01*
X153723289Y-108420465D01*
X153727540Y-108427080D01*
X154721264Y-109420804D01*
X154732610Y-109427000D01*
X154745099Y-109417118D01*
X154848479Y-109262399D01*
X154853166Y-109254081D01*
X154959142Y-109027332D01*
X154962510Y-109018420D01*
X155032971Y-108778241D01*
X155034954Y-108768913D01*
X155068473Y-108519361D01*
X155069005Y-108512823D01*
X155071655Y-108420795D01*
X155071500Y-108414210D01*
X155052403Y-108163157D01*
X155050961Y-108153734D01*
X154994445Y-107909907D01*
X154991589Y-107900795D01*
X154898846Y-107668334D01*
X154894643Y-107659754D01*
X154767809Y-107444001D01*
X154762350Y-107436148D01*
X154745500Y-107415450D01*
X154733177Y-107406984D01*
X154722173Y-107413287D01*
X153730772Y-108404688D01*
X153723158Y-108418632D01*
X153000672Y-108418632D01*
X151997599Y-107415559D01*
X151980837Y-107406406D01*
X151943512Y-107375370D01*
X151880413Y-107297864D01*
X151831679Y-107238004D01*
X151647259Y-107071075D01*
X151642519Y-107066785D01*
X151638966Y-107063569D01*
X151625487Y-107054664D01*
X151609083Y-107043827D01*
X152350181Y-107043827D01*
X152357058Y-107056598D01*
X153345938Y-108045478D01*
X153359882Y-108053092D01*
X153361715Y-108052961D01*
X153368330Y-108048710D01*
X154231942Y-107185098D01*
X158024524Y-107185098D01*
X158030381Y-107194921D01*
X160300938Y-109465478D01*
X160314882Y-109473092D01*
X160316715Y-109472961D01*
X160323330Y-109468710D01*
X162598139Y-107193901D01*
X162605133Y-107181093D01*
X162597291Y-107170359D01*
X162336381Y-106965412D01*
X162330901Y-106961561D01*
X162019731Y-106766742D01*
X162013865Y-106763491D01*
X161683754Y-106602842D01*
X161677594Y-106600239D01*
X161332279Y-106475578D01*
X161325855Y-106473638D01*
X160969260Y-106386379D01*
X160962671Y-106385134D01*
X160598800Y-106336261D01*
X160592146Y-106335726D01*
X160225145Y-106325795D01*
X160218444Y-106325970D01*
X159852482Y-106355093D01*
X159845835Y-106355980D01*
X159485022Y-106423830D01*
X159478535Y-106425412D01*
X159126978Y-106531219D01*
X159120669Y-106533490D01*
X158782356Y-106676052D01*
X158776330Y-106678977D01*
X158455084Y-106856681D01*
X158449396Y-106860235D01*
X158148843Y-107071075D01*
X158143577Y-107075204D01*
X158032927Y-107171901D01*
X158024524Y-107185098D01*
X154231942Y-107185098D01*
X154362376Y-107054664D01*
X154369136Y-107042284D01*
X154362575Y-107033519D01*
X154195835Y-106923365D01*
X154187497Y-106918724D01*
X153960206Y-106813942D01*
X153951252Y-106810612D01*
X153710718Y-106741412D01*
X153701385Y-106739480D01*
X153453138Y-106707459D01*
X153443624Y-106706961D01*
X153193394Y-106712857D01*
X153183911Y-106713804D01*
X152937453Y-106757482D01*
X152928213Y-106759855D01*
X152691205Y-106840309D01*
X152682434Y-106844050D01*
X152460317Y-106959431D01*
X152452217Y-106964453D01*
X152358609Y-107032838D01*
X152350181Y-107043827D01*
X151609083Y-107043827D01*
X151426079Y-106922929D01*
X151422086Y-106920291D01*
X151417735Y-106918285D01*
X151387065Y-106904146D01*
X151333575Y-106857463D01*
X151313816Y-106789271D01*
X151334060Y-106721222D01*
X151343863Y-106708291D01*
X151344688Y-106707466D01*
X151347333Y-106704055D01*
X151355039Y-106695033D01*
X151367720Y-106681529D01*
X151385307Y-106662801D01*
X151389128Y-106655852D01*
X151395064Y-106645052D01*
X151405921Y-106628523D01*
X151418333Y-106612522D01*
X151435886Y-106571959D01*
X151441108Y-106561299D01*
X151448448Y-106547947D01*
X151462412Y-106522548D01*
X151467452Y-106502919D01*
X151473851Y-106484229D01*
X151481897Y-106465636D01*
X151486523Y-106436429D01*
X151488813Y-106421972D01*
X151491220Y-106410351D01*
X151500737Y-106373282D01*
X151500737Y-106373281D01*
X151502215Y-106367525D01*
X151502250Y-106366969D01*
X151502250Y-106347047D01*
X151503801Y-106327336D01*
X151504018Y-106325970D01*
X151506934Y-106307556D01*
X151502809Y-106263917D01*
X151502250Y-106252060D01*
X151502250Y-105106112D01*
X151522252Y-105037991D01*
X151531166Y-105025796D01*
X151573910Y-104974128D01*
X151573911Y-104974127D01*
X151578962Y-104968021D01*
X151649776Y-104817533D01*
X151651261Y-104809750D01*
X151651262Y-104809746D01*
X151676136Y-104679352D01*
X151676136Y-104679349D01*
X151677250Y-104673511D01*
X151677250Y-103397921D01*
X151674543Y-103376489D01*
X151960250Y-103376489D01*
X151960250Y-104652079D01*
X151976095Y-104777506D01*
X151979012Y-104784872D01*
X151979012Y-104784874D01*
X151993523Y-104821523D01*
X152037321Y-104932144D01*
X152041979Y-104938555D01*
X152041980Y-104938557D01*
X152105363Y-105025796D01*
X152135079Y-105066697D01*
X152263229Y-105172712D01*
X152413717Y-105243526D01*
X152421500Y-105245011D01*
X152421504Y-105245012D01*
X152551898Y-105269886D01*
X152551901Y-105269886D01*
X152557739Y-105271000D01*
X152958328Y-105271000D01*
X153017442Y-105263532D01*
X153075890Y-105256149D01*
X153075893Y-105256148D01*
X153083755Y-105255155D01*
X153091121Y-105252238D01*
X153091123Y-105252238D01*
X153231024Y-105196847D01*
X153231026Y-105196846D01*
X153238393Y-105193929D01*
X153372946Y-105096171D01*
X153402257Y-105060741D01*
X153473910Y-104974128D01*
X153473911Y-104974127D01*
X153478962Y-104968021D01*
X153549776Y-104817533D01*
X153551261Y-104809750D01*
X153551262Y-104809746D01*
X153576136Y-104679352D01*
X153576136Y-104679349D01*
X153577250Y-104673511D01*
X153577250Y-103397921D01*
X153566831Y-103315446D01*
X153562399Y-103280359D01*
X153562398Y-103280356D01*
X153561405Y-103272494D01*
X153545557Y-103232467D01*
X153503097Y-103125225D01*
X153503096Y-103125223D01*
X153500179Y-103117856D01*
X153495521Y-103111445D01*
X153495520Y-103111443D01*
X153407081Y-102989717D01*
X153402421Y-102983303D01*
X153274271Y-102877288D01*
X153123783Y-102806474D01*
X153116000Y-102804989D01*
X153115996Y-102804988D01*
X152985602Y-102780114D01*
X152985599Y-102780114D01*
X152979761Y-102779000D01*
X152752750Y-102779000D01*
X152684629Y-102758998D01*
X152638136Y-102705342D01*
X152626750Y-102653000D01*
X152626750Y-102422115D01*
X152622275Y-102406876D01*
X152620885Y-102405671D01*
X152613202Y-102404000D01*
X152090865Y-102403999D01*
X152075626Y-102408474D01*
X152074421Y-102409864D01*
X152072750Y-102417547D01*
X152072749Y-103024834D01*
X152056436Y-103080990D01*
X152058538Y-103081979D01*
X151987724Y-103232467D01*
X151986239Y-103240250D01*
X151986238Y-103240254D01*
X151968500Y-103333239D01*
X151960250Y-103376489D01*
X151674543Y-103376489D01*
X151666831Y-103315446D01*
X151662399Y-103280359D01*
X151662398Y-103280356D01*
X151661405Y-103272494D01*
X151645557Y-103232467D01*
X151603097Y-103125225D01*
X151603096Y-103125223D01*
X151600179Y-103117856D01*
X151588813Y-103102212D01*
X151564750Y-103028152D01*
X151564751Y-102404000D01*
X151564750Y-102403996D01*
X151564751Y-102022000D01*
X151584753Y-101953879D01*
X151638409Y-101907386D01*
X151690751Y-101896000D01*
X152608635Y-101896001D01*
X152623874Y-101891526D01*
X152625079Y-101890136D01*
X152626750Y-101882453D01*
X152626750Y-101526879D01*
X152626253Y-101518989D01*
X152611915Y-101405484D01*
X152608004Y-101390251D01*
X152552659Y-101250466D01*
X152545082Y-101236684D01*
X152456716Y-101115059D01*
X152445948Y-101103592D01*
X152330111Y-101007764D01*
X152316829Y-100999335D01*
X152180805Y-100935327D01*
X152165835Y-100930463D01*
X152152571Y-100927933D01*
X152089405Y-100895522D01*
X152053789Y-100834105D01*
X152057031Y-100763182D01*
X152087085Y-100715070D01*
X152211273Y-100590882D01*
X152219351Y-100583531D01*
X152225745Y-100579473D01*
X152254709Y-100548630D01*
X152271604Y-100530638D01*
X152274359Y-100527796D01*
X152294688Y-100507467D01*
X152297340Y-100504047D01*
X152305047Y-100495024D01*
X152329880Y-100468580D01*
X152335307Y-100462801D01*
X152339124Y-100455857D01*
X152339128Y-100455852D01*
X152345066Y-100445050D01*
X152355922Y-100428523D01*
X152363474Y-100418787D01*
X152368333Y-100412523D01*
X152381432Y-100382255D01*
X152385892Y-100371948D01*
X152391107Y-100361302D01*
X152412412Y-100322548D01*
X152417452Y-100302919D01*
X152423851Y-100284229D01*
X152431897Y-100265636D01*
X152438813Y-100221972D01*
X152441220Y-100210351D01*
X152450737Y-100173282D01*
X152450737Y-100173281D01*
X152452215Y-100167525D01*
X152452250Y-100166969D01*
X152452250Y-100147047D01*
X152453801Y-100127336D01*
X152455694Y-100115384D01*
X152456934Y-100107556D01*
X152452809Y-100063917D01*
X152452250Y-100052060D01*
X152452250Y-99950404D01*
X152472252Y-99882283D01*
X152509165Y-99845032D01*
X152537979Y-99826141D01*
X152657599Y-99699867D01*
X152661276Y-99693536D01*
X152665660Y-99687676D01*
X152667373Y-99688957D01*
X152711225Y-99647359D01*
X152768674Y-99633500D01*
X155327867Y-99633500D01*
X155338771Y-99634014D01*
X155346162Y-99635666D01*
X155354087Y-99635417D01*
X155354088Y-99635417D01*
X155413103Y-99633562D01*
X155417061Y-99633500D01*
X155445828Y-99633500D01*
X155449752Y-99633004D01*
X155449754Y-99633004D01*
X155450102Y-99632960D01*
X155461948Y-99632027D01*
X155506133Y-99630638D01*
X155525589Y-99624986D01*
X155544929Y-99620981D01*
X155565038Y-99618440D01*
X155572408Y-99615522D01*
X155572412Y-99615521D01*
X155606150Y-99602163D01*
X155617380Y-99598318D01*
X155652218Y-99588197D01*
X155652219Y-99588197D01*
X155659828Y-99585986D01*
X155677262Y-99575676D01*
X155695014Y-99566980D01*
X155713850Y-99559522D01*
X155749625Y-99533530D01*
X155759544Y-99527014D01*
X155797591Y-99504513D01*
X155798009Y-99504145D01*
X155812092Y-99490062D01*
X155827126Y-99477221D01*
X155836919Y-99470106D01*
X155843333Y-99465446D01*
X155871283Y-99431660D01*
X155879265Y-99422889D01*
X156711278Y-98590877D01*
X156719356Y-98583528D01*
X156725745Y-98579473D01*
X156771605Y-98530637D01*
X156774359Y-98527796D01*
X156794688Y-98507467D01*
X156797340Y-98504047D01*
X156805047Y-98495024D01*
X156829880Y-98468580D01*
X156835307Y-98462801D01*
X156839124Y-98455857D01*
X156839128Y-98455852D01*
X156845066Y-98445050D01*
X156855922Y-98428523D01*
X156863474Y-98418787D01*
X156868333Y-98412523D01*
X156885892Y-98371947D01*
X156891107Y-98361302D01*
X156912412Y-98322548D01*
X156917452Y-98302919D01*
X156923851Y-98284229D01*
X156931897Y-98265636D01*
X156938813Y-98221972D01*
X156941220Y-98210351D01*
X156950737Y-98173282D01*
X156950737Y-98173281D01*
X156952215Y-98167525D01*
X156952250Y-98166969D01*
X156952250Y-98147047D01*
X156953801Y-98127336D01*
X156955694Y-98115384D01*
X156956934Y-98107556D01*
X156952809Y-98063917D01*
X156952250Y-98052060D01*
X156952250Y-91165883D01*
X156952764Y-91154979D01*
X156954416Y-91147588D01*
X156953614Y-91122054D01*
X156952312Y-91080647D01*
X156952250Y-91076689D01*
X156952250Y-91047922D01*
X156951709Y-91043637D01*
X156950776Y-91031796D01*
X156950565Y-91025062D01*
X156949388Y-90987616D01*
X156943738Y-90968168D01*
X156939729Y-90948809D01*
X156938184Y-90936578D01*
X156938184Y-90936576D01*
X156937190Y-90928712D01*
X156934271Y-90921339D01*
X156920911Y-90887594D01*
X156917066Y-90876364D01*
X156908528Y-90846976D01*
X156904736Y-90833922D01*
X156894426Y-90816488D01*
X156885730Y-90798736D01*
X156884115Y-90794658D01*
X156878272Y-90779900D01*
X156859498Y-90754060D01*
X156852280Y-90744125D01*
X156845764Y-90734206D01*
X156842527Y-90728732D01*
X156823263Y-90696159D01*
X156822895Y-90695741D01*
X156808812Y-90681658D01*
X156795978Y-90666633D01*
X156784196Y-90650417D01*
X156750415Y-90622471D01*
X156741636Y-90614482D01*
X156672141Y-90544987D01*
X156664781Y-90536899D01*
X156660723Y-90530505D01*
X156611871Y-90484630D01*
X156609030Y-90481876D01*
X156588716Y-90461562D01*
X156585305Y-90458917D01*
X156576283Y-90451211D01*
X156549827Y-90426367D01*
X156544051Y-90420943D01*
X156537107Y-90417126D01*
X156537105Y-90417124D01*
X156526297Y-90411182D01*
X156509773Y-90400328D01*
X156500036Y-90392775D01*
X156500035Y-90392775D01*
X156493773Y-90387917D01*
X156486500Y-90384770D01*
X156486497Y-90384768D01*
X156466085Y-90375935D01*
X156453208Y-90370363D01*
X156442550Y-90365142D01*
X156410744Y-90347656D01*
X156410740Y-90347654D01*
X156403798Y-90343838D01*
X156396123Y-90341868D01*
X156396122Y-90341867D01*
X156384176Y-90338800D01*
X156365469Y-90332395D01*
X156354160Y-90327501D01*
X156354158Y-90327501D01*
X156346885Y-90324353D01*
X156339057Y-90323113D01*
X156339056Y-90323113D01*
X156303223Y-90317438D01*
X156291598Y-90315030D01*
X156254532Y-90305513D01*
X156254530Y-90305513D01*
X156248775Y-90304035D01*
X156248219Y-90304000D01*
X156228296Y-90304000D01*
X156208587Y-90302449D01*
X156188805Y-90299316D01*
X156185617Y-90299617D01*
X156140156Y-90288978D01*
X156133432Y-90285907D01*
X156072466Y-90258065D01*
X156051614Y-90248542D01*
X156043420Y-90244800D01*
X156034505Y-90243518D01*
X156034504Y-90243518D01*
X155903198Y-90224639D01*
X155903191Y-90224638D01*
X155898750Y-90224000D01*
X154398750Y-90224000D01*
X154325671Y-90229227D01*
X154259890Y-90248542D01*
X154194080Y-90267865D01*
X154194078Y-90267866D01*
X154185434Y-90270404D01*
X154177855Y-90275275D01*
X154070059Y-90344551D01*
X154070056Y-90344553D01*
X154062479Y-90349423D01*
X154056578Y-90356233D01*
X153972668Y-90453069D01*
X153972666Y-90453072D01*
X153966766Y-90459881D01*
X153963022Y-90468079D01*
X153962451Y-90469329D01*
X153935256Y-90528878D01*
X153888764Y-90582533D01*
X153820644Y-90602535D01*
X153752523Y-90582533D01*
X153706030Y-90528878D01*
X153700519Y-90516811D01*
X153631324Y-90409140D01*
X153619638Y-90395653D01*
X153522910Y-90311838D01*
X153507902Y-90302193D01*
X153391475Y-90249023D01*
X153374362Y-90243998D01*
X153243196Y-90225139D01*
X153234255Y-90224500D01*
X152706865Y-90224500D01*
X152691626Y-90228975D01*
X152690421Y-90230365D01*
X152688750Y-90238048D01*
X152688750Y-90748000D01*
X152668748Y-90816121D01*
X152615092Y-90862614D01*
X152562750Y-90874000D01*
X152414750Y-90874000D01*
X152346629Y-90853998D01*
X152300136Y-90800342D01*
X152288750Y-90748000D01*
X152288750Y-90242615D01*
X152284275Y-90227376D01*
X152282885Y-90226171D01*
X152275202Y-90224500D01*
X151828250Y-90224500D01*
X151760129Y-90204498D01*
X151713636Y-90150842D01*
X151702250Y-90098500D01*
X151702250Y-89402094D01*
X151722252Y-89333973D01*
X151739155Y-89312999D01*
X151881749Y-89170405D01*
X151944061Y-89136379D01*
X151970844Y-89133500D01*
X152872650Y-89133500D01*
X152940771Y-89153502D01*
X152978021Y-89190413D01*
X153005109Y-89231729D01*
X153131383Y-89351349D01*
X153167749Y-89372472D01*
X153269645Y-89431658D01*
X153281789Y-89438712D01*
X153288793Y-89440833D01*
X153288797Y-89440835D01*
X153380395Y-89468577D01*
X153448259Y-89489131D01*
X153454698Y-89489706D01*
X153454700Y-89489706D01*
X153522432Y-89495751D01*
X153522438Y-89495751D01*
X153525225Y-89496000D01*
X154099134Y-89496000D01*
X154102768Y-89495576D01*
X154102773Y-89495576D01*
X154221743Y-89481705D01*
X154229016Y-89480857D01*
X154313856Y-89450062D01*
X154385638Y-89424007D01*
X154385639Y-89424007D01*
X154392517Y-89421510D01*
X154537979Y-89326141D01*
X154657599Y-89199867D01*
X154738542Y-89060514D01*
X154741286Y-89055790D01*
X154741287Y-89055789D01*
X154744962Y-89049461D01*
X154748475Y-89037865D01*
X154779425Y-88935674D01*
X154795381Y-88882991D01*
X154797043Y-88864366D01*
X154802001Y-88808818D01*
X154802001Y-88808812D01*
X154802250Y-88806025D01*
X154802250Y-88247020D01*
X154822252Y-88178899D01*
X154875908Y-88132406D01*
X154928250Y-88121020D01*
X155090347Y-88121020D01*
X155101251Y-88121534D01*
X155108642Y-88123186D01*
X155116567Y-88122937D01*
X155116568Y-88122937D01*
X155175583Y-88121082D01*
X155179541Y-88121020D01*
X155208308Y-88121020D01*
X155212232Y-88120524D01*
X155212234Y-88120524D01*
X155212582Y-88120480D01*
X155224428Y-88119547D01*
X155268613Y-88118158D01*
X155288069Y-88112506D01*
X155307409Y-88108501D01*
X155327518Y-88105960D01*
X155334888Y-88103042D01*
X155334892Y-88103041D01*
X155368630Y-88089683D01*
X155379860Y-88085838D01*
X155414698Y-88075717D01*
X155414699Y-88075717D01*
X155422308Y-88073506D01*
X155439742Y-88063196D01*
X155457494Y-88054500D01*
X155476330Y-88047042D01*
X155502602Y-88027954D01*
X155512105Y-88021050D01*
X155522024Y-88014534D01*
X155527543Y-88011270D01*
X155560071Y-87992033D01*
X155560489Y-87991665D01*
X155574572Y-87977582D01*
X155589597Y-87964748D01*
X155605813Y-87952966D01*
X155633760Y-87919184D01*
X155641749Y-87910405D01*
X159544249Y-84007905D01*
X159606561Y-83973879D01*
X159633344Y-83971000D01*
X172881030Y-83971000D01*
X172949151Y-83991002D01*
G37*
%TD.AperFunction*%
%TA.AperFunction,Conductor*%
G36*
X146277371Y-98741002D02*
G01*
X146323864Y-98794658D01*
X146335250Y-98847000D01*
X146335250Y-99292884D01*
X146335674Y-99296518D01*
X146335674Y-99296523D01*
X146344994Y-99376461D01*
X146350393Y-99422766D01*
X146352891Y-99429648D01*
X146404065Y-99570631D01*
X146409740Y-99586267D01*
X146505109Y-99731729D01*
X146524288Y-99749898D01*
X146595904Y-99817740D01*
X146631602Y-99879109D01*
X146635251Y-99909213D01*
X146635251Y-100808806D01*
X146615249Y-100876927D01*
X146587327Y-100907700D01*
X146578320Y-100914811D01*
X146572750Y-100932293D01*
X146572749Y-101895998D01*
X146572750Y-101896004D01*
X146572749Y-103024834D01*
X146556436Y-103080990D01*
X146558538Y-103081979D01*
X146487724Y-103232467D01*
X146486239Y-103240250D01*
X146486238Y-103240254D01*
X146468500Y-103333239D01*
X146460250Y-103376489D01*
X146460250Y-104652079D01*
X146476095Y-104777506D01*
X146479012Y-104784872D01*
X146479012Y-104784874D01*
X146493523Y-104821523D01*
X146537321Y-104932144D01*
X146541979Y-104938555D01*
X146541980Y-104938557D01*
X146611186Y-105033811D01*
X146635250Y-105107872D01*
X146635251Y-106209105D01*
X146634737Y-106220019D01*
X146633084Y-106227412D01*
X146633333Y-106235337D01*
X146633333Y-106235338D01*
X146635189Y-106294384D01*
X146635251Y-106298342D01*
X146635251Y-106327078D01*
X146635746Y-106330995D01*
X146635790Y-106331344D01*
X146636722Y-106343178D01*
X146638112Y-106387383D01*
X146640325Y-106394999D01*
X146640325Y-106395001D01*
X146643764Y-106406839D01*
X146647773Y-106426198D01*
X146650311Y-106446288D01*
X146653231Y-106453663D01*
X146666583Y-106487389D01*
X146670428Y-106498618D01*
X146679900Y-106531219D01*
X146682764Y-106541078D01*
X146686799Y-106547901D01*
X146693077Y-106558517D01*
X146701773Y-106576269D01*
X146709229Y-106595100D01*
X146721887Y-106612522D01*
X146735218Y-106630871D01*
X146741733Y-106640789D01*
X146764237Y-106678841D01*
X146764605Y-106679259D01*
X146778688Y-106693342D01*
X146791529Y-106708375D01*
X146803305Y-106724583D01*
X146823648Y-106741412D01*
X146837080Y-106752524D01*
X146845860Y-106760514D01*
X146887320Y-106801974D01*
X146921346Y-106864286D01*
X146916281Y-106935101D01*
X146872553Y-106992811D01*
X146705921Y-107114544D01*
X146702529Y-107117918D01*
X146702527Y-107117920D01*
X146574705Y-107245075D01*
X146521639Y-107297864D01*
X146520367Y-107296585D01*
X146467160Y-107330922D01*
X146396163Y-107331056D01*
X146333721Y-107289644D01*
X146294701Y-107241716D01*
X146291679Y-107238004D01*
X146107259Y-107071075D01*
X146102519Y-107066785D01*
X146098966Y-107063569D01*
X146085487Y-107054664D01*
X145886079Y-106922929D01*
X145882086Y-106920291D01*
X145877741Y-106918288D01*
X145877736Y-106918285D01*
X145874990Y-106917019D01*
X145874160Y-106916295D01*
X145873557Y-106915959D01*
X145873628Y-106915831D01*
X145821503Y-106870332D01*
X145801748Y-106802139D01*
X145821997Y-106734092D01*
X145838652Y-106713501D01*
X145844687Y-106707466D01*
X145847111Y-106704341D01*
X145847118Y-106704333D01*
X145847330Y-106704059D01*
X145855039Y-106695033D01*
X145879879Y-106668581D01*
X145885307Y-106662801D01*
X145891413Y-106651694D01*
X145895068Y-106645046D01*
X145905922Y-106628523D01*
X145913469Y-106618793D01*
X145913471Y-106618790D01*
X145918332Y-106612523D01*
X145935892Y-106571946D01*
X145941104Y-106561307D01*
X145962412Y-106522548D01*
X145967452Y-106502917D01*
X145973851Y-106484229D01*
X145981897Y-106465636D01*
X145986132Y-106438896D01*
X145988813Y-106421972D01*
X145991220Y-106410351D01*
X146000737Y-106373282D01*
X146000737Y-106373281D01*
X146002215Y-106367525D01*
X146002250Y-106366969D01*
X146002250Y-106347047D01*
X146003801Y-106327336D01*
X146004018Y-106325970D01*
X146006934Y-106307556D01*
X146002809Y-106263917D01*
X146002250Y-106252060D01*
X146002250Y-105106112D01*
X146022252Y-105037991D01*
X146031166Y-105025796D01*
X146073910Y-104974128D01*
X146073911Y-104974127D01*
X146078962Y-104968021D01*
X146149776Y-104817533D01*
X146151261Y-104809750D01*
X146151262Y-104809746D01*
X146176136Y-104679352D01*
X146176136Y-104679349D01*
X146177250Y-104673511D01*
X146177250Y-103397921D01*
X146166831Y-103315446D01*
X146162399Y-103280359D01*
X146162398Y-103280356D01*
X146161405Y-103272494D01*
X146145557Y-103232467D01*
X146103097Y-103125225D01*
X146103096Y-103125223D01*
X146100179Y-103117856D01*
X146088813Y-103102212D01*
X146064750Y-103028152D01*
X146064751Y-102404000D01*
X146064750Y-102403996D01*
X146064751Y-100930753D01*
X146060676Y-100916876D01*
X146029961Y-100912191D01*
X146030652Y-100907660D01*
X145992828Y-100901552D01*
X145939984Y-100854139D01*
X145934919Y-100844055D01*
X145931192Y-100837275D01*
X145928272Y-100829900D01*
X145902283Y-100794129D01*
X145895767Y-100784210D01*
X145891201Y-100776489D01*
X145873263Y-100746158D01*
X145872894Y-100745740D01*
X145858812Y-100731658D01*
X145845978Y-100716633D01*
X145834196Y-100700417D01*
X145800414Y-100672470D01*
X145791635Y-100664481D01*
X145489155Y-100362001D01*
X145455129Y-100299689D01*
X145452250Y-100272906D01*
X145452250Y-99950404D01*
X145472252Y-99882283D01*
X145509165Y-99845032D01*
X145537979Y-99826141D01*
X145657599Y-99699867D01*
X145729735Y-99575676D01*
X145741286Y-99555790D01*
X145741287Y-99555789D01*
X145744962Y-99549461D01*
X145747146Y-99542253D01*
X145786869Y-99411094D01*
X145795381Y-99382991D01*
X145802250Y-99306025D01*
X145802250Y-98847000D01*
X145822252Y-98778879D01*
X145875908Y-98732386D01*
X145928250Y-98721000D01*
X146209250Y-98721000D01*
X146277371Y-98741002D01*
G37*
%TD.AperFunction*%
%TA.AperFunction,Conductor*%
G36*
X150777371Y-98741002D02*
G01*
X150823864Y-98794658D01*
X150835250Y-98847000D01*
X150835250Y-99292884D01*
X150835674Y-99296518D01*
X150835674Y-99296523D01*
X150844994Y-99376461D01*
X150850393Y-99422766D01*
X150852891Y-99429648D01*
X150904065Y-99570631D01*
X150909740Y-99586267D01*
X151005109Y-99731729D01*
X151010421Y-99736761D01*
X151051583Y-99775755D01*
X151087280Y-99837124D01*
X151084132Y-99908051D01*
X151054024Y-99956322D01*
X150476228Y-100534118D01*
X150468150Y-100541469D01*
X150461756Y-100545527D01*
X150415906Y-100594353D01*
X150415898Y-100594361D01*
X150413143Y-100597203D01*
X150392812Y-100617534D01*
X150390378Y-100620671D01*
X150390376Y-100620674D01*
X150390153Y-100620961D01*
X150382457Y-100629971D01*
X150363301Y-100650371D01*
X150352194Y-100662199D01*
X150348378Y-100669140D01*
X150348376Y-100669143D01*
X150342438Y-100679945D01*
X150331584Y-100696468D01*
X150324028Y-100706210D01*
X150319167Y-100712477D01*
X150305773Y-100743429D01*
X150301609Y-100753051D01*
X150296387Y-100763711D01*
X150279665Y-100794129D01*
X150275089Y-100802452D01*
X150270051Y-100822072D01*
X150263652Y-100840764D01*
X150255603Y-100859365D01*
X150254363Y-100867192D01*
X150254363Y-100867193D01*
X150248687Y-100903031D01*
X150246280Y-100914654D01*
X150235286Y-100957475D01*
X150235251Y-100958031D01*
X150235251Y-100977947D01*
X150233700Y-100997657D01*
X150230566Y-101017445D01*
X150231312Y-101025337D01*
X150234692Y-101061093D01*
X150235251Y-101072951D01*
X150235250Y-102943888D01*
X150215248Y-103012009D01*
X150206334Y-103024204D01*
X150158538Y-103081979D01*
X150087724Y-103232467D01*
X150086239Y-103240250D01*
X150086238Y-103240254D01*
X150068500Y-103333239D01*
X150060250Y-103376489D01*
X150060250Y-104652079D01*
X150076095Y-104777506D01*
X150079012Y-104784872D01*
X150079012Y-104784874D01*
X150093523Y-104821523D01*
X150137321Y-104932144D01*
X150141979Y-104938555D01*
X150141980Y-104938557D01*
X150211186Y-105033811D01*
X150235250Y-105107872D01*
X150235251Y-105972905D01*
X150215249Y-106041026D01*
X150198346Y-106062000D01*
X150196235Y-106064111D01*
X150188152Y-106071467D01*
X150181755Y-106075527D01*
X150135871Y-106124389D01*
X150133147Y-106127199D01*
X150112812Y-106147534D01*
X150110388Y-106150659D01*
X150110381Y-106150667D01*
X150110161Y-106150951D01*
X150102453Y-106159976D01*
X150072193Y-106192200D01*
X150067921Y-106199971D01*
X150062437Y-106209946D01*
X150051586Y-106226465D01*
X150044028Y-106236209D01*
X150044025Y-106236214D01*
X150039167Y-106242477D01*
X150024570Y-106276210D01*
X150021611Y-106283047D01*
X150016388Y-106293708D01*
X149995088Y-106332453D01*
X149993116Y-106340135D01*
X149993115Y-106340136D01*
X149990048Y-106352078D01*
X149983648Y-106370773D01*
X149975603Y-106389365D01*
X149974363Y-106397194D01*
X149968687Y-106433029D01*
X149966280Y-106444650D01*
X149959229Y-106472115D01*
X149955285Y-106487476D01*
X149955250Y-106488032D01*
X149955250Y-106507954D01*
X149953699Y-106527663D01*
X149950566Y-106547445D01*
X149952368Y-106566503D01*
X149954691Y-106591083D01*
X149955250Y-106602941D01*
X149955250Y-106744713D01*
X149935248Y-106812834D01*
X149887334Y-106856526D01*
X149685811Y-106961209D01*
X149475921Y-107114544D01*
X149472529Y-107117918D01*
X149472527Y-107117920D01*
X149344705Y-107245075D01*
X149291639Y-107297864D01*
X149290367Y-107296585D01*
X149237160Y-107330922D01*
X149166163Y-107331056D01*
X149103721Y-107289644D01*
X149064701Y-107241716D01*
X149061679Y-107238004D01*
X148877259Y-107071075D01*
X148872519Y-107066785D01*
X148868966Y-107063569D01*
X148855487Y-107054664D01*
X148656079Y-106922929D01*
X148652086Y-106920291D01*
X148647746Y-106918290D01*
X148647742Y-106918288D01*
X148522974Y-106860770D01*
X148469485Y-106814086D01*
X148449787Y-106750305D01*
X148449637Y-106745537D01*
X148449637Y-106745536D01*
X148449388Y-106737616D01*
X148447178Y-106730008D01*
X148447177Y-106730003D01*
X148443737Y-106718161D01*
X148439729Y-106698807D01*
X148438184Y-106686579D01*
X148437190Y-106678712D01*
X148434273Y-106671344D01*
X148434271Y-106671337D01*
X148420913Y-106637599D01*
X148417068Y-106626369D01*
X148406947Y-106591531D01*
X148406946Y-106591530D01*
X148404736Y-106583921D01*
X148394426Y-106566488D01*
X148385732Y-106548741D01*
X148378272Y-106529900D01*
X148352283Y-106494129D01*
X148345767Y-106484210D01*
X148344294Y-106481719D01*
X148323263Y-106446158D01*
X148322894Y-106445740D01*
X148308812Y-106431658D01*
X148295978Y-106416633D01*
X148284196Y-106400417D01*
X148250415Y-106372471D01*
X148241636Y-106364482D01*
X147939155Y-106062001D01*
X147905129Y-105999689D01*
X147902250Y-105972906D01*
X147902250Y-105106112D01*
X147922252Y-105037991D01*
X147931166Y-105025796D01*
X147973910Y-104974128D01*
X147973911Y-104974127D01*
X147978962Y-104968021D01*
X148049776Y-104817533D01*
X148051261Y-104809750D01*
X148051262Y-104809746D01*
X148076136Y-104679352D01*
X148076136Y-104679349D01*
X148077250Y-104673511D01*
X148077250Y-103397921D01*
X148066831Y-103315446D01*
X148062399Y-103280359D01*
X148062398Y-103280356D01*
X148061405Y-103272494D01*
X148045557Y-103232467D01*
X148003097Y-103125225D01*
X148003096Y-103125223D01*
X148000179Y-103117856D01*
X147995521Y-103111445D01*
X147995520Y-103111443D01*
X147926314Y-103016189D01*
X147902250Y-102942128D01*
X147902250Y-99983186D01*
X147922252Y-99915065D01*
X147959165Y-99877814D01*
X147985147Y-99860779D01*
X148037979Y-99826141D01*
X148157599Y-99699867D01*
X148161275Y-99693538D01*
X148161279Y-99693533D01*
X148202699Y-99622222D01*
X148208843Y-99611644D01*
X148260353Y-99562785D01*
X148330102Y-99549531D01*
X148395944Y-99576090D01*
X148423169Y-99605844D01*
X148501481Y-99725288D01*
X148510805Y-99736440D01*
X148626367Y-99845913D01*
X148638014Y-99854626D01*
X148775660Y-99934578D01*
X148788997Y-99940377D01*
X148942157Y-99986764D01*
X148954789Y-99989214D01*
X149022432Y-99995251D01*
X149028027Y-99995500D01*
X149046635Y-99995500D01*
X149061874Y-99991025D01*
X149063079Y-99989635D01*
X149064750Y-99981952D01*
X149064750Y-99977385D01*
X149572749Y-99977385D01*
X149577224Y-99992624D01*
X149578614Y-99993829D01*
X149586297Y-99995500D01*
X149595472Y-99995500D01*
X149602776Y-99995075D01*
X149721629Y-99981219D01*
X149735782Y-99977874D01*
X149885414Y-99923560D01*
X149898413Y-99917050D01*
X150031538Y-99829769D01*
X150042690Y-99820445D01*
X150152163Y-99704883D01*
X150160876Y-99693236D01*
X150240828Y-99555590D01*
X150246627Y-99542253D01*
X150293014Y-99389093D01*
X150295464Y-99376461D01*
X150301501Y-99308818D01*
X150301750Y-99303223D01*
X150301750Y-99272115D01*
X150297275Y-99256876D01*
X150295885Y-99255671D01*
X150288202Y-99254000D01*
X149590865Y-99253999D01*
X149575626Y-99258474D01*
X149574421Y-99259864D01*
X149572750Y-99267547D01*
X149572749Y-99977385D01*
X149064750Y-99977385D01*
X149064751Y-99254000D01*
X149064750Y-99253996D01*
X149064751Y-98872000D01*
X149084753Y-98803879D01*
X149138409Y-98757386D01*
X149190751Y-98746000D01*
X150283635Y-98746001D01*
X150328027Y-98732966D01*
X150338709Y-98726102D01*
X150374203Y-98721000D01*
X150709250Y-98721000D01*
X150777371Y-98741002D01*
G37*
%TD.AperFunction*%
%TA.AperFunction,Conductor*%
G36*
X142946750Y-98746001D02*
G01*
X143014871Y-98766003D01*
X143061364Y-98819659D01*
X143072750Y-98872001D01*
X143072749Y-99977385D01*
X143077224Y-99992624D01*
X143078614Y-99993829D01*
X143086297Y-99995500D01*
X143095472Y-99995500D01*
X143102776Y-99995075D01*
X143221629Y-99981219D01*
X143235782Y-99977874D01*
X143385414Y-99923560D01*
X143398413Y-99917050D01*
X143531538Y-99829769D01*
X143542690Y-99820445D01*
X143652163Y-99704883D01*
X143660879Y-99693233D01*
X143708260Y-99611660D01*
X143759771Y-99562801D01*
X143829519Y-99549547D01*
X143895361Y-99576107D01*
X143922585Y-99605859D01*
X143959885Y-99662751D01*
X144001097Y-99725609D01*
X144005109Y-99731729D01*
X144051584Y-99775755D01*
X144125645Y-99845913D01*
X144131383Y-99851349D01*
X144135387Y-99853675D01*
X144177291Y-99909612D01*
X144185250Y-99953684D01*
X144185250Y-100509117D01*
X144184736Y-100520021D01*
X144183084Y-100527412D01*
X144183333Y-100535337D01*
X144183333Y-100535338D01*
X144185188Y-100594353D01*
X144185250Y-100598311D01*
X144185250Y-100627077D01*
X144185791Y-100631356D01*
X144186723Y-100643196D01*
X144188112Y-100687383D01*
X144190322Y-100694991D01*
X144190323Y-100694996D01*
X144193763Y-100706838D01*
X144197771Y-100726192D01*
X144198940Y-100735441D01*
X144200310Y-100746287D01*
X144203227Y-100753655D01*
X144203229Y-100753662D01*
X144216587Y-100787400D01*
X144220432Y-100798630D01*
X144229517Y-100829900D01*
X144232764Y-100841078D01*
X144242745Y-100857954D01*
X144243074Y-100858511D01*
X144251768Y-100876258D01*
X144259228Y-100895099D01*
X144263887Y-100901511D01*
X144263890Y-100901517D01*
X144285218Y-100930872D01*
X144291735Y-100940794D01*
X144311221Y-100973742D01*
X144314237Y-100978841D01*
X144314605Y-100979259D01*
X144328688Y-100993342D01*
X144341528Y-101008375D01*
X144353304Y-101024583D01*
X144387085Y-101052529D01*
X144395865Y-101060519D01*
X144698346Y-101363000D01*
X144732372Y-101425312D01*
X144735251Y-101452095D01*
X144735250Y-102943888D01*
X144715248Y-103012009D01*
X144706334Y-103024204D01*
X144658538Y-103081979D01*
X144587724Y-103232467D01*
X144586239Y-103240250D01*
X144586238Y-103240254D01*
X144568500Y-103333239D01*
X144560250Y-103376489D01*
X144560250Y-104652079D01*
X144576095Y-104777506D01*
X144579012Y-104784872D01*
X144579012Y-104784874D01*
X144593523Y-104821523D01*
X144637321Y-104932144D01*
X144698510Y-105016363D01*
X144711187Y-105033812D01*
X144735046Y-105100680D01*
X144735251Y-105107873D01*
X144735250Y-105972905D01*
X144715248Y-106041026D01*
X144698347Y-106061999D01*
X144656226Y-106104121D01*
X144648150Y-106111470D01*
X144641756Y-106115527D01*
X144608491Y-106150951D01*
X144595897Y-106164362D01*
X144593142Y-106167204D01*
X144572812Y-106187534D01*
X144570378Y-106190671D01*
X144570376Y-106190674D01*
X144570153Y-106190961D01*
X144562457Y-106199971D01*
X144545792Y-106217718D01*
X144532194Y-106232199D01*
X144528378Y-106239140D01*
X144528376Y-106239143D01*
X144522438Y-106249945D01*
X144511584Y-106266468D01*
X144504028Y-106276210D01*
X144499167Y-106282477D01*
X144493161Y-106296357D01*
X144481609Y-106323051D01*
X144476387Y-106333711D01*
X144459471Y-106364482D01*
X144455089Y-106372452D01*
X144450051Y-106392072D01*
X144443652Y-106410764D01*
X144435603Y-106429365D01*
X144434363Y-106437192D01*
X144434363Y-106437193D01*
X144428687Y-106473031D01*
X144426280Y-106484654D01*
X144415286Y-106527475D01*
X144415251Y-106528031D01*
X144415251Y-106547947D01*
X144413700Y-106567657D01*
X144410566Y-106587445D01*
X144411312Y-106595337D01*
X144414692Y-106631093D01*
X144415251Y-106642951D01*
X144415251Y-106744712D01*
X144395249Y-106812833D01*
X144347334Y-106856526D01*
X144320757Y-106870332D01*
X144145811Y-106961209D01*
X143935921Y-107114544D01*
X143932529Y-107117918D01*
X143932527Y-107117920D01*
X143804705Y-107245075D01*
X143751639Y-107297864D01*
X143750367Y-107296585D01*
X143697160Y-107330922D01*
X143626163Y-107331056D01*
X143563721Y-107289644D01*
X143524701Y-107241716D01*
X143521679Y-107238004D01*
X143337259Y-107071075D01*
X143332519Y-107066785D01*
X143328966Y-107063569D01*
X143315487Y-107054664D01*
X143116079Y-106922929D01*
X143112086Y-106920291D01*
X143107746Y-106918290D01*
X143107742Y-106918288D01*
X142985499Y-106861934D01*
X142932010Y-106815250D01*
X142912250Y-106747508D01*
X142912250Y-101125883D01*
X142912764Y-101114979D01*
X142914416Y-101107588D01*
X142912312Y-101040634D01*
X142912250Y-101036676D01*
X142912250Y-101007922D01*
X142911711Y-101003655D01*
X142910777Y-100991805D01*
X142910654Y-100987865D01*
X142909389Y-100947617D01*
X142903738Y-100928166D01*
X142899728Y-100908804D01*
X142899584Y-100907660D01*
X142897190Y-100888712D01*
X142882692Y-100852095D01*
X142880916Y-100847608D01*
X142877071Y-100836378D01*
X142866948Y-100801534D01*
X142866947Y-100801532D01*
X142864736Y-100793921D01*
X142854427Y-100776489D01*
X142845730Y-100758736D01*
X142841192Y-100747275D01*
X142838272Y-100739900D01*
X142812281Y-100704126D01*
X142805766Y-100694207D01*
X142786279Y-100661258D01*
X142786277Y-100661255D01*
X142783263Y-100656159D01*
X142782895Y-100655741D01*
X142768812Y-100641658D01*
X142755978Y-100626633D01*
X142744196Y-100610417D01*
X142710414Y-100582470D01*
X142701635Y-100574481D01*
X142326139Y-100198985D01*
X142292113Y-100136673D01*
X142297178Y-100065858D01*
X142339725Y-100009022D01*
X142406245Y-99984211D01*
X142439224Y-99986195D01*
X142454789Y-99989214D01*
X142522432Y-99995251D01*
X142528027Y-99995500D01*
X142546635Y-99995500D01*
X142561874Y-99991025D01*
X142563079Y-99989635D01*
X142564750Y-99981952D01*
X142564751Y-98872000D01*
X142584753Y-98803879D01*
X142638409Y-98757386D01*
X142690751Y-98746000D01*
X142946750Y-98746001D01*
G37*
%TD.AperFunction*%
%TA.AperFunction,Conductor*%
G36*
X150903257Y-88141022D02*
G01*
X150949750Y-88194678D01*
X150959854Y-88264952D01*
X150930360Y-88329532D01*
X150924231Y-88336115D01*
X150676228Y-88584118D01*
X150668150Y-88591469D01*
X150661756Y-88595527D01*
X150656329Y-88601306D01*
X150656328Y-88601307D01*
X150615898Y-88644361D01*
X150613143Y-88647203D01*
X150592812Y-88667534D01*
X150590378Y-88670671D01*
X150590376Y-88670674D01*
X150590153Y-88670961D01*
X150582457Y-88679971D01*
X150578676Y-88683998D01*
X150552194Y-88712199D01*
X150548378Y-88719140D01*
X150548376Y-88719143D01*
X150542438Y-88729945D01*
X150531584Y-88746468D01*
X150524028Y-88756210D01*
X150519167Y-88762477D01*
X150509521Y-88784768D01*
X150501609Y-88803051D01*
X150496387Y-88813711D01*
X150481371Y-88841026D01*
X150475089Y-88852452D01*
X150470051Y-88872072D01*
X150463652Y-88890764D01*
X150455603Y-88909365D01*
X150454363Y-88917192D01*
X150454363Y-88917193D01*
X150448687Y-88953031D01*
X150446280Y-88964654D01*
X150435286Y-89007475D01*
X150435251Y-89008031D01*
X150435251Y-89027947D01*
X150433700Y-89047657D01*
X150430566Y-89067445D01*
X150431312Y-89075337D01*
X150434692Y-89111093D01*
X150435251Y-89122951D01*
X150435250Y-91259117D01*
X150434736Y-91270021D01*
X150433084Y-91277412D01*
X150433333Y-91285337D01*
X150433333Y-91285338D01*
X150435188Y-91344353D01*
X150435250Y-91348311D01*
X150435250Y-91377077D01*
X150435791Y-91381356D01*
X150436723Y-91393196D01*
X150438112Y-91437383D01*
X150440322Y-91444991D01*
X150440323Y-91444996D01*
X150443763Y-91456838D01*
X150447771Y-91476192D01*
X150449316Y-91488420D01*
X150450310Y-91496287D01*
X150453227Y-91503655D01*
X150453229Y-91503662D01*
X150466587Y-91537400D01*
X150470432Y-91548630D01*
X150482764Y-91591078D01*
X150486799Y-91597900D01*
X150493074Y-91608511D01*
X150501768Y-91626258D01*
X150509228Y-91645099D01*
X150513887Y-91651511D01*
X150513890Y-91651517D01*
X150535218Y-91680872D01*
X150541735Y-91690794D01*
X150557380Y-91717247D01*
X150564237Y-91728841D01*
X150564605Y-91729259D01*
X150578688Y-91743342D01*
X150591528Y-91758375D01*
X150603304Y-91774583D01*
X150624295Y-91791948D01*
X150637081Y-91802526D01*
X150645860Y-91810514D01*
X150815366Y-91980019D01*
X150822720Y-91988101D01*
X150826777Y-91994495D01*
X150832555Y-91999920D01*
X150832555Y-91999921D01*
X150875643Y-92040383D01*
X150878485Y-92043138D01*
X150898784Y-92063437D01*
X150902198Y-92066086D01*
X150911204Y-92073778D01*
X150943449Y-92104057D01*
X150950394Y-92107875D01*
X150961204Y-92113818D01*
X150977727Y-92124672D01*
X150987459Y-92132221D01*
X150987465Y-92132224D01*
X150993727Y-92137082D01*
X151000998Y-92140229D01*
X151000999Y-92140229D01*
X151034294Y-92154637D01*
X151044950Y-92159858D01*
X151083702Y-92181162D01*
X151091385Y-92183134D01*
X151091386Y-92183135D01*
X151103322Y-92186200D01*
X151122027Y-92192604D01*
X151133338Y-92197499D01*
X151133341Y-92197500D01*
X151135142Y-92198279D01*
X151135143Y-92198280D01*
X151140611Y-92200646D01*
X151140229Y-92201528D01*
X151194240Y-92236023D01*
X151223916Y-92300520D01*
X151225250Y-92318805D01*
X151225250Y-92437500D01*
X151230477Y-92510579D01*
X151271654Y-92650816D01*
X151276525Y-92658395D01*
X151345801Y-92766191D01*
X151345803Y-92766194D01*
X151350673Y-92773771D01*
X151357483Y-92779672D01*
X151454319Y-92863582D01*
X151454322Y-92863584D01*
X151461131Y-92869484D01*
X151469329Y-92873228D01*
X151489385Y-92882387D01*
X151594080Y-92930200D01*
X151602995Y-92931482D01*
X151602996Y-92931482D01*
X151734302Y-92950361D01*
X151734309Y-92950362D01*
X151738750Y-92951000D01*
X153238750Y-92951000D01*
X153311829Y-92945773D01*
X153409498Y-92917095D01*
X153443420Y-92907135D01*
X153443422Y-92907134D01*
X153452066Y-92904596D01*
X153515885Y-92863582D01*
X153567441Y-92830449D01*
X153567444Y-92830447D01*
X153575021Y-92825577D01*
X153588460Y-92810068D01*
X153664832Y-92721931D01*
X153664834Y-92721928D01*
X153670734Y-92715119D01*
X153701969Y-92646725D01*
X153748461Y-92593070D01*
X153816582Y-92573068D01*
X153884703Y-92593070D01*
X153930072Y-92645429D01*
X153931654Y-92650816D01*
X153936524Y-92658393D01*
X153936524Y-92658394D01*
X154005801Y-92766191D01*
X154005803Y-92766194D01*
X154010673Y-92773771D01*
X154017483Y-92779672D01*
X154114319Y-92863582D01*
X154114322Y-92863584D01*
X154121131Y-92869484D01*
X154129329Y-92873228D01*
X154149385Y-92882387D01*
X154254080Y-92930200D01*
X154262995Y-92931482D01*
X154262996Y-92931482D01*
X154394302Y-92950361D01*
X154394309Y-92950362D01*
X154398750Y-92951000D01*
X155559250Y-92951000D01*
X155627371Y-92971002D01*
X155673864Y-93024658D01*
X155685250Y-93077000D01*
X155685251Y-97772905D01*
X155665249Y-97841026D01*
X155648346Y-97862000D01*
X155180751Y-98329595D01*
X155118439Y-98363621D01*
X155091656Y-98366500D01*
X152764850Y-98366500D01*
X152696729Y-98346498D01*
X152659478Y-98309586D01*
X152655113Y-98302928D01*
X152632391Y-98268271D01*
X152540482Y-98181205D01*
X152504784Y-98119836D01*
X152507931Y-98048909D01*
X152539662Y-98002735D01*
X152537979Y-98001141D01*
X152636450Y-97897192D01*
X152657599Y-97874867D01*
X152744962Y-97724461D01*
X152748494Y-97712801D01*
X152782550Y-97600356D01*
X152795381Y-97557991D01*
X152798320Y-97525058D01*
X152802001Y-97483818D01*
X152802001Y-97483812D01*
X152802250Y-97481025D01*
X152802250Y-96882116D01*
X152801394Y-96874769D01*
X152787955Y-96759507D01*
X152787107Y-96752234D01*
X152771615Y-96709554D01*
X152730257Y-96595612D01*
X152730257Y-96595611D01*
X152727760Y-96588733D01*
X152632391Y-96443271D01*
X152506117Y-96323651D01*
X152385326Y-96253490D01*
X152362040Y-96239964D01*
X152362039Y-96239963D01*
X152355711Y-96236288D01*
X152348707Y-96234167D01*
X152348703Y-96234165D01*
X152224807Y-96196641D01*
X152189241Y-96185869D01*
X152182802Y-96185294D01*
X152182800Y-96185294D01*
X152115068Y-96179249D01*
X152115062Y-96179249D01*
X152112275Y-96179000D01*
X151538366Y-96179000D01*
X151534732Y-96179424D01*
X151534727Y-96179424D01*
X151415757Y-96193295D01*
X151408484Y-96194143D01*
X151401602Y-96196641D01*
X151292375Y-96236288D01*
X151244983Y-96253490D01*
X151099521Y-96348859D01*
X150979901Y-96475133D01*
X150976225Y-96481462D01*
X150976221Y-96481467D01*
X150896821Y-96618165D01*
X150852005Y-96663334D01*
X150839910Y-96670487D01*
X150839492Y-96670855D01*
X150825412Y-96684935D01*
X150810379Y-96697775D01*
X150794167Y-96709554D01*
X150789114Y-96715662D01*
X150766217Y-96743340D01*
X150758227Y-96752120D01*
X150676234Y-96834113D01*
X150668150Y-96841469D01*
X150661755Y-96845527D01*
X150656329Y-96851305D01*
X150656328Y-96851306D01*
X150615885Y-96894374D01*
X150613130Y-96897216D01*
X150592812Y-96917534D01*
X150590388Y-96920659D01*
X150590381Y-96920667D01*
X150590161Y-96920951D01*
X150582453Y-96929976D01*
X150552193Y-96962200D01*
X150548136Y-96969580D01*
X150542437Y-96979946D01*
X150531588Y-96996462D01*
X150527814Y-97001328D01*
X150470260Y-97042898D01*
X150399368Y-97046753D01*
X150337646Y-97011669D01*
X150304690Y-96948785D01*
X150302250Y-96924108D01*
X150302250Y-96882116D01*
X150301394Y-96874769D01*
X150287955Y-96759507D01*
X150287107Y-96752234D01*
X150271615Y-96709554D01*
X150230257Y-96595612D01*
X150230257Y-96595611D01*
X150227760Y-96588733D01*
X150132391Y-96443271D01*
X150006117Y-96323651D01*
X149885326Y-96253490D01*
X149862040Y-96239964D01*
X149862039Y-96239963D01*
X149855711Y-96236288D01*
X149848707Y-96234167D01*
X149848703Y-96234165D01*
X149724807Y-96196641D01*
X149689241Y-96185869D01*
X149682802Y-96185294D01*
X149682800Y-96185294D01*
X149615068Y-96179249D01*
X149615062Y-96179249D01*
X149612275Y-96179000D01*
X149038366Y-96179000D01*
X149034732Y-96179424D01*
X149034727Y-96179424D01*
X148915757Y-96193295D01*
X148908484Y-96194143D01*
X148901602Y-96196641D01*
X148792375Y-96236288D01*
X148744983Y-96253490D01*
X148599521Y-96348859D01*
X148479901Y-96475133D01*
X148476224Y-96481464D01*
X148471840Y-96487324D01*
X148470127Y-96486043D01*
X148426275Y-96527641D01*
X148368826Y-96541500D01*
X148264850Y-96541500D01*
X148196729Y-96521498D01*
X148159478Y-96484586D01*
X148157433Y-96481467D01*
X148132391Y-96443271D01*
X148030279Y-96346540D01*
X148011428Y-96328682D01*
X148011427Y-96328681D01*
X148006117Y-96323651D01*
X148002113Y-96321325D01*
X147960209Y-96265388D01*
X147952250Y-96221316D01*
X147952250Y-93665883D01*
X147952764Y-93654979D01*
X147954416Y-93647588D01*
X147952312Y-93580646D01*
X147952250Y-93576689D01*
X147952250Y-93547922D01*
X147951709Y-93543637D01*
X147950776Y-93531796D01*
X147950354Y-93518342D01*
X147949388Y-93487616D01*
X147947178Y-93480008D01*
X147947177Y-93480003D01*
X147943737Y-93468161D01*
X147939729Y-93448807D01*
X147938184Y-93436579D01*
X147937190Y-93428712D01*
X147934273Y-93421344D01*
X147934271Y-93421337D01*
X147920913Y-93387599D01*
X147917068Y-93376369D01*
X147906947Y-93341531D01*
X147906946Y-93341530D01*
X147904736Y-93333921D01*
X147894426Y-93316488D01*
X147885732Y-93298741D01*
X147878272Y-93279900D01*
X147852283Y-93244129D01*
X147845767Y-93234210D01*
X147826296Y-93201287D01*
X147823263Y-93196158D01*
X147822894Y-93195740D01*
X147808812Y-93181658D01*
X147795973Y-93166626D01*
X147784302Y-93150563D01*
X147760442Y-93083696D01*
X147776521Y-93014544D01*
X147827433Y-92965063D01*
X147886236Y-92950500D01*
X148396493Y-92950500D01*
X148401000Y-92950339D01*
X148465019Y-92945760D01*
X148478241Y-92943374D01*
X148603208Y-92906681D01*
X148619442Y-92899267D01*
X148727110Y-92830074D01*
X148740597Y-92818388D01*
X148824412Y-92721660D01*
X148834057Y-92706652D01*
X148887227Y-92590225D01*
X148892252Y-92573112D01*
X148909172Y-92455429D01*
X148907166Y-92441473D01*
X148893635Y-92437500D01*
X148756578Y-92437500D01*
X148688457Y-92417498D01*
X148641964Y-92363842D01*
X148631860Y-92293568D01*
X148661354Y-92228988D01*
X148688457Y-92205502D01*
X148727441Y-92180449D01*
X148727444Y-92180447D01*
X148735021Y-92175577D01*
X148817140Y-92080808D01*
X148876865Y-92042425D01*
X148908874Y-92033026D01*
X148910079Y-92031636D01*
X148911021Y-92027305D01*
X148907010Y-91971233D01*
X148904624Y-91958009D01*
X148901009Y-91945697D01*
X148897187Y-91892268D01*
X148911611Y-91791948D01*
X148911612Y-91791941D01*
X148912250Y-91787500D01*
X148912250Y-91630885D01*
X148932252Y-91562764D01*
X148974115Y-91522429D01*
X148989764Y-91513175D01*
X149007514Y-91504480D01*
X149018975Y-91499942D01*
X149018974Y-91499942D01*
X149026350Y-91497022D01*
X149062125Y-91471030D01*
X149072044Y-91464514D01*
X149077499Y-91461288D01*
X149110091Y-91442013D01*
X149110509Y-91441645D01*
X149124592Y-91427562D01*
X149139617Y-91414728D01*
X149155833Y-91402946D01*
X149183780Y-91369164D01*
X149191769Y-91360385D01*
X149711263Y-90840891D01*
X149719351Y-90833531D01*
X149725745Y-90829473D01*
X149771620Y-90780621D01*
X149774374Y-90777780D01*
X149794687Y-90757467D01*
X149797331Y-90754059D01*
X149805036Y-90745037D01*
X149805893Y-90744125D01*
X149816179Y-90733171D01*
X149829884Y-90718577D01*
X149829887Y-90718573D01*
X149835307Y-90712801D01*
X149839123Y-90705861D01*
X149839126Y-90705856D01*
X149845069Y-90695046D01*
X149855921Y-90678526D01*
X149863471Y-90668792D01*
X149868333Y-90662524D01*
X149885889Y-90621954D01*
X149891112Y-90611292D01*
X149892935Y-90607977D01*
X149912412Y-90572548D01*
X149916250Y-90557602D01*
X149917452Y-90552923D01*
X149923853Y-90534225D01*
X149928749Y-90522910D01*
X149931897Y-90515636D01*
X149935045Y-90495761D01*
X149938813Y-90471972D01*
X149941220Y-90460351D01*
X149950737Y-90423282D01*
X149950737Y-90423281D01*
X149952215Y-90417525D01*
X149952250Y-90416969D01*
X149952250Y-90397047D01*
X149953801Y-90377336D01*
X149954682Y-90371777D01*
X149956934Y-90357556D01*
X149952809Y-90313917D01*
X149952250Y-90302060D01*
X149952250Y-88402095D01*
X149972252Y-88333974D01*
X149989155Y-88312999D01*
X150144231Y-88157924D01*
X150206543Y-88123899D01*
X150233326Y-88121020D01*
X150835136Y-88121020D01*
X150903257Y-88141022D01*
G37*
%TD.AperFunction*%
%TA.AperFunction,Conductor*%
G36*
X138087259Y-88022134D02*
G01*
X138129253Y-88050193D01*
X138174780Y-88104669D01*
X138185250Y-88154957D01*
X138185250Y-89008032D01*
X138185251Y-90318005D01*
X138185250Y-91937393D01*
X138165248Y-92005514D01*
X138148345Y-92026488D01*
X137257738Y-92917095D01*
X137195426Y-92951121D01*
X137168643Y-92954000D01*
X128491536Y-92954000D01*
X128423415Y-92933998D01*
X128376922Y-92880342D01*
X128366818Y-92810068D01*
X128380805Y-92767878D01*
X128475199Y-92594024D01*
X128479633Y-92583778D01*
X128546620Y-92381229D01*
X128549170Y-92370356D01*
X128579508Y-92157192D01*
X128580114Y-92149974D01*
X128581655Y-92091132D01*
X128581427Y-92083879D01*
X128562288Y-91869437D01*
X128560306Y-91858423D01*
X128504017Y-91652665D01*
X128500123Y-91642192D01*
X128408283Y-91449646D01*
X128402591Y-91440023D01*
X128380904Y-91409841D01*
X128370113Y-91401429D01*
X128357077Y-91408383D01*
X127407845Y-92357615D01*
X127345533Y-92391641D01*
X127274718Y-92386576D01*
X127229655Y-92357615D01*
X127048635Y-92176595D01*
X127014609Y-92114283D01*
X127019674Y-92043468D01*
X127048635Y-91998405D01*
X127997594Y-91049446D01*
X128003818Y-91038048D01*
X127994007Y-91025614D01*
X127931865Y-90983857D01*
X127922061Y-90978467D01*
X127885399Y-90962373D01*
X127831063Y-90916677D01*
X127810058Y-90848859D01*
X127829052Y-90780451D01*
X127882016Y-90733171D01*
X127936044Y-90721000D01*
X135740367Y-90721000D01*
X135751271Y-90721514D01*
X135758662Y-90723166D01*
X135766587Y-90722917D01*
X135766588Y-90722917D01*
X135825603Y-90721062D01*
X135829561Y-90721000D01*
X135858328Y-90721000D01*
X135862252Y-90720504D01*
X135862254Y-90720504D01*
X135862602Y-90720460D01*
X135874448Y-90719527D01*
X135918633Y-90718138D01*
X135938089Y-90712486D01*
X135957429Y-90708481D01*
X135977538Y-90705940D01*
X135984908Y-90703022D01*
X135984912Y-90703021D01*
X136018650Y-90689663D01*
X136029880Y-90685818D01*
X136064718Y-90675697D01*
X136064719Y-90675697D01*
X136072328Y-90673486D01*
X136089762Y-90663176D01*
X136107514Y-90654480D01*
X136126350Y-90647022D01*
X136162125Y-90621030D01*
X136172044Y-90614514D01*
X136177492Y-90611292D01*
X136210091Y-90592013D01*
X136210509Y-90591645D01*
X136224592Y-90577562D01*
X136239617Y-90564728D01*
X136255833Y-90552946D01*
X136283780Y-90519164D01*
X136291769Y-90510385D01*
X137211263Y-89590891D01*
X137219351Y-89583531D01*
X137225745Y-89579473D01*
X137271620Y-89530621D01*
X137274374Y-89527780D01*
X137294688Y-89507466D01*
X137297333Y-89504055D01*
X137305039Y-89495033D01*
X137310042Y-89489706D01*
X137335307Y-89462801D01*
X137339314Y-89455513D01*
X137345068Y-89445047D01*
X137355922Y-89428523D01*
X137363475Y-89418786D01*
X137363475Y-89418785D01*
X137368333Y-89412523D01*
X137385892Y-89371947D01*
X137391113Y-89361290D01*
X137396578Y-89351349D01*
X137412412Y-89322548D01*
X137414864Y-89312999D01*
X137417449Y-89302932D01*
X137423853Y-89284228D01*
X137428749Y-89272915D01*
X137428752Y-89272906D01*
X137431898Y-89265636D01*
X137435884Y-89240473D01*
X137438815Y-89221965D01*
X137441222Y-89210344D01*
X137450737Y-89173282D01*
X137450737Y-89173281D01*
X137452215Y-89167525D01*
X137452250Y-89166969D01*
X137452250Y-89147048D01*
X137453801Y-89127338D01*
X137455694Y-89115386D01*
X137455694Y-89115385D01*
X137456934Y-89107556D01*
X137452809Y-89063917D01*
X137452250Y-89052060D01*
X137452250Y-88396013D01*
X137472252Y-88327892D01*
X137525908Y-88281399D01*
X137555878Y-88272015D01*
X137560091Y-88271255D01*
X137566829Y-88270773D01*
X137573309Y-88268870D01*
X137573311Y-88268870D01*
X137698420Y-88232135D01*
X137698422Y-88232134D01*
X137707066Y-88229596D01*
X137774700Y-88186130D01*
X137822441Y-88155449D01*
X137822444Y-88155447D01*
X137830021Y-88150577D01*
X137855579Y-88121082D01*
X137922036Y-88044387D01*
X137981762Y-88006004D01*
X138052759Y-88006004D01*
X138087259Y-88022134D01*
G37*
%TD.AperFunction*%
%TA.AperFunction,Conductor*%
G36*
X139911683Y-87854665D02*
G01*
X139915008Y-87859369D01*
X139919150Y-87863404D01*
X140011153Y-87953029D01*
X140070803Y-88011138D01*
X140075599Y-88014343D01*
X140075607Y-88014349D01*
X140129251Y-88050192D01*
X140174779Y-88104668D01*
X140185250Y-88154957D01*
X140185251Y-89509105D01*
X140184737Y-89520019D01*
X140183084Y-89527412D01*
X140183333Y-89535337D01*
X140183333Y-89535338D01*
X140185189Y-89594384D01*
X140185251Y-89598342D01*
X140185251Y-89627078D01*
X140185746Y-89630995D01*
X140185790Y-89631344D01*
X140186722Y-89643178D01*
X140188112Y-89687383D01*
X140190325Y-89694999D01*
X140190325Y-89695001D01*
X140193764Y-89706839D01*
X140197773Y-89726198D01*
X140199216Y-89737617D01*
X140200311Y-89746288D01*
X140203231Y-89753663D01*
X140216583Y-89787389D01*
X140220428Y-89798618D01*
X140229734Y-89830647D01*
X140232764Y-89841078D01*
X140240439Y-89854057D01*
X140243077Y-89858517D01*
X140251773Y-89876269D01*
X140259229Y-89895100D01*
X140263891Y-89901516D01*
X140285218Y-89930871D01*
X140291733Y-89940789D01*
X140314237Y-89978841D01*
X140314605Y-89979259D01*
X140328688Y-89993342D01*
X140341529Y-90008375D01*
X140353305Y-90024583D01*
X140359412Y-90029635D01*
X140387075Y-90052520D01*
X140395856Y-90060510D01*
X140815373Y-90480028D01*
X140822722Y-90488106D01*
X140826777Y-90494495D01*
X140832552Y-90499918D01*
X140875612Y-90540354D01*
X140878454Y-90543109D01*
X140898783Y-90563438D01*
X140902203Y-90566090D01*
X140911226Y-90573797D01*
X140943449Y-90604057D01*
X140950393Y-90607874D01*
X140950398Y-90607878D01*
X140961200Y-90613816D01*
X140977727Y-90624672D01*
X140993727Y-90637083D01*
X141000998Y-90640230D01*
X141000999Y-90640230D01*
X141034301Y-90654641D01*
X141044957Y-90659862D01*
X141083702Y-90681162D01*
X141091385Y-90683134D01*
X141091386Y-90683135D01*
X141103318Y-90686199D01*
X141122022Y-90692603D01*
X141133335Y-90697499D01*
X141133342Y-90697501D01*
X141140614Y-90700648D01*
X141148438Y-90701887D01*
X141148441Y-90701888D01*
X141184285Y-90707565D01*
X141195906Y-90709972D01*
X141232968Y-90719487D01*
X141238725Y-90720965D01*
X141239281Y-90721000D01*
X141259202Y-90721000D01*
X141278912Y-90722551D01*
X141290864Y-90724444D01*
X141290865Y-90724444D01*
X141298694Y-90725684D01*
X141306586Y-90724938D01*
X141342332Y-90721559D01*
X141354190Y-90721000D01*
X143669555Y-90721000D01*
X143705053Y-90726104D01*
X143743865Y-90737500D01*
X143880922Y-90737500D01*
X143949043Y-90757502D01*
X143995536Y-90811158D01*
X144005640Y-90881432D01*
X143976146Y-90946012D01*
X143949043Y-90969498D01*
X143910059Y-90994551D01*
X143910056Y-90994553D01*
X143902479Y-90999423D01*
X143822642Y-91091560D01*
X143820361Y-91094192D01*
X143760635Y-91132575D01*
X143728626Y-91141974D01*
X143727421Y-91143364D01*
X143726479Y-91147695D01*
X143730490Y-91203767D01*
X143732876Y-91216991D01*
X143736491Y-91229303D01*
X143740313Y-91282732D01*
X143725889Y-91383052D01*
X143725888Y-91383059D01*
X143725250Y-91387500D01*
X143725250Y-91478000D01*
X143705248Y-91546121D01*
X143651592Y-91592614D01*
X143599250Y-91604000D01*
X139578250Y-91604000D01*
X139510129Y-91583998D01*
X139463636Y-91530342D01*
X139452250Y-91478000D01*
X139452250Y-88159061D01*
X139472252Y-88090940D01*
X139497680Y-88062187D01*
X139654713Y-87931583D01*
X139654714Y-87931582D01*
X139659146Y-87927896D01*
X139662832Y-87923464D01*
X139662837Y-87923459D01*
X139719002Y-87855928D01*
X139777939Y-87816344D01*
X139848921Y-87814908D01*
X139911683Y-87854665D01*
G37*
%TD.AperFunction*%
%TA.AperFunction,Conductor*%
G36*
X176656750Y-84833501D02*
G01*
X176724871Y-84853503D01*
X176771364Y-84907159D01*
X176782750Y-84959501D01*
X176782749Y-86407441D01*
X176786900Y-86421579D01*
X176797545Y-86423274D01*
X176800951Y-86422594D01*
X177012083Y-86361454D01*
X177022009Y-86357643D01*
X177219815Y-86261807D01*
X177228962Y-86256376D01*
X177407791Y-86128583D01*
X177415892Y-86121688D01*
X177518077Y-86018607D01*
X177580241Y-85984311D01*
X177651078Y-85989066D01*
X177708099Y-86031364D01*
X177728457Y-86071814D01*
X177751654Y-86150816D01*
X177756525Y-86158395D01*
X177825801Y-86266191D01*
X177825803Y-86266194D01*
X177830673Y-86273771D01*
X177837483Y-86279672D01*
X177934319Y-86363582D01*
X177934322Y-86363584D01*
X177941131Y-86369484D01*
X177949329Y-86373228D01*
X178035323Y-86412500D01*
X178074080Y-86430200D01*
X178082995Y-86431482D01*
X178082996Y-86431482D01*
X178214302Y-86450361D01*
X178214309Y-86450362D01*
X178218750Y-86451000D01*
X178309250Y-86451000D01*
X178377371Y-86471002D01*
X178423864Y-86524658D01*
X178435250Y-86577000D01*
X178435251Y-88509105D01*
X178434737Y-88520019D01*
X178433084Y-88527412D01*
X178433333Y-88535337D01*
X178433333Y-88535338D01*
X178435189Y-88594384D01*
X178435251Y-88598342D01*
X178435251Y-88627078D01*
X178435746Y-88630995D01*
X178435790Y-88631344D01*
X178436722Y-88643178D01*
X178438112Y-88687383D01*
X178440325Y-88694999D01*
X178440325Y-88695001D01*
X178443764Y-88706839D01*
X178447773Y-88726198D01*
X178449054Y-88736334D01*
X178450311Y-88746288D01*
X178453231Y-88753663D01*
X178466583Y-88787389D01*
X178470428Y-88798618D01*
X178475805Y-88817124D01*
X178482764Y-88841078D01*
X178486799Y-88847901D01*
X178493077Y-88858517D01*
X178501773Y-88876269D01*
X178509229Y-88895100D01*
X178519593Y-88909365D01*
X178535218Y-88930871D01*
X178541733Y-88940789D01*
X178564237Y-88978841D01*
X178564605Y-88979259D01*
X178578688Y-88993342D01*
X178591529Y-89008375D01*
X178603305Y-89024583D01*
X178609412Y-89029635D01*
X178637080Y-89052524D01*
X178645860Y-89060514D01*
X179049751Y-89464405D01*
X179083777Y-89526717D01*
X179078712Y-89597532D01*
X179036165Y-89654368D01*
X178969645Y-89679179D01*
X178960656Y-89679500D01*
X178792028Y-89679500D01*
X178784724Y-89679925D01*
X178665871Y-89693781D01*
X178651719Y-89697126D01*
X178502087Y-89751440D01*
X178489088Y-89757950D01*
X178355962Y-89845231D01*
X178344810Y-89854555D01*
X178235337Y-89970117D01*
X178226624Y-89981764D01*
X178146672Y-90119410D01*
X178140873Y-90132747D01*
X178094486Y-90285907D01*
X178092036Y-90298539D01*
X178085999Y-90366182D01*
X178085750Y-90371777D01*
X178085750Y-90452885D01*
X178090225Y-90468124D01*
X178091615Y-90469329D01*
X178099298Y-90471000D01*
X179196750Y-90471001D01*
X179264871Y-90491003D01*
X179311364Y-90544659D01*
X179322750Y-90597002D01*
X179322749Y-90828001D01*
X179302747Y-90896121D01*
X179249091Y-90942614D01*
X179196749Y-90954000D01*
X178397133Y-90954000D01*
X178386229Y-90953486D01*
X178378838Y-90951834D01*
X178370913Y-90952083D01*
X178370912Y-90952083D01*
X178311897Y-90953938D01*
X178307939Y-90954000D01*
X178279172Y-90954000D01*
X178275248Y-90954496D01*
X178275246Y-90954496D01*
X178274898Y-90954540D01*
X178263052Y-90955473D01*
X178218867Y-90956862D01*
X178199411Y-90962514D01*
X178180071Y-90966519D01*
X178159962Y-90969060D01*
X178152593Y-90971978D01*
X178144915Y-90973949D01*
X178144559Y-90972564D01*
X178110824Y-90978999D01*
X178103865Y-90978999D01*
X178085069Y-90984518D01*
X178063563Y-91002465D01*
X178047738Y-91011824D01*
X178029991Y-91020518D01*
X178011150Y-91027978D01*
X178004735Y-91032639D01*
X177975379Y-91053967D01*
X177965458Y-91060483D01*
X177942433Y-91074100D01*
X177873617Y-91091560D01*
X177806286Y-91069043D01*
X177761817Y-91013699D01*
X177752935Y-90954325D01*
X177754436Y-90947608D01*
X177752332Y-90880666D01*
X177752270Y-90876709D01*
X177752270Y-90847942D01*
X177751729Y-90843657D01*
X177750796Y-90831816D01*
X177750723Y-90829473D01*
X177749408Y-90787636D01*
X177743758Y-90768188D01*
X177739749Y-90748829D01*
X177738204Y-90736598D01*
X177738204Y-90736596D01*
X177737210Y-90728732D01*
X177733550Y-90719487D01*
X177720931Y-90687614D01*
X177717086Y-90676384D01*
X177711404Y-90656827D01*
X177704756Y-90633942D01*
X177694446Y-90616508D01*
X177685750Y-90598756D01*
X177681212Y-90587295D01*
X177678292Y-90579920D01*
X177658694Y-90552946D01*
X177652300Y-90544145D01*
X177645784Y-90534226D01*
X177623283Y-90496179D01*
X177622915Y-90495761D01*
X177608832Y-90481678D01*
X177595998Y-90466653D01*
X177584216Y-90450437D01*
X177550434Y-90422490D01*
X177541655Y-90414501D01*
X177459641Y-90332487D01*
X177452281Y-90324399D01*
X177448223Y-90318005D01*
X177431658Y-90302449D01*
X177399372Y-90272131D01*
X177396530Y-90269376D01*
X177376216Y-90249062D01*
X177372805Y-90246417D01*
X177363783Y-90238711D01*
X177354896Y-90230365D01*
X177331551Y-90208443D01*
X177324607Y-90204626D01*
X177324605Y-90204624D01*
X177313797Y-90198682D01*
X177297273Y-90187828D01*
X177281274Y-90175418D01*
X177283090Y-90173077D01*
X177244163Y-90131386D01*
X177238316Y-90117816D01*
X177230258Y-90095615D01*
X177230257Y-90095612D01*
X177227760Y-90088734D01*
X177132391Y-89943272D01*
X177006117Y-89823652D01*
X176893003Y-89757950D01*
X176862040Y-89739965D01*
X176862039Y-89739964D01*
X176855711Y-89736289D01*
X176848707Y-89734168D01*
X176848703Y-89734166D01*
X176695433Y-89687745D01*
X176695430Y-89687744D01*
X176689241Y-89685870D01*
X176622638Y-89679925D01*
X176615065Y-89679249D01*
X176615064Y-89679249D01*
X176612275Y-89679000D01*
X176038366Y-89679000D01*
X176034732Y-89679424D01*
X176034727Y-89679424D01*
X175915757Y-89693295D01*
X175908484Y-89694143D01*
X175901602Y-89696641D01*
X175842285Y-89718172D01*
X175744984Y-89753490D01*
X175671180Y-89801878D01*
X175640353Y-89822089D01*
X175572417Y-89842712D01*
X175505935Y-89823848D01*
X175505817Y-89824051D01*
X175505021Y-89823588D01*
X175504117Y-89823332D01*
X175501598Y-89821600D01*
X175361840Y-89740422D01*
X175348503Y-89734623D01*
X175195343Y-89688236D01*
X175182711Y-89685786D01*
X175115068Y-89679749D01*
X175109473Y-89679500D01*
X175090865Y-89679500D01*
X175075626Y-89683975D01*
X175074421Y-89685365D01*
X175072750Y-89693048D01*
X175072749Y-90853000D01*
X175052747Y-90921121D01*
X174999091Y-90967614D01*
X174946748Y-90979000D01*
X174748249Y-90978999D01*
X174680129Y-90958997D01*
X174633636Y-90905341D01*
X174622250Y-90852999D01*
X174622250Y-86368292D01*
X174642252Y-86300171D01*
X174683041Y-86260797D01*
X174684875Y-86259909D01*
X174872461Y-86125857D01*
X175034780Y-85962117D01*
X175112391Y-85851483D01*
X175156703Y-85788316D01*
X175212199Y-85744036D01*
X175282825Y-85736789D01*
X175346157Y-85768875D01*
X175370531Y-85800458D01*
X175388300Y-85833117D01*
X175394152Y-85841991D01*
X175530236Y-86014613D01*
X175537500Y-86022375D01*
X175700717Y-86169594D01*
X175709194Y-86176028D01*
X175894872Y-86293636D01*
X175904317Y-86298553D01*
X176107156Y-86383194D01*
X176117295Y-86386450D01*
X176257095Y-86418596D01*
X176271172Y-86417757D01*
X176274750Y-86408499D01*
X176274751Y-84959500D01*
X176294753Y-84891379D01*
X176348409Y-84844886D01*
X176400751Y-84833500D01*
X176656750Y-84833501D01*
G37*
%TD.AperFunction*%
%TD*%
M02*
