%TF.GenerationSoftware,KiCad,Pcbnew,(5.99.0-8090-ga1d7a959f7)*%
%TF.CreationDate,2021-08-13T15:37:55+01:00*%
%TF.ProjectId,conio-b,636f6e69-6f2d-4622-9e6b-696361645f70,rev?*%
%TF.SameCoordinates,Original*%
%TF.FileFunction,Legend,Top*%
%TF.FilePolarity,Positive*%
%FSLAX46Y46*%
G04 Gerber Fmt 4.6, Leading zero omitted, Abs format (unit mm)*
G04 Created by KiCad (PCBNEW (5.99.0-8090-ga1d7a959f7)) date 2021-08-13 15:37:55*
%MOMM*%
%LPD*%
G01*
G04 APERTURE LIST*
%ADD10C,0.150000*%
%ADD11C,0.070000*%
%ADD12C,0.120000*%
G04 APERTURE END LIST*
D10*
X130568750Y-101587500D02*
X121068750Y-101587500D01*
X120568750Y-96337500D02*
X131068750Y-96337500D01*
X131068750Y-96337500D02*
X131068750Y-106837500D01*
X131068750Y-106837500D02*
X120568750Y-106837500D01*
X120568750Y-106837500D02*
X120568750Y-96337500D01*
X182068750Y-91587500D02*
X181568750Y-91587500D01*
X161069179Y-102923324D02*
X161067733Y-92262236D01*
X182568750Y-93337500D02*
X182568750Y-92087500D01*
X172068750Y-91587500D02*
X173318750Y-91587500D01*
X125818750Y-96837500D02*
X125818750Y-106337500D01*
X173318750Y-91587500D02*
X173818750Y-91587500D01*
X182568750Y-92087500D02*
X182068750Y-91587500D01*
X171568750Y-92087500D02*
X172068750Y-91587500D01*
X171568750Y-93337500D02*
X171568750Y-92087500D01*
X121068750Y-96837500D02*
X130568750Y-96837500D01*
X130568750Y-96837500D02*
X130568750Y-106337500D01*
X130568750Y-106337500D02*
X121068750Y-106337500D01*
X121068750Y-106337500D02*
X121068750Y-96837500D01*
X176068750Y-88849404D02*
X176021130Y-88944642D01*
X176021130Y-89087500D01*
X176068750Y-89230357D01*
X176163988Y-89325595D01*
X176259226Y-89373214D01*
X176449702Y-89420833D01*
X176592559Y-89420833D01*
X176783035Y-89373214D01*
X176878273Y-89325595D01*
X176973511Y-89230357D01*
X177021130Y-89087500D01*
X177021130Y-88992261D01*
X176973511Y-88849404D01*
X176925892Y-88801785D01*
X176592559Y-88801785D01*
X176592559Y-88992261D01*
X177021130Y-88373214D02*
X176021130Y-88373214D01*
X177021130Y-87801785D01*
X176021130Y-87801785D01*
X177021130Y-87325595D02*
X176021130Y-87325595D01*
X176021130Y-87087500D01*
X176068750Y-86944642D01*
X176163988Y-86849404D01*
X176259226Y-86801785D01*
X176449702Y-86754166D01*
X176592559Y-86754166D01*
X176783035Y-86801785D01*
X176878273Y-86849404D01*
X176973511Y-86944642D01*
X177021130Y-87087500D01*
X177021130Y-87325595D01*
X178521130Y-88599404D02*
X178521130Y-88027976D01*
X179521130Y-88313690D02*
X178521130Y-88313690D01*
X178521130Y-87789880D02*
X179521130Y-87123214D01*
X178521130Y-87123214D02*
X179521130Y-87789880D01*
X129080654Y-99837500D02*
X129175892Y-99885119D01*
X129318750Y-99885119D01*
X129461607Y-99837500D01*
X129556845Y-99742261D01*
X129604464Y-99647023D01*
X129652083Y-99456547D01*
X129652083Y-99313690D01*
X129604464Y-99123214D01*
X129556845Y-99027976D01*
X129461607Y-98932738D01*
X129318750Y-98885119D01*
X129223511Y-98885119D01*
X129080654Y-98932738D01*
X129033035Y-98980357D01*
X129033035Y-99313690D01*
X129223511Y-99313690D01*
X128604464Y-98885119D02*
X128604464Y-99885119D01*
X128033035Y-98885119D01*
X128033035Y-99885119D01*
X127556845Y-98885119D02*
X127556845Y-99885119D01*
X127318750Y-99885119D01*
X127175892Y-99837500D01*
X127080654Y-99742261D01*
X127033035Y-99647023D01*
X126985416Y-99456547D01*
X126985416Y-99313690D01*
X127033035Y-99123214D01*
X127080654Y-99027976D01*
X127175892Y-98932738D01*
X127318750Y-98885119D01*
X127556845Y-98885119D01*
X137271130Y-95158928D02*
X136271130Y-95158928D01*
X136271130Y-94777976D01*
X136318750Y-94682738D01*
X136366369Y-94635119D01*
X136461607Y-94587500D01*
X136604464Y-94587500D01*
X136699702Y-94635119D01*
X136747321Y-94682738D01*
X136794940Y-94777976D01*
X136794940Y-95158928D01*
X136271130Y-94254166D02*
X137271130Y-94016071D01*
X136556845Y-93825595D01*
X137271130Y-93635119D01*
X136271130Y-93397023D01*
X137271130Y-92444642D02*
X136794940Y-92777976D01*
X137271130Y-93016071D02*
X136271130Y-93016071D01*
X136271130Y-92635119D01*
X136318750Y-92539880D01*
X136366369Y-92492261D01*
X136461607Y-92444642D01*
X136604464Y-92444642D01*
X136699702Y-92492261D01*
X136747321Y-92539880D01*
X136794940Y-92635119D01*
X136794940Y-93016071D01*
X137271130Y-90777976D02*
X137271130Y-91254166D01*
X136271130Y-91254166D01*
X136747321Y-90444642D02*
X136747321Y-90111309D01*
X137271130Y-89968452D02*
X137271130Y-90444642D01*
X136271130Y-90444642D01*
X136271130Y-89968452D01*
X137271130Y-89539880D02*
X136271130Y-89539880D01*
X136271130Y-89301785D01*
X136318750Y-89158928D01*
X136413988Y-89063690D01*
X136509226Y-89016071D01*
X136699702Y-88968452D01*
X136842559Y-88968452D01*
X137033035Y-89016071D01*
X137128273Y-89063690D01*
X137223511Y-89158928D01*
X137271130Y-89301785D01*
X137271130Y-89539880D01*
X159904345Y-91654880D02*
X159904345Y-90654880D01*
X160142440Y-90654880D01*
X160285297Y-90702500D01*
X160380535Y-90797738D01*
X160428154Y-90892976D01*
X160475773Y-91083452D01*
X160475773Y-91226309D01*
X160428154Y-91416785D01*
X160380535Y-91512023D01*
X160285297Y-91607261D01*
X160142440Y-91654880D01*
X159904345Y-91654880D01*
X161237678Y-91131071D02*
X161380535Y-91178690D01*
X161428154Y-91226309D01*
X161475773Y-91321547D01*
X161475773Y-91464404D01*
X161428154Y-91559642D01*
X161380535Y-91607261D01*
X161285297Y-91654880D01*
X160904345Y-91654880D01*
X160904345Y-90654880D01*
X161237678Y-90654880D01*
X161332916Y-90702500D01*
X161380535Y-90750119D01*
X161428154Y-90845357D01*
X161428154Y-90940595D01*
X161380535Y-91035833D01*
X161332916Y-91083452D01*
X161237678Y-91131071D01*
X160904345Y-91131071D01*
X161951964Y-91654880D02*
X162142440Y-91654880D01*
X162237678Y-91607261D01*
X162285297Y-91559642D01*
X162380535Y-91416785D01*
X162428154Y-91226309D01*
X162428154Y-90845357D01*
X162380535Y-90750119D01*
X162332916Y-90702500D01*
X162237678Y-90654880D01*
X162047202Y-90654880D01*
X161951964Y-90702500D01*
X161904345Y-90750119D01*
X161856726Y-90845357D01*
X161856726Y-91083452D01*
X161904345Y-91178690D01*
X161951964Y-91226309D01*
X162047202Y-91273928D01*
X162237678Y-91273928D01*
X162332916Y-91226309D01*
X162380535Y-91178690D01*
X162428154Y-91083452D01*
X163618630Y-91654880D02*
X163618630Y-90654880D01*
X163999583Y-90654880D01*
X164094821Y-90702500D01*
X164142440Y-90750119D01*
X164190059Y-90845357D01*
X164190059Y-90988214D01*
X164142440Y-91083452D01*
X164094821Y-91131071D01*
X163999583Y-91178690D01*
X163618630Y-91178690D01*
X164618630Y-91654880D02*
X164618630Y-90654880D01*
X165094821Y-91654880D02*
X165094821Y-90654880D01*
X165666250Y-91654880D01*
X165666250Y-90654880D01*
X166332916Y-90654880D02*
X166523392Y-90654880D01*
X166618630Y-90702500D01*
X166713869Y-90797738D01*
X166761488Y-90988214D01*
X166761488Y-91321547D01*
X166713869Y-91512023D01*
X166618630Y-91607261D01*
X166523392Y-91654880D01*
X166332916Y-91654880D01*
X166237678Y-91607261D01*
X166142440Y-91512023D01*
X166094821Y-91321547D01*
X166094821Y-90988214D01*
X166142440Y-90797738D01*
X166237678Y-90702500D01*
X166332916Y-90654880D01*
X167190059Y-90654880D02*
X167190059Y-91464404D01*
X167237678Y-91559642D01*
X167285297Y-91607261D01*
X167380535Y-91654880D01*
X167571011Y-91654880D01*
X167666250Y-91607261D01*
X167713869Y-91559642D01*
X167761488Y-91464404D01*
X167761488Y-90654880D01*
X168094821Y-90654880D02*
X168666250Y-90654880D01*
X168380535Y-91654880D02*
X168380535Y-90654880D01*
X160428154Y-93264880D02*
X159856726Y-93264880D01*
X160142440Y-93264880D02*
X160142440Y-92264880D01*
X160047202Y-92407738D01*
X159951964Y-92502976D01*
X159856726Y-92550595D01*
X161618630Y-92883928D02*
X162380535Y-92883928D01*
X161999583Y-93264880D02*
X161999583Y-92502976D01*
X162761488Y-92264880D02*
X163380535Y-92264880D01*
X163047202Y-92645833D01*
X163190059Y-92645833D01*
X163285297Y-92693452D01*
X163332916Y-92741071D01*
X163380535Y-92836309D01*
X163380535Y-93074404D01*
X163332916Y-93169642D01*
X163285297Y-93217261D01*
X163190059Y-93264880D01*
X162904345Y-93264880D01*
X162809107Y-93217261D01*
X162761488Y-93169642D01*
X163666250Y-92264880D02*
X163999583Y-93264880D01*
X164332916Y-92264880D01*
X164571011Y-92264880D02*
X165190059Y-92264880D01*
X164856726Y-92645833D01*
X164999583Y-92645833D01*
X165094821Y-92693452D01*
X165142440Y-92741071D01*
X165190059Y-92836309D01*
X165190059Y-93074404D01*
X165142440Y-93169642D01*
X165094821Y-93217261D01*
X164999583Y-93264880D01*
X164713869Y-93264880D01*
X164618630Y-93217261D01*
X164571011Y-93169642D01*
X159856726Y-93970119D02*
X159904345Y-93922500D01*
X159999583Y-93874880D01*
X160237678Y-93874880D01*
X160332916Y-93922500D01*
X160380535Y-93970119D01*
X160428154Y-94065357D01*
X160428154Y-94160595D01*
X160380535Y-94303452D01*
X159809107Y-94874880D01*
X160428154Y-94874880D01*
X162190059Y-94874880D02*
X161856726Y-94398690D01*
X161618630Y-94874880D02*
X161618630Y-93874880D01*
X161999583Y-93874880D01*
X162094821Y-93922500D01*
X162142440Y-93970119D01*
X162190059Y-94065357D01*
X162190059Y-94208214D01*
X162142440Y-94303452D01*
X162094821Y-94351071D01*
X161999583Y-94398690D01*
X161618630Y-94398690D01*
X162571011Y-94827261D02*
X162713869Y-94874880D01*
X162951964Y-94874880D01*
X163047202Y-94827261D01*
X163094821Y-94779642D01*
X163142440Y-94684404D01*
X163142440Y-94589166D01*
X163094821Y-94493928D01*
X163047202Y-94446309D01*
X162951964Y-94398690D01*
X162761488Y-94351071D01*
X162666250Y-94303452D01*
X162618630Y-94255833D01*
X162571011Y-94160595D01*
X162571011Y-94065357D01*
X162618630Y-93970119D01*
X162666250Y-93922500D01*
X162761488Y-93874880D01*
X162999583Y-93874880D01*
X163142440Y-93922500D01*
X163428154Y-93874880D02*
X163999583Y-93874880D01*
X163713869Y-94874880D02*
X163713869Y-93874880D01*
X164094821Y-94970119D02*
X164856726Y-94970119D01*
X165428154Y-94351071D02*
X165571011Y-94398690D01*
X165618630Y-94446309D01*
X165666250Y-94541547D01*
X165666250Y-94684404D01*
X165618630Y-94779642D01*
X165571011Y-94827261D01*
X165475773Y-94874880D01*
X165094821Y-94874880D01*
X165094821Y-93874880D01*
X165428154Y-93874880D01*
X165523392Y-93922500D01*
X165571011Y-93970119D01*
X165618630Y-94065357D01*
X165618630Y-94160595D01*
X165571011Y-94255833D01*
X165523392Y-94303452D01*
X165428154Y-94351071D01*
X165094821Y-94351071D01*
X165951964Y-93874880D02*
X166523392Y-93874880D01*
X166237678Y-94874880D02*
X166237678Y-93874880D01*
X166856726Y-94874880D02*
X166856726Y-93874880D01*
X167428154Y-94874880D01*
X167428154Y-93874880D01*
X159809107Y-95484880D02*
X160428154Y-95484880D01*
X160094821Y-95865833D01*
X160237678Y-95865833D01*
X160332916Y-95913452D01*
X160380535Y-95961071D01*
X160428154Y-96056309D01*
X160428154Y-96294404D01*
X160380535Y-96389642D01*
X160332916Y-96437261D01*
X160237678Y-96484880D01*
X159951964Y-96484880D01*
X159856726Y-96437261D01*
X159809107Y-96389642D01*
X161618630Y-96484880D02*
X161618630Y-95484880D01*
X161999583Y-95484880D01*
X162094821Y-95532500D01*
X162142440Y-95580119D01*
X162190059Y-95675357D01*
X162190059Y-95818214D01*
X162142440Y-95913452D01*
X162094821Y-95961071D01*
X161999583Y-96008690D01*
X161618630Y-96008690D01*
X162523392Y-95484880D02*
X162761488Y-96484880D01*
X162951964Y-95770595D01*
X163142440Y-96484880D01*
X163380535Y-95484880D01*
X164332916Y-96484880D02*
X163999583Y-96008690D01*
X163761488Y-96484880D02*
X163761488Y-95484880D01*
X164142440Y-95484880D01*
X164237678Y-95532500D01*
X164285297Y-95580119D01*
X164332916Y-95675357D01*
X164332916Y-95818214D01*
X164285297Y-95913452D01*
X164237678Y-95961071D01*
X164142440Y-96008690D01*
X163761488Y-96008690D01*
X164523392Y-96580119D02*
X165285297Y-96580119D01*
X165856726Y-95961071D02*
X165999583Y-96008690D01*
X166047202Y-96056309D01*
X166094821Y-96151547D01*
X166094821Y-96294404D01*
X166047202Y-96389642D01*
X165999583Y-96437261D01*
X165904345Y-96484880D01*
X165523392Y-96484880D01*
X165523392Y-95484880D01*
X165856726Y-95484880D01*
X165951964Y-95532500D01*
X165999583Y-95580119D01*
X166047202Y-95675357D01*
X166047202Y-95770595D01*
X165999583Y-95865833D01*
X165951964Y-95913452D01*
X165856726Y-95961071D01*
X165523392Y-95961071D01*
X166380535Y-95484880D02*
X166951964Y-95484880D01*
X166666250Y-96484880D02*
X166666250Y-95484880D01*
X167285297Y-96484880D02*
X167285297Y-95484880D01*
X167856726Y-96484880D01*
X167856726Y-95484880D01*
X160332916Y-97428214D02*
X160332916Y-98094880D01*
X160094821Y-97047261D02*
X159856726Y-97761547D01*
X160475773Y-97761547D01*
X161618630Y-98094880D02*
X161618630Y-97094880D01*
X161999583Y-97094880D01*
X162094821Y-97142500D01*
X162142440Y-97190119D01*
X162190059Y-97285357D01*
X162190059Y-97428214D01*
X162142440Y-97523452D01*
X162094821Y-97571071D01*
X161999583Y-97618690D01*
X161618630Y-97618690D01*
X162523392Y-97094880D02*
X162761488Y-98094880D01*
X162951964Y-97380595D01*
X163142440Y-98094880D01*
X163380535Y-97094880D01*
X164332916Y-98094880D02*
X163999583Y-97618690D01*
X163761488Y-98094880D02*
X163761488Y-97094880D01*
X164142440Y-97094880D01*
X164237678Y-97142500D01*
X164285297Y-97190119D01*
X164332916Y-97285357D01*
X164332916Y-97428214D01*
X164285297Y-97523452D01*
X164237678Y-97571071D01*
X164142440Y-97618690D01*
X163761488Y-97618690D01*
X164523392Y-98190119D02*
X165285297Y-98190119D01*
X165999583Y-98094880D02*
X165523392Y-98094880D01*
X165523392Y-97094880D01*
X166332916Y-97571071D02*
X166666250Y-97571071D01*
X166809107Y-98094880D02*
X166332916Y-98094880D01*
X166332916Y-97094880D01*
X166809107Y-97094880D01*
X167237678Y-98094880D02*
X167237678Y-97094880D01*
X167475773Y-97094880D01*
X167618630Y-97142500D01*
X167713869Y-97237738D01*
X167761488Y-97332976D01*
X167809107Y-97523452D01*
X167809107Y-97666309D01*
X167761488Y-97856785D01*
X167713869Y-97952023D01*
X167618630Y-98047261D01*
X167475773Y-98094880D01*
X167237678Y-98094880D01*
X160380535Y-98704880D02*
X159904345Y-98704880D01*
X159856726Y-99181071D01*
X159904345Y-99133452D01*
X159999583Y-99085833D01*
X160237678Y-99085833D01*
X160332916Y-99133452D01*
X160380535Y-99181071D01*
X160428154Y-99276309D01*
X160428154Y-99514404D01*
X160380535Y-99609642D01*
X160332916Y-99657261D01*
X160237678Y-99704880D01*
X159999583Y-99704880D01*
X159904345Y-99657261D01*
X159856726Y-99609642D01*
X162142440Y-98752500D02*
X162047202Y-98704880D01*
X161904345Y-98704880D01*
X161761488Y-98752500D01*
X161666250Y-98847738D01*
X161618630Y-98942976D01*
X161571011Y-99133452D01*
X161571011Y-99276309D01*
X161618630Y-99466785D01*
X161666250Y-99562023D01*
X161761488Y-99657261D01*
X161904345Y-99704880D01*
X161999583Y-99704880D01*
X162142440Y-99657261D01*
X162190059Y-99609642D01*
X162190059Y-99276309D01*
X161999583Y-99276309D01*
X162618630Y-99704880D02*
X162618630Y-98704880D01*
X163190059Y-99704880D01*
X163190059Y-98704880D01*
X163666250Y-99704880D02*
X163666250Y-98704880D01*
X163904345Y-98704880D01*
X164047202Y-98752500D01*
X164142440Y-98847738D01*
X164190059Y-98942976D01*
X164237678Y-99133452D01*
X164237678Y-99276309D01*
X164190059Y-99466785D01*
X164142440Y-99562023D01*
X164047202Y-99657261D01*
X163904345Y-99704880D01*
X163666250Y-99704880D01*
X160332916Y-100314880D02*
X160142440Y-100314880D01*
X160047202Y-100362500D01*
X159999583Y-100410119D01*
X159904345Y-100552976D01*
X159856726Y-100743452D01*
X159856726Y-101124404D01*
X159904345Y-101219642D01*
X159951964Y-101267261D01*
X160047202Y-101314880D01*
X160237678Y-101314880D01*
X160332916Y-101267261D01*
X160380535Y-101219642D01*
X160428154Y-101124404D01*
X160428154Y-100886309D01*
X160380535Y-100791071D01*
X160332916Y-100743452D01*
X160237678Y-100695833D01*
X160047202Y-100695833D01*
X159951964Y-100743452D01*
X159904345Y-100791071D01*
X159856726Y-100886309D01*
X162190059Y-101314880D02*
X161856726Y-100838690D01*
X161618630Y-101314880D02*
X161618630Y-100314880D01*
X161999583Y-100314880D01*
X162094821Y-100362500D01*
X162142440Y-100410119D01*
X162190059Y-100505357D01*
X162190059Y-100648214D01*
X162142440Y-100743452D01*
X162094821Y-100791071D01*
X161999583Y-100838690D01*
X161618630Y-100838690D01*
X162523392Y-100314880D02*
X163190059Y-101314880D01*
X163190059Y-100314880D02*
X162523392Y-101314880D01*
X159809107Y-101924880D02*
X160475773Y-101924880D01*
X160047202Y-102924880D01*
X161475773Y-101924880D02*
X162047202Y-101924880D01*
X161761488Y-102924880D02*
X161761488Y-101924880D01*
X162285297Y-101924880D02*
X162951964Y-102924880D01*
X162951964Y-101924880D02*
X162285297Y-102924880D01*
X139271130Y-95206547D02*
X138271130Y-95206547D01*
X138271130Y-94825595D01*
X138318750Y-94730357D01*
X138366369Y-94682738D01*
X138461607Y-94635119D01*
X138604464Y-94635119D01*
X138699702Y-94682738D01*
X138747321Y-94730357D01*
X138794940Y-94825595D01*
X138794940Y-95206547D01*
X138271130Y-94301785D02*
X139271130Y-94063690D01*
X138556845Y-93873214D01*
X139271130Y-93682738D01*
X138271130Y-93444642D01*
X139271130Y-92492261D02*
X138794940Y-92825595D01*
X139271130Y-93063690D02*
X138271130Y-93063690D01*
X138271130Y-92682738D01*
X138318750Y-92587500D01*
X138366369Y-92539880D01*
X138461607Y-92492261D01*
X138604464Y-92492261D01*
X138699702Y-92539880D01*
X138747321Y-92587500D01*
X138794940Y-92682738D01*
X138794940Y-93063690D01*
X138747321Y-90968452D02*
X138794940Y-90825595D01*
X138842559Y-90777976D01*
X138937797Y-90730357D01*
X139080654Y-90730357D01*
X139175892Y-90777976D01*
X139223511Y-90825595D01*
X139271130Y-90920833D01*
X139271130Y-91301785D01*
X138271130Y-91301785D01*
X138271130Y-90968452D01*
X138318750Y-90873214D01*
X138366369Y-90825595D01*
X138461607Y-90777976D01*
X138556845Y-90777976D01*
X138652083Y-90825595D01*
X138699702Y-90873214D01*
X138747321Y-90968452D01*
X138747321Y-91301785D01*
X138271130Y-90444642D02*
X138271130Y-89873214D01*
X139271130Y-90158928D02*
X138271130Y-90158928D01*
X139271130Y-89539880D02*
X138271130Y-89539880D01*
X139271130Y-88968452D01*
X138271130Y-88968452D01*
X124655227Y-104288587D02*
X124655227Y-105288587D01*
X124274274Y-105288587D01*
X124179036Y-105240968D01*
X124131417Y-105193348D01*
X124083798Y-105098110D01*
X124083798Y-104955253D01*
X124131417Y-104860015D01*
X124179036Y-104812396D01*
X124274274Y-104764777D01*
X124655227Y-104764777D01*
X123750465Y-105288587D02*
X123512370Y-104288587D01*
X123321894Y-105002872D01*
X123131417Y-104288587D01*
X122893322Y-105288587D01*
X121940941Y-104288587D02*
X122274274Y-104764777D01*
X122512370Y-104288587D02*
X122512370Y-105288587D01*
X122131417Y-105288587D01*
X122036179Y-105240968D01*
X121988560Y-105193348D01*
X121940941Y-105098110D01*
X121940941Y-104955253D01*
X121988560Y-104860015D01*
X122036179Y-104812396D01*
X122131417Y-104764777D01*
X122512370Y-104764777D01*
X124155227Y-103202396D02*
X124012370Y-103154777D01*
X123964751Y-103107158D01*
X123917132Y-103011920D01*
X123917132Y-102869063D01*
X123964751Y-102773825D01*
X124012370Y-102726206D01*
X124107608Y-102678587D01*
X124488560Y-102678587D01*
X124488560Y-103678587D01*
X124155227Y-103678587D01*
X124059989Y-103630968D01*
X124012370Y-103583348D01*
X123964751Y-103488110D01*
X123964751Y-103392872D01*
X124012370Y-103297634D01*
X124059989Y-103250015D01*
X124155227Y-103202396D01*
X124488560Y-103202396D01*
X123631417Y-103678587D02*
X123059989Y-103678587D01*
X123345703Y-102678587D02*
X123345703Y-103678587D01*
X122726655Y-102678587D02*
X122726655Y-103678587D01*
X122155227Y-102678587D01*
X122155227Y-103678587D01*
X124715487Y-99698774D02*
X124715487Y-100698774D01*
X124334534Y-100698774D01*
X124239296Y-100651155D01*
X124191677Y-100603535D01*
X124144058Y-100508297D01*
X124144058Y-100365440D01*
X124191677Y-100270202D01*
X124239296Y-100222583D01*
X124334534Y-100174964D01*
X124715487Y-100174964D01*
X123810725Y-100698774D02*
X123572630Y-99698774D01*
X123382154Y-100413059D01*
X123191677Y-99698774D01*
X122953582Y-100698774D01*
X122001201Y-99698774D02*
X122334534Y-100174964D01*
X122572630Y-99698774D02*
X122572630Y-100698774D01*
X122191677Y-100698774D01*
X122096439Y-100651155D01*
X122048820Y-100603535D01*
X122001201Y-100508297D01*
X122001201Y-100365440D01*
X122048820Y-100270202D01*
X122096439Y-100222583D01*
X122191677Y-100174964D01*
X122572630Y-100174964D01*
X124025011Y-98088774D02*
X124501201Y-98088774D01*
X124501201Y-99088774D01*
X123691677Y-98612583D02*
X123358344Y-98612583D01*
X123215487Y-98088774D02*
X123691677Y-98088774D01*
X123691677Y-99088774D01*
X123215487Y-99088774D01*
X122786915Y-98088774D02*
X122786915Y-99088774D01*
X122548820Y-99088774D01*
X122405963Y-99041155D01*
X122310725Y-98945916D01*
X122263106Y-98850678D01*
X122215487Y-98660202D01*
X122215487Y-98517345D01*
X122263106Y-98326869D01*
X122310725Y-98231631D01*
X122405963Y-98136393D01*
X122548820Y-98088774D01*
X122786915Y-98088774D01*
X182961607Y-99906071D02*
X182628273Y-99906071D01*
X182628273Y-100429880D02*
X182628273Y-99429880D01*
X183104464Y-99429880D01*
X183675892Y-99429880D02*
X183866369Y-99429880D01*
X183961607Y-99477500D01*
X184056845Y-99572738D01*
X184104464Y-99763214D01*
X184104464Y-100096547D01*
X184056845Y-100287023D01*
X183961607Y-100382261D01*
X183866369Y-100429880D01*
X183675892Y-100429880D01*
X183580654Y-100382261D01*
X183485416Y-100287023D01*
X183437797Y-100096547D01*
X183437797Y-99763214D01*
X183485416Y-99572738D01*
X183580654Y-99477500D01*
X183675892Y-99429880D01*
X185104464Y-100429880D02*
X184771130Y-99953690D01*
X184533035Y-100429880D02*
X184533035Y-99429880D01*
X184913988Y-99429880D01*
X185009226Y-99477500D01*
X185056845Y-99525119D01*
X185104464Y-99620357D01*
X185104464Y-99763214D01*
X185056845Y-99858452D01*
X185009226Y-99906071D01*
X184913988Y-99953690D01*
X184533035Y-99953690D01*
X186199702Y-99429880D02*
X186818750Y-99429880D01*
X186485416Y-99810833D01*
X186628273Y-99810833D01*
X186723511Y-99858452D01*
X186771130Y-99906071D01*
X186818750Y-100001309D01*
X186818750Y-100239404D01*
X186771130Y-100334642D01*
X186723511Y-100382261D01*
X186628273Y-100429880D01*
X186342559Y-100429880D01*
X186247321Y-100382261D01*
X186199702Y-100334642D01*
X187104464Y-99429880D02*
X187437797Y-100429880D01*
X187771130Y-99429880D01*
X188009226Y-99429880D02*
X188628273Y-99429880D01*
X188294940Y-99810833D01*
X188437797Y-99810833D01*
X188533035Y-99858452D01*
X188580654Y-99906071D01*
X188628273Y-100001309D01*
X188628273Y-100239404D01*
X188580654Y-100334642D01*
X188533035Y-100382261D01*
X188437797Y-100429880D01*
X188152083Y-100429880D01*
X188056845Y-100382261D01*
X188009226Y-100334642D01*
X189818750Y-99429880D02*
X189818750Y-100239404D01*
X189866369Y-100334642D01*
X189913988Y-100382261D01*
X190009226Y-100429880D01*
X190199702Y-100429880D01*
X190294940Y-100382261D01*
X190342559Y-100334642D01*
X190390178Y-100239404D01*
X190390178Y-99429880D01*
X190818750Y-100144166D02*
X191294940Y-100144166D01*
X190723511Y-100429880D02*
X191056845Y-99429880D01*
X191390178Y-100429880D01*
X192294940Y-100429880D02*
X191961607Y-99953690D01*
X191723511Y-100429880D02*
X191723511Y-99429880D01*
X192104464Y-99429880D01*
X192199702Y-99477500D01*
X192247321Y-99525119D01*
X192294940Y-99620357D01*
X192294940Y-99763214D01*
X192247321Y-99858452D01*
X192199702Y-99906071D01*
X192104464Y-99953690D01*
X191723511Y-99953690D01*
X192580654Y-99429880D02*
X193152083Y-99429880D01*
X192866369Y-100429880D02*
X192866369Y-99429880D01*
X180699702Y-102039880D02*
X180699702Y-101039880D01*
X180937797Y-101039880D01*
X181080654Y-101087500D01*
X181175892Y-101182738D01*
X181223511Y-101277976D01*
X181271130Y-101468452D01*
X181271130Y-101611309D01*
X181223511Y-101801785D01*
X181175892Y-101897023D01*
X181080654Y-101992261D01*
X180937797Y-102039880D01*
X180699702Y-102039880D01*
X181699702Y-102039880D02*
X181699702Y-101039880D01*
X182271130Y-102039880D01*
X182271130Y-101039880D01*
X182747321Y-102039880D02*
X182747321Y-101039880D01*
X183128273Y-101039880D01*
X183223511Y-101087500D01*
X183271130Y-101135119D01*
X183318750Y-101230357D01*
X183318750Y-101373214D01*
X183271130Y-101468452D01*
X183223511Y-101516071D01*
X183128273Y-101563690D01*
X182747321Y-101563690D01*
X185080654Y-101944642D02*
X185033035Y-101992261D01*
X184890178Y-102039880D01*
X184794940Y-102039880D01*
X184652083Y-101992261D01*
X184556845Y-101897023D01*
X184509226Y-101801785D01*
X184461607Y-101611309D01*
X184461607Y-101468452D01*
X184509226Y-101277976D01*
X184556845Y-101182738D01*
X184652083Y-101087500D01*
X184794940Y-101039880D01*
X184890178Y-101039880D01*
X185033035Y-101087500D01*
X185080654Y-101135119D01*
X186033035Y-102039880D02*
X185461607Y-102039880D01*
X185747321Y-102039880D02*
X185747321Y-101039880D01*
X185652083Y-101182738D01*
X185556845Y-101277976D01*
X185461607Y-101325595D01*
X186509226Y-101992261D02*
X186509226Y-102039880D01*
X186461607Y-102135119D01*
X186413988Y-102182738D01*
X186890178Y-101135119D02*
X186937797Y-101087500D01*
X187033035Y-101039880D01*
X187271130Y-101039880D01*
X187366369Y-101087500D01*
X187413988Y-101135119D01*
X187461607Y-101230357D01*
X187461607Y-101325595D01*
X187413988Y-101468452D01*
X186842559Y-102039880D01*
X187461607Y-102039880D01*
X187937797Y-101992261D02*
X187937797Y-102039880D01*
X187890178Y-102135119D01*
X187842559Y-102182738D01*
X188271130Y-101039880D02*
X188890178Y-101039880D01*
X188556845Y-101420833D01*
X188699702Y-101420833D01*
X188794940Y-101468452D01*
X188842559Y-101516071D01*
X188890178Y-101611309D01*
X188890178Y-101849404D01*
X188842559Y-101944642D01*
X188794940Y-101992261D01*
X188699702Y-102039880D01*
X188413988Y-102039880D01*
X188318750Y-101992261D01*
X188271130Y-101944642D01*
X189366369Y-101992261D02*
X189366369Y-102039880D01*
X189318750Y-102135119D01*
X189271130Y-102182738D01*
X190223511Y-101373214D02*
X190223511Y-102039880D01*
X189985416Y-100992261D02*
X189747321Y-101706547D01*
X190366369Y-101706547D01*
X190794940Y-101992261D02*
X190794940Y-102039880D01*
X190747321Y-102135119D01*
X190699702Y-102182738D01*
X191699702Y-101039880D02*
X191223511Y-101039880D01*
X191175892Y-101516071D01*
X191223511Y-101468452D01*
X191318750Y-101420833D01*
X191556845Y-101420833D01*
X191652083Y-101468452D01*
X191699702Y-101516071D01*
X191747321Y-101611309D01*
X191747321Y-101849404D01*
X191699702Y-101944642D01*
X191652083Y-101992261D01*
X191556845Y-102039880D01*
X191318750Y-102039880D01*
X191223511Y-101992261D01*
X191175892Y-101944642D01*
X192223511Y-101992261D02*
X192223511Y-102039880D01*
X192175892Y-102135119D01*
X192128273Y-102182738D01*
X193413988Y-101039880D02*
X193413988Y-101849404D01*
X193461607Y-101944642D01*
X193509226Y-101992261D01*
X193604464Y-102039880D01*
X193794940Y-102039880D01*
X193890178Y-101992261D01*
X193937797Y-101944642D01*
X193985416Y-101849404D01*
X193985416Y-101039880D01*
X194985416Y-102039880D02*
X194413988Y-102039880D01*
X194699702Y-102039880D02*
X194699702Y-101039880D01*
X194604464Y-101182738D01*
X194509226Y-101277976D01*
X194413988Y-101325595D01*
X182866369Y-103126071D02*
X183009226Y-103173690D01*
X183056845Y-103221309D01*
X183104464Y-103316547D01*
X183104464Y-103459404D01*
X183056845Y-103554642D01*
X183009226Y-103602261D01*
X182913988Y-103649880D01*
X182533035Y-103649880D01*
X182533035Y-102649880D01*
X182866369Y-102649880D01*
X182961607Y-102697500D01*
X183009226Y-102745119D01*
X183056845Y-102840357D01*
X183056845Y-102935595D01*
X183009226Y-103030833D01*
X182961607Y-103078452D01*
X182866369Y-103126071D01*
X182533035Y-103126071D01*
X184104464Y-103649880D02*
X183771130Y-103173690D01*
X183533035Y-103649880D02*
X183533035Y-102649880D01*
X183913988Y-102649880D01*
X184009226Y-102697500D01*
X184056845Y-102745119D01*
X184104464Y-102840357D01*
X184104464Y-102983214D01*
X184056845Y-103078452D01*
X184009226Y-103126071D01*
X183913988Y-103173690D01*
X183533035Y-103173690D01*
X184533035Y-103649880D02*
X184533035Y-102649880D01*
X185009226Y-103649880D02*
X185009226Y-102649880D01*
X185247321Y-102649880D01*
X185390178Y-102697500D01*
X185485416Y-102792738D01*
X185533035Y-102887976D01*
X185580654Y-103078452D01*
X185580654Y-103221309D01*
X185533035Y-103411785D01*
X185485416Y-103507023D01*
X185390178Y-103602261D01*
X185247321Y-103649880D01*
X185009226Y-103649880D01*
X186533035Y-102697500D02*
X186437797Y-102649880D01*
X186294940Y-102649880D01*
X186152083Y-102697500D01*
X186056845Y-102792738D01*
X186009226Y-102887976D01*
X185961607Y-103078452D01*
X185961607Y-103221309D01*
X186009226Y-103411785D01*
X186056845Y-103507023D01*
X186152083Y-103602261D01*
X186294940Y-103649880D01*
X186390178Y-103649880D01*
X186533035Y-103602261D01*
X186580654Y-103554642D01*
X186580654Y-103221309D01*
X186390178Y-103221309D01*
X187009226Y-103126071D02*
X187342559Y-103126071D01*
X187485416Y-103649880D02*
X187009226Y-103649880D01*
X187009226Y-102649880D01*
X187485416Y-102649880D01*
X188961607Y-102649880D02*
X188961607Y-103364166D01*
X188913988Y-103507023D01*
X188818750Y-103602261D01*
X188675892Y-103649880D01*
X188580654Y-103649880D01*
X189437797Y-103649880D02*
X189437797Y-102649880D01*
X189818750Y-102649880D01*
X189913988Y-102697500D01*
X189961607Y-102745119D01*
X190009226Y-102840357D01*
X190009226Y-102983214D01*
X189961607Y-103078452D01*
X189913988Y-103126071D01*
X189818750Y-103173690D01*
X189437797Y-103173690D01*
X190961607Y-103649880D02*
X190390178Y-103649880D01*
X190675892Y-103649880D02*
X190675892Y-102649880D01*
X190580654Y-102792738D01*
X190485416Y-102887976D01*
X190390178Y-102935595D01*
X191437797Y-103602261D02*
X191437797Y-103649880D01*
X191390178Y-103745119D01*
X191342559Y-103792738D01*
X192580654Y-102745119D02*
X192628273Y-102697500D01*
X192723511Y-102649880D01*
X192961607Y-102649880D01*
X193056845Y-102697500D01*
X193104464Y-102745119D01*
X193152083Y-102840357D01*
X193152083Y-102935595D01*
X193104464Y-103078452D01*
X192533035Y-103649880D01*
X193152083Y-103649880D01*
X174521130Y-88004166D02*
X174044940Y-88337500D01*
X174521130Y-88575595D02*
X173521130Y-88575595D01*
X173521130Y-88194642D01*
X173568750Y-88099404D01*
X173616369Y-88051785D01*
X173711607Y-88004166D01*
X173854464Y-88004166D01*
X173949702Y-88051785D01*
X173997321Y-88099404D01*
X174044940Y-88194642D01*
X174044940Y-88575595D01*
X173521130Y-87670833D02*
X174521130Y-87004166D01*
X173521130Y-87004166D02*
X174521130Y-87670833D01*
X129080654Y-104587500D02*
X129175892Y-104635119D01*
X129318750Y-104635119D01*
X129461607Y-104587500D01*
X129556845Y-104492261D01*
X129604464Y-104397023D01*
X129652083Y-104206547D01*
X129652083Y-104063690D01*
X129604464Y-103873214D01*
X129556845Y-103777976D01*
X129461607Y-103682738D01*
X129318750Y-103635119D01*
X129223511Y-103635119D01*
X129080654Y-103682738D01*
X129033035Y-103730357D01*
X129033035Y-104063690D01*
X129223511Y-104063690D01*
X128604464Y-103635119D02*
X128604464Y-104635119D01*
X128033035Y-103635119D01*
X128033035Y-104635119D01*
X127556845Y-103635119D02*
X127556845Y-104635119D01*
X127318750Y-104635119D01*
X127175892Y-104587500D01*
X127080654Y-104492261D01*
X127033035Y-104397023D01*
X126985416Y-104206547D01*
X126985416Y-104063690D01*
X127033035Y-103873214D01*
X127080654Y-103777976D01*
X127175892Y-103682738D01*
X127318750Y-103635119D01*
X127556845Y-103635119D01*
X141271130Y-94420833D02*
X140794940Y-94754166D01*
X141271130Y-94992261D02*
X140271130Y-94992261D01*
X140271130Y-94611309D01*
X140318750Y-94516071D01*
X140366369Y-94468452D01*
X140461607Y-94420833D01*
X140604464Y-94420833D01*
X140699702Y-94468452D01*
X140747321Y-94516071D01*
X140794940Y-94611309D01*
X140794940Y-94992261D01*
X141223511Y-94039880D02*
X141271130Y-93897023D01*
X141271130Y-93658928D01*
X141223511Y-93563690D01*
X141175892Y-93516071D01*
X141080654Y-93468452D01*
X140985416Y-93468452D01*
X140890178Y-93516071D01*
X140842559Y-93563690D01*
X140794940Y-93658928D01*
X140747321Y-93849404D01*
X140699702Y-93944642D01*
X140652083Y-93992261D01*
X140556845Y-94039880D01*
X140461607Y-94039880D01*
X140366369Y-93992261D01*
X140318750Y-93944642D01*
X140271130Y-93849404D01*
X140271130Y-93611309D01*
X140318750Y-93468452D01*
X140271130Y-93182738D02*
X140271130Y-92611309D01*
X141271130Y-92897023D02*
X140271130Y-92897023D01*
X140747321Y-91182738D02*
X140794940Y-91039880D01*
X140842559Y-90992261D01*
X140937797Y-90944642D01*
X141080654Y-90944642D01*
X141175892Y-90992261D01*
X141223511Y-91039880D01*
X141271130Y-91135119D01*
X141271130Y-91516071D01*
X140271130Y-91516071D01*
X140271130Y-91182738D01*
X140318750Y-91087500D01*
X140366369Y-91039880D01*
X140461607Y-90992261D01*
X140556845Y-90992261D01*
X140652083Y-91039880D01*
X140699702Y-91087500D01*
X140747321Y-91182738D01*
X140747321Y-91516071D01*
X140271130Y-90658928D02*
X140271130Y-90087500D01*
X141271130Y-90373214D02*
X140271130Y-90373214D01*
X141271130Y-89754166D02*
X140271130Y-89754166D01*
X141271130Y-89182738D01*
X140271130Y-89182738D01*
X143556845Y-84587500D02*
X143461607Y-84539880D01*
X143318750Y-84539880D01*
X143175892Y-84587500D01*
X143080654Y-84682738D01*
X143033035Y-84777976D01*
X142985416Y-84968452D01*
X142985416Y-85111309D01*
X143033035Y-85301785D01*
X143080654Y-85397023D01*
X143175892Y-85492261D01*
X143318750Y-85539880D01*
X143413988Y-85539880D01*
X143556845Y-85492261D01*
X143604464Y-85444642D01*
X143604464Y-85111309D01*
X143413988Y-85111309D01*
X144033035Y-85539880D02*
X144033035Y-84539880D01*
X144604464Y-85539880D01*
X144604464Y-84539880D01*
X145080654Y-85539880D02*
X145080654Y-84539880D01*
X145318750Y-84539880D01*
X145461607Y-84587500D01*
X145556845Y-84682738D01*
X145604464Y-84777976D01*
X145652083Y-84968452D01*
X145652083Y-85111309D01*
X145604464Y-85301785D01*
X145556845Y-85397023D01*
X145461607Y-85492261D01*
X145318750Y-85539880D01*
X145080654Y-85539880D01*
%TO.C,D2*%
X149871130Y-103825595D02*
X148871130Y-103825595D01*
X148871130Y-103587500D01*
X148918750Y-103444642D01*
X149013988Y-103349404D01*
X149109226Y-103301785D01*
X149299702Y-103254166D01*
X149442559Y-103254166D01*
X149633035Y-103301785D01*
X149728273Y-103349404D01*
X149823511Y-103444642D01*
X149871130Y-103587500D01*
X149871130Y-103825595D01*
X148966369Y-102873214D02*
X148918750Y-102825595D01*
X148871130Y-102730357D01*
X148871130Y-102492261D01*
X148918750Y-102397023D01*
X148966369Y-102349404D01*
X149061607Y-102301785D01*
X149156845Y-102301785D01*
X149299702Y-102349404D01*
X149871130Y-102920833D01*
X149871130Y-102301785D01*
D11*
%TO.C,JP1*%
X175402083Y-96563690D02*
X175402083Y-96920833D01*
X175378273Y-96992261D01*
X175330654Y-97039880D01*
X175259226Y-97063690D01*
X175211607Y-97063690D01*
X175640178Y-97063690D02*
X175640178Y-96563690D01*
X175830654Y-96563690D01*
X175878273Y-96587500D01*
X175902083Y-96611309D01*
X175925892Y-96658928D01*
X175925892Y-96730357D01*
X175902083Y-96777976D01*
X175878273Y-96801785D01*
X175830654Y-96825595D01*
X175640178Y-96825595D01*
X176402083Y-97063690D02*
X176116369Y-97063690D01*
X176259226Y-97063690D02*
X176259226Y-96563690D01*
X176211607Y-96635119D01*
X176163988Y-96682738D01*
X176116369Y-96706547D01*
D10*
%TO.C,U1*%
X180271130Y-99436904D02*
X181080654Y-99436904D01*
X181175892Y-99389285D01*
X181223511Y-99341666D01*
X181271130Y-99246428D01*
X181271130Y-99055952D01*
X181223511Y-98960714D01*
X181175892Y-98913095D01*
X181080654Y-98865476D01*
X180271130Y-98865476D01*
X181271130Y-97865476D02*
X181271130Y-98436904D01*
X181271130Y-98151190D02*
X180271130Y-98151190D01*
X180413988Y-98246428D01*
X180509226Y-98341666D01*
X180556845Y-98436904D01*
%TO.C,H2*%
X117306845Y-107289880D02*
X117306845Y-106289880D01*
X117306845Y-106766071D02*
X117878273Y-106766071D01*
X117878273Y-107289880D02*
X117878273Y-106289880D01*
X118306845Y-106385119D02*
X118354464Y-106337500D01*
X118449702Y-106289880D01*
X118687797Y-106289880D01*
X118783035Y-106337500D01*
X118830654Y-106385119D01*
X118878273Y-106480357D01*
X118878273Y-106575595D01*
X118830654Y-106718452D01*
X118259226Y-107289880D01*
X118878273Y-107289880D01*
%TO.C,Q2*%
X157616369Y-91682738D02*
X157568750Y-91777976D01*
X157473511Y-91873214D01*
X157330654Y-92016071D01*
X157283035Y-92111309D01*
X157283035Y-92206547D01*
X157521130Y-92158928D02*
X157473511Y-92254166D01*
X157378273Y-92349404D01*
X157187797Y-92397023D01*
X156854464Y-92397023D01*
X156663988Y-92349404D01*
X156568750Y-92254166D01*
X156521130Y-92158928D01*
X156521130Y-91968452D01*
X156568750Y-91873214D01*
X156663988Y-91777976D01*
X156854464Y-91730357D01*
X157187797Y-91730357D01*
X157378273Y-91777976D01*
X157473511Y-91873214D01*
X157521130Y-91968452D01*
X157521130Y-92158928D01*
X156616369Y-91349404D02*
X156568750Y-91301785D01*
X156521130Y-91206547D01*
X156521130Y-90968452D01*
X156568750Y-90873214D01*
X156616369Y-90825595D01*
X156711607Y-90777976D01*
X156806845Y-90777976D01*
X156949702Y-90825595D01*
X157521130Y-91397023D01*
X157521130Y-90777976D01*
%TO.C,R2*%
X145271130Y-95254166D02*
X144794940Y-95587500D01*
X145271130Y-95825595D02*
X144271130Y-95825595D01*
X144271130Y-95444642D01*
X144318750Y-95349404D01*
X144366369Y-95301785D01*
X144461607Y-95254166D01*
X144604464Y-95254166D01*
X144699702Y-95301785D01*
X144747321Y-95349404D01*
X144794940Y-95444642D01*
X144794940Y-95825595D01*
X144366369Y-94873214D02*
X144318750Y-94825595D01*
X144271130Y-94730357D01*
X144271130Y-94492261D01*
X144318750Y-94397023D01*
X144366369Y-94349404D01*
X144461607Y-94301785D01*
X144556845Y-94301785D01*
X144699702Y-94349404D01*
X145271130Y-94920833D01*
X145271130Y-94301785D01*
%TO.C,J1*%
X159985416Y-104289880D02*
X159985416Y-105004166D01*
X159937797Y-105147023D01*
X159842559Y-105242261D01*
X159699702Y-105289880D01*
X159604464Y-105289880D01*
X160985416Y-105289880D02*
X160413988Y-105289880D01*
X160699702Y-105289880D02*
X160699702Y-104289880D01*
X160604464Y-104432738D01*
X160509226Y-104527976D01*
X160413988Y-104575595D01*
%TO.C,R3*%
X152271130Y-95254166D02*
X151794940Y-95587500D01*
X152271130Y-95825595D02*
X151271130Y-95825595D01*
X151271130Y-95444642D01*
X151318750Y-95349404D01*
X151366369Y-95301785D01*
X151461607Y-95254166D01*
X151604464Y-95254166D01*
X151699702Y-95301785D01*
X151747321Y-95349404D01*
X151794940Y-95444642D01*
X151794940Y-95825595D01*
X151271130Y-94920833D02*
X151271130Y-94301785D01*
X151652083Y-94635119D01*
X151652083Y-94492261D01*
X151699702Y-94397023D01*
X151747321Y-94349404D01*
X151842559Y-94301785D01*
X152080654Y-94301785D01*
X152175892Y-94349404D01*
X152223511Y-94397023D01*
X152271130Y-94492261D01*
X152271130Y-94777976D01*
X152223511Y-94873214D01*
X152175892Y-94920833D01*
%TO.C,H1*%
X169306845Y-107289880D02*
X169306845Y-106289880D01*
X169306845Y-106766071D02*
X169878273Y-106766071D01*
X169878273Y-107289880D02*
X169878273Y-106289880D01*
X170878273Y-107289880D02*
X170306845Y-107289880D01*
X170592559Y-107289880D02*
X170592559Y-106289880D01*
X170497321Y-106432738D01*
X170402083Y-106527976D01*
X170306845Y-106575595D01*
%TO.C,C3*%
X172675892Y-94754166D02*
X172723511Y-94801785D01*
X172771130Y-94944642D01*
X172771130Y-95039880D01*
X172723511Y-95182738D01*
X172628273Y-95277976D01*
X172533035Y-95325595D01*
X172342559Y-95373214D01*
X172199702Y-95373214D01*
X172009226Y-95325595D01*
X171913988Y-95277976D01*
X171818750Y-95182738D01*
X171771130Y-95039880D01*
X171771130Y-94944642D01*
X171818750Y-94801785D01*
X171866369Y-94754166D01*
X171771130Y-94420833D02*
X171771130Y-93801785D01*
X172152083Y-94135119D01*
X172152083Y-93992261D01*
X172199702Y-93897023D01*
X172247321Y-93849404D01*
X172342559Y-93801785D01*
X172580654Y-93801785D01*
X172675892Y-93849404D01*
X172723511Y-93897023D01*
X172771130Y-93992261D01*
X172771130Y-94277976D01*
X172723511Y-94373214D01*
X172675892Y-94420833D01*
%TO.C,Q1*%
X146223511Y-89885119D02*
X146128273Y-89837500D01*
X146033035Y-89742261D01*
X145890178Y-89599404D01*
X145794940Y-89551785D01*
X145699702Y-89551785D01*
X145747321Y-89789880D02*
X145652083Y-89742261D01*
X145556845Y-89647023D01*
X145509226Y-89456547D01*
X145509226Y-89123214D01*
X145556845Y-88932738D01*
X145652083Y-88837500D01*
X145747321Y-88789880D01*
X145937797Y-88789880D01*
X146033035Y-88837500D01*
X146128273Y-88932738D01*
X146175892Y-89123214D01*
X146175892Y-89456547D01*
X146128273Y-89647023D01*
X146033035Y-89742261D01*
X145937797Y-89789880D01*
X145747321Y-89789880D01*
X147128273Y-89789880D02*
X146556845Y-89789880D01*
X146842559Y-89789880D02*
X146842559Y-88789880D01*
X146747321Y-88932738D01*
X146652083Y-89027976D01*
X146556845Y-89075595D01*
%TO.C,R4*%
X154271130Y-85004166D02*
X153794940Y-85337500D01*
X154271130Y-85575595D02*
X153271130Y-85575595D01*
X153271130Y-85194642D01*
X153318750Y-85099404D01*
X153366369Y-85051785D01*
X153461607Y-85004166D01*
X153604464Y-85004166D01*
X153699702Y-85051785D01*
X153747321Y-85099404D01*
X153794940Y-85194642D01*
X153794940Y-85575595D01*
X153604464Y-84147023D02*
X154271130Y-84147023D01*
X153223511Y-84385119D02*
X153937797Y-84623214D01*
X153937797Y-84004166D01*
%TO.C,C2*%
X179855892Y-107754166D02*
X179903511Y-107801785D01*
X179951130Y-107944642D01*
X179951130Y-108039880D01*
X179903511Y-108182738D01*
X179808273Y-108277976D01*
X179713035Y-108325595D01*
X179522559Y-108373214D01*
X179379702Y-108373214D01*
X179189226Y-108325595D01*
X179093988Y-108277976D01*
X178998750Y-108182738D01*
X178951130Y-108039880D01*
X178951130Y-107944642D01*
X178998750Y-107801785D01*
X179046369Y-107754166D01*
X179046369Y-107373214D02*
X178998750Y-107325595D01*
X178951130Y-107230357D01*
X178951130Y-106992261D01*
X178998750Y-106897023D01*
X179046369Y-106849404D01*
X179141607Y-106801785D01*
X179236845Y-106801785D01*
X179379702Y-106849404D01*
X179951130Y-107420833D01*
X179951130Y-106801785D01*
%TO.C,D1*%
X144371130Y-103825595D02*
X143371130Y-103825595D01*
X143371130Y-103587500D01*
X143418750Y-103444642D01*
X143513988Y-103349404D01*
X143609226Y-103301785D01*
X143799702Y-103254166D01*
X143942559Y-103254166D01*
X144133035Y-103301785D01*
X144228273Y-103349404D01*
X144323511Y-103444642D01*
X144371130Y-103587500D01*
X144371130Y-103825595D01*
X144371130Y-102301785D02*
X144371130Y-102873214D01*
X144371130Y-102587500D02*
X143371130Y-102587500D01*
X143513988Y-102682738D01*
X143609226Y-102777976D01*
X143656845Y-102873214D01*
D11*
%TO.C,JP2*%
X177402083Y-96813690D02*
X177402083Y-97170833D01*
X177378273Y-97242261D01*
X177330654Y-97289880D01*
X177259226Y-97313690D01*
X177211607Y-97313690D01*
X177640178Y-97313690D02*
X177640178Y-96813690D01*
X177830654Y-96813690D01*
X177878273Y-96837500D01*
X177902083Y-96861309D01*
X177925892Y-96908928D01*
X177925892Y-96980357D01*
X177902083Y-97027976D01*
X177878273Y-97051785D01*
X177830654Y-97075595D01*
X177640178Y-97075595D01*
X178116369Y-96861309D02*
X178140178Y-96837500D01*
X178187797Y-96813690D01*
X178306845Y-96813690D01*
X178354464Y-96837500D01*
X178378273Y-96861309D01*
X178402083Y-96908928D01*
X178402083Y-96956547D01*
X178378273Y-97027976D01*
X178092559Y-97313690D01*
X178402083Y-97313690D01*
D10*
%TO.C,J3*%
X134211130Y-86420833D02*
X134925416Y-86420833D01*
X135068273Y-86468452D01*
X135163511Y-86563690D01*
X135211130Y-86706547D01*
X135211130Y-86801785D01*
X134211130Y-86039880D02*
X134211130Y-85420833D01*
X134592083Y-85754166D01*
X134592083Y-85611309D01*
X134639702Y-85516071D01*
X134687321Y-85468452D01*
X134782559Y-85420833D01*
X135020654Y-85420833D01*
X135115892Y-85468452D01*
X135163511Y-85516071D01*
X135211130Y-85611309D01*
X135211130Y-85897023D01*
X135163511Y-85992261D01*
X135115892Y-86039880D01*
%TO.C,R5*%
X149771130Y-95254166D02*
X149294940Y-95587500D01*
X149771130Y-95825595D02*
X148771130Y-95825595D01*
X148771130Y-95444642D01*
X148818750Y-95349404D01*
X148866369Y-95301785D01*
X148961607Y-95254166D01*
X149104464Y-95254166D01*
X149199702Y-95301785D01*
X149247321Y-95349404D01*
X149294940Y-95444642D01*
X149294940Y-95825595D01*
X148771130Y-94349404D02*
X148771130Y-94825595D01*
X149247321Y-94873214D01*
X149199702Y-94825595D01*
X149152083Y-94730357D01*
X149152083Y-94492261D01*
X149199702Y-94397023D01*
X149247321Y-94349404D01*
X149342559Y-94301785D01*
X149580654Y-94301785D01*
X149675892Y-94349404D01*
X149723511Y-94397023D01*
X149771130Y-94492261D01*
X149771130Y-94730357D01*
X149723511Y-94825595D01*
X149675892Y-94873214D01*
%TO.C,R1*%
X147771130Y-95254166D02*
X147294940Y-95587500D01*
X147771130Y-95825595D02*
X146771130Y-95825595D01*
X146771130Y-95444642D01*
X146818750Y-95349404D01*
X146866369Y-95301785D01*
X146961607Y-95254166D01*
X147104464Y-95254166D01*
X147199702Y-95301785D01*
X147247321Y-95349404D01*
X147294940Y-95444642D01*
X147294940Y-95825595D01*
X147771130Y-94301785D02*
X147771130Y-94873214D01*
X147771130Y-94587500D02*
X146771130Y-94587500D01*
X146913988Y-94682738D01*
X147009226Y-94777976D01*
X147056845Y-94873214D01*
%TO.C,C1*%
X183675892Y-94754166D02*
X183723511Y-94801785D01*
X183771130Y-94944642D01*
X183771130Y-95039880D01*
X183723511Y-95182738D01*
X183628273Y-95277976D01*
X183533035Y-95325595D01*
X183342559Y-95373214D01*
X183199702Y-95373214D01*
X183009226Y-95325595D01*
X182913988Y-95277976D01*
X182818750Y-95182738D01*
X182771130Y-95039880D01*
X182771130Y-94944642D01*
X182818750Y-94801785D01*
X182866369Y-94754166D01*
X183771130Y-93801785D02*
X183771130Y-94373214D01*
X183771130Y-94087500D02*
X182771130Y-94087500D01*
X182913988Y-94182738D01*
X183009226Y-94277976D01*
X183056845Y-94373214D01*
%TO.C,R6*%
X143271130Y-95254166D02*
X142794940Y-95587500D01*
X143271130Y-95825595D02*
X142271130Y-95825595D01*
X142271130Y-95444642D01*
X142318750Y-95349404D01*
X142366369Y-95301785D01*
X142461607Y-95254166D01*
X142604464Y-95254166D01*
X142699702Y-95301785D01*
X142747321Y-95349404D01*
X142794940Y-95444642D01*
X142794940Y-95825595D01*
X142271130Y-94397023D02*
X142271130Y-94587500D01*
X142318750Y-94682738D01*
X142366369Y-94730357D01*
X142509226Y-94825595D01*
X142699702Y-94873214D01*
X143080654Y-94873214D01*
X143175892Y-94825595D01*
X143223511Y-94777976D01*
X143271130Y-94682738D01*
X143271130Y-94492261D01*
X143223511Y-94397023D01*
X143175892Y-94349404D01*
X143080654Y-94301785D01*
X142842559Y-94301785D01*
X142747321Y-94349404D01*
X142699702Y-94397023D01*
X142652083Y-94492261D01*
X142652083Y-94682738D01*
X142699702Y-94777976D01*
X142747321Y-94825595D01*
X142842559Y-94873214D01*
%TO.C,J4*%
X181291130Y-85420833D02*
X182005416Y-85420833D01*
X182148273Y-85468452D01*
X182243511Y-85563690D01*
X182291130Y-85706547D01*
X182291130Y-85801785D01*
X181624464Y-84516071D02*
X182291130Y-84516071D01*
X181243511Y-84754166D02*
X181957797Y-84992261D01*
X181957797Y-84373214D01*
%TO.C,C4*%
X182175892Y-94754166D02*
X182223511Y-94801785D01*
X182271130Y-94944642D01*
X182271130Y-95039880D01*
X182223511Y-95182738D01*
X182128273Y-95277976D01*
X182033035Y-95325595D01*
X181842559Y-95373214D01*
X181699702Y-95373214D01*
X181509226Y-95325595D01*
X181413988Y-95277976D01*
X181318750Y-95182738D01*
X181271130Y-95039880D01*
X181271130Y-94944642D01*
X181318750Y-94801785D01*
X181366369Y-94754166D01*
X181604464Y-93897023D02*
X182271130Y-93897023D01*
X181223511Y-94135119D02*
X181937797Y-94373214D01*
X181937797Y-93754166D01*
%TO.C,J2*%
X125485416Y-81419880D02*
X125485416Y-82134166D01*
X125437797Y-82277023D01*
X125342559Y-82372261D01*
X125199702Y-82419880D01*
X125104464Y-82419880D01*
X125913988Y-81515119D02*
X125961607Y-81467500D01*
X126056845Y-81419880D01*
X126294940Y-81419880D01*
X126390178Y-81467500D01*
X126437797Y-81515119D01*
X126485416Y-81610357D01*
X126485416Y-81705595D01*
X126437797Y-81848452D01*
X125866369Y-82419880D01*
X126485416Y-82419880D01*
%TO.C,C5*%
X171175892Y-94754166D02*
X171223511Y-94801785D01*
X171271130Y-94944642D01*
X171271130Y-95039880D01*
X171223511Y-95182738D01*
X171128273Y-95277976D01*
X171033035Y-95325595D01*
X170842559Y-95373214D01*
X170699702Y-95373214D01*
X170509226Y-95325595D01*
X170413988Y-95277976D01*
X170318750Y-95182738D01*
X170271130Y-95039880D01*
X170271130Y-94944642D01*
X170318750Y-94801785D01*
X170366369Y-94754166D01*
X170271130Y-93849404D02*
X170271130Y-94325595D01*
X170747321Y-94373214D01*
X170699702Y-94325595D01*
X170652083Y-94230357D01*
X170652083Y-93992261D01*
X170699702Y-93897023D01*
X170747321Y-93849404D01*
X170842559Y-93801785D01*
X171080654Y-93801785D01*
X171175892Y-93849404D01*
X171223511Y-93897023D01*
X171271130Y-93992261D01*
X171271130Y-94230357D01*
X171223511Y-94325595D01*
X171175892Y-94373214D01*
%TO.C,SW1*%
X187985416Y-109792261D02*
X188128273Y-109839880D01*
X188366369Y-109839880D01*
X188461607Y-109792261D01*
X188509226Y-109744642D01*
X188556845Y-109649404D01*
X188556845Y-109554166D01*
X188509226Y-109458928D01*
X188461607Y-109411309D01*
X188366369Y-109363690D01*
X188175892Y-109316071D01*
X188080654Y-109268452D01*
X188033035Y-109220833D01*
X187985416Y-109125595D01*
X187985416Y-109030357D01*
X188033035Y-108935119D01*
X188080654Y-108887500D01*
X188175892Y-108839880D01*
X188413988Y-108839880D01*
X188556845Y-108887500D01*
X188890178Y-108839880D02*
X189128273Y-109839880D01*
X189318750Y-109125595D01*
X189509226Y-109839880D01*
X189747321Y-108839880D01*
X190652083Y-109839880D02*
X190080654Y-109839880D01*
X190366369Y-109839880D02*
X190366369Y-108839880D01*
X190271130Y-108982738D01*
X190175892Y-109077976D01*
X190080654Y-109125595D01*
D12*
%TO.C,D2*%
X150258750Y-103087500D02*
X150258750Y-102437500D01*
X153378750Y-103087500D02*
X153378750Y-103737500D01*
X153378750Y-103087500D02*
X153378750Y-102437500D01*
X150258750Y-103087500D02*
X150258750Y-104762500D01*
%TO.C,JP1*%
X173818750Y-99375000D02*
X173818750Y-97975000D01*
X175118750Y-100075000D02*
X174518750Y-100075000D01*
X174518750Y-97275000D02*
X175118750Y-97275000D01*
X175818750Y-97975000D02*
X175818750Y-99375000D01*
X173818750Y-97975000D02*
G75*
G02*
X174518750Y-97275000I700000J0D01*
G01*
X175118750Y-97275000D02*
G75*
G02*
X175818750Y-97975000I0J-700000D01*
G01*
X174518750Y-100075000D02*
G75*
G02*
X173818750Y-99375000I0J700000D01*
G01*
X175818750Y-99375000D02*
G75*
G02*
X175118750Y-100075000I-700000J0D01*
G01*
%TO.C,U1*%
X173358750Y-98675000D02*
X173358750Y-101435000D01*
X179353750Y-95915000D02*
X179353750Y-94375000D01*
X179778750Y-98675000D02*
X179778750Y-95915000D01*
X173358750Y-101435000D02*
X173783750Y-101435000D01*
X173358750Y-98675000D02*
X173358750Y-95915000D01*
X173358750Y-95915000D02*
X173783750Y-95915000D01*
X179778750Y-95915000D02*
X179353750Y-95915000D01*
X179778750Y-98675000D02*
X179778750Y-101435000D01*
X179778750Y-101435000D02*
X179353750Y-101435000D01*
%TO.C,H2*%
X126318750Y-107687500D02*
X126318750Y-120087500D01*
X126318750Y-120087500D02*
X117318750Y-120087500D01*
X117318750Y-107687500D02*
X126318750Y-107687500D01*
X117318750Y-120087500D02*
X117318750Y-107687500D01*
%TO.C,Q2*%
X153118750Y-92747500D02*
X154518750Y-92747500D01*
X154518750Y-90427500D02*
X152618750Y-90427500D01*
%TO.C,R2*%
X144296250Y-98342224D02*
X144296250Y-97832776D01*
X145341250Y-98342224D02*
X145341250Y-97832776D01*
%TO.C,J1*%
X163223750Y-109837500D02*
X132413750Y-109837500D01*
X163223750Y-119337500D02*
X163223750Y-109837500D01*
X132413750Y-119337500D02*
X163223750Y-119337500D01*
X132413750Y-109837500D02*
X132413750Y-119337500D01*
%TO.C,R3*%
X151296250Y-98342224D02*
X151296250Y-97832776D01*
X152341250Y-98342224D02*
X152341250Y-97832776D01*
%TO.C,H1*%
X178318750Y-120087500D02*
X169318750Y-120087500D01*
X178318750Y-107687500D02*
X178318750Y-120087500D01*
X169318750Y-120087500D02*
X169318750Y-107687500D01*
X169318750Y-107687500D02*
X178318750Y-107687500D01*
%TO.C,C3*%
X176828750Y-91441233D02*
X176828750Y-91733767D01*
X175808750Y-91441233D02*
X175808750Y-91733767D01*
%TO.C,Q1*%
X145618750Y-92747500D02*
X147518750Y-92747500D01*
X147018750Y-90427500D02*
X145618750Y-90427500D01*
%TO.C,R4*%
X153296250Y-87842224D02*
X153296250Y-87332776D01*
X154341250Y-87842224D02*
X154341250Y-87332776D01*
%TO.C,C2*%
X177558750Y-105191233D02*
X177558750Y-105483767D01*
X178578750Y-105191233D02*
X178578750Y-105483767D01*
%TO.C,D1*%
X144758750Y-103087500D02*
X144758750Y-104762500D01*
X147878750Y-103087500D02*
X147878750Y-103737500D01*
X144758750Y-103087500D02*
X144758750Y-102437500D01*
X147878750Y-103087500D02*
X147878750Y-102437500D01*
%TO.C,JP2*%
X176418750Y-98975000D02*
X176418750Y-98375000D01*
X179218750Y-98375000D02*
X179218750Y-98975000D01*
X177118750Y-97675000D02*
X178518750Y-97675000D01*
X178518750Y-99675000D02*
X177118750Y-99675000D01*
X176418750Y-98375000D02*
G75*
G02*
X177118750Y-97675000I700000J0D01*
G01*
X179218750Y-98975000D02*
G75*
G02*
X178518750Y-99675000I-700000J0D01*
G01*
X177118750Y-99675000D02*
G75*
G02*
X176418750Y-98975000I0J700000D01*
G01*
X178518750Y-97675000D02*
G75*
G02*
X179218750Y-98375000I0J-700000D01*
G01*
%TO.C,J3*%
X135758750Y-86087500D02*
X135758750Y-84027500D01*
X141878750Y-88147500D02*
X141878750Y-84027500D01*
X137818750Y-88147500D02*
X137818750Y-86087500D01*
X137818750Y-88147500D02*
X141878750Y-88147500D01*
X136818750Y-88147500D02*
X135758750Y-88147500D01*
X137818750Y-86087500D02*
X135758750Y-86087500D01*
X135758750Y-88147500D02*
X135758750Y-87087500D01*
X135758750Y-84027500D02*
X141878750Y-84027500D01*
%TO.C,R5*%
X148796250Y-98342224D02*
X148796250Y-97832776D01*
X149841250Y-98342224D02*
X149841250Y-97832776D01*
%TO.C,R1*%
X147841250Y-98342224D02*
X147841250Y-97832776D01*
X146796250Y-98342224D02*
X146796250Y-97832776D01*
%TO.C,C1*%
X181078750Y-91733767D02*
X181078750Y-91441233D01*
X180058750Y-91733767D02*
X180058750Y-91441233D01*
%TO.C,R6*%
X142296250Y-98342224D02*
X142296250Y-97832776D01*
X143341250Y-98342224D02*
X143341250Y-97832776D01*
%TO.C,J4*%
X180398750Y-85087500D02*
X180398750Y-86417500D01*
X177798750Y-83757500D02*
X172658750Y-83757500D01*
X180398750Y-86417500D02*
X179068750Y-86417500D01*
X177798750Y-83757500D02*
X177798750Y-86417500D01*
X172658750Y-83757500D02*
X172658750Y-86417500D01*
X177798750Y-86417500D02*
X172658750Y-86417500D01*
%TO.C,C4*%
X179578750Y-91733767D02*
X179578750Y-91441233D01*
X178558750Y-91733767D02*
X178558750Y-91441233D01*
%TO.C,J2*%
X131003750Y-93187500D02*
X120633750Y-93187500D01*
X120633750Y-93187500D02*
X120633750Y-84057500D01*
X130003750Y-83057500D02*
X131003750Y-84057500D01*
X120633750Y-84057500D02*
X121633750Y-83057500D01*
X131003750Y-84057500D02*
X131003750Y-93187500D01*
X121633750Y-83057500D02*
X130003750Y-83057500D01*
%TO.C,C5*%
X175328750Y-91733767D02*
X175328750Y-91441233D01*
X174308750Y-91733767D02*
X174308750Y-91441233D01*
%TO.C,SW1*%
X185818750Y-119437500D02*
X185818750Y-113587500D01*
X192818750Y-113587500D02*
X192818750Y-119437500D01*
X185818750Y-113587500D02*
X192818750Y-113587500D01*
X192818750Y-119437500D02*
X185818750Y-119437500D01*
%TD*%
M02*
